<svg width="77" height="69" viewBox="0 0 77 69" fill="none" xmlns="http://www.w3.org/2000/svg">
<path d="M40.813 26.1074C40.813 28.6786 40.813 31.1703 40.813 33.7581C41.098 33.7581 41.3697 33.7581 41.6414 33.7581C49.4777 33.7581 57.3106 33.7581 65.1469 33.7581C66.9826 33.7581 67.97 34.7521 67.97 36.6043C67.97 39.6262 67.97 42.6447 67.97 45.6666C67.97 45.9217 67.97 46.1735 67.97 46.5016C69.8918 46.5016 71.7539 46.5877 73.6028 46.4751C75.2894 46.3757 76.512 47.7143 76.4921 49.3677C76.4226 54.8415 76.4656 60.3186 76.4656 65.7924C76.4656 67.5751 75.4517 68.5823 73.6558 68.5823C68.1555 68.5823 62.6585 68.5823 57.1582 68.5823C55.4054 68.5823 54.3815 67.5684 54.3815 65.8322C54.3782 60.2855 54.3782 54.7388 54.3815 49.1954C54.3815 47.5387 55.4187 46.5049 57.0687 46.5016C58.9773 46.4983 60.8825 46.5016 62.8341 46.5016C62.8341 43.9403 62.8341 41.432 62.8341 38.884C55.5015 38.884 48.1954 38.884 40.8362 38.884C40.8362 41.3889 40.8362 43.8972 40.8362 46.4684C41.0516 46.4784 41.2802 46.4983 41.5088 46.4983C43.2782 46.5016 45.0476 46.4916 46.8203 46.5016C48.1589 46.5082 49.2722 47.5784 49.2755 48.9204C49.2888 54.656 49.2888 60.3915 49.2755 66.1238C49.2722 67.4955 48.1622 68.579 46.7805 68.5823C41.0913 68.5923 35.4055 68.5923 29.7163 68.5823C28.2882 68.579 27.2014 67.4955 27.2014 66.0741C27.1915 60.3849 27.1915 54.699 27.2014 49.0098C27.2047 47.5884 28.2915 46.5115 29.7196 46.5049C31.6779 46.4916 33.6328 46.5016 35.6407 46.5016C35.6407 43.9569 35.6407 41.4486 35.6407 38.8939C28.3213 38.8939 20.9953 38.8939 13.6329 38.8939C13.6329 41.4055 13.6329 43.8972 13.6329 46.5016C13.8482 46.5016 14.0702 46.5016 14.2956 46.5016C16.0417 46.5016 17.7879 46.4949 19.5341 46.5049C21.002 46.5148 22.0855 47.5851 22.0888 49.0496C22.0954 54.7123 22.0954 60.3783 22.0888 66.0409C22.0855 67.5022 20.9986 68.579 19.5308 68.5857C16.6978 68.5956 13.8681 68.5956 11.0351 68.5857C9.56396 68.5823 8.47052 67.4889 8.4639 66.0509C8.45727 64.6128 9.55071 63.5061 11.0119 63.4995C12.9702 63.4896 14.9284 63.4962 16.9397 63.4962C16.9397 59.5433 16.9397 55.6168 16.9397 51.644C13.0265 51.644 9.10339 51.644 5.09413 51.644C5.09413 51.9025 5.09413 52.1543 5.09413 52.4061C5.09413 56.9621 5.09744 61.5148 5.09082 66.0708C5.0875 67.3597 4.16637 68.4299 2.96027 68.5923C1.60176 68.7712 0.435433 68.0356 0.0842085 66.7533C0.0179397 66.5081 0.00468585 66.2431 0.00468585 65.9846C0.00137241 60.3683 -0.00194095 54.752 0.00137249 49.1325C0.00137249 47.5254 1.05173 46.5016 2.67201 46.5016C4.58055 46.5016 6.48909 46.5016 8.49703 46.5016C8.49703 46.2133 8.49703 45.9648 8.49703 45.713C8.49703 42.6215 8.49372 39.5301 8.49703 36.4387C8.50035 34.772 9.5242 33.7548 11.1875 33.7548C19.0702 33.7548 26.9529 33.7548 34.8356 33.7548C35.0907 33.7548 35.3458 33.7548 35.644 33.7548C35.644 31.1935 35.644 28.6819 35.644 26.104C35.369 26.104 35.1139 26.104 34.8621 26.104C29.8356 26.104 24.8091 26.104 19.7826 26.104C18 26.104 16.996 25.0901 16.996 23.2876C16.996 16.6574 16.996 10.0239 16.996 3.39372C16.996 1.62103 17.99 0.620369 19.7362 0.620369C32.0788 0.620369 44.4214 0.617056 56.7639 0.620369C58.52 0.620369 59.6466 1.81321 59.4809 3.47987C59.3617 4.67933 58.3345 5.66674 57.1218 5.7065C56.4624 5.72969 55.7997 5.71313 55.1403 5.71313C44.4015 5.71313 33.6626 5.71313 22.9271 5.71313C22.6719 5.71313 22.4168 5.71313 22.1252 5.71313C22.1252 10.8125 22.1252 15.8556 22.1252 20.955C32.8309 20.955 43.5532 20.955 54.3782 20.955C54.3782 20.7263 54.3782 20.4778 54.3782 20.2293C54.3782 17.3963 54.3749 14.5666 54.3782 11.7336C54.3815 10.1962 55.4352 9.08952 56.8965 9.07958C58.3875 9.06633 59.4644 10.1863 59.4677 11.7568C59.471 15.6501 59.471 19.5434 59.4677 23.44C59.4644 25.0404 58.4107 26.1007 56.8136 26.104C51.7871 26.1074 46.7606 26.1074 41.7341 26.1074C41.4558 26.1074 41.1742 26.1074 40.813 26.1074ZM32.3174 63.4465C36.3001 63.4465 40.2232 63.4465 44.1298 63.4465C44.1298 59.4704 44.1298 55.5473 44.1298 51.6341C40.1636 51.6341 36.257 51.6341 32.3174 51.6341C32.3174 55.5804 32.3174 59.4869 32.3174 63.4465ZM71.3232 63.4631C71.3232 59.4836 71.3232 55.5572 71.3232 51.6507C67.347 51.6507 63.4239 51.6507 59.5108 51.6507C59.5108 55.6168 59.5108 59.5234 59.5108 63.4631C63.4571 63.4631 67.3636 63.4631 71.3232 63.4631Z" fill="#148481"/>
</svg>
