<svg width="63" height="72" viewBox="0 0 63 72" fill="none" xmlns="http://www.w3.org/2000/svg">
<path d="M1.01183 28.738C1.68915 18.0066 6.83457 10.0426 16.0548 4.65322C19.8602 2.42827 24.0079 1.12825 28.3886 0.760462C38.9088 -0.124421 47.9288 3.12379 55.1353 10.9348C59.2721 15.4175 61.6864 20.7741 62.2982 26.8554C63.041 34.244 60.9035 40.8314 56.3443 46.6323C52.5135 51.5083 47.5647 54.8184 41.6873 56.7557C41.294 56.8868 41.0937 57.0944 40.9372 57.4585C39.5352 60.7176 38.1114 63.9695 36.7057 67.2286C35.759 69.4244 34.0875 70.6261 31.7096 70.6189C29.3572 70.6116 27.7076 69.4026 26.7717 67.2359C25.3953 64.0532 23.9969 60.8815 22.6496 57.6879C22.4129 57.1235 22.0779 56.854 21.5134 56.661C13.3419 53.8352 7.25335 48.6279 3.5281 40.7695C1.79111 37.0916 0.884376 32.5871 1.01183 28.738ZM31.5093 3.8703C30.3659 3.96133 29.0732 3.99411 27.8023 4.17618C20.6905 5.1958 14.591 8.22188 10.05 13.8443C3.69925 21.699 2.45022 30.4277 6.67071 39.648C9.97719 46.869 15.789 51.3918 23.3342 53.7114C24.281 54.0027 24.86 54.5016 25.2423 55.4083C26.7171 58.9042 28.2538 62.3745 29.7578 65.8558C30.1292 66.7152 30.7555 67.2141 31.6841 67.2104C32.5981 67.2104 33.1626 66.6897 33.5231 65.8485C35.0307 62.3235 36.5819 58.8168 38.0822 55.2845C38.4318 54.4579 38.9708 53.9809 39.8301 53.7405C42.8052 52.9139 45.5837 51.6285 48.0672 49.7932C55.616 44.2144 59.5998 36.8695 58.9225 27.3252C58.5984 22.7259 56.9415 18.5746 54.1448 14.9295C48.4823 7.55185 40.8279 4.15433 31.5093 3.8703Z" fill="#148481" stroke="#148481"/>
<path d="M20.6395 40.8896C20.8434 39.6734 21.0728 38.286 21.3095 36.8986C21.488 35.8316 21.6628 34.7646 21.8631 33.705C21.9432 33.2789 21.823 32.9949 21.5062 32.6926C19.9367 31.1996 18.3963 29.6738 16.8378 28.1735C15.8837 27.2559 15.4759 26.1998 15.9347 24.9108C16.379 23.6544 17.3258 23.0864 18.6148 22.9189C20.858 22.6239 23.0975 22.2816 25.3334 21.9211C25.5774 21.881 25.876 21.6371 25.9925 21.404C27.0012 19.4485 27.9844 17.4785 28.9567 15.5011C29.543 14.314 30.4606 13.6148 31.797 13.6221C33.1153 13.6331 33.9892 14.3468 34.55 15.523C35.4968 17.5112 36.4873 19.4776 37.4414 21.4659C37.6271 21.8519 37.8383 22.0376 38.2971 22.0959C40.6058 22.3872 42.9072 22.704 45.205 23.0682C46.3557 23.2502 47.0913 24.0186 47.4555 25.0965C47.8378 26.2363 47.5065 27.2486 46.6798 28.0716C45.0594 29.6884 43.417 31.2834 41.7565 32.8601C41.3887 33.2097 41.2649 33.5229 41.3596 34.0181C41.7675 36.1193 42.1243 38.2313 42.5322 40.3325C42.7798 41.6179 42.4775 42.7031 41.4215 43.4897C40.3764 44.2726 39.2548 44.3053 38.0896 43.679C36.0612 42.5866 34.0074 41.5342 31.9755 40.4454C31.6514 40.2742 31.4183 40.2596 31.0833 40.4417C29.055 41.5342 27.0194 42.623 24.9656 43.6681C22.9628 44.6841 20.6213 43.2602 20.6395 40.8896ZM19.4924 26.0542C19.4524 26.1197 19.4123 26.1889 19.3723 26.2545C19.5398 26.371 19.7255 26.4693 19.8712 26.6113C21.3278 28.0169 22.7625 29.4408 24.2337 30.8318C25.0421 31.5965 25.3953 32.4669 25.1695 33.5812C24.9583 34.619 24.7981 35.6677 24.616 36.7128C24.4048 37.9255 24.2009 39.1381 23.9751 40.4527C24.2628 40.3106 24.4412 40.2269 24.6197 40.1322C26.4805 39.1599 28.3413 38.184 30.2057 37.2117C31.0433 36.7747 31.8808 36.7711 32.722 37.2154C34.6156 38.2168 36.5164 39.2036 38.4136 40.1977C38.603 40.2961 38.7996 40.3835 39.0363 40.5C39.0363 40.3179 39.0509 40.2159 39.0327 40.1176C38.6904 38.0675 38.3699 36.01 37.9876 33.9671C37.7691 32.8019 38.0276 31.8551 38.9089 31.0321C40.1179 29.9032 41.2722 28.7125 42.4557 27.5545C42.8745 27.143 43.3187 26.757 43.814 26.2982C43.5481 26.2144 43.4353 26.1598 43.3187 26.1452C41.5235 25.883 39.7319 25.5589 37.9257 25.3914C36.2215 25.2348 35.0453 24.5612 34.3607 22.9043C33.6469 21.1746 32.7256 19.5286 31.8917 17.8463C31.808 17.6787 31.7096 17.5222 31.5858 17.3073C31.4584 17.5549 31.3673 17.737 31.2763 17.9154C30.3514 19.7799 29.4264 21.6407 28.5088 23.5051C28.09 24.3536 27.4345 24.8853 26.5023 25.0346C25.4572 25.2021 24.4048 25.3441 23.3561 25.497C22.0633 25.6828 20.7779 25.8685 19.4924 26.0542Z" fill="#148481" stroke="#148481"/>
</svg>
