<svg width="72" height="72" viewBox="0 0 72 72" fill="none" xmlns="http://www.w3.org/2000/svg">
<path d="M3.91468 12.288C4.23774 12.288 4.48785 12.288 4.73587 12.288C24.3152 12.288 43.8965 12.288 63.4758 12.288C64.5596 12.288 65.2099 12.8841 65.1661 13.8303C65.1328 14.5536 64.5533 15.1476 63.826 15.1955C63.6509 15.208 63.4758 15.1997 63.3007 15.1997C43.1566 15.1997 23.0125 15.1997 2.8684 15.1997C1.4532 15.1997 1.00093 14.7411 1.00093 13.3072C1.00093 10.5664 0.998842 7.82357 1.00093 5.0828C1.00509 2.51503 2.88716 0.62046 5.44659 0.62046C25.8429 0.618375 46.2413 0.618375 66.6376 0.62046C69.0782 0.62046 70.9999 2.54421 70.9999 4.98693C71.002 25.4041 71.002 45.8191 70.9999 66.2363C70.9999 68.7103 69.0782 70.6173 66.5917 70.6173C46.1954 70.6194 25.797 70.6194 5.40074 70.6173C2.94343 70.6173 1.00301 68.7123 1.00301 66.2863C1.00093 50.7713 1.00093 35.2542 1.00301 19.7391C1.00301 18.8679 1.47822 18.2406 2.20978 18.1322C2.94135 18.0238 3.64582 18.4365 3.8459 19.1389C3.91885 19.3931 3.91052 19.6766 3.91052 19.9455C3.9126 35.2083 3.9126 50.4732 3.9126 65.7361C3.9126 67.2284 4.40031 67.7098 5.90721 67.7098C25.9742 67.7098 46.0391 67.7098 66.1061 67.7098C67.6026 67.7098 68.0882 67.2221 68.0882 65.7215C68.0882 45.6545 68.0882 25.5896 68.0882 5.52258C68.0882 4.01776 67.6068 3.53422 66.1082 3.53422C46.0412 3.53422 25.9763 3.53422 5.90929 3.53422C4.40031 3.53422 3.9126 4.01568 3.9126 5.5059C3.91468 7.73811 3.91468 9.97241 3.91468 12.288Z" fill="#148481" stroke="#148481"/>
<path d="M35.9701 41.4509C27.0774 41.4509 18.1866 41.4509 9.2939 41.4509C8.05632 41.4509 7.5625 40.9527 7.5625 39.702C7.5625 33.09 7.5625 26.478 7.5625 19.8659C7.5625 18.6403 8.06241 18.1191 9.23903 18.1191C27.0794 18.1191 44.9198 18.1191 62.7621 18.1191C63.9388 18.1191 64.4387 18.6403 64.4387 19.868C64.4387 26.48 64.4387 33.0921 64.4387 39.7041C64.4387 40.9527 63.9428 41.453 62.7032 41.453C53.7922 41.4509 44.8811 41.4509 35.9701 41.4509ZM10.4258 38.4951C27.5041 38.4951 44.5357 38.4951 61.551 38.4951C61.551 32.6522 61.551 26.849 61.551 21.0604C44.4869 21.0604 27.4696 21.0604 10.4258 21.0604C10.4258 26.8803 10.4258 32.6689 10.4258 38.4951Z" fill="#148481" stroke="#148481"/>
<path d="M21.3882 64.7868C17.3229 64.7868 13.2595 64.7868 9.19418 64.7868C8.06547 64.7868 7.5625 64.2657 7.5625 63.0943C7.5625 57.4163 7.5625 51.7362 7.5625 46.0581C7.5625 44.9117 8.06745 44.3718 9.14072 44.3698C17.3249 44.3698 25.509 44.3698 33.6932 44.3698C34.7625 44.3698 35.2714 44.9138 35.2714 46.0602C35.2714 51.7382 35.2714 57.4183 35.2714 63.0964C35.2714 64.2657 34.7665 64.7868 33.6358 64.7868C29.5546 64.7868 25.4714 64.7868 21.3882 64.7868ZM10.3704 47.3088C10.3704 52.1843 10.3704 57.0119 10.3704 61.8269C17.7684 61.8269 25.1269 61.8269 32.4754 61.8269C32.4754 56.966 32.4754 52.151 32.4754 47.3088C25.1011 47.3088 17.7566 47.3088 10.3704 47.3088Z" fill="#148481" stroke="#148481"/>
<path d="M52.0904 44.3703C55.7247 44.3703 59.359 44.3682 62.9953 44.3724C63.6702 44.3724 64.1897 44.7688 64.3766 45.3968C64.5478 45.9789 64.3609 46.6633 63.8631 46.995C63.6132 47.1598 63.2865 47.2725 62.9933 47.2746C55.6873 47.2892 48.3813 47.2871 41.0752 47.285C40.2212 47.285 39.6349 46.6612 39.6467 45.7974C39.6585 44.9691 40.2448 44.3744 41.0772 44.3724C44.7469 44.3682 48.4186 44.3703 52.0904 44.3703Z" fill="#148481" stroke="#148481"/>
<path d="M51.2627 58.9524C47.4151 58.9524 43.5674 58.9545 39.7177 58.9503C39.0032 58.9503 38.4512 58.554 38.2553 57.9261C38.072 57.342 38.2699 56.6599 38.797 56.3261C39.0594 56.1592 39.4073 56.0486 39.7177 56.0486C47.4526 56.034 55.1874 56.0361 62.9223 56.0382C63.8264 56.0382 64.4513 56.6619 64.4388 57.5214C64.4263 58.3454 63.8014 58.9483 62.9244 58.9483C59.0351 58.9566 55.1499 58.9524 51.2627 58.9524Z" fill="#148481" stroke="#148481"/>
<path d="M47.7271 50.2064C50.0802 50.2064 52.4333 50.2043 54.7843 50.2064C55.7639 50.2064 56.4038 50.7692 56.4163 51.6321C56.4288 52.5283 55.7868 53.116 54.7822 53.116C50.0385 53.1181 45.2927 53.1181 40.549 53.116C39.5465 53.116 38.9066 52.5283 38.9191 51.63C38.9316 50.7671 39.5694 50.2064 40.5511 50.2043C42.9459 50.2064 45.3365 50.2064 47.7271 50.2064Z" fill="#148481" stroke="#148481"/>
<path d="M47.6903 61.8739C50.0621 61.8739 52.434 61.8718 54.8058 61.8739C55.775 61.8739 56.4128 62.4512 56.4169 63.3204C56.4211 64.1916 55.7813 64.7835 54.8225 64.7835C50.058 64.7856 45.2955 64.7856 40.5309 64.7835C39.5618 64.7835 38.924 64.2041 38.9219 63.3349C38.9177 62.4617 39.5534 61.8739 40.5163 61.8718C42.9069 61.8718 45.2996 61.8739 47.6903 61.8739Z" fill="#148481" stroke="#148481"/>
<path d="M12.688 9.36603C11.8648 9.37437 11.1936 8.72409 11.1895 7.91541C11.1853 7.10881 11.8523 6.4502 12.6755 6.45437C13.4738 6.45645 14.1178 7.07963 14.1449 7.87373C14.172 8.67407 13.5051 9.35769 12.688 9.36603Z" fill="#148481" stroke="#148481"/>
<path d="M9.74863 7.92365C9.74238 8.75317 9.08585 9.38469 8.24799 9.36593C7.44556 9.34718 6.83071 8.70732 6.83696 7.89447C6.84321 7.06286 7.49558 6.43551 8.33552 6.45427C9.13795 6.47094 9.75489 7.11288 9.74863 7.92365Z" fill="#148481" stroke="#148481"/>
<path d="M18.4986 7.91504C18.4944 8.74665 17.8421 9.38026 17.0063 9.36358C16.2018 9.34899 15.5848 8.7133 15.5869 7.90045C15.589 7.06675 16.2372 6.43732 17.0792 6.45191C17.8837 6.46858 18.5028 7.10427 18.4986 7.91504Z" fill="#148481" stroke="#148481"/>
<path d="M9.77441 21.0647V38.4972H62.2095V21.0647H9.77441Z" stroke="#148481"/>
</svg>
