<svg width="57" height="71" viewBox="0 0 57 71" fill="none" xmlns="http://www.w3.org/2000/svg">
<path d="M9.5353 20.4808C7.27981 20.4808 5.02433 20.4854 2.76884 20.4785C1.13251 20.4738 0.00476461 19.2973 0.00255334 17.5865C0.000342083 12.8894 -0.00186918 8.19223 0.00255334 3.4951C0.00476461 1.79123 1.13472 0.621555 2.78211 0.621555C7.27318 0.619253 11.7665 0.61695 16.2575 0.621555C17.8762 0.623858 19.0725 1.86952 19.0725 3.56417C19.0769 8.2613 19.0769 12.9584 19.0725 17.6556C19.0703 19.2788 17.9182 20.4738 16.3615 20.4785C14.0861 20.4854 11.8107 20.4808 9.5353 20.4808ZM8.31026 10.748C7.89676 10.2944 7.53411 9.87076 7.14492 9.47473C6.4926 8.807 5.58598 8.76555 4.98452 9.3527C4.38305 9.94214 4.38969 10.9552 5.02653 11.6552C5.74077 12.4404 6.46828 13.2117 7.20021 13.9785C7.9056 14.7153 8.76357 14.7176 9.48223 13.9761C10.82 12.5992 12.1446 11.2085 13.4736 9.82241C13.6527 9.63591 13.8406 9.45401 14.0109 9.25599C14.4974 8.69187 14.5947 8.05408 14.2961 7.45312C13.991 6.84065 13.3652 6.47685 12.6753 6.63573C12.337 6.71401 11.9898 6.93736 11.7355 7.19293C10.5967 8.33729 9.49108 9.51848 8.31026 10.748Z" fill="#148481"/>
<path d="M0.00294213 35.6313C0.00294213 33.2804 0.000733026 30.9319 0.00515555 28.581C0.00736681 26.9992 0.980311 25.8802 2.49502 25.7098C2.66971 25.689 2.84662 25.6867 3.02352 25.6867C7.3598 25.6844 11.6961 25.6821 16.0324 25.6867C17.5957 25.689 18.6483 26.4581 18.9955 27.8534C19.0574 28.1067 19.0729 28.3761 19.0729 28.6409C19.0773 33.3196 19.0773 37.9983 19.0751 42.677C19.0751 44.3694 17.9429 45.5851 16.3088 45.592C11.7956 45.6081 7.28242 45.6081 2.76923 45.592C1.1329 45.5874 0.00515339 44.374 0.00294213 42.6816C-0.00148039 40.3307 0.00294213 37.9799 0.00294213 35.6313ZM15.2031 29.6632C11.413 29.6632 7.66054 29.6632 3.86822 29.6632C3.86822 33.6097 3.86822 37.5171 3.86822 41.4659C7.65832 41.4659 11.4108 41.4659 15.2031 41.4659C15.2031 37.5194 15.2031 33.6097 15.2031 29.6632Z" fill="#148481"/>
<path d="M0.00318998 60.6551C0.00318998 58.348 0.00318998 56.0386 0.00318998 53.7315C0.00318998 51.8664 1.08892 50.7129 2.8911 50.706C5.87188 50.6922 8.85487 50.7014 11.8357 50.7014C13.2486 50.7014 14.6594 50.6945 16.0724 50.7037C17.9321 50.7175 19.0731 51.9171 19.0731 53.8466C19.0731 58.4424 19.0753 63.0382 19.0731 67.6341C19.0731 69.4047 17.9476 70.6066 16.2493 70.6112C11.7759 70.6227 7.30477 70.6204 2.83139 70.6112C1.12651 70.6066 0.00318782 69.4116 0.000976562 67.6433C0.000976562 65.3108 0.00318998 62.983 0.00318998 60.6551ZM3.86847 54.7147C3.86847 58.6589 3.86847 62.5501 3.86847 66.4598C7.67184 66.4598 11.4398 66.4598 15.1946 66.4598C15.1946 62.5133 15.1946 58.6243 15.1946 54.7147C11.4089 54.7147 7.66963 54.7147 3.86847 54.7147Z" fill="#148481"/>
<path d="M40.068 8.21091C35.2608 8.21091 30.4513 8.21551 25.644 8.2086C24.1934 8.2063 23.2536 6.94683 23.6892 5.58604C23.959 4.74332 24.5649 4.31275 25.3963 4.20453C25.5135 4.18841 25.6307 4.19532 25.7501 4.19532C35.2873 4.19532 44.8267 4.19532 54.3638 4.19532C55.5844 4.19532 56.4358 4.9091 56.522 5.98437C56.626 7.25997 55.7746 8.2063 54.4943 8.2063C49.8816 8.21321 45.2711 8.2086 40.6584 8.2086C40.4594 8.21321 40.2626 8.21321 40.068 8.21091Z" fill="#148481"/>
<path d="M40.024 58.3711C35.1968 58.3711 30.3696 58.3734 25.5425 58.3688C24.5231 58.3688 23.7889 57.7172 23.6032 56.6834C23.4462 55.8061 23.9636 54.8367 24.8105 54.5397C25.1732 54.4131 25.58 54.3831 25.9648 54.3831C35.345 54.3739 44.7251 54.3762 54.1031 54.3762C54.28 54.3762 54.4569 54.3693 54.6338 54.3831C55.8102 54.4729 56.5687 55.3295 56.52 56.513C56.4758 57.5929 55.6421 58.3688 54.5056 58.3688C49.6784 58.3734 44.8512 58.3711 40.024 58.3711Z" fill="#148481"/>
<path d="M40.0991 29.3153C44.9263 29.3153 49.7535 29.313 54.5807 29.3176C55.5404 29.3176 56.3187 29.9646 56.4979 30.881C56.6836 31.8227 56.217 32.7783 55.3568 33.1213C55.0539 33.2434 54.7089 33.2963 54.3817 33.2963C44.8246 33.3055 35.2697 33.3055 25.7127 33.3009C24.5252 33.3009 23.7469 32.6286 23.5876 31.5303C23.4572 30.63 24.0365 29.6883 24.9233 29.4097C25.1798 29.3291 25.4628 29.3199 25.7326 29.3176C30.5244 29.313 35.3118 29.3153 40.0991 29.3153Z" fill="#148481"/>
<path d="M34.7355 62.9208C37.7738 62.9208 40.8143 62.9162 43.8526 62.9254C44.7968 62.9277 45.5 63.5194 45.7388 64.4542C45.951 65.29 45.5862 66.241 44.8277 66.6393C44.4916 66.8166 44.0825 66.9202 43.7044 66.9225C37.7053 66.9386 31.7061 66.9363 25.7047 66.9317C24.4598 66.9317 23.5642 66.0637 23.5753 64.9032C23.5864 63.7312 24.4664 62.9208 25.7357 62.9185C28.7364 62.9185 31.7371 62.9185 34.7355 62.9208Z" fill="#148481"/>
<path d="M34.6713 41.8183C31.6684 41.8183 28.6655 41.8206 25.6626 41.8183C24.4398 41.8183 23.573 40.9871 23.5752 39.8289C23.5796 38.7076 24.4288 37.8349 25.6118 37.8326C31.6574 37.8188 37.703 37.8188 43.7463 37.8326C44.9692 37.8349 45.8161 38.7145 45.7962 39.8704C45.7763 41.0331 44.9249 41.8183 43.6778 41.8183C40.6771 41.8183 37.6742 41.8183 34.6713 41.8183Z" fill="#148481"/>
<path d="M34.6807 12.7581C37.6836 12.7581 40.6865 12.7558 43.6894 12.7581C44.9343 12.7581 45.7834 13.5502 45.7989 14.7152C45.8144 15.8711 44.9697 16.7392 43.738 16.7415C37.7123 16.7553 31.6866 16.753 25.6609 16.7438C24.5155 16.7415 23.7504 16.0599 23.5912 14.9823C23.4585 14.0844 24.0357 13.138 24.918 12.8548C25.1546 12.7788 25.4177 12.765 25.6698 12.7627C28.6749 12.7558 31.6778 12.7581 34.6807 12.7581Z" fill="#148481"/>
</svg>
