<svg width="754" height="739" viewBox="0 0 754 739" fill="none" xmlns="http://www.w3.org/2000/svg">
<path fill-rule="evenodd" clip-rule="evenodd" d="M-299.181 442.072C-346.734 311.307 -414.662 151.664 -300.241 52.8492C-186.23 -45.6109 6.38963 20.7242 170.529 36.4278C321.533 50.8748 483.454 45.4344 586.191 137.656C707.069 246.162 798.052 403.357 731.55 540.028C667.763 671.118 466.532 697.863 298.926 728.024C171.029 751.039 42.6149 738.495 -70.586 684.374C-183.614 630.336 -261.7 545.142 -299.181 442.072Z" fill="#92C3E6" fill-opacity="0.1"/>
<path d="M87.5 141.5H310.5V182.5H87.5V141.5Z" fill="white"/>
<path d="M87.5 141.5H310.5V182.5H87.5V141.5Z" stroke="#636363"/>
<path d="M107.102 167V155.727H108.914L114.406 163.625H114.453V155.727H116.453V167H114.656L109.148 159.07H109.109V167H107.102ZM123.891 167.164C121.406 167.164 119.906 165.516 119.906 162.883V162.875C119.906 160.266 121.43 158.547 123.797 158.547C126.164 158.547 127.633 160.211 127.633 162.711V163.336H121.836C121.867 164.789 122.664 165.648 123.93 165.648C124.898 165.648 125.531 165.133 125.719 164.578L125.734 164.523H127.555L127.531 164.609C127.273 165.883 126.055 167.164 123.891 167.164ZM123.82 160.07C122.789 160.07 122.016 160.766 121.859 162.039H125.742C125.602 160.727 124.852 160.07 123.82 160.07ZM132.477 167L130.234 158.719H132.188L133.586 165.078H133.625L135.242 158.719H137.109L138.727 165.078H138.773L140.172 158.719H142.094L139.852 167H137.805L136.172 160.945H136.133L134.508 167H132.477ZM150.461 167V155.727H154.805C157.086 155.727 158.641 157.234 158.641 159.492V159.508C158.641 161.758 157.086 163.273 154.805 163.273H152.477V167H150.461ZM154.305 157.375H152.477V161.648H154.305C155.75 161.648 156.594 160.867 156.594 159.516V159.5C156.594 158.148 155.75 157.375 154.305 157.375ZM161.977 167V155.727H163.922V167H161.977ZM170.023 167.141C168.367 167.141 167.25 166.117 167.25 164.641V164.625C167.25 163.156 168.391 162.273 170.398 162.148L172.562 162.016V161.445C172.562 160.609 172.016 160.102 171.031 160.102C170.109 160.102 169.547 160.531 169.422 161.141L169.406 161.211H167.602L167.609 161.117C167.727 159.648 169 158.547 171.102 158.547C173.172 158.547 174.508 159.641 174.508 161.305V167H172.562V165.727H172.516C172.039 166.594 171.117 167.141 170.023 167.141ZM169.188 164.562C169.188 165.242 169.75 165.656 170.602 165.656C171.719 165.656 172.562 164.914 172.562 163.93V163.305L170.672 163.422C169.711 163.484 169.188 163.898 169.188 164.555V164.562ZM178.078 167V158.719H180.023V160.016H180.062C180.492 159.125 181.336 158.547 182.594 158.547C184.414 158.547 185.453 159.719 185.453 161.641V167H183.508V162.031C183.508 160.852 182.961 160.188 181.852 160.188C180.734 160.188 180.023 161 180.023 162.195V167H178.078ZM197.102 167V157.648H197.055L194.141 159.648V157.797L197.086 155.727H199.078V167H197.102Z" fill="#636363"/>
<path d="M87.5 141.5H310.5V180C310.5 181.381 309.381 182.5 308 182.5H90C88.6193 182.5 87.5 181.381 87.5 180V141.5Z" fill="white"/>
<path d="M87.5 141.5H310.5V180C310.5 181.381 309.381 182.5 308 182.5H90C88.6193 182.5 87.5 181.381 87.5 180V141.5Z" stroke="#636363"/>
<path d="M110.961 167.195C107.664 167.195 105.609 164.953 105.609 161.367V161.352C105.609 157.773 107.68 155.531 110.961 155.531C114.25 155.531 116.305 157.773 116.305 161.352V161.367C116.305 164.953 114.258 167.195 110.961 167.195ZM110.961 165.445C113 165.445 114.258 163.852 114.258 161.367V161.352C114.258 158.852 112.977 157.281 110.961 157.281C108.953 157.281 107.664 158.844 107.664 161.352V161.367C107.664 163.875 108.945 165.445 110.961 165.445ZM119.719 167V158.719H121.664V160.148H121.703C121.961 159.148 122.648 158.547 123.602 158.547C123.844 158.547 124.07 158.586 124.219 158.625V160.383C124.055 160.32 123.758 160.273 123.43 160.273C122.328 160.273 121.664 160.969 121.664 162.195V167H119.719ZM128.25 157.531C127.641 157.531 127.164 157.047 127.164 156.469C127.164 155.875 127.641 155.398 128.25 155.398C128.859 155.398 129.328 155.875 129.328 156.469C129.328 157.047 128.859 157.531 128.25 157.531ZM127.273 167V158.719H129.219V167H127.273ZM136.609 169.898C134.414 169.898 133.031 168.898 132.797 167.602L132.781 167.531H134.695L134.719 167.594C134.93 168.07 135.594 168.43 136.609 168.43C137.875 168.43 138.57 167.758 138.57 166.703V165.508H138.531C138.07 166.391 137.133 166.953 135.945 166.953C133.867 166.953 132.531 165.359 132.531 162.781V162.773C132.531 160.156 133.883 158.547 135.977 158.547C137.148 158.547 138.055 159.172 138.523 160.125H138.57V158.719H140.516V166.766C140.516 168.641 139.008 169.898 136.609 169.898ZM136.555 165.453C137.766 165.453 138.578 164.43 138.578 162.82V162.812C138.578 161.211 137.758 160.188 136.555 160.188C135.305 160.188 134.516 161.195 134.516 162.805V162.812C134.516 164.445 135.305 165.453 136.555 165.453ZM145.141 157.531C144.531 157.531 144.055 157.047 144.055 156.469C144.055 155.875 144.531 155.398 145.141 155.398C145.75 155.398 146.219 155.875 146.219 156.469C146.219 157.047 145.75 157.531 145.141 157.531ZM144.164 167V158.719H146.109V167H144.164ZM149.766 167V158.719H151.711V160.016H151.75C152.18 159.125 153.023 158.547 154.281 158.547C156.102 158.547 157.141 159.719 157.141 161.641V167H155.195V162.031C155.195 160.852 154.648 160.188 153.539 160.188C152.422 160.188 151.711 161 151.711 162.195V167H149.766ZM163.148 167.141C161.492 167.141 160.375 166.117 160.375 164.641V164.625C160.375 163.156 161.516 162.273 163.523 162.148L165.688 162.016V161.445C165.688 160.609 165.141 160.102 164.156 160.102C163.234 160.102 162.672 160.531 162.547 161.141L162.531 161.211H160.727L160.734 161.117C160.852 159.648 162.125 158.547 164.227 158.547C166.297 158.547 167.633 159.641 167.633 161.305V167H165.688V165.727H165.641C165.164 166.594 164.242 167.141 163.148 167.141ZM162.312 164.562C162.312 165.242 162.875 165.656 163.727 165.656C164.844 165.656 165.688 164.914 165.688 163.93V163.305L163.797 163.422C162.836 163.484 162.312 163.898 162.312 164.555V164.562ZM171.258 167V155.727H173.203V167H171.258ZM187.164 167.195C183.922 167.195 181.875 164.961 181.875 161.359V161.352C181.875 157.75 183.93 155.531 187.164 155.531C189.758 155.531 191.664 157.148 191.961 159.445L191.969 159.523H189.992L189.953 159.375C189.625 158.086 188.633 157.281 187.164 157.281C185.195 157.281 183.938 158.852 183.938 161.352V161.359C183.938 163.867 185.203 165.445 187.164 165.445C188.602 165.445 189.609 164.672 189.977 163.281L190 163.203H191.977L191.961 163.281C191.672 165.594 189.758 167.195 187.164 167.195ZM199.469 167.195C196.883 167.195 195.18 165.977 195.047 163.953L195.039 163.836H196.969L196.984 163.93C197.133 164.898 198.125 165.5 199.539 165.5C200.961 165.5 201.852 164.867 201.852 163.898V163.891C201.852 163.047 201.266 162.594 199.812 162.289L198.602 162.039C196.383 161.578 195.289 160.547 195.289 158.867V158.859C195.297 156.875 197.039 155.531 199.469 155.531C201.93 155.531 203.539 156.828 203.656 158.758L203.664 158.891H201.734L201.719 158.797C201.586 157.812 200.719 157.227 199.453 157.227C198.133 157.234 197.312 157.852 197.312 158.75V158.758C197.312 159.555 197.93 160.023 199.289 160.305L200.508 160.555C202.852 161.039 203.875 161.992 203.875 163.75V163.758C203.875 165.859 202.219 167.195 199.469 167.195Z" fill="#636363"/>
<path d="M87.5 182.5H310.5V221C310.5 222.381 309.381 223.5 308 223.5H90C88.6193 223.5 87.5 222.381 87.5 221V182.5Z" fill="white"/>
<path d="M87.5 182.5H310.5V221C310.5 222.381 309.381 223.5 308 223.5H90C88.6193 223.5 87.5 222.381 87.5 221V182.5Z" stroke="#636363"/>
<path d="M110.953 208.195C108.367 208.195 106.664 206.977 106.531 204.953L106.523 204.836H108.453L108.469 204.93C108.617 205.898 109.609 206.5 111.023 206.5C112.445 206.5 113.336 205.867 113.336 204.898V204.891C113.336 204.047 112.75 203.594 111.297 203.289L110.086 203.039C107.867 202.578 106.773 201.547 106.773 199.867V199.859C106.781 197.875 108.523 196.531 110.953 196.531C113.414 196.531 115.023 197.828 115.141 199.758L115.148 199.891H113.219L113.203 199.797C113.07 198.812 112.203 198.227 110.938 198.227C109.617 198.234 108.797 198.852 108.797 199.75V199.758C108.797 200.555 109.414 201.023 110.773 201.305L111.992 201.555C114.336 202.039 115.359 202.992 115.359 204.75V204.758C115.359 206.859 113.703 208.195 110.953 208.195ZM121.75 208.164C120.016 208.164 119.195 207.461 119.195 205.758V201.219H118.023V199.719H119.195V197.617H121.172V199.719H122.711V201.219H121.172V205.594C121.172 206.406 121.531 206.664 122.242 206.664C122.43 206.664 122.578 206.641 122.711 206.633V208.094C122.484 208.125 122.141 208.164 121.75 208.164ZM128.867 208.164C127.047 208.164 126.008 206.992 126.008 205.07V199.719H127.953V204.688C127.953 205.859 128.5 206.523 129.609 206.523C130.727 206.523 131.438 205.719 131.438 204.516V199.719H133.383V208H131.438V206.703H131.398C130.969 207.586 130.117 208.164 128.867 208.164ZM140.062 208.164C137.969 208.164 136.641 206.523 136.641 203.859V203.852C136.641 201.18 137.977 199.547 140.055 199.547C141.227 199.547 142.172 200.148 142.641 201.141H142.688V196.727H144.633V208H142.688V206.594H142.641C142.172 207.57 141.258 208.164 140.062 208.164ZM140.648 206.523C141.852 206.523 142.688 205.484 142.688 203.859V203.852C142.688 202.234 141.844 201.188 140.648 201.188C139.406 201.188 138.625 202.203 138.625 203.852V203.859C138.625 205.508 139.398 206.523 140.648 206.523ZM149.375 210.75C149 210.75 148.609 210.703 148.375 210.664V209.18C148.523 209.211 148.75 209.25 149.023 209.25C149.766 209.25 150.18 209.039 150.43 208.344L150.547 208.008L147.57 199.719H149.695L151.633 206.344H151.688L153.633 199.719H155.68L152.703 208.281C152.07 210.102 151.102 210.75 149.375 210.75ZM166.227 208.141C164.57 208.141 163.453 207.117 163.453 205.641V205.625C163.453 204.156 164.594 203.273 166.602 203.148L168.766 203.016V202.445C168.766 201.609 168.219 201.102 167.234 201.102C166.312 201.102 165.75 201.531 165.625 202.141L165.609 202.211H163.805L163.812 202.117C163.93 200.648 165.203 199.547 167.305 199.547C169.375 199.547 170.711 200.641 170.711 202.305V208H168.766V206.727H168.719C168.242 207.594 167.32 208.141 166.227 208.141ZM165.391 205.562C165.391 206.242 165.953 206.656 166.805 206.656C167.922 206.656 168.766 205.914 168.766 204.93V204.305L166.875 204.422C165.914 204.484 165.391 204.898 165.391 205.555V205.562ZM178.906 208.164C177.711 208.164 176.797 207.57 176.328 206.594H176.281V208H174.336V196.727H176.281V201.141H176.328C176.797 200.148 177.742 199.547 178.914 199.547C180.992 199.547 182.328 201.18 182.328 203.852V203.859C182.328 206.523 181 208.164 178.906 208.164ZM178.32 206.523C179.57 206.523 180.344 205.508 180.344 203.859V203.852C180.344 202.203 179.562 201.188 178.32 201.188C177.125 201.188 176.281 202.234 176.281 203.852V203.859C176.281 205.484 177.117 206.523 178.32 206.523ZM185.578 208V199.719H187.523V201.148H187.562C187.82 200.148 188.508 199.547 189.461 199.547C189.703 199.547 189.93 199.586 190.078 199.625V201.383C189.914 201.32 189.617 201.273 189.289 201.273C188.188 201.273 187.523 201.969 187.523 203.195V208H185.578ZM196.43 208.164C193.992 208.164 192.422 206.539 192.422 203.859V203.844C192.422 201.188 194.016 199.547 196.422 199.547C198.836 199.547 200.438 201.172 200.438 203.844V203.859C200.438 206.547 198.859 208.164 196.43 208.164ZM196.438 206.594C197.664 206.594 198.453 205.594 198.453 203.859V203.844C198.453 202.117 197.656 201.125 196.422 201.125C195.211 201.125 194.406 202.125 194.406 203.844V203.859C194.406 205.602 195.195 206.594 196.438 206.594ZM206.133 208.141C204.477 208.141 203.359 207.117 203.359 205.641V205.625C203.359 204.156 204.5 203.273 206.508 203.148L208.672 203.016V202.445C208.672 201.609 208.125 201.102 207.141 201.102C206.219 201.102 205.656 201.531 205.531 202.141L205.516 202.211H203.711L203.719 202.117C203.836 200.648 205.109 199.547 207.211 199.547C209.281 199.547 210.617 200.641 210.617 202.305V208H208.672V206.727H208.625C208.148 207.594 207.227 208.141 206.133 208.141ZM205.297 205.562C205.297 206.242 205.859 206.656 206.711 206.656C207.828 206.656 208.672 205.914 208.672 204.93V204.305L206.781 204.422C205.82 204.484 205.297 204.898 205.297 205.555V205.562ZM217.266 208.164C215.172 208.164 213.844 206.523 213.844 203.859V203.852C213.844 201.18 215.18 199.547 217.258 199.547C218.43 199.547 219.375 200.148 219.844 201.141H219.891V196.727H221.836V208H219.891V206.594H219.844C219.375 207.57 218.461 208.164 217.266 208.164ZM217.852 206.523C219.055 206.523 219.891 205.484 219.891 203.859V203.852C219.891 202.234 219.047 201.188 217.852 201.188C216.609 201.188 215.828 202.203 215.828 203.852V203.859C215.828 205.508 216.602 206.523 217.852 206.523ZM230.672 210.734V199.719H232.617V201.148H232.656C233.133 200.156 234.039 199.547 235.227 199.547C237.328 199.547 238.656 201.188 238.656 203.859V203.867C238.656 206.523 237.328 208.164 235.25 208.164C234.07 208.164 233.125 207.57 232.656 206.602H232.617V210.734H230.672ZM234.648 206.523C235.891 206.523 236.672 205.5 236.672 203.867V203.859C236.672 202.203 235.891 201.188 234.648 201.188C233.445 201.188 232.602 202.234 232.602 203.859V203.867C232.602 205.484 233.445 206.523 234.648 206.523ZM241.961 208V196.727H243.906V208H241.961ZM250.008 208.141C248.352 208.141 247.234 207.117 247.234 205.641V205.625C247.234 204.156 248.375 203.273 250.383 203.148L252.547 203.016V202.445C252.547 201.609 252 201.102 251.016 201.102C250.094 201.102 249.531 201.531 249.406 202.141L249.391 202.211H247.586L247.594 202.117C247.711 200.648 248.984 199.547 251.086 199.547C253.156 199.547 254.492 200.641 254.492 202.305V208H252.547V206.727H252.5C252.023 207.594 251.102 208.141 250.008 208.141ZM249.172 205.562C249.172 206.242 249.734 206.656 250.586 206.656C251.703 206.656 252.547 205.914 252.547 204.93V204.305L250.656 204.422C249.695 204.484 249.172 204.898 249.172 205.555V205.562ZM258.062 208V199.719H260.008V201.016H260.047C260.477 200.125 261.32 199.547 262.578 199.547C264.398 199.547 265.438 200.719 265.438 202.641V208H263.492V203.031C263.492 201.852 262.945 201.188 261.836 201.188C260.719 201.188 260.008 202 260.008 203.195V208H258.062Z" fill="#636363"/>
<path d="M87.5 224.5H310.5V265.5H87.5V224.5Z" fill="white"/>
<path d="M87.5 224.5H310.5V265.5H87.5V224.5Z" stroke="#636363"/>
<path d="M106.992 250V238.727H111.336C113.617 238.727 115.172 240.234 115.172 242.492V242.508C115.172 244.758 113.617 246.273 111.336 246.273H109.008V250H106.992ZM110.836 240.375H109.008V244.648H110.836C112.281 244.648 113.125 243.867 113.125 242.516V242.5C113.125 241.148 112.281 240.375 110.836 240.375ZM118.508 250V238.727H120.453V243.109H120.5C120.93 242.117 121.812 241.547 123.055 241.547C124.836 241.547 125.977 242.844 125.977 244.844V250H124.031V245.227C124.031 243.953 123.391 243.188 122.273 243.188C121.172 243.188 120.453 244.023 120.453 245.227V250H118.508ZM130.578 240.531C129.969 240.531 129.492 240.047 129.492 239.469C129.492 238.875 129.969 238.398 130.578 238.398C131.188 238.398 131.656 238.875 131.656 239.469C131.656 240.047 131.188 240.531 130.578 240.531ZM129.602 250V241.719H131.547V250H129.602ZM135.258 250V238.727H137.203V250H135.258ZM144.523 250.164C142.086 250.164 140.516 248.539 140.516 245.859V245.844C140.516 243.188 142.109 241.547 144.516 241.547C146.93 241.547 148.531 243.172 148.531 245.844V245.859C148.531 248.547 146.953 250.164 144.523 250.164ZM144.531 248.594C145.758 248.594 146.547 247.594 146.547 245.859V245.844C146.547 244.117 145.75 243.125 144.516 243.125C143.305 243.125 142.5 244.125 142.5 245.844V245.859C142.5 247.602 143.289 248.594 144.531 248.594ZM155.016 250.164C152.844 250.164 151.602 249.133 151.43 247.594L151.422 247.523H153.336L153.352 247.594C153.5 248.305 154.039 248.727 155.023 248.727C155.969 248.727 156.539 248.344 156.539 247.734V247.727C156.539 247.227 156.25 246.945 155.391 246.75L154.016 246.445C152.43 246.094 151.633 245.32 151.633 244.094V244.086C151.633 242.57 152.953 241.547 154.953 241.547C157.016 241.547 158.219 242.68 158.289 244.109L158.297 244.195H156.484L156.477 244.133C156.391 243.469 155.859 242.984 154.953 242.984C154.094 242.984 153.555 243.383 153.555 243.992V244C153.555 244.477 153.875 244.789 154.734 244.984L156.117 245.289C157.828 245.672 158.492 246.344 158.492 247.547V247.555C158.492 249.117 157.047 250.164 155.016 250.164ZM165.398 250.164C162.961 250.164 161.391 248.539 161.391 245.859V245.844C161.391 243.188 162.984 241.547 165.391 241.547C167.805 241.547 169.406 243.172 169.406 245.844V245.859C169.406 248.547 167.828 250.164 165.398 250.164ZM165.406 248.594C166.633 248.594 167.422 247.594 167.422 245.859V245.844C167.422 244.117 166.625 243.125 165.391 243.125C164.18 243.125 163.375 244.125 163.375 245.844V245.859C163.375 247.602 164.164 248.594 165.406 248.594ZM172.656 252.734V241.719H174.602V243.148H174.641C175.117 242.156 176.023 241.547 177.211 241.547C179.312 241.547 180.641 243.188 180.641 245.859V245.867C180.641 248.523 179.312 250.164 177.234 250.164C176.055 250.164 175.109 249.57 174.641 248.602H174.602V252.734H172.656ZM176.633 248.523C177.875 248.523 178.656 247.5 178.656 245.867V245.859C178.656 244.203 177.875 243.188 176.633 243.188C175.43 243.188 174.586 244.234 174.586 245.859V245.867C174.586 247.484 175.43 248.523 176.633 248.523ZM183.945 250V238.727H185.891V243.109H185.938C186.367 242.117 187.25 241.547 188.492 241.547C190.273 241.547 191.414 242.844 191.414 244.844V250H189.469V245.227C189.469 243.953 188.828 243.188 187.711 243.188C186.609 243.188 185.891 244.023 185.891 245.227V250H183.945ZM196.062 252.75C195.688 252.75 195.297 252.703 195.062 252.664V251.18C195.211 251.211 195.438 251.25 195.711 251.25C196.453 251.25 196.867 251.039 197.117 250.344L197.234 250.008L194.258 241.719H196.383L198.32 248.344H198.375L200.32 241.719H202.367L199.391 250.281C198.758 252.102 197.789 252.75 196.062 252.75ZM210.469 250V241.719H212.414V243.047H212.453C212.805 242.141 213.656 241.547 214.75 241.547C215.906 241.547 216.742 242.156 217.047 243.219H217.094C217.492 242.188 218.477 241.547 219.672 241.547C221.305 241.547 222.375 242.656 222.375 244.312V250H220.43V244.797C220.43 243.773 219.898 243.188 218.945 243.188C218.008 243.188 217.367 243.883 217.367 244.883V250H215.477V244.695C215.477 243.766 214.914 243.188 214.008 243.188C213.07 243.188 212.414 243.922 212.414 244.93V250H210.469ZM226.969 240.531C226.359 240.531 225.883 240.047 225.883 239.469C225.883 238.875 226.359 238.398 226.969 238.398C227.578 238.398 228.047 238.875 228.047 239.469C228.047 240.047 227.578 240.531 226.969 240.531ZM225.992 250V241.719H227.938V250H225.992ZM231.594 250V241.719H233.539V243.016H233.578C234.008 242.125 234.852 241.547 236.109 241.547C237.93 241.547 238.969 242.719 238.969 244.641V250H237.023V245.031C237.023 243.852 236.477 243.188 235.367 243.188C234.25 243.188 233.539 244 233.539 245.195V250H231.594ZM246.195 250.164C243.758 250.164 242.188 248.539 242.188 245.859V245.844C242.188 243.188 243.781 241.547 246.188 241.547C248.602 241.547 250.203 243.172 250.203 245.844V245.859C250.203 248.547 248.625 250.164 246.195 250.164ZM246.203 248.594C247.43 248.594 248.219 247.594 248.219 245.859V245.844C248.219 244.117 247.422 243.125 246.188 243.125C244.977 243.125 244.172 244.125 244.172 245.844V245.859C244.172 247.602 244.961 248.594 246.203 248.594ZM253.453 250V241.719H255.398V243.148H255.438C255.695 242.148 256.383 241.547 257.336 241.547C257.578 241.547 257.805 241.586 257.953 241.625V243.383C257.789 243.32 257.492 243.273 257.164 243.273C256.062 243.273 255.398 243.969 255.398 245.195V250H253.453Z" fill="#636363"/>
<path d="M87.5 266.5H310.5V305C310.5 306.381 309.381 307.5 308 307.5H90C88.6193 307.5 87.5 306.381 87.5 305V266.5Z" fill="white"/>
<path d="M87.5 266.5H310.5V305C310.5 306.381 309.381 307.5 308 307.5H90C88.6193 307.5 87.5 306.381 87.5 305V266.5Z" stroke="#636363"/>
<path d="M109.75 292V282.422H106.375V280.727H115.125V282.422H111.758V292H109.75ZM116.984 292V283.719H118.93V285.148H118.969C119.227 284.148 119.914 283.547 120.867 283.547C121.109 283.547 121.336 283.586 121.484 283.625V285.383C121.32 285.32 121.023 285.273 120.695 285.273C119.594 285.273 118.93 285.969 118.93 287.195V292H116.984ZM125.859 294.75C125.484 294.75 125.094 294.703 124.859 294.664V293.18C125.008 293.211 125.234 293.25 125.508 293.25C126.25 293.25 126.664 293.039 126.914 292.344L127.031 292.008L124.055 283.719H126.18L128.117 290.344H128.172L130.117 283.719H132.164L129.188 292.281C128.555 294.102 127.586 294.75 125.859 294.75ZM136.094 282.531C135.484 282.531 135.008 282.047 135.008 281.469C135.008 280.875 135.484 280.398 136.094 280.398C136.703 280.398 137.172 280.875 137.172 281.469C137.172 282.047 136.703 282.531 136.094 282.531ZM135.117 292V283.719H137.062V292H135.117ZM140.719 292V283.719H142.664V285.016H142.703C143.133 284.125 143.977 283.547 145.234 283.547C147.055 283.547 148.094 284.719 148.094 286.641V292H146.148V287.031C146.148 285.852 145.602 285.188 144.492 285.188C143.375 285.188 142.664 286 142.664 287.195V292H140.719ZM155.391 294.898C153.195 294.898 151.812 293.898 151.578 292.602L151.562 292.531H153.477L153.5 292.594C153.711 293.07 154.375 293.43 155.391 293.43C156.656 293.43 157.352 292.758 157.352 291.703V290.508H157.312C156.852 291.391 155.914 291.953 154.727 291.953C152.648 291.953 151.312 290.359 151.312 287.781V287.773C151.312 285.156 152.664 283.547 154.758 283.547C155.93 283.547 156.836 284.172 157.305 285.125H157.352V283.719H159.297V291.766C159.297 293.641 157.789 294.898 155.391 294.898ZM155.336 290.453C156.547 290.453 157.359 289.43 157.359 287.82V287.812C157.359 286.211 156.539 285.188 155.336 285.188C154.086 285.188 153.297 286.195 153.297 287.805V287.812C153.297 289.445 154.086 290.453 155.336 290.453ZM171.172 292.164C169.438 292.164 168.617 291.461 168.617 289.758V285.219H167.445V283.719H168.617V281.617H170.594V283.719H172.133V285.219H170.594V289.594C170.594 290.406 170.953 290.664 171.664 290.664C171.852 290.664 172 290.641 172.133 290.633V292.094C171.906 292.125 171.562 292.164 171.172 292.164ZM178.977 292.164C176.539 292.164 174.969 290.539 174.969 287.859V287.844C174.969 285.188 176.562 283.547 178.969 283.547C181.383 283.547 182.984 285.172 182.984 287.844V287.859C182.984 290.547 181.406 292.164 178.977 292.164ZM178.984 290.594C180.211 290.594 181 289.594 181 287.859V287.844C181 286.117 180.203 285.125 178.969 285.125C177.758 285.125 176.953 286.125 176.953 287.844V287.859C176.953 289.602 177.742 290.594 178.984 290.594ZM195.172 294.898C192.977 294.898 191.594 293.898 191.359 292.602L191.344 292.531H193.258L193.281 292.594C193.492 293.07 194.156 293.43 195.172 293.43C196.438 293.43 197.133 292.758 197.133 291.703V290.508H197.094C196.633 291.391 195.695 291.953 194.508 291.953C192.43 291.953 191.094 290.359 191.094 287.781V287.773C191.094 285.156 192.445 283.547 194.539 283.547C195.711 283.547 196.617 284.172 197.086 285.125H197.133V283.719H199.078V291.766C199.078 293.641 197.57 294.898 195.172 294.898ZM195.117 290.453C196.328 290.453 197.141 289.43 197.141 287.82V287.812C197.141 286.211 196.32 285.188 195.117 285.188C193.867 285.188 193.078 286.195 193.078 287.805V287.812C193.078 289.445 193.867 290.453 195.117 290.453ZM202.672 292V283.719H204.617V285.148H204.656C204.914 284.148 205.602 283.547 206.555 283.547C206.797 283.547 207.023 283.586 207.172 283.625V285.383C207.008 285.32 206.711 285.273 206.383 285.273C205.281 285.273 204.617 285.969 204.617 287.195V292H202.672ZM212.43 292.141C210.773 292.141 209.656 291.117 209.656 289.641V289.625C209.656 288.156 210.797 287.273 212.805 287.148L214.969 287.016V286.445C214.969 285.609 214.422 285.102 213.438 285.102C212.516 285.102 211.953 285.531 211.828 286.141L211.812 286.211H210.008L210.016 286.117C210.133 284.648 211.406 283.547 213.508 283.547C215.578 283.547 216.914 284.641 216.914 286.305V292H214.969V290.727H214.922C214.445 291.594 213.523 292.141 212.43 292.141ZM211.594 289.562C211.594 290.242 212.156 290.656 213.008 290.656C214.125 290.656 214.969 289.914 214.969 288.93V288.305L213.078 288.422C212.117 288.484 211.594 288.898 211.594 289.555V289.562ZM223.562 292.164C221.469 292.164 220.141 290.523 220.141 287.859V287.852C220.141 285.18 221.477 283.547 223.555 283.547C224.727 283.547 225.672 284.148 226.141 285.141H226.188V280.727H228.133V292H226.188V290.594H226.141C225.672 291.57 224.758 292.164 223.562 292.164ZM224.148 290.523C225.352 290.523 226.188 289.484 226.188 287.859V287.852C226.188 286.234 225.344 285.188 224.148 285.188C222.906 285.188 222.125 286.203 222.125 287.852V287.859C222.125 289.508 222.898 290.523 224.148 290.523ZM240.609 292.164C238.125 292.164 236.625 290.516 236.625 287.883V287.875C236.625 285.266 238.148 283.547 240.516 283.547C242.883 283.547 244.352 285.211 244.352 287.711V288.336H238.555C238.586 289.789 239.383 290.648 240.648 290.648C241.617 290.648 242.25 290.133 242.438 289.578L242.453 289.523H244.273L244.25 289.609C243.992 290.883 242.773 292.164 240.609 292.164ZM240.539 285.07C239.508 285.07 238.734 285.766 238.578 287.039H242.461C242.32 285.727 241.57 285.07 240.539 285.07ZM250.055 292.141C248.398 292.141 247.281 291.117 247.281 289.641V289.625C247.281 288.156 248.422 287.273 250.43 287.148L252.594 287.016V286.445C252.594 285.609 252.047 285.102 251.062 285.102C250.141 285.102 249.578 285.531 249.453 286.141L249.438 286.211H247.633L247.641 286.117C247.758 284.648 249.031 283.547 251.133 283.547C253.203 283.547 254.539 284.641 254.539 286.305V292H252.594V290.727H252.547C252.07 291.594 251.148 292.141 250.055 292.141ZM249.219 289.562C249.219 290.242 249.781 290.656 250.633 290.656C251.75 290.656 252.594 289.914 252.594 288.93V288.305L250.703 288.422C249.742 288.484 249.219 288.898 249.219 289.555V289.562ZM258.109 292V283.719H260.055V285.148H260.094C260.352 284.148 261.039 283.547 261.992 283.547C262.234 283.547 262.461 283.586 262.609 283.625V285.383C262.445 285.32 262.148 285.273 261.82 285.273C260.719 285.273 260.055 285.969 260.055 287.195V292H258.109ZM265.664 292V280.727H267.609V292H265.664ZM272.375 294.75C272 294.75 271.609 294.703 271.375 294.664V293.18C271.523 293.211 271.75 293.25 272.023 293.25C272.766 293.25 273.18 293.039 273.43 292.344L273.547 292.008L270.57 283.719H272.695L274.633 290.344H274.688L276.633 283.719H278.68L275.703 292.281C275.07 294.102 274.102 294.75 272.375 294.75Z" fill="#636363"/>
<g filter="url(#filter0_d_2068_284)">
<g clip-path="url(#clip0_2068_284)">
<rect x="78" y="336" width="475.083" height="361.91" rx="14.1572" fill="white"/>
<mask id="path-13-inside-1_2068_284" fill="white">
<path d="M78 336H553.051V442.965H78V336Z"/>
</mask>
<path d="M553.051 442.493H78V443.437H553.051V442.493Z" fill="black" fill-opacity="0.12" mask="url(#path-13-inside-1_2068_284)"/>
<path d="M136.612 399.752H132.302L122.297 386.067V399.752H117.83V378.768H122.423L132.145 391.95V378.768H136.612V399.752ZM153.774 399.752H149.779V398.179C148.74 399.406 146.947 400.13 144.965 400.13C142.543 400.13 139.68 398.494 139.68 395.096C139.68 391.541 142.543 390.188 144.965 390.188C146.979 390.188 148.772 390.849 149.779 392.045V390C149.779 388.458 148.457 387.451 146.444 387.451C144.808 387.451 143.298 388.049 142.008 389.245L140.498 386.571C142.354 384.935 144.745 384.18 147.136 384.18C150.597 384.18 153.774 385.564 153.774 389.937V399.752ZM146.57 397.424C147.86 397.424 149.118 396.984 149.779 396.103V394.215C149.118 393.335 147.86 392.894 146.57 392.894C144.997 392.894 143.707 393.712 143.707 395.191C143.707 396.606 144.997 397.424 146.57 397.424ZM180.609 399.752H176.582V390.157C176.582 388.741 175.953 387.735 174.317 387.735C172.901 387.735 171.737 388.678 171.171 389.496V399.752H167.144V390.157C167.144 388.741 166.515 387.735 164.879 387.735C163.494 387.735 162.33 388.678 161.733 389.528V399.752H157.737V384.557H161.733V386.539C162.362 385.627 164.375 384.18 166.703 384.18C168.937 384.18 170.353 385.218 170.919 386.948C171.8 385.564 173.813 384.18 176.141 384.18C178.941 384.18 180.609 385.658 180.609 388.773V399.752ZM191.669 400.13C187.044 400.13 183.552 397.015 183.552 392.139C183.552 387.735 186.793 384.18 191.417 384.18C195.948 384.18 199.031 387.577 199.031 392.548V393.429H187.737C187.988 395.348 189.53 396.952 192.109 396.952C193.399 396.952 195.193 396.386 196.168 395.442L197.93 398.022C196.42 399.406 194.029 400.13 191.669 400.13ZM195.161 390.723C195.067 389.276 194.06 387.357 191.417 387.357C188.932 387.357 187.862 389.213 187.674 390.723H195.161ZM214.528 399.752H210.061V378.768H219.876C224.438 378.768 226.923 381.851 226.923 385.532C226.923 389.182 224.407 392.296 219.876 392.296H214.528V399.752ZM219.278 388.364C221.04 388.364 222.362 387.263 222.362 385.532C222.362 383.771 221.04 382.701 219.278 382.701H214.528V388.364H219.278ZM233.594 399.752H229.598V378.768H233.594V399.752ZM250.674 399.752H246.679V398.179C245.641 399.406 243.848 400.13 241.866 400.13C239.443 400.13 236.58 398.494 236.58 395.096C236.58 391.541 239.443 390.188 241.866 390.188C243.879 390.188 245.672 390.849 246.679 392.045V390C246.679 388.458 245.358 387.451 243.344 387.451C241.708 387.451 240.198 388.049 238.908 389.245L237.398 386.571C239.254 384.935 241.645 384.18 244.036 384.18C247.497 384.18 250.674 385.564 250.674 389.937V399.752ZM243.47 397.424C244.76 397.424 246.018 396.984 246.679 396.103V394.215C246.018 393.335 244.76 392.894 243.47 392.894C241.897 392.894 240.607 393.712 240.607 395.191C240.607 396.606 241.897 397.424 243.47 397.424ZM268.889 399.752H264.894V390.566C264.894 388.458 263.792 387.735 262.094 387.735C260.521 387.735 259.294 388.615 258.633 389.528V399.752H254.637V384.557H258.633V386.539C259.608 385.375 261.464 384.18 263.95 384.18C267.285 384.18 268.889 386.067 268.889 389.024V399.752Z" fill="#3D3D3E"/>
<path d="M497.997 378.47L514.514 395.029" stroke="#C4C4C4" stroke-width="3.14604" stroke-linecap="round"/>
<path d="M514.514 378.47L497.997 395.029" stroke="#C4C4C4" stroke-width="3.14604" stroke-linecap="round"/>
<path d="M130.884 480.845H128.082L121.579 471.949V480.845H118.676V467.205H121.661L127.98 475.773V467.205H130.884V480.845ZM142.039 480.845H139.442V479.822C138.767 480.62 137.602 481.09 136.313 481.09C134.739 481.09 132.878 480.027 132.878 477.818C132.878 475.507 134.739 474.628 136.313 474.628C137.622 474.628 138.788 475.058 139.442 475.835V474.505C139.442 473.503 138.583 472.849 137.275 472.849C136.211 472.849 135.23 473.238 134.391 474.015L133.41 472.276C134.616 471.213 136.17 470.722 137.724 470.722C139.974 470.722 142.039 471.622 142.039 474.465V480.845ZM137.356 479.331C138.195 479.331 139.013 479.045 139.442 478.473V477.246C139.013 476.673 138.195 476.387 137.356 476.387C136.334 476.387 135.495 476.918 135.495 477.88C135.495 478.8 136.334 479.331 137.356 479.331ZM159.482 480.845H156.864V474.608C156.864 473.687 156.455 473.033 155.392 473.033C154.472 473.033 153.715 473.647 153.347 474.178V480.845H150.729V474.608C150.729 473.687 150.321 473.033 149.257 473.033C148.357 473.033 147.601 473.647 147.212 474.199V480.845H144.615V470.968H147.212V472.256C147.621 471.663 148.93 470.722 150.443 470.722C151.895 470.722 152.815 471.397 153.183 472.522C153.756 471.622 155.065 470.722 156.578 470.722C158.398 470.722 159.482 471.683 159.482 473.708V480.845ZM166.671 481.09C163.665 481.09 161.395 479.066 161.395 475.896C161.395 473.033 163.501 470.722 166.507 470.722C169.452 470.722 171.456 472.931 171.456 476.162V476.734H164.115C164.278 477.982 165.28 479.025 166.957 479.025C167.796 479.025 168.961 478.657 169.595 478.043L170.74 479.72C169.759 480.62 168.205 481.09 166.671 481.09ZM168.941 474.976C168.879 474.035 168.225 472.788 166.507 472.788C164.892 472.788 164.197 473.994 164.074 474.976H168.941Z" fill="#3D3D3E"/>
<rect x="117.719" y="496.845" width="397.187" height="46.404" rx="2.75278" fill="white" stroke="#C4C4C4" stroke-width="0.786509"/>
<path d="M131.505 526.461V512.821H133.202V526.461H131.505ZM136.765 526.461V517.933H135.129V516.584H136.765V515.827C136.765 514.805 137.017 514.014 137.522 513.455C138.04 512.896 138.742 512.617 139.628 512.617C140.023 512.617 140.392 512.671 140.732 512.78C141.073 512.889 141.4 513.087 141.714 513.373L141.08 514.375C140.916 514.225 140.732 514.109 140.528 514.028C140.337 513.932 140.112 513.884 139.853 513.884C139.349 513.884 138.96 514.055 138.687 514.396C138.428 514.723 138.299 515.2 138.299 515.827V516.584H140.303V517.933H138.299V526.461H136.765ZM152.266 526.706C151.584 526.706 150.957 526.556 150.385 526.256C149.812 525.956 149.328 525.527 148.933 524.968V530.223H147.399V516.584H148.933V518.056C149.287 517.552 149.758 517.143 150.344 516.829C150.93 516.502 151.571 516.338 152.266 516.338C152.92 516.338 153.513 516.461 154.045 516.706C154.59 516.938 155.054 517.279 155.436 517.729C155.831 518.165 156.131 518.704 156.335 519.344C156.554 519.985 156.663 520.708 156.663 521.512C156.663 522.316 156.554 523.039 156.335 523.68C156.131 524.32 155.831 524.866 155.436 525.316C155.054 525.765 154.59 526.113 154.045 526.358C153.513 526.59 152.92 526.706 152.266 526.706ZM151.878 525.336C152.368 525.336 152.811 525.241 153.207 525.05C153.602 524.859 153.936 524.593 154.209 524.252C154.481 523.911 154.686 523.509 154.822 523.046C154.972 522.569 155.047 522.057 155.047 521.512C155.047 520.967 154.972 520.462 154.822 519.999C154.686 519.535 154.481 519.133 154.209 518.792C153.936 518.451 153.602 518.186 153.207 517.995C152.811 517.804 152.368 517.708 151.878 517.708C151.264 517.708 150.685 517.865 150.139 518.179C149.608 518.479 149.206 518.847 148.933 519.283V523.741C149.206 524.177 149.608 524.552 150.139 524.866C150.685 525.179 151.264 525.336 151.878 525.336ZM159.102 526.461V516.584H160.635V518.179C161.031 517.661 161.508 517.231 162.067 516.89C162.626 516.55 163.246 516.379 163.928 516.379V517.954C163.737 517.913 163.532 517.892 163.314 517.892C163.082 517.892 162.83 517.94 162.557 518.036C162.298 518.117 162.039 518.233 161.78 518.383C161.535 518.533 161.31 518.704 161.106 518.894C160.901 519.072 160.744 519.263 160.635 519.467V526.461H159.102ZM170.309 526.706C169.573 526.706 168.898 526.583 168.285 526.338C167.671 526.079 167.14 525.725 166.69 525.275C166.254 524.811 165.906 524.266 165.647 523.639C165.402 522.998 165.279 522.289 165.279 521.512C165.279 520.803 165.402 520.135 165.647 519.508C165.892 518.867 166.226 518.315 166.649 517.852C167.085 517.388 167.596 517.02 168.183 516.747C168.782 516.475 169.437 516.338 170.146 516.338C170.896 516.338 171.564 516.475 172.15 516.747C172.736 517.02 173.234 517.395 173.643 517.872C174.052 518.349 174.358 518.915 174.563 519.569C174.781 520.21 174.89 520.899 174.89 521.635V522.023H166.894C166.922 522.487 167.024 522.93 167.201 523.352C167.378 523.761 167.617 524.123 167.917 524.436C168.23 524.736 168.598 524.982 169.021 525.172C169.444 525.35 169.921 525.438 170.452 525.438C171.025 525.438 171.577 525.329 172.109 525.111C172.641 524.893 173.104 524.586 173.499 524.191L174.236 525.193C173.745 525.684 173.172 526.059 172.518 526.318C171.863 526.577 171.127 526.706 170.309 526.706ZM173.377 520.899C173.377 520.53 173.309 520.156 173.172 519.774C173.05 519.378 172.852 519.024 172.579 518.71C172.32 518.383 171.986 518.117 171.577 517.913C171.168 517.708 170.684 517.606 170.125 517.606C169.594 517.606 169.13 517.708 168.735 517.913C168.339 518.117 168.005 518.376 167.733 518.69C167.474 519.004 167.269 519.358 167.119 519.753C166.983 520.135 166.908 520.517 166.894 520.899H173.377ZM176.454 522.187V520.837H181.362V522.187H176.454ZM187.963 526.706C187.227 526.706 186.552 526.583 185.938 526.338C185.325 526.079 184.793 525.725 184.343 525.275C183.907 524.811 183.559 524.266 183.3 523.639C183.055 522.998 182.932 522.289 182.932 521.512C182.932 520.803 183.055 520.135 183.3 519.508C183.546 518.867 183.88 518.315 184.302 517.852C184.739 517.388 185.25 517.02 185.836 516.747C186.436 516.475 187.09 516.338 187.799 516.338C188.549 516.338 189.217 516.475 189.803 516.747C190.389 517.02 190.887 517.395 191.296 517.872C191.705 518.349 192.012 518.915 192.216 519.569C192.434 520.21 192.543 520.899 192.543 521.635V522.023H184.548C184.575 522.487 184.677 522.93 184.854 523.352C185.032 523.761 185.27 524.123 185.57 524.436C185.884 524.736 186.252 524.982 186.674 525.172C187.097 525.35 187.574 525.438 188.106 525.438C188.679 525.438 189.231 525.329 189.762 525.111C190.294 524.893 190.758 524.586 191.153 524.191L191.889 525.193C191.398 525.684 190.826 526.059 190.171 526.318C189.517 526.577 188.781 526.706 187.963 526.706ZM191.03 520.899C191.03 520.53 190.962 520.156 190.826 519.774C190.703 519.378 190.505 519.024 190.233 518.71C189.974 518.383 189.64 518.117 189.231 517.913C188.822 517.708 188.338 517.606 187.779 517.606C187.247 517.606 186.784 517.708 186.388 517.913C185.993 518.117 185.659 518.376 185.386 518.69C185.127 519.004 184.923 519.358 184.773 519.753C184.636 520.135 184.561 520.517 184.548 520.899H191.03ZM201.694 526.461V519.999C201.694 519.126 201.489 518.526 201.08 518.199C200.685 517.872 200.153 517.708 199.485 517.708C199.186 517.708 198.892 517.749 198.606 517.831C198.32 517.913 198.047 518.029 197.788 518.179C197.529 518.315 197.291 518.479 197.072 518.67C196.868 518.847 196.698 519.038 196.561 519.242V526.461H195.028V516.584H196.561V518.015C196.738 517.811 196.95 517.613 197.195 517.422C197.441 517.218 197.713 517.034 198.013 516.87C198.327 516.706 198.654 516.577 198.995 516.481C199.349 516.386 199.71 516.338 200.078 516.338C202.178 516.338 203.228 517.402 203.228 519.528V526.461H201.694ZM206.291 526.461V516.584H207.824V518.179C208.22 517.661 208.697 517.231 209.256 516.89C209.815 516.55 210.435 516.379 211.117 516.379V517.954C210.926 517.913 210.721 517.892 210.503 517.892C210.271 517.892 210.019 517.94 209.746 518.036C209.487 518.117 209.228 518.233 208.969 518.383C208.724 518.533 208.499 518.704 208.295 518.894C208.09 519.072 207.933 519.263 207.824 519.467V526.461H206.291ZM217.355 526.706C216.605 526.706 215.924 526.57 215.31 526.297C214.71 526.024 214.199 525.656 213.777 525.193C213.354 524.716 213.027 524.164 212.795 523.536C212.577 522.909 212.468 522.235 212.468 521.512C212.468 520.803 212.577 520.135 212.795 519.508C213.027 518.867 213.354 518.315 213.777 517.852C214.199 517.388 214.71 517.02 215.31 516.747C215.924 516.475 216.605 516.338 217.355 516.338C218.105 516.338 218.78 516.475 219.38 516.747C219.993 517.02 220.511 517.388 220.934 517.852C221.356 518.315 221.677 518.867 221.895 519.508C222.127 520.135 222.243 520.803 222.243 521.512C222.243 522.235 222.127 522.909 221.895 523.536C221.677 524.164 221.356 524.716 220.934 525.193C220.511 525.656 219.993 526.024 219.38 526.297C218.78 526.57 218.105 526.706 217.355 526.706ZM217.355 525.336C217.887 525.336 218.35 525.234 218.746 525.029C219.155 524.811 219.496 524.532 219.768 524.191C220.055 523.836 220.266 523.427 220.402 522.964C220.552 522.5 220.627 522.016 220.627 521.512C220.627 521.008 220.552 520.53 220.402 520.081C220.266 519.617 220.055 519.215 219.768 518.874C219.496 518.52 219.155 518.24 218.746 518.036C218.35 517.817 217.887 517.708 217.355 517.708C216.824 517.708 216.353 517.817 215.944 518.036C215.535 518.24 215.188 518.52 214.901 518.874C214.629 519.215 214.417 519.617 214.267 520.081C214.131 520.53 214.063 521.008 214.063 521.512C214.063 522.016 214.131 522.5 214.267 522.964C214.417 523.427 214.629 523.836 214.901 524.191C215.188 524.532 215.535 524.811 215.944 525.029C216.353 525.234 216.824 525.336 217.355 525.336ZM224.743 526.461V512.821H226.276V526.461H224.743ZM229.336 526.461V512.821H230.87V526.461H229.336ZM239.958 515.173C239.685 515.173 239.446 515.077 239.242 514.886C239.037 514.682 238.935 514.437 238.935 514.15C238.935 513.864 239.037 513.619 239.242 513.414C239.446 513.21 239.685 513.107 239.958 513.107C240.244 513.107 240.489 513.21 240.694 513.414C240.898 513.619 241.001 513.864 241.001 514.15C241.001 514.437 240.898 514.682 240.694 514.886C240.489 515.077 240.244 515.173 239.958 515.173ZM239.201 526.461V516.584H240.735V526.461H239.201ZM246.923 526.706C246.105 526.706 245.362 526.583 244.694 526.338C244.026 526.079 243.44 525.684 242.935 525.152L243.733 524.048C244.06 524.429 244.51 524.763 245.082 525.05C245.669 525.322 246.303 525.459 246.984 525.459C247.748 525.459 248.327 525.302 248.722 524.988C249.118 524.661 249.315 524.252 249.315 523.761C249.315 523.366 249.165 523.066 248.866 522.862C248.566 522.644 248.184 522.466 247.72 522.33C247.271 522.194 246.78 522.071 246.248 521.962C245.73 521.839 245.239 521.676 244.776 521.471C244.326 521.253 243.951 520.973 243.651 520.633C243.351 520.278 243.201 519.794 243.201 519.181C243.201 518.799 243.283 518.438 243.447 518.097C243.61 517.743 243.849 517.436 244.162 517.177C244.476 516.918 244.858 516.713 245.307 516.563C245.771 516.413 246.296 516.338 246.882 516.338C247.727 516.338 248.45 516.481 249.05 516.768C249.649 517.04 250.147 517.374 250.542 517.77L249.827 518.833C249.527 518.479 249.118 518.186 248.6 517.954C248.095 517.708 247.523 517.586 246.882 517.586C246.2 517.586 245.662 517.736 245.266 518.036C244.885 518.336 244.694 518.704 244.694 519.14C244.694 519.494 244.844 519.767 245.144 519.958C245.444 520.149 245.819 520.312 246.269 520.449C246.732 520.571 247.223 520.694 247.741 520.817C248.273 520.926 248.763 521.089 249.213 521.307C249.677 521.526 250.058 521.826 250.358 522.207C250.658 522.575 250.808 523.08 250.808 523.72C250.808 524.129 250.726 524.518 250.563 524.886C250.399 525.254 250.154 525.575 249.827 525.847C249.499 526.106 249.09 526.311 248.6 526.461C248.123 526.624 247.564 526.706 246.923 526.706ZM260.106 523.782C260.378 524.218 260.78 524.586 261.312 524.886C261.857 525.186 262.437 525.336 263.05 525.336C263.555 525.336 264.005 525.241 264.4 525.05C264.795 524.859 265.129 524.593 265.402 524.252C265.675 523.911 265.879 523.509 266.015 523.046C266.165 522.582 266.24 522.078 266.24 521.532C266.24 520.987 266.165 520.483 266.015 520.019C265.879 519.542 265.675 519.133 265.402 518.792C265.129 518.451 264.795 518.186 264.4 517.995C264.005 517.804 263.555 517.708 263.05 517.708C262.437 517.708 261.857 517.865 261.312 518.179C260.78 518.492 260.378 518.867 260.106 519.303V523.782ZM258.572 526.461V512.821H260.106V518.077C260.501 517.531 260.985 517.109 261.557 516.809C262.13 516.495 262.757 516.338 263.439 516.338C264.08 516.338 264.666 516.461 265.197 516.706C265.743 516.952 266.206 517.299 266.588 517.749C266.983 518.199 267.29 518.745 267.508 519.385C267.726 520.026 267.835 520.742 267.835 521.532C267.835 522.337 267.726 523.059 267.508 523.7C267.29 524.341 266.983 524.886 266.588 525.336C266.206 525.772 265.743 526.113 265.197 526.358C264.666 526.59 264.08 526.706 263.439 526.706C262.744 526.706 262.103 526.549 261.517 526.236C260.944 525.909 260.474 525.493 260.106 524.988V526.461H258.572ZM276.51 526.461V525.336C275.678 526.249 274.588 526.706 273.238 526.706C272.815 526.706 272.4 526.638 271.991 526.502C271.582 526.365 271.214 526.161 270.886 525.888C270.559 525.602 270.293 525.254 270.089 524.845C269.884 524.436 269.782 523.966 269.782 523.434C269.782 522.889 269.884 522.412 270.089 522.003C270.293 521.594 270.559 521.253 270.886 520.98C271.214 520.708 271.582 520.51 271.991 520.387C272.4 520.251 272.815 520.183 273.238 520.183C273.92 520.183 274.533 520.292 275.078 520.51C275.637 520.728 276.115 521.069 276.51 521.532V519.753C276.51 519.085 276.271 518.574 275.794 518.22C275.331 517.852 274.738 517.668 274.015 517.668C272.856 517.668 271.847 518.124 270.989 519.038L270.273 517.974C271.323 516.884 272.638 516.338 274.22 516.338C274.738 516.338 275.228 516.4 275.692 516.522C276.155 516.645 276.558 516.843 276.898 517.115C277.253 517.374 277.532 517.715 277.737 518.138C277.941 518.56 278.044 519.072 278.044 519.672V526.461H276.51ZM273.79 525.602C274.335 525.602 274.847 525.5 275.324 525.295C275.815 525.091 276.21 524.784 276.51 524.375V522.514C276.21 522.105 275.815 521.798 275.324 521.594C274.847 521.389 274.335 521.287 273.79 521.287C273.068 521.287 272.481 521.492 272.032 521.901C271.582 522.296 271.357 522.814 271.357 523.455C271.357 524.082 271.582 524.6 272.032 525.009C272.481 525.404 273.068 525.602 273.79 525.602ZM288.275 526.461V524.988C287.907 525.493 287.43 525.909 286.844 526.236C286.271 526.549 285.637 526.706 284.942 526.706C284.301 526.706 283.708 526.59 283.163 526.358C282.631 526.113 282.168 525.772 281.772 525.336C281.391 524.886 281.091 524.341 280.873 523.7C280.654 523.059 280.545 522.337 280.545 521.532C280.545 520.742 280.648 520.026 280.852 519.385C281.07 518.745 281.37 518.199 281.752 517.749C282.147 517.299 282.611 516.952 283.142 516.706C283.688 516.461 284.288 516.338 284.942 516.338C285.61 516.338 286.23 516.495 286.803 516.809C287.389 517.109 287.88 517.531 288.275 518.077V512.821H289.809V526.461H288.275ZM285.31 525.336C285.924 525.336 286.503 525.186 287.048 524.886C287.594 524.586 288.003 524.218 288.275 523.782V519.303C288.003 518.867 287.594 518.492 287.048 518.179C286.503 517.865 285.924 517.708 285.31 517.708C284.819 517.708 284.376 517.804 283.981 517.995C283.586 518.186 283.252 518.451 282.979 518.792C282.706 519.133 282.495 519.542 282.345 520.019C282.209 520.483 282.14 520.987 282.14 521.532C282.14 522.078 282.209 522.582 282.345 523.046C282.495 523.509 282.706 523.911 282.979 524.252C283.252 524.593 283.586 524.859 283.981 525.05C284.376 525.241 284.819 525.336 285.31 525.336Z" fill="#3D3D3E"/>
<rect x="281.312" y="605.38" width="85.6739" height="61.6738" rx="4.3258" fill="white"/>
<rect x="281.312" y="605.38" width="85.6739" height="61.6738" rx="4.3258" stroke="#4D7D92" stroke-width="0.786509"/>
<path d="M298.867 643.717V626.93H306.342C307.064 626.93 307.718 627.039 308.305 627.257C308.893 627.458 309.388 627.752 309.79 628.138C310.193 628.507 310.503 628.96 310.721 629.497C310.94 630.017 311.049 630.587 311.049 631.208C311.049 631.745 310.965 632.232 310.797 632.668C310.646 633.104 310.428 633.49 310.143 633.826C309.874 634.144 309.564 634.413 309.211 634.631C308.859 634.832 308.49 634.975 308.104 635.059C308.557 635.126 308.976 635.285 309.362 635.537C309.765 635.789 310.109 636.099 310.394 636.468C310.696 636.837 310.931 637.257 311.099 637.727C311.284 638.197 311.376 638.683 311.376 639.187C311.376 639.858 311.267 640.47 311.049 641.024C310.831 641.577 310.512 642.056 310.092 642.458C309.673 642.861 309.161 643.171 308.557 643.39C307.97 643.608 307.29 643.717 306.518 643.717H298.867ZM305.99 634.203C306.946 634.203 307.668 633.952 308.154 633.448C308.641 632.928 308.884 632.282 308.884 631.51C308.884 630.755 308.641 630.118 308.154 629.597C307.668 629.06 306.946 628.792 305.99 628.792H300.956V634.203H305.99ZM306.09 641.854C307.08 641.854 307.844 641.603 308.381 641.099C308.935 640.579 309.211 639.866 309.211 638.96C309.211 638.574 309.144 638.205 309.01 637.853C308.876 637.5 308.674 637.198 308.406 636.947C308.154 636.678 307.835 636.468 307.45 636.317C307.064 636.15 306.611 636.066 306.09 636.066H300.956V641.854H306.09ZM322.221 643.717V642.333C321.197 643.457 319.855 644.019 318.194 644.019C317.674 644.019 317.162 643.935 316.659 643.767C316.155 643.599 315.702 643.348 315.3 643.012C314.897 642.66 314.57 642.232 314.318 641.729C314.066 641.225 313.941 640.646 313.941 639.992C313.941 639.321 314.066 638.733 314.318 638.23C314.57 637.727 314.897 637.307 315.3 636.972C315.702 636.636 316.155 636.393 316.659 636.242C317.162 636.074 317.674 635.99 318.194 635.99C319.033 635.99 319.788 636.124 320.459 636.393C321.147 636.661 321.734 637.081 322.221 637.651V635.462C322.221 634.639 321.927 634.01 321.34 633.574C320.77 633.121 320.04 632.894 319.15 632.894C317.724 632.894 316.483 633.457 315.426 634.581L314.545 633.272C315.837 631.93 317.456 631.258 319.402 631.258C320.04 631.258 320.644 631.334 321.214 631.485C321.785 631.636 322.28 631.879 322.699 632.215C323.135 632.534 323.479 632.953 323.731 633.473C323.983 633.993 324.109 634.623 324.109 635.361V643.717H322.221ZM318.874 642.66C319.545 642.66 320.174 642.534 320.761 642.282C321.365 642.031 321.852 641.653 322.221 641.15V638.859C321.852 638.356 321.365 637.978 320.761 637.727C320.174 637.475 319.545 637.349 318.874 637.349C317.984 637.349 317.263 637.601 316.709 638.104C316.155 638.591 315.879 639.228 315.879 640.017C315.879 640.789 316.155 641.426 316.709 641.93C317.263 642.416 317.984 642.66 318.874 642.66ZM333.253 644.019C332.347 644.019 331.517 643.859 330.762 643.541C330.023 643.205 329.386 642.752 328.849 642.182C328.329 641.611 327.918 640.94 327.616 640.168C327.33 639.379 327.188 638.532 327.188 637.626C327.188 636.72 327.33 635.881 327.616 635.109C327.918 634.337 328.329 633.666 328.849 633.096C329.386 632.525 330.023 632.081 330.762 631.762C331.517 631.426 332.347 631.258 333.253 631.258C334.361 631.258 335.258 631.46 335.946 631.863C336.651 632.265 337.238 632.769 337.708 633.373L336.45 634.53C336.047 633.977 335.586 633.574 335.065 633.322C334.562 633.071 333.992 632.945 333.354 632.945C332.7 632.945 332.112 633.062 331.592 633.297C331.089 633.532 330.653 633.859 330.284 634.279C329.914 634.698 329.629 635.193 329.428 635.764C329.243 636.334 329.151 636.955 329.151 637.626C329.151 638.297 329.243 638.926 329.428 639.514C329.629 640.084 329.914 640.579 330.284 640.999C330.653 641.418 331.089 641.745 331.592 641.98C332.112 642.215 332.7 642.333 333.354 642.333C334.629 642.333 335.661 641.804 336.45 640.747L337.708 641.905C337.238 642.509 336.651 643.012 335.946 643.415C335.258 643.817 334.361 644.019 333.253 644.019ZM348.634 643.717L344.255 638.255L342.241 640.244V643.717H340.354V626.93H342.241V638.029L348.634 631.561H351.025L345.639 637.072L351.05 643.717H348.634Z" fill="#4D7D92"/>
<rect x="383.11" y="604.987" width="131.46" height="62.4604" rx="4.71905" fill="#4D7D92"/>
<path d="M412.999 643.717L411.515 639.992H403.159L401.674 643.717H399.283L406.028 626.93H408.62L415.39 643.717H412.999ZM407.337 629.094L403.763 638.129H410.885L407.337 629.094ZM426.319 643.717V641.905C425.866 642.525 425.278 643.037 424.557 643.44C423.852 643.826 423.072 644.019 422.216 644.019C421.428 644.019 420.698 643.876 420.027 643.591C419.372 643.289 418.802 642.869 418.315 642.333C417.845 641.779 417.476 641.108 417.208 640.319C416.939 639.53 416.805 638.641 416.805 637.651C416.805 636.678 416.931 635.797 417.183 635.009C417.451 634.22 417.82 633.549 418.29 632.995C418.776 632.441 419.347 632.014 420.001 631.712C420.673 631.41 421.411 631.258 422.216 631.258C423.038 631.258 423.802 631.451 424.506 631.837C425.228 632.206 425.832 632.727 426.319 633.398V626.93H428.206V643.717H426.319ZM422.669 642.333C423.424 642.333 424.137 642.148 424.808 641.779C425.48 641.41 425.983 640.957 426.319 640.42V634.908C425.983 634.371 425.48 633.91 424.808 633.524C424.137 633.138 423.424 632.945 422.669 632.945C422.065 632.945 421.52 633.062 421.033 633.297C420.547 633.532 420.136 633.859 419.8 634.279C419.464 634.698 419.204 635.202 419.02 635.789C418.852 636.359 418.768 636.98 418.768 637.651C418.768 638.322 418.852 638.943 419.02 639.514C419.204 640.084 419.464 640.579 419.8 640.999C420.136 641.418 420.547 641.745 421.033 641.98C421.52 642.215 422.065 642.333 422.669 642.333ZM440.795 643.717V641.905C440.342 642.525 439.755 643.037 439.033 643.44C438.329 643.826 437.549 644.019 436.693 644.019C435.904 644.019 435.174 643.876 434.503 643.591C433.849 643.289 433.278 642.869 432.792 642.333C432.322 641.779 431.953 641.108 431.684 640.319C431.416 639.53 431.282 638.641 431.282 637.651C431.282 636.678 431.407 635.797 431.659 635.009C431.928 634.22 432.297 633.549 432.767 632.995C433.253 632.441 433.824 632.014 434.478 631.712C435.149 631.41 435.887 631.258 436.693 631.258C437.515 631.258 438.278 631.451 438.983 631.837C439.705 632.206 440.309 632.727 440.795 633.398V626.93H442.683V643.717H440.795ZM437.146 642.333C437.901 642.333 438.614 642.148 439.285 641.779C439.956 641.41 440.46 640.957 440.795 640.42V634.908C440.46 634.371 439.956 633.91 439.285 633.524C438.614 633.138 437.901 632.945 437.146 632.945C436.542 632.945 435.997 633.062 435.51 633.297C435.023 633.532 434.612 633.859 434.277 634.279C433.941 634.698 433.681 635.202 433.496 635.789C433.329 636.359 433.245 636.98 433.245 637.651C433.245 638.322 433.329 638.943 433.496 639.514C433.681 640.084 433.941 640.579 434.277 640.999C434.612 641.418 435.023 641.745 435.51 641.98C435.997 642.215 436.542 642.333 437.146 642.333ZM453.027 643.717V626.93H459.772C460.611 626.93 461.358 627.064 462.012 627.332C462.667 627.601 463.212 627.97 463.648 628.44C464.101 628.893 464.445 629.43 464.68 630.05C464.915 630.654 465.033 631.3 465.033 631.988C465.033 632.676 464.915 633.331 464.68 633.952C464.445 634.556 464.101 635.092 463.648 635.562C463.195 636.015 462.642 636.376 461.987 636.645C461.333 636.913 460.595 637.047 459.772 637.047H455.116V643.717H453.027ZM459.521 635.185C460.527 635.185 461.333 634.891 461.937 634.304C462.558 633.717 462.868 632.945 462.868 631.988C462.868 631.032 462.558 630.26 461.937 629.673C461.333 629.086 460.527 628.792 459.521 628.792H455.116V635.185H459.521ZM467.723 643.717V626.93H469.611V643.717H467.723ZM480.977 643.717V642.333C479.954 643.457 478.611 644.019 476.95 644.019C476.43 644.019 475.918 643.935 475.415 643.767C474.912 643.599 474.459 643.348 474.056 643.012C473.653 642.66 473.326 642.232 473.074 641.729C472.823 641.225 472.697 640.646 472.697 639.992C472.697 639.321 472.823 638.733 473.074 638.23C473.326 637.727 473.653 637.307 474.056 636.972C474.459 636.636 474.912 636.393 475.415 636.242C475.918 636.074 476.43 635.99 476.95 635.99C477.789 635.99 478.544 636.124 479.215 636.393C479.903 636.661 480.491 637.081 480.977 637.651V635.462C480.977 634.639 480.684 634.01 480.096 633.574C479.526 633.121 478.796 632.894 477.907 632.894C476.48 632.894 475.239 633.457 474.182 634.581L473.301 633.272C474.593 631.93 476.212 631.258 478.158 631.258C478.796 631.258 479.4 631.334 479.97 631.485C480.541 631.636 481.036 631.879 481.455 632.215C481.892 632.534 482.236 632.953 482.487 633.473C482.739 633.993 482.865 634.623 482.865 635.361V643.717H480.977ZM477.63 642.66C478.301 642.66 478.93 642.534 479.517 642.282C480.122 642.031 480.608 641.653 480.977 641.15V638.859C480.608 638.356 480.122 637.978 479.517 637.727C478.93 637.475 478.301 637.349 477.63 637.349C476.741 637.349 476.019 637.601 475.465 638.104C474.912 638.591 474.635 639.228 474.635 640.017C474.635 640.789 474.912 641.426 475.465 641.93C476.019 642.416 476.741 642.66 477.63 642.66ZM494.854 643.717V635.764C494.854 634.69 494.602 633.952 494.099 633.549C493.612 633.146 492.958 632.945 492.135 632.945C491.766 632.945 491.406 632.995 491.053 633.096C490.701 633.196 490.365 633.339 490.046 633.524C489.728 633.691 489.434 633.893 489.166 634.128C488.914 634.346 488.704 634.581 488.536 634.832V643.717H486.649V631.561H488.536V633.322C488.754 633.071 489.015 632.827 489.317 632.592C489.619 632.341 489.954 632.114 490.323 631.913C490.709 631.712 491.112 631.552 491.531 631.435C491.968 631.317 492.412 631.258 492.865 631.258C495.449 631.258 496.741 632.567 496.741 635.185V643.717H494.854Z" fill="white"/>
</g>
</g>
<path d="M392 199.5H610C611.381 199.5 612.5 200.619 612.5 202V240.5H389.5V202C389.5 200.619 390.619 199.5 392 199.5Z" fill="white"/>
<path d="M392 199.5H610C611.381 199.5 612.5 200.619 612.5 202V240.5H389.5V202C389.5 200.619 390.619 199.5 392 199.5Z" stroke="#636363"/>
<path d="M420.474 214.437L422.592 216.37M421.836 212.735L416.109 217.964C415.813 218.233 415.611 218.577 415.529 218.952L415 221.369L417.648 220.885C418.058 220.811 418.434 220.627 418.73 220.357L424.457 215.128C424.629 214.971 424.766 214.784 424.859 214.579C424.952 214.373 425 214.153 425 213.931C425 213.709 424.952 213.489 424.859 213.284C424.766 213.078 424.629 212.892 424.457 212.735C424.285 212.578 424.081 212.453 423.856 212.368C423.631 212.283 423.39 212.239 423.147 212.239C422.903 212.239 422.662 212.283 422.437 212.368C422.213 212.453 422.008 212.578 421.836 212.735V212.735Z" stroke="#636363" stroke-width="1.5" stroke-linecap="round" stroke-linejoin="round"/>
<path d="M423 223.195V225.935C423 226.419 422.789 226.883 422.414 227.226C422.039 227.568 421.531 227.761 421 227.761H410C409.47 227.761 408.961 227.568 408.586 227.226C408.211 226.883 408 226.419 408 225.935V215.891C408 215.407 408.211 214.942 408.586 214.6C408.961 214.257 409.47 214.065 410 214.065H413" stroke="#636363" stroke-width="1.5" stroke-linecap="round" stroke-linejoin="round"/>
<path d="M444.992 226V214.727H447.32L450.773 223.336H450.828L454.281 214.727H456.609V226H454.797V217.984H454.734L451.484 226H450.117L446.867 217.984H446.812V226H444.992ZM463.773 226V221.555L459.82 214.727H462.023L464.75 219.633H464.805L467.531 214.727H469.734L465.781 221.555V226H463.773ZM478.148 226V214.727H482.492C484.773 214.727 486.328 216.234 486.328 218.492V218.508C486.328 220.758 484.773 222.273 482.492 222.273H480.164V226H478.148ZM481.992 216.375H480.164V220.648H481.992C483.438 220.648 484.281 219.867 484.281 218.516V218.5C484.281 217.148 483.438 216.375 481.992 216.375ZM489.805 226V214.727H491.82V224.305H496.938V226H489.805ZM499.602 226L503.633 214.727H505.898L509.93 226H507.812L506.859 223.086H502.664L501.711 226H499.602ZM504.742 216.734L503.172 221.531H506.352L504.789 216.734H504.742ZM513.133 226V214.727H514.945L520.438 222.625H520.484V214.727H522.484V226H520.688L515.18 218.07H515.141V226H513.133Z" fill="#636363"/>
<path d="M587.5 225.478L580.139 217.261H594.861L587.5 225.478Z" fill="#7B7D7E"/>
<rect x="638" y="203" width="96" height="34" rx="3" fill="#4D7D92"/>
<path d="M650.398 222.062V220.797H653.727V217.562H654.992V220.797H658.328V222.062H654.992V225.297H653.727V222.062H650.398ZM662.672 226L666.867 214.727H668.258L672.445 226H670.969L669.828 222.773H665.289L664.148 226H662.672ZM667.547 216.414L665.719 221.578H669.406L667.578 216.414H667.547ZM676.43 226.156C674.352 226.156 672.977 224.5 672.977 221.938V221.93C672.977 219.367 674.367 217.719 676.406 217.719C677.555 217.719 678.5 218.297 679.008 219.234H679.039V214.727H680.398V226H679.039V224.625H679.008C678.5 225.57 677.594 226.156 676.43 226.156ZM676.695 224.953C678.07 224.953 679.047 223.758 679.047 221.938V221.93C679.047 220.117 678.062 218.922 676.695 218.922C675.258 218.922 674.367 220.078 674.367 221.93V221.938C674.367 223.805 675.258 224.953 676.695 224.953ZM685.289 226.156C683.211 226.156 681.836 224.5 681.836 221.938V221.93C681.836 219.367 683.227 217.719 685.266 217.719C686.414 217.719 687.359 218.297 687.867 219.234H687.898V214.727H689.258V226H687.898V224.625H687.867C687.359 225.57 686.453 226.156 685.289 226.156ZM685.555 224.953C686.93 224.953 687.906 223.758 687.906 221.938V221.93C687.906 220.117 686.922 218.922 685.555 218.922C684.117 218.922 683.227 220.078 683.227 221.93V221.938C683.227 223.805 684.117 224.953 685.555 224.953ZM694.586 226V214.727H698.602C700.719 214.727 702.219 216.188 702.219 218.328V218.344C702.219 220.484 700.719 221.977 698.602 221.977H695.992V226H694.586ZM698.242 215.977H695.992V220.727H698.242C699.852 220.727 700.781 219.844 700.781 218.359V218.344C700.781 216.859 699.852 215.977 698.242 215.977ZM703.695 226V214.727H705.055V226H703.695ZM709.266 226.156C707.648 226.156 706.562 225.18 706.562 223.703V223.688C706.562 222.305 707.641 221.438 709.508 221.328L711.836 221.195V220.516C711.836 219.523 711.188 218.922 710.055 218.922C709.008 218.922 708.352 219.422 708.195 220.148L708.18 220.219H706.867L706.875 220.133C706.992 218.797 708.156 217.719 710.07 217.719C711.992 217.719 713.195 218.758 713.195 220.383V226H711.836V224.68H711.805C711.328 225.57 710.352 226.156 709.266 226.156ZM707.953 223.703C707.953 224.484 708.594 224.977 709.57 224.977C710.852 224.977 711.836 224.094 711.836 222.914V222.25L709.664 222.383C708.578 222.445 707.953 222.93 707.953 223.688V223.703ZM714.922 226V217.875H716.281V219.031H716.312C716.75 218.273 717.578 217.719 718.812 217.719C720.594 217.719 721.625 218.875 721.625 220.727V226H720.266V220.969C720.266 219.648 719.648 218.922 718.398 218.922C717.117 218.922 716.281 219.836 716.281 221.219V226H714.922Z" fill="white"/>
<defs>
<filter id="filter0_d_2068_284" x="72" y="336" width="487.083" height="373.91" filterUnits="userSpaceOnUse" color-interpolation-filters="sRGB">
<feFlood flood-opacity="0" result="BackgroundImageFix"/>
<feColorMatrix in="SourceAlpha" type="matrix" values="0 0 0 0 0 0 0 0 0 0 0 0 0 0 0 0 0 0 127 0" result="hardAlpha"/>
<feOffset dy="6"/>
<feGaussianBlur stdDeviation="3"/>
<feComposite in2="hardAlpha" operator="out"/>
<feColorMatrix type="matrix" values="0 0 0 0 0 0 0 0 0 0 0 0 0 0 0 0 0 0 0.25 0"/>
<feBlend mode="normal" in2="BackgroundImageFix" result="effect1_dropShadow_2068_284"/>
<feBlend mode="normal" in="SourceGraphic" in2="effect1_dropShadow_2068_284" result="shape"/>
</filter>
<clipPath id="clip0_2068_284">
<rect x="78" y="336" width="475.083" height="361.91" rx="14.1572" fill="white"/>
</clipPath>
</defs>
</svg>
