<svg width="754" height="739" viewBox="0 0 754 739" fill="none" xmlns="http://www.w3.org/2000/svg">
<path fill-rule="evenodd" clip-rule="evenodd" d="M-299.181 442.072C-346.734 311.307 -414.662 151.664 -300.241 52.8492C-186.23 -45.6109 6.38965 20.7242 170.529 36.4278C321.533 50.8748 483.454 45.4344 586.191 137.656C707.069 246.162 798.052 403.357 731.55 540.028C667.763 671.118 466.532 697.863 298.926 728.024C171.029 751.039 42.6149 738.495 -70.586 684.374C-183.614 630.336 -261.7 545.142 -299.181 442.072Z" fill="#92C3E6" fill-opacity="0.1"/>
<g filter="url(#filter0_d_2010_40)">
<g clip-path="url(#clip0_2010_40)">
<rect x="87" y="352" width="475.083" height="361.91" rx="14.1572" fill="white"/>
<mask id="path-3-inside-1_2010_40" fill="white">
<path d="M87 352H562.051V458.965H87V352Z"/>
</mask>
<path d="M562.051 458.493H87V459.437H562.051V458.493Z" fill="black" fill-opacity="0.12" mask="url(#path-3-inside-1_2010_40)"/>
<path d="M145.612 415.752H141.302L131.297 402.067V415.752H126.83V394.768H131.423L141.145 407.95V394.768H145.612V415.752ZM162.774 415.752H158.779V414.179C157.74 415.406 155.947 416.13 153.965 416.13C151.543 416.13 148.68 414.494 148.68 411.096C148.68 407.541 151.543 406.188 153.965 406.188C155.979 406.188 157.772 406.849 158.779 408.045V406C158.779 404.458 157.457 403.451 155.444 403.451C153.808 403.451 152.298 404.049 151.008 405.245L149.498 402.571C151.354 400.935 153.745 400.18 156.136 400.18C159.597 400.18 162.774 401.564 162.774 405.937V415.752ZM155.57 413.424C156.86 413.424 158.118 412.984 158.779 412.103V410.215C158.118 409.335 156.86 408.894 155.57 408.894C153.997 408.894 152.707 409.712 152.707 411.191C152.707 412.606 153.997 413.424 155.57 413.424ZM189.609 415.752H185.582V406.157C185.582 404.741 184.953 403.735 183.317 403.735C181.901 403.735 180.737 404.678 180.171 405.496V415.752H176.144V406.157C176.144 404.741 175.515 403.735 173.879 403.735C172.494 403.735 171.33 404.678 170.733 405.528V415.752H166.737V400.557H170.733V402.539C171.362 401.627 173.375 400.18 175.703 400.18C177.937 400.18 179.353 401.218 179.919 402.948C180.8 401.564 182.813 400.18 185.141 400.18C187.941 400.18 189.609 401.658 189.609 404.773V415.752ZM200.669 416.13C196.044 416.13 192.552 413.015 192.552 408.139C192.552 403.735 195.793 400.18 200.417 400.18C204.948 400.18 208.031 403.577 208.031 408.548V409.429H196.737C196.988 411.348 198.53 412.952 201.109 412.952C202.399 412.952 204.193 412.386 205.168 411.442L206.93 414.022C205.42 415.406 203.029 416.13 200.669 416.13ZM204.161 406.723C204.067 405.276 203.06 403.357 200.417 403.357C197.932 403.357 196.862 405.213 196.674 406.723H204.161ZM223.528 415.752H219.061V394.768H228.876C233.438 394.768 235.923 397.851 235.923 401.532C235.923 405.182 233.407 408.296 228.876 408.296H223.528V415.752ZM228.278 404.364C230.04 404.364 231.362 403.263 231.362 401.532C231.362 399.771 230.04 398.701 228.278 398.701H223.528V404.364H228.278ZM242.594 415.752H238.598V394.768H242.594V415.752ZM259.674 415.752H255.679V414.179C254.641 415.406 252.848 416.13 250.866 416.13C248.443 416.13 245.58 414.494 245.58 411.096C245.58 407.541 248.443 406.188 250.866 406.188C252.879 406.188 254.672 406.849 255.679 408.045V406C255.679 404.458 254.358 403.451 252.344 403.451C250.708 403.451 249.198 404.049 247.908 405.245L246.398 402.571C248.254 400.935 250.645 400.18 253.036 400.18C256.497 400.18 259.674 401.564 259.674 405.937V415.752ZM252.47 413.424C253.76 413.424 255.018 412.984 255.679 412.103V410.215C255.018 409.335 253.76 408.894 252.47 408.894C250.897 408.894 249.607 409.712 249.607 411.191C249.607 412.606 250.897 413.424 252.47 413.424ZM277.889 415.752H273.894V406.566C273.894 404.458 272.792 403.735 271.094 403.735C269.521 403.735 268.294 404.615 267.633 405.528V415.752H263.637V400.557H267.633V402.539C268.608 401.375 270.464 400.18 272.95 400.18C276.285 400.18 277.889 402.067 277.889 405.024V415.752Z" fill="#3D3D3E"/>
<path d="M506.997 394.47L523.513 411.029" stroke="#C4C4C4" stroke-width="3.14604" stroke-linecap="round"/>
<path d="M523.513 394.47L506.997 411.029" stroke="#C4C4C4" stroke-width="3.14604" stroke-linecap="round"/>
<path d="M139.884 496.845H137.082L130.579 487.949V496.845H127.676V483.205H130.661L136.98 491.773V483.205H139.884V496.845ZM151.039 496.845H148.442V495.822C147.767 496.62 146.602 497.09 145.313 497.09C143.739 497.09 141.878 496.027 141.878 493.818C141.878 491.507 143.739 490.628 145.313 490.628C146.622 490.628 147.788 491.058 148.442 491.835V490.505C148.442 489.503 147.583 488.849 146.275 488.849C145.211 488.849 144.23 489.238 143.391 490.015L142.41 488.276C143.616 487.213 145.17 486.722 146.724 486.722C148.974 486.722 151.039 487.622 151.039 490.465V496.845ZM146.356 495.331C147.195 495.331 148.013 495.045 148.442 494.473V493.246C148.013 492.673 147.195 492.387 146.356 492.387C145.334 492.387 144.495 492.918 144.495 493.88C144.495 494.8 145.334 495.331 146.356 495.331ZM168.482 496.845H165.864V490.608C165.864 489.687 165.455 489.033 164.392 489.033C163.472 489.033 162.715 489.647 162.347 490.178V496.845H159.729V490.608C159.729 489.687 159.321 489.033 158.257 489.033C157.357 489.033 156.601 489.647 156.212 490.199V496.845H153.615V486.968H156.212V488.256C156.621 487.663 157.93 486.722 159.443 486.722C160.895 486.722 161.815 487.397 162.183 488.522C162.756 487.622 164.065 486.722 165.578 486.722C167.398 486.722 168.482 487.683 168.482 489.708V496.845ZM175.671 497.09C172.665 497.09 170.395 495.066 170.395 491.896C170.395 489.033 172.501 486.722 175.507 486.722C178.452 486.722 180.456 488.931 180.456 492.162V492.734H173.115C173.278 493.982 174.28 495.025 175.957 495.025C176.796 495.025 177.961 494.657 178.595 494.043L179.74 495.72C178.759 496.62 177.205 497.09 175.671 497.09ZM177.941 490.976C177.879 490.035 177.225 488.788 175.507 488.788C173.892 488.788 173.197 489.994 173.074 490.976H177.941Z" fill="#3D3D3E"/>
<rect x="126.719" y="512.845" width="397.187" height="46.404" rx="2.75278" fill="white" stroke="#C4C4C4" stroke-width="0.786509"/>
<path d="M151.993 542.461H145.777V528.821H151.85C154.222 528.821 155.674 530.253 155.674 532.297C155.674 534.015 154.529 535.16 153.281 535.426C154.733 535.651 155.94 537.144 155.94 538.78C155.94 540.968 154.488 542.461 151.993 542.461ZM151.564 534.731C153.097 534.731 153.915 533.79 153.915 532.543C153.915 531.316 153.097 530.334 151.564 530.334H147.474V534.731H151.564ZM151.646 540.947C153.241 540.947 154.181 540.048 154.181 538.596C154.181 537.348 153.322 536.244 151.646 536.244H147.474V540.947H151.646ZM166.285 542.461H164.752V541.336C163.934 542.236 162.809 542.706 161.48 542.706C159.803 542.706 158.024 541.581 158.024 539.434C158.024 537.226 159.803 536.183 161.48 536.183C162.829 536.183 163.954 536.612 164.752 537.532V535.753C164.752 534.424 163.688 533.668 162.257 533.668C161.071 533.668 160.11 534.097 159.23 535.038L158.515 533.974C159.578 532.87 160.846 532.338 162.461 532.338C164.547 532.338 166.285 533.279 166.285 535.672V542.461ZM162.032 541.602C163.116 541.602 164.159 541.193 164.752 540.375V538.514C164.159 537.696 163.116 537.287 162.032 537.287C160.6 537.287 159.598 538.187 159.598 539.455C159.598 540.702 160.6 541.602 162.032 541.602ZM173.715 542.706C170.771 542.706 168.787 540.457 168.787 537.512C168.787 534.588 170.771 532.338 173.715 532.338C175.515 532.338 176.578 533.074 177.335 534.056L176.312 534.997C175.658 534.097 174.82 533.708 173.797 533.708C171.691 533.708 170.382 535.324 170.382 537.512C170.382 539.7 171.691 541.336 173.797 541.336C174.82 541.336 175.658 540.927 176.312 540.048L177.335 540.988C176.578 541.97 175.515 542.706 173.715 542.706ZM188.175 542.461H186.212L182.654 538.023L181.018 539.639V542.461H179.484V528.821H181.018V537.839L186.212 532.584H188.155L183.779 537.062L188.175 542.461ZM198.189 542.461H196.655V541.07C195.898 541.929 194.61 542.706 193.138 542.706C191.072 542.706 189.989 541.704 189.989 539.557V532.584H191.522V539.087C191.522 540.825 192.402 541.336 193.731 541.336C194.937 541.336 196.083 540.641 196.655 539.843V532.584H198.189V542.461ZM206.119 542.706C204.769 542.706 203.583 542.072 202.785 540.968V546.223H201.252V532.584H202.785V534.056C203.501 533.054 204.728 532.338 206.119 532.338C208.716 532.338 210.515 534.301 210.515 537.512C210.515 540.702 208.716 542.706 206.119 542.706ZM205.73 541.336C207.714 541.336 208.9 539.7 208.9 537.512C208.9 535.324 207.714 533.708 205.73 533.708C204.524 533.708 203.317 534.424 202.785 535.283V539.741C203.317 540.6 204.524 541.336 205.73 541.336ZM219.76 539.782C220.292 540.641 221.498 541.336 222.705 541.336C224.709 541.336 225.895 539.72 225.895 537.532C225.895 535.344 224.709 533.708 222.705 533.708C221.498 533.708 220.292 534.445 219.76 535.303V539.782ZM219.76 542.461H218.226V528.821H219.76V534.077C220.557 532.993 221.743 532.338 223.093 532.338C225.67 532.338 227.49 534.383 227.49 537.532C227.49 540.743 225.67 542.706 223.093 542.706C221.703 542.706 220.496 541.99 219.76 540.988V542.461ZM237.698 542.461H236.164V541.336C235.346 542.236 234.221 542.706 232.892 542.706C231.215 542.706 229.436 541.581 229.436 539.434C229.436 537.226 231.215 536.183 232.892 536.183C234.242 536.183 235.367 536.612 236.164 537.532V535.753C236.164 534.424 235.101 533.668 233.669 533.668C232.483 533.668 231.522 534.097 230.643 535.038L229.927 533.974C230.99 532.87 232.258 532.338 233.874 532.338C235.96 532.338 237.698 533.279 237.698 535.672V542.461ZM233.444 541.602C234.528 541.602 235.571 541.193 236.164 540.375V538.514C235.571 537.696 234.528 537.287 233.444 537.287C232.013 537.287 231.011 538.187 231.011 539.455C231.011 540.702 232.013 541.602 233.444 541.602ZM245.128 542.706C242.183 542.706 240.2 540.457 240.2 537.512C240.2 534.588 242.183 532.338 245.128 532.338C246.927 532.338 247.991 533.074 248.747 534.056L247.725 534.997C247.071 534.097 246.232 533.708 245.21 533.708C243.103 533.708 241.795 535.324 241.795 537.512C241.795 539.7 243.103 541.336 245.21 541.336C246.232 541.336 247.071 540.927 247.725 540.048L248.747 540.988C247.991 541.97 246.927 542.706 245.128 542.706ZM259.588 542.461H257.625L254.067 538.023L252.431 539.639V542.461H250.897V528.821H252.431V537.839L257.625 532.584H259.567L255.191 537.062L259.588 542.461ZM269.601 542.461H268.068V541.07C267.311 541.929 266.023 542.706 264.55 542.706C262.485 542.706 261.401 541.704 261.401 539.557V532.584H262.935V539.087C262.935 540.825 263.814 541.336 265.143 541.336C266.35 541.336 267.495 540.641 268.068 539.843V532.584H269.601V542.461ZM277.531 542.706C276.182 542.706 274.995 542.072 274.198 540.968V546.223H272.664V532.584H274.198V534.056C274.914 533.054 276.141 532.338 277.531 532.338C280.128 532.338 281.928 534.301 281.928 537.512C281.928 540.702 280.128 542.706 277.531 542.706ZM277.143 541.336C279.126 541.336 280.312 539.7 280.312 537.512C280.312 535.324 279.126 533.708 277.143 533.708C275.936 533.708 274.73 534.424 274.198 535.283V539.741C274.73 540.6 275.936 541.336 277.143 541.336ZM294.506 542.706C293.156 542.706 291.97 542.072 291.172 540.968V546.223H289.639V532.584H291.172V534.056C291.888 533.054 293.115 532.338 294.506 532.338C297.103 532.338 298.902 534.301 298.902 537.512C298.902 540.702 297.103 542.706 294.506 542.706ZM294.117 541.336C296.101 541.336 297.287 539.7 297.287 537.512C297.287 535.324 296.101 533.708 294.117 533.708C292.911 533.708 291.704 534.424 291.172 535.283V539.741C291.704 540.6 292.911 541.336 294.117 541.336ZM302.875 542.461H301.341V528.821H302.875V542.461ZM313.644 542.461H312.11V541.336C311.292 542.236 310.167 542.706 308.838 542.706C307.161 542.706 305.382 541.581 305.382 539.434C305.382 537.226 307.161 536.183 308.838 536.183C310.188 536.183 311.312 536.612 312.11 537.532V535.753C312.11 534.424 311.046 533.668 309.615 533.668C308.429 533.668 307.468 534.097 306.589 535.038L305.873 533.974C306.936 532.87 308.204 532.338 309.82 532.338C311.905 532.338 313.644 533.279 313.644 535.672V542.461ZM309.39 541.602C310.474 541.602 311.517 541.193 312.11 540.375V538.514C311.517 537.696 310.474 537.287 309.39 537.287C307.959 537.287 306.957 538.187 306.957 539.455C306.957 540.702 307.959 541.602 309.39 541.602ZM324.918 542.461H323.384V535.999C323.384 534.261 322.505 533.708 321.176 533.708C319.969 533.708 318.824 534.445 318.252 535.242V542.461H316.718V532.584H318.252V534.015C318.947 533.197 320.297 532.338 321.769 532.338C323.834 532.338 324.918 533.381 324.918 535.528V542.461Z" fill="#3D3D3E"/>
<rect x="290.312" y="627.38" width="85.6739" height="55.6738" rx="4.3258" fill="white"/>
<rect x="290.312" y="627.38" width="85.6739" height="55.6738" rx="4.3258" stroke="#4D7D92" stroke-width="0.786509"/>
<path d="M315.494 662.717H307.843V645.93H315.318C318.237 645.93 320.024 647.691 320.024 650.208C320.024 652.322 318.615 653.732 317.079 654.059C318.866 654.336 320.351 656.173 320.351 658.187C320.351 660.88 318.564 662.717 315.494 662.717ZM314.965 653.203C316.853 653.203 317.86 652.045 317.86 650.51C317.86 649 316.853 647.792 314.965 647.792H309.932V653.203H314.965ZM315.091 660.854C317.029 660.854 318.187 659.747 318.187 657.96C318.187 656.425 317.13 655.066 315.091 655.066H309.932V660.854H315.091ZM333.084 662.717H331.196V661.333C330.215 662.44 328.805 663.019 327.17 663.019C325.131 663.019 322.941 661.635 322.941 658.992C322.941 656.249 325.106 654.99 327.17 654.99C328.831 654.99 330.215 655.519 331.196 656.626V654.436C331.196 652.826 329.888 651.894 328.126 651.894C326.666 651.894 325.483 652.398 324.401 653.581L323.52 652.272C324.829 650.913 326.389 650.258 328.378 650.258C330.97 650.258 333.084 651.416 333.084 654.361V662.717ZM327.874 661.66C329.183 661.66 330.467 661.156 331.196 660.15V657.834C330.467 656.853 329.183 656.349 327.874 656.349C326.087 656.349 324.854 657.457 324.854 658.992C324.854 660.552 326.087 661.66 327.874 661.66ZM342.253 663.019C338.629 663.019 336.188 660.225 336.188 656.626C336.188 653.027 338.629 650.258 342.253 650.258C344.468 650.258 345.777 651.165 346.708 652.373L345.45 653.505C344.644 652.398 343.612 651.945 342.354 651.945C339.787 651.945 338.151 653.933 338.151 656.626C338.151 659.319 339.787 661.333 342.354 661.333C343.612 661.333 344.644 660.829 345.45 659.747L346.708 660.905C345.777 662.113 344.468 663.019 342.253 663.019ZM360.075 662.717H357.659L353.305 657.255L351.266 659.244V662.717H349.378V645.93H351.266V657.029L357.659 650.561H360.05L354.664 656.072L360.075 662.717Z" fill="#4D7D92"/>
<rect x="392.11" y="620.987" width="131.46" height="62.4604" rx="4.71905" fill="#4D7D92"/>
<path d="M424.39 659.717H421.999L420.515 655.992H412.159L410.674 659.717H408.283L415.028 642.93H417.62L424.39 659.717ZM419.885 654.129L416.337 645.094L412.763 654.129H419.885ZM437.206 659.717H435.319V657.905C434.413 659.138 432.928 660.019 431.216 660.019C428.045 660.019 425.805 657.603 425.805 653.651C425.805 649.775 428.02 647.258 431.216 647.258C432.852 647.258 434.337 648.064 435.319 649.398V642.93H437.206V659.717ZM431.669 658.333C433.179 658.333 434.639 657.477 435.319 656.42V650.908C434.639 649.851 433.179 648.945 431.669 648.945C429.228 648.945 427.768 650.958 427.768 653.651C427.768 656.344 429.228 658.333 431.669 658.333ZM451.683 659.717H449.795V657.905C448.889 659.138 447.404 660.019 445.693 660.019C442.522 660.019 440.282 657.603 440.282 653.651C440.282 649.775 442.496 647.258 445.693 647.258C447.329 647.258 448.814 648.064 449.795 649.398V642.93H451.683V659.717ZM446.146 658.333C447.656 658.333 449.116 657.477 449.795 656.42V650.908C449.116 649.851 447.656 648.945 446.146 648.945C443.705 648.945 442.245 650.958 442.245 653.651C442.245 656.344 443.705 658.333 446.146 658.333ZM464.116 659.717H462.027V642.93H468.772C472.145 642.93 474.033 645.245 474.033 647.988C474.033 650.732 472.095 653.047 468.772 653.047H464.116V659.717ZM468.521 651.185C470.509 651.185 471.868 649.876 471.868 647.988C471.868 646.101 470.509 644.792 468.521 644.792H464.116V651.185H468.521ZM478.611 659.717H476.723V642.93H478.611V659.717ZM491.865 659.717H489.977V658.333C488.97 659.44 487.586 660.019 485.95 660.019C483.887 660.019 481.697 658.635 481.697 655.992C481.697 653.274 483.887 651.99 485.95 651.99C487.611 651.99 488.996 652.519 489.977 653.651V651.462C489.977 649.826 488.668 648.894 486.907 648.894C485.447 648.894 484.264 649.423 483.182 650.581L482.301 649.272C483.61 647.913 485.17 647.258 487.158 647.258C489.726 647.258 491.865 648.416 491.865 651.361V659.717ZM486.63 658.66C487.964 658.66 489.247 658.156 489.977 657.15V654.859C489.247 653.853 487.964 653.349 486.63 653.349C484.868 653.349 483.635 654.457 483.635 656.017C483.635 657.552 484.868 658.66 486.63 658.66ZM505.741 659.717H503.854V651.764C503.854 649.624 502.771 648.945 501.135 648.945C499.651 648.945 498.241 649.851 497.536 650.832V659.717H495.649V647.561H497.536V649.322C498.392 648.316 500.053 647.258 501.865 647.258C504.407 647.258 505.741 648.542 505.741 651.185V659.717Z" fill="white"/>
</g>
</g>
<path d="M361.5 223C361.5 221.619 362.619 220.5 364 220.5H582C583.381 220.5 584.5 221.619 584.5 223V261.5H361.5V223Z" fill="white"/>
<path d="M361.5 223C361.5 221.619 362.619 220.5 364 220.5H582C583.381 220.5 584.5 221.619 584.5 223V261.5H361.5V223Z" stroke="#636363"/>
<path d="M392.474 235.437L394.592 237.37M393.836 233.735L388.109 238.964C387.813 239.233 387.611 239.577 387.529 239.952L387 242.369L389.648 241.885C390.058 241.811 390.434 241.627 390.73 241.357L396.457 236.128C396.629 235.971 396.766 235.784 396.859 235.579C396.952 235.373 397 235.153 397 234.931C397 234.709 396.952 234.489 396.859 234.284C396.766 234.078 396.629 233.892 396.457 233.735C396.285 233.578 396.081 233.453 395.856 233.368C395.631 233.283 395.39 233.239 395.147 233.239C394.903 233.239 394.662 233.283 394.437 233.368C394.213 233.453 394.008 233.578 393.836 233.735V233.735Z" stroke="#636363" stroke-width="1.5" stroke-linecap="round" stroke-linejoin="round"/>
<path d="M395 244.195V246.935C395 247.419 394.789 247.883 394.414 248.226C394.039 248.568 393.531 248.761 393 248.761H382C381.47 248.761 380.961 248.568 380.586 248.226C380.211 247.883 380 247.419 380 246.935V236.891C380 236.407 380.211 235.942 380.586 235.6C380.961 235.257 381.47 235.065 382 235.065H385" stroke="#636363" stroke-width="1.5" stroke-linecap="round" stroke-linejoin="round"/>
<path d="M417.25 247V235.727H419.578L423.031 244.336H423.086L426.539 235.727H428.867V247H427.055V238.984H426.992L423.742 247H422.375L419.125 238.984H419.07V247H417.25ZM436.031 247V242.555L432.078 235.727H434.281L437.008 240.633H437.062L439.789 235.727H441.992L438.039 242.555V247H436.031ZM450.406 247V235.727H454.75C457.031 235.727 458.586 237.234 458.586 239.492V239.508C458.586 241.758 457.031 243.273 454.75 243.273H452.422V247H450.406ZM454.25 237.375H452.422V241.648H454.25C455.695 241.648 456.539 240.867 456.539 239.516V239.5C456.539 238.148 455.695 237.375 454.25 237.375ZM462.062 247V235.727H464.078V245.305H469.195V247H462.062ZM471.859 247L475.891 235.727H478.156L482.188 247H480.07L479.117 244.086H474.922L473.969 247H471.859ZM477 237.734L475.43 242.531H478.609L477.047 237.734H477ZM485.391 247V235.727H487.203L492.695 243.625H492.742V235.727H494.742V247H492.945L487.438 239.07H487.398V247H485.391Z" fill="#636363"/>
<path d="M559.5 246.478L552.139 238.261H566.861L559.5 246.478Z" fill="#7B7D7E"/>
<rect x="610" y="224" width="96" height="34" rx="3" fill="#4D7D92"/>
<path d="M622.398 243.062V241.797H625.727V238.562H626.992V241.797H630.328V243.062H626.992V246.297H625.727V243.062H622.398ZM634.672 247L638.867 235.727H640.258L644.445 247H642.969L641.828 243.773H637.289L636.148 247H634.672ZM639.547 237.414L637.719 242.578H641.406L639.578 237.414H639.547ZM648.43 247.156C646.352 247.156 644.977 245.5 644.977 242.938V242.93C644.977 240.367 646.367 238.719 648.406 238.719C649.555 238.719 650.5 239.297 651.008 240.234H651.039V235.727H652.398V247H651.039V245.625H651.008C650.5 246.57 649.594 247.156 648.43 247.156ZM648.695 245.953C650.07 245.953 651.047 244.758 651.047 242.938V242.93C651.047 241.117 650.062 239.922 648.695 239.922C647.258 239.922 646.367 241.078 646.367 242.93V242.938C646.367 244.805 647.258 245.953 648.695 245.953ZM657.289 247.156C655.211 247.156 653.836 245.5 653.836 242.938V242.93C653.836 240.367 655.227 238.719 657.266 238.719C658.414 238.719 659.359 239.297 659.867 240.234H659.898V235.727H661.258V247H659.898V245.625H659.867C659.359 246.57 658.453 247.156 657.289 247.156ZM657.555 245.953C658.93 245.953 659.906 244.758 659.906 242.938V242.93C659.906 241.117 658.922 239.922 657.555 239.922C656.117 239.922 655.227 241.078 655.227 242.93V242.938C655.227 244.805 656.117 245.953 657.555 245.953ZM666.586 247V235.727H670.602C672.719 235.727 674.219 237.188 674.219 239.328V239.344C674.219 241.484 672.719 242.977 670.602 242.977H667.992V247H666.586ZM670.242 236.977H667.992V241.727H670.242C671.852 241.727 672.781 240.844 672.781 239.359V239.344C672.781 237.859 671.852 236.977 670.242 236.977ZM675.695 247V235.727H677.055V247H675.695ZM681.266 247.156C679.648 247.156 678.562 246.18 678.562 244.703V244.688C678.562 243.305 679.641 242.438 681.508 242.328L683.836 242.195V241.516C683.836 240.523 683.188 239.922 682.055 239.922C681.008 239.922 680.352 240.422 680.195 241.148L680.18 241.219H678.867L678.875 241.133C678.992 239.797 680.156 238.719 682.07 238.719C683.992 238.719 685.195 239.758 685.195 241.383V247H683.836V245.68H683.805C683.328 246.57 682.352 247.156 681.266 247.156ZM679.953 244.703C679.953 245.484 680.594 245.977 681.57 245.977C682.852 245.977 683.836 245.094 683.836 243.914V243.25L681.664 243.383C680.578 243.445 679.953 243.93 679.953 244.688V244.703ZM686.922 247V238.875H688.281V240.031H688.312C688.75 239.273 689.578 238.719 690.812 238.719C692.594 238.719 693.625 239.875 693.625 241.727V247H692.266V241.969C692.266 240.648 691.648 239.922 690.398 239.922C689.117 239.922 688.281 240.836 688.281 242.219V247H686.922Z" fill="white"/>
<path d="M87.5 141.5H310.5V182.5H87.5V141.5Z" fill="white"/>
<path d="M87.5 141.5H310.5V182.5H87.5V141.5Z" stroke="#636363"/>
<path d="M107.102 168V156.727H108.914L114.406 164.625H114.453V156.727H116.453V168H114.656L109.148 160.07H109.109V168H107.102ZM123.891 168.164C121.406 168.164 119.906 166.516 119.906 163.883V163.875C119.906 161.266 121.43 159.547 123.797 159.547C126.164 159.547 127.633 161.211 127.633 163.711V164.336H121.836C121.867 165.789 122.664 166.648 123.93 166.648C124.898 166.648 125.531 166.133 125.719 165.578L125.734 165.523H127.555L127.531 165.609C127.273 166.883 126.055 168.164 123.891 168.164ZM123.82 161.07C122.789 161.07 122.016 161.766 121.859 163.039H125.742C125.602 161.727 124.852 161.07 123.82 161.07ZM132.477 168L130.234 159.719H132.188L133.586 166.078H133.625L135.242 159.719H137.109L138.727 166.078H138.773L140.172 159.719H142.094L139.852 168H137.805L136.172 161.945H136.133L134.508 168H132.477ZM150.461 168V156.727H154.805C157.086 156.727 158.641 158.234 158.641 160.492V160.508C158.641 162.758 157.086 164.273 154.805 164.273H152.477V168H150.461ZM154.305 158.375H152.477V162.648H154.305C155.75 162.648 156.594 161.867 156.594 160.516V160.5C156.594 159.148 155.75 158.375 154.305 158.375ZM161.977 168V156.727H163.922V168H161.977ZM170.023 168.141C168.367 168.141 167.25 167.117 167.25 165.641V165.625C167.25 164.156 168.391 163.273 170.398 163.148L172.562 163.016V162.445C172.562 161.609 172.016 161.102 171.031 161.102C170.109 161.102 169.547 161.531 169.422 162.141L169.406 162.211H167.602L167.609 162.117C167.727 160.648 169 159.547 171.102 159.547C173.172 159.547 174.508 160.641 174.508 162.305V168H172.562V166.727H172.516C172.039 167.594 171.117 168.141 170.023 168.141ZM169.188 165.562C169.188 166.242 169.75 166.656 170.602 166.656C171.719 166.656 172.562 165.914 172.562 164.93V164.305L170.672 164.422C169.711 164.484 169.188 164.898 169.188 165.555V165.562ZM178.078 168V159.719H180.023V161.016H180.062C180.492 160.125 181.336 159.547 182.594 159.547C184.414 159.547 185.453 160.719 185.453 162.641V168H183.508V163.031C183.508 161.852 182.961 161.188 181.852 161.188C180.734 161.188 180.023 162 180.023 163.195V168H178.078ZM197.102 168V158.648H197.055L194.141 160.648V158.797L197.086 156.727H199.078V168H197.102Z" fill="#636363"/>
<path d="M87.5 141.5H310.5V180C310.5 181.381 309.381 182.5 308 182.5H90C88.6193 182.5 87.5 181.381 87.5 180V141.5Z" fill="white"/>
<path d="M87.5 141.5H310.5V180C310.5 181.381 309.381 182.5 308 182.5H90C88.6193 182.5 87.5 181.381 87.5 180V141.5Z" stroke="#636363"/>
<path d="M107.102 168V156.727H108.914L114.406 164.625H114.453V156.727H116.453V168H114.656L109.148 160.07H109.109V168H107.102ZM123.891 168.164C121.406 168.164 119.906 166.516 119.906 163.883V163.875C119.906 161.266 121.43 159.547 123.797 159.547C126.164 159.547 127.633 161.211 127.633 163.711V164.336H121.836C121.867 165.789 122.664 166.648 123.93 166.648C124.898 166.648 125.531 166.133 125.719 165.578L125.734 165.523H127.555L127.531 165.609C127.273 166.883 126.055 168.164 123.891 168.164ZM123.82 161.07C122.789 161.07 122.016 161.766 121.859 163.039H125.742C125.602 161.727 124.852 161.07 123.82 161.07ZM132.477 168L130.234 159.719H132.188L133.586 166.078H133.625L135.242 159.719H137.109L138.727 166.078H138.773L140.172 159.719H142.094L139.852 168H137.805L136.172 161.945H136.133L134.508 168H132.477ZM150.461 168V156.727H154.805C157.086 156.727 158.641 158.234 158.641 160.492V160.508C158.641 162.758 157.086 164.273 154.805 164.273H152.477V168H150.461ZM154.305 158.375H152.477V162.648H154.305C155.75 162.648 156.594 161.867 156.594 160.516V160.5C156.594 159.148 155.75 158.375 154.305 158.375ZM161.977 168V156.727H163.922V168H161.977ZM170.023 168.141C168.367 168.141 167.25 167.117 167.25 165.641V165.625C167.25 164.156 168.391 163.273 170.398 163.148L172.562 163.016V162.445C172.562 161.609 172.016 161.102 171.031 161.102C170.109 161.102 169.547 161.531 169.422 162.141L169.406 162.211H167.602L167.609 162.117C167.727 160.648 169 159.547 171.102 159.547C173.172 159.547 174.508 160.641 174.508 162.305V168H172.562V166.727H172.516C172.039 167.594 171.117 168.141 170.023 168.141ZM169.188 165.562C169.188 166.242 169.75 166.656 170.602 166.656C171.719 166.656 172.562 165.914 172.562 164.93V164.305L170.672 164.422C169.711 164.484 169.188 164.898 169.188 165.555V165.562ZM178.078 168V159.719H180.023V161.016H180.062C180.492 160.125 181.336 159.547 182.594 159.547C184.414 159.547 185.453 160.719 185.453 162.641V168H183.508V163.031C183.508 161.852 182.961 161.188 181.852 161.188C180.734 161.188 180.023 162 180.023 163.195V168H178.078ZM197.102 168V158.648H197.055L194.141 160.648V158.797L197.086 156.727H199.078V168H197.102Z" fill="#636363"/>
<path d="M87.5 181.5H310.5V220C310.5 221.381 309.381 222.5 308 222.5H90C88.6193 222.5 87.5 221.381 87.5 220V181.5Z" fill="white"/>
<path d="M87.5 181.5H310.5V220C310.5 221.381 309.381 222.5 308 222.5H90C88.6193 222.5 87.5 221.381 87.5 220V181.5Z" stroke="#636363"/>
<path d="M107.117 208V196.727H108.93L114.422 204.625H114.469V196.727H116.469V208H114.672L109.164 200.07H109.125V208H107.117ZM123.906 208.164C121.422 208.164 119.922 206.516 119.922 203.883V203.875C119.922 201.266 121.445 199.547 123.812 199.547C126.18 199.547 127.648 201.211 127.648 203.711V204.336H121.852C121.883 205.789 122.68 206.648 123.945 206.648C124.914 206.648 125.547 206.133 125.734 205.578L125.75 205.523H127.57L127.547 205.609C127.289 206.883 126.07 208.164 123.906 208.164ZM123.836 201.07C122.805 201.07 122.031 201.766 121.875 203.039H125.758C125.617 201.727 124.867 201.07 123.836 201.07ZM132.492 208L130.25 199.719H132.203L133.602 206.078H133.641L135.258 199.719H137.125L138.742 206.078H138.789L140.188 199.719H142.109L139.867 208H137.82L136.188 201.945H136.148L134.523 208H132.492ZM150.477 208V196.727H154.82C157.102 196.727 158.656 198.234 158.656 200.492V200.508C158.656 202.758 157.102 204.273 154.82 204.273H152.492V208H150.477ZM154.32 198.375H152.492V202.648H154.32C155.766 202.648 156.609 201.867 156.609 200.516V200.5C156.609 199.148 155.766 198.375 154.32 198.375ZM161.992 208V196.727H163.938V208H161.992ZM170.039 208.141C168.383 208.141 167.266 207.117 167.266 205.641V205.625C167.266 204.156 168.406 203.273 170.414 203.148L172.578 203.016V202.445C172.578 201.609 172.031 201.102 171.047 201.102C170.125 201.102 169.562 201.531 169.438 202.141L169.422 202.211H167.617L167.625 202.117C167.742 200.648 169.016 199.547 171.117 199.547C173.188 199.547 174.523 200.641 174.523 202.305V208H172.578V206.727H172.531C172.055 207.594 171.133 208.141 170.039 208.141ZM169.203 205.562C169.203 206.242 169.766 206.656 170.617 206.656C171.734 206.656 172.578 205.914 172.578 204.93V204.305L170.688 204.422C169.727 204.484 169.203 204.898 169.203 205.555V205.562ZM178.094 208V199.719H180.039V201.016H180.078C180.508 200.125 181.352 199.547 182.609 199.547C184.43 199.547 185.469 200.719 185.469 202.641V208H183.523V203.031C183.523 201.852 182.977 201.188 181.867 201.188C180.75 201.188 180.039 202 180.039 203.195V208H178.094ZM194.273 208V206.625L198.258 202.742C199.734 201.297 200.055 200.727 200.055 199.891V199.875C200.047 198.867 199.289 198.148 198.203 198.148C196.953 198.148 196.078 198.984 196.055 200.07V200.125H194.164V200.07C194.164 198.008 195.898 196.531 198.188 196.531C200.445 196.531 202.023 197.898 202.023 199.758V199.773C202.023 201.102 201.406 202 199.422 203.906L196.938 206.266V206.352H202.195V208H194.273Z" fill="#636363"/>
<path d="M87.5 221.5H310.5V262.5H87.5V221.5Z" fill="white"/>
<path d="M87.5 221.5H310.5V262.5H87.5V221.5Z" stroke="#636363"/>
<path d="M108.906 248V236.727H110.719L116.211 244.625H116.258V236.727H118.258V248H116.461L110.953 240.07H110.914V248H108.906ZM125.695 248.164C123.211 248.164 121.711 246.516 121.711 243.883V243.875C121.711 241.266 123.234 239.547 125.602 239.547C127.969 239.547 129.438 241.211 129.438 243.711V244.336H123.641C123.672 245.789 124.469 246.648 125.734 246.648C126.703 246.648 127.336 246.133 127.523 245.578L127.539 245.523H129.359L129.336 245.609C129.078 246.883 127.859 248.164 125.695 248.164ZM125.625 241.07C124.594 241.07 123.82 241.766 123.664 243.039H127.547C127.406 241.727 126.656 241.07 125.625 241.07ZM134.281 248L132.039 239.719H133.992L135.391 246.078H135.43L137.047 239.719H138.914L140.531 246.078H140.578L141.977 239.719H143.898L141.656 248H139.609L137.977 241.945H137.938L136.312 248H134.281ZM152.266 248V236.727H156.609C158.891 236.727 160.445 238.234 160.445 240.492V240.508C160.445 242.758 158.891 244.273 156.609 244.273H154.281V248H152.266ZM156.109 238.375H154.281V242.648H156.109C157.555 242.648 158.398 241.867 158.398 240.516V240.5C158.398 239.148 157.555 238.375 156.109 238.375ZM163.781 248V236.727H165.727V248H163.781ZM171.828 248.141C170.172 248.141 169.055 247.117 169.055 245.641V245.625C169.055 244.156 170.195 243.273 172.203 243.148L174.367 243.016V242.445C174.367 241.609 173.82 241.102 172.836 241.102C171.914 241.102 171.352 241.531 171.227 242.141L171.211 242.211H169.406L169.414 242.117C169.531 240.648 170.805 239.547 172.906 239.547C174.977 239.547 176.312 240.641 176.312 242.305V248H174.367V246.727H174.32C173.844 247.594 172.922 248.141 171.828 248.141ZM170.992 245.562C170.992 246.242 171.555 246.656 172.406 246.656C173.523 246.656 174.367 245.914 174.367 244.93V244.305L172.477 244.422C171.516 244.484 170.992 244.898 170.992 245.555V245.562ZM179.883 248V239.719H181.828V241.016H181.867C182.297 240.125 183.141 239.547 184.398 239.547C186.219 239.547 187.258 240.719 187.258 242.641V248H185.312V243.031C185.312 241.852 184.766 241.188 183.656 241.188C182.539 241.188 181.828 242 181.828 243.195V248H179.883ZM200.117 248.195C197.641 248.195 196.031 246.867 195.875 244.977L195.867 244.883H197.797L197.805 244.969C197.914 245.883 198.789 246.547 200.109 246.547C201.414 246.547 202.281 245.828 202.281 244.805V244.789C202.281 243.602 201.406 242.945 199.969 242.945H198.633V241.445H199.922C201.164 241.445 201.992 240.742 201.992 239.758V239.742C201.992 238.727 201.305 238.133 200.094 238.133C198.906 238.133 198.094 238.75 197.992 239.719L197.984 239.797H196.109L196.117 239.703C196.281 237.797 197.82 236.531 200.094 236.531C202.422 236.531 203.93 237.727 203.93 239.477V239.492C203.93 240.891 202.914 241.82 201.562 242.102V242.141C203.227 242.297 204.328 243.281 204.328 244.844V244.859C204.328 246.82 202.609 248.195 200.117 248.195Z" fill="#636363"/>
<path d="M87.5 262.5H310.5V301C310.5 302.381 309.381 303.5 308 303.5H90C88.6193 303.5 87.5 302.381 87.5 301V262.5Z" fill="white"/>
<path d="M87.5 262.5H310.5V301C310.5 302.381 309.381 303.5 308 303.5H90C88.6193 303.5 87.5 302.381 87.5 301V262.5Z" stroke="#636363"/>
<path d="M108.281 289V277.727H110.094L115.586 285.625H115.633V277.727H117.633V289H115.836L110.328 281.07H110.289V289H108.281ZM125.07 289.164C122.586 289.164 121.086 287.516 121.086 284.883V284.875C121.086 282.266 122.609 280.547 124.977 280.547C127.344 280.547 128.812 282.211 128.812 284.711V285.336H123.016C123.047 286.789 123.844 287.648 125.109 287.648C126.078 287.648 126.711 287.133 126.898 286.578L126.914 286.523H128.734L128.711 286.609C128.453 287.883 127.234 289.164 125.07 289.164ZM125 282.07C123.969 282.07 123.195 282.766 123.039 284.039H126.922C126.781 282.727 126.031 282.07 125 282.07ZM133.656 289L131.414 280.719H133.367L134.766 287.078H134.805L136.422 280.719H138.289L139.906 287.078H139.953L141.352 280.719H143.273L141.031 289H138.984L137.352 282.945H137.312L135.688 289H133.656ZM151.641 289V277.727H155.984C158.266 277.727 159.82 279.234 159.82 281.492V281.508C159.82 283.758 158.266 285.273 155.984 285.273H153.656V289H151.641ZM155.484 279.375H153.656V283.648H155.484C156.93 283.648 157.773 282.867 157.773 281.516V281.5C157.773 280.148 156.93 279.375 155.484 279.375ZM163.156 289V277.727H165.102V289H163.156ZM171.203 289.141C169.547 289.141 168.43 288.117 168.43 286.641V286.625C168.43 285.156 169.57 284.273 171.578 284.148L173.742 284.016V283.445C173.742 282.609 173.195 282.102 172.211 282.102C171.289 282.102 170.727 282.531 170.602 283.141L170.586 283.211H168.781L168.789 283.117C168.906 281.648 170.18 280.547 172.281 280.547C174.352 280.547 175.688 281.641 175.688 283.305V289H173.742V287.727H173.695C173.219 288.594 172.297 289.141 171.203 289.141ZM170.367 286.562C170.367 287.242 170.93 287.656 171.781 287.656C172.898 287.656 173.742 286.914 173.742 285.93V285.305L171.852 285.422C170.891 285.484 170.367 285.898 170.367 286.555V286.562ZM179.258 289V280.719H181.203V282.016H181.242C181.672 281.125 182.516 280.547 183.773 280.547C185.594 280.547 186.633 281.719 186.633 283.641V289H184.688V284.031C184.688 282.852 184.141 282.188 183.031 282.188C181.914 282.188 181.203 283 181.203 284.195V289H179.258ZM200.805 289V286.836H195.18V285.117L199.859 277.727H202.727V285.18H204.258V286.836H202.727V289H200.805ZM196.992 285.227H200.836V279.25H200.789L196.992 285.172V285.227Z" fill="#636363"/>
<defs>
<filter id="filter0_d_2010_40" x="81" y="352" width="487.083" height="373.91" filterUnits="userSpaceOnUse" color-interpolation-filters="sRGB">
<feFlood flood-opacity="0" result="BackgroundImageFix"/>
<feColorMatrix in="SourceAlpha" type="matrix" values="0 0 0 0 0 0 0 0 0 0 0 0 0 0 0 0 0 0 127 0" result="hardAlpha"/>
<feOffset dy="6"/>
<feGaussianBlur stdDeviation="3"/>
<feComposite in2="hardAlpha" operator="out"/>
<feColorMatrix type="matrix" values="0 0 0 0 0 0 0 0 0 0 0 0 0 0 0 0 0 0 0.25 0"/>
<feBlend mode="normal" in2="BackgroundImageFix" result="effect1_dropShadow_2010_40"/>
<feBlend mode="normal" in="SourceGraphic" in2="effect1_dropShadow_2010_40" result="shape"/>
</filter>
<clipPath id="clip0_2010_40">
<rect x="87" y="352" width="475.083" height="361.91" rx="14.1572" fill="white"/>
</clipPath>
</defs>
</svg>
