<svg width="460" height="144" viewBox="0 0 460 144" fill="none" xmlns="http://www.w3.org/2000/svg">
<g clip-path="url(#clip0)">
<path fill-rule="evenodd" clip-rule="evenodd" d="M75.5972 13.1587H100.931C101.667 13.1587 102.264 13.8034 102.264 14.5987V83.7187C102.264 84.514 101.667 85.1587 100.931 85.1587H75.5972C74.8609 85.1587 74.2639 84.514 74.2639 83.7187V14.5987C74.2639 13.8034 74.8609 13.1587 75.5972 13.1587Z" fill="#1AA9A5"/>
<path fill-rule="evenodd" clip-rule="evenodd" d="M102.264 121.159L102.264 142.064C102.264 142.669 101.764 143.159 101.264 143.159L75.2639 143.159C74.7639 143.159 74.2639 142.669 74.2639 142.064L74.2639 121.254C74.2639 120.649 74.7639 120.159 75.2639 120.159L101.264 120.159C101.764 120.159 102.264 120.554 102.264 121.159Z" fill="#105351"/>
<path fill-rule="evenodd" clip-rule="evenodd" d="M23.9895 85.336L10.0005 85.336C9.05704 85.336 8.42778 84.3626 8.81515 83.5023L39.9994 14.2468C40.1715 13.8646 40.4592 13.5462 40.8221 13.3365L40.9622 13.2555C41.1599 13.1411 41.3844 13.0809 41.6128 13.0809L68.2002 13.0809C69.144 13.0809 69.7733 14.0549 69.3853 14.9153L37.9695 84.5885C37.7589 85.0558 37.2917 85.3556 36.7791 85.3542C30.1332 85.336 25.9094 85.336 23.9895 85.336Z" fill="#92C3E6"/>
<path fill-rule="evenodd" clip-rule="evenodd" d="M117.837 91.6591L117.837 113.659C117.837 114.317 117.468 115.159 116.264 115.159L10.264 115.159C9.06003 115.159 8.83667 114.626 8.83667 113.968L8.83667 91.6591C8.83667 91.0016 9.06003 90.1586 10.264 90.1586L116.264 90.1586C117.468 90.1586 117.837 91.0016 117.837 91.6591Z" fill="#508197"/>
<path fill-rule="evenodd" clip-rule="evenodd" d="M171.437 49.9799H201.837C202.72 49.9799 203.437 50.7105 203.437 51.6119V129.948C203.437 130.849 202.72 131.58 201.837 131.58H171.437C170.553 131.58 169.837 130.849 169.837 129.948V51.6119C169.837 50.7105 170.553 49.9799 171.437 49.9799Z" fill="#508197"/>
<path fill-rule="evenodd" clip-rule="evenodd" d="M289.837 99.5791L289.837 129.979C289.837 130.863 289.106 131.579 288.205 131.579L209.869 131.579C208.967 131.579 208.237 130.863 208.237 129.979L208.237 99.5791C208.237 98.6955 208.967 97.9791 209.869 97.9791L288.205 97.9791C289.106 97.9791 289.837 98.6955 289.837 99.5791Z" fill="#105351"/>
<path fill-rule="evenodd" clip-rule="evenodd" d="M288.237 93.179L257.837 93.179C256.953 93.179 256.237 92.4483 256.237 91.5469L256.237 13.2108C256.237 12.3095 256.953 11.5788 257.837 11.5788L288.237 11.5788C289.12 11.5788 289.837 12.3095 289.837 13.2108L289.837 91.5469C289.837 92.4483 289.12 93.179 288.237 93.179Z" fill="#1AA9A5"/>
<path fill-rule="evenodd" clip-rule="evenodd" d="M251.437 13.1795L251.437 43.5795C251.437 44.4632 250.706 45.1795 249.805 45.1795L171.469 45.1795C170.567 45.1795 169.837 44.4632 169.837 43.5795L169.837 13.1795C169.837 12.2958 170.567 11.5795 171.469 11.5795L249.805 11.5795C250.706 11.5795 251.437 12.2958 251.437 13.1795Z" fill="#92C3E6"/>
<path fill-rule="evenodd" clip-rule="evenodd" d="M417.434 13.1587H442.767C443.504 13.1587 444.101 13.8034 444.101 14.5987V83.7187C444.101 84.514 443.504 85.1587 442.767 85.1587H417.434C416.698 85.1587 416.101 84.514 416.101 83.7187V14.5987C416.101 13.8034 416.698 13.1587 417.434 13.1587Z" fill="#1AA9A5"/>
<path fill-rule="evenodd" clip-rule="evenodd" d="M444.101 121.159V142.064C444.101 142.669 443.601 143.159 443.101 143.159L417.101 143.159C416.601 143.159 416.101 142.669 416.101 142.064L416.101 121.254C416.101 120.649 416.601 120.159 417.101 120.159L443.101 120.159C443.601 120.159 444.101 120.554 444.101 121.159Z" fill="#105351"/>
<path fill-rule="evenodd" clip-rule="evenodd" d="M365.826 85.336L351.837 85.336C350.894 85.336 350.264 84.3626 350.652 83.5023L381.836 14.2468C382.008 13.8646 382.296 13.5462 382.659 13.3365L382.799 13.2555C382.996 13.1411 383.221 13.0809 383.449 13.0809L410.037 13.0809C410.981 13.0809 411.61 14.0549 411.222 14.9153L379.806 84.5885C379.595 85.0558 379.128 85.3556 378.616 85.3542C371.97 85.336 367.746 85.336 365.826 85.336Z" fill="#92C3E6"/>
<path fill-rule="evenodd" clip-rule="evenodd" d="M459.673 91.6591L459.673 113.659C459.673 114.317 459.305 115.159 458.101 115.159L352.101 115.159C350.897 115.159 350.673 114.626 350.673 113.968L350.673 91.6591C350.673 91.0016 350.897 90.1586 352.101 90.1586L458.101 90.1586C459.305 90.1586 459.673 91.0016 459.673 91.6591Z" fill="#508197"/>
</g>
<defs>
<clipPath id="clip0">
<rect width="459.673" height="143.159" fill="white"/>
</clipPath>
</defs>
</svg>
