<svg width="440" height="139" viewBox="0 0 440 139" fill="none" xmlns="http://www.w3.org/2000/svg">
<path fill-rule="evenodd" clip-rule="evenodd" d="M23.511 85.3361L7.51096 85.3361L39.4461 15.9895C40.2626 14.2167 42.0359 13.081 43.9877 13.081L69.7339 13.081L37.1447 85.3566C30.011 85.3361 25.511 85.3361 23.511 85.3361Z" fill="#92C3E6"/>
<path d="M12.5215 113C9.76009 113 7.52151 110.761 7.52151 108L7.52151 88H111.522C114.283 88 116.522 90.2386 116.522 93V108C116.522 110.761 114.283 113 111.522 113H12.5215Z" fill="#508197"/>
<path d="M100.522 116V134C100.522 136.761 98.2829 139 95.5215 139H77.5215C74.7601 139 72.5215 136.761 72.5215 134V116H100.522Z" fill="#105351"/>
<path d="M72.5215 13H95.5215C98.2829 13 100.522 15.2386 100.522 18V85H72.5215V13Z" fill="#1AA9A5"/>
<path fill-rule="evenodd" clip-rule="evenodd" d="M346.032 85.048L330.032 85.048L361.968 15.7014C362.784 13.9286 364.557 12.7929 366.509 12.7929L392.255 12.7929L359.666 85.0685C352.532 85.048 348.032 85.048 346.032 85.048Z" fill="#92C3E6"/>
<path d="M335.043 112.712C332.282 112.712 330.043 110.473 330.043 107.712V87.7119H434.043C436.804 87.7119 439.043 89.9505 439.043 92.7119V107.712C439.043 110.473 436.804 112.712 434.043 112.712H335.043Z" fill="#508197"/>
<path d="M423.043 115.712V133.712C423.043 136.473 420.804 138.712 418.043 138.712H400.043C397.282 138.712 395.043 136.473 395.043 133.712V115.712H423.043Z" fill="#105351"/>
<path d="M395.043 12.7119H418.043C420.804 12.7119 423.043 14.9505 423.043 17.7119V84.7119H395.043V12.7119Z" fill="#1AA9A5"/>
<path d="M245.521 16H275.521C279.94 16 283.521 19.5817 283.521 24V93H245.521V16Z" fill="#1AA9A5"/>
<path d="M163.521 49V24C163.521 19.5817 167.103 16 171.521 16L242.521 16V49L163.521 49Z" fill="#92C3E6"/>
<path d="M283.521 96V128C283.521 132.418 279.94 136 275.521 136H204.521V96H283.521Z" fill="#105351"/>
<path d="M201.521 136H171.521C167.103 136 163.521 132.418 163.521 128L163.521 53L201.521 53L201.521 136Z" fill="#508197"/>
</svg>
