<svg id="Layer_1" data-name="Layer 1" xmlns="http://www.w3.org/2000/svg" viewBox="0 0 285.45 254"><title>caution-icon</title><path style="fill:#FFFFFF;" d="M142.67,22.6,262.38,231.1H23L142.67,22.6m0-22.6a23,23,0,0,0-19.9,11.5L3.07,219.5A23,23,0,0,0,23,254H262.48a23,23,0,0,0,19.9-34.5l-119.7-208a23.33,23.33,0,0,0-20-11.5Z"/><path style="fill:#FFFFFF;" d="M142.17,169a11.44,11.44,0,0,1-11.5-11.5v-79a11.5,11.5,0,0,1,23,0v79A11.5,11.5,0,0,1,142.17,169Z"/><circle style="fill:#FFFFFF;" cx="142.67" cy="201.5" r="15"/></svg>