<svg width="13" height="12" viewBox="0 0 13 12" fill="none" xmlns="http://www.w3.org/2000/svg">
<path fill-rule="evenodd" clip-rule="evenodd" d="M6.5 0C6.65412 0 6.79665 0.0871898 6.8743 0.228983L12.941 11.3059C13.0192 11.4487 13.0197 11.625 12.9424 11.7683C12.8651 11.9116 12.7218 12 12.5667 12H0.433333C0.278172 12 0.134852 11.9116 0.0575717 11.7683C-0.0197082 11.625 -0.0191523 11.4487 0.0590291 11.3059L6.1257 0.228983C6.20335 0.0871898 6.34588 0 6.5 0ZM1.18778 11.0769H11.8122L6.5 1.37752L1.18778 11.0769Z" fill="#AD6500"/>
<path fill-rule="evenodd" clip-rule="evenodd" d="M6.5 4C6.77614 4 7 4.16281 7 4.36364V7.63636C7 7.83719 6.77614 8 6.5 8C6.22386 8 6 7.83719 6 7.63636V4.36364C6 4.16281 6.22386 4 6.5 4Z" fill="#AD6500"/>
<path fill-rule="evenodd" clip-rule="evenodd" d="M6.5 9C6.77614 9 7 9.20351 7 9.45455V9.54545C7 9.79649 6.77614 10 6.5 10C6.22386 10 6 9.79649 6 9.54545V9.45455C6 9.20351 6.22386 9 6.5 9Z" fill="#AD6500"/>
</svg>
