<svg width="12" height="11" viewBox="0 0 12 11" fill="none" xmlns="http://www.w3.org/2000/svg">
<path d="M11.8855 9.34913L6.7316 0.422391C6.57891 0.157898 6.30541 0 6 0C5.69459 0 5.42109 0.157898 5.2684 0.422391L0.114539 9.34913C-0.0381797 9.61362 -0.0381797 9.92944 0.114539 10.1939C0.267234 10.4584 0.540727 10.6163 0.846141 10.6163H11.1539C11.4593 10.6163 11.7328 10.4584 11.8855 10.1939C12.0382 9.92944 12.0382 9.61362 11.8855 9.34913ZM11.2758 9.84192C11.2606 9.86822 11.3465 9.70113 11.2758 9.70113H0.968062C0.897328 9.70113 0.739359 9.86824 0.724219 9.84192C0.709055 9.81565 0.932695 9.76238 0.968062 9.70113L6 0.98557C5.96965 0.98557 6.03537 0.924328 6 0.98557C5.96466 0.924305 6.03037 0.98557 6 0.98557L11.2758 9.70113C11.3112 9.76238 11.291 9.81565 11.2758 9.84192Z" fill="#FF9900"/>
<path d="M6.09282 8.91061C6.40357 8.91061 6.65548 8.65869 6.65548 8.34794C6.65548 8.03719 6.40357 7.78528 6.09282 7.78528C5.78206 7.78528 5.53015 8.03719 5.53015 8.34794C5.53015 8.65869 5.78206 8.91061 6.09282 8.91061Z" fill="#FF9900"/>
<path d="M6.42282 6.63966V3.28712C6.42282 3.0352 6.24854 2.83099 6.03355 2.83099C5.81856 2.83099 5.64429 3.0352 5.64429 3.28712V6.63966C5.64429 6.89158 5.81856 7.09578 6.03355 7.09578C6.24854 7.09578 6.42282 6.89158 6.42282 6.63966Z" fill="#FF9900"/>
</svg>
