<svg width="19" height="18" viewBox="0 0 19 18" fill="none" xmlns="http://www.w3.org/2000/svg">
<path d="M13.4741 3.43759L15.5921 5.3705M14.8361 1.73476L9.10901 6.96376C8.8131 7.23357 8.61128 7.57732 8.52901 7.95168L8 10.3694L10.648 9.88551C11.058 9.81064 11.434 9.62711 11.73 9.35685L17.4571 4.12785C17.6292 3.97072 17.7657 3.78417 17.8589 3.57887C17.952 3.37357 17.9999 3.15352 17.9999 2.9313C17.9999 2.70909 17.952 2.48904 17.8589 2.28374C17.7657 2.07844 17.6292 1.89189 17.4571 1.73476C17.285 1.57763 17.0807 1.45298 16.8558 1.36794C16.631 1.2829 16.39 1.23914 16.1466 1.23914C15.9032 1.23914 15.6622 1.2829 15.4373 1.36794C15.2125 1.45298 15.0082 1.57763 14.8361 1.73476V1.73476Z" stroke="#636363" stroke-width="1.5" stroke-linecap="round" stroke-linejoin="round"/>
<path d="M16.0002 12.1956V14.9347C16.0002 15.419 15.7894 15.8835 15.4144 16.226C15.0393 16.5684 14.5306 16.7608 14.0001 16.7608H3.00002C2.46958 16.7608 1.96087 16.5684 1.58579 16.226C1.21072 15.8835 1 15.419 1 14.9347V4.89124C1 4.40693 1.21072 3.94246 1.58579 3.6C1.96087 3.25755 2.46958 3.06516 3.00002 3.06516H6.00005" stroke="#636363" stroke-width="1.5" stroke-linecap="round" stroke-linejoin="round"/>
</svg>
