<svg width="51" height="19" viewBox="0 0 51 19" fill="none" xmlns="http://www.w3.org/2000/svg">
<g clip-path="url(#clip0)">
<path d="M16.6133 11.8076C16.3657 11.8076 16.165 12.0083 16.165 12.2559V16.2363C16.1641 16.9788 15.5626 17.5805 14.8201 17.5812H2.24147C1.49898 17.5805 0.897462 16.9788 0.896587 16.2363V4.55421C0.897462 3.8119 1.49898 3.21021 2.24147 3.20933H6.22182C6.46943 3.20933 6.67011 3.00865 6.67011 2.76104C6.67011 2.5136 6.46943 2.31274 6.22182 2.31274H2.24147C1.00411 2.31415 0.00140092 3.31685 0 4.55421V16.2365C0.00140092 17.4738 1.00411 18.4765 2.24147 18.4779H14.8201C16.0575 18.4765 17.0602 17.4738 17.0616 16.2365V12.2559C17.0616 12.0083 16.8609 11.8076 16.6133 11.8076Z" fill="#148481"/>
<path d="M16.8841 1.15948C16.0962 0.371643 14.8189 0.371643 14.0311 1.15948L6.03325 9.15732C5.97844 9.21213 5.93886 9.28007 5.9182 9.35467L4.86646 13.1517C4.8232 13.3074 4.86716 13.4741 4.98133 13.5884C5.09568 13.7026 5.26239 13.7465 5.41807 13.7035L9.21508 12.6516C9.28968 12.6309 9.35762 12.5913 9.41244 12.5365L17.4101 4.53849C18.1967 3.75013 18.1967 2.47389 17.4101 1.68553L16.8841 1.15948ZM7.01004 9.44871L13.5557 2.90292L15.6667 5.01393L9.12087 11.5597L7.01004 9.44871ZM6.58836 10.2949L8.27489 11.9816L5.94201 12.6279L6.58836 10.2949ZM16.7762 3.90458L16.3007 4.38002L14.1896 2.26883L14.6652 1.7934C15.1028 1.35579 15.8124 1.35579 16.25 1.7934L16.7762 2.31944C17.2131 2.75758 17.2131 3.46662 16.7762 3.90458Z" fill="#148481"/>
</g>
<path d="M28.688 14.192C29.952 14.192 30.992 13.776 31.76 13.008L31.184 12.224C30.576 12.848 29.68 13.2 28.8 13.2C27.136 13.2 26.112 11.984 26.016 10.528H32.272V10.224C32.272 7.904 30.896 6.08 28.56 6.08C26.352 6.08 24.752 7.888 24.752 10.128C24.752 12.544 26.4 14.192 28.688 14.192ZM31.088 9.648H26.016C26.08 8.464 26.896 7.072 28.544 7.072C30.304 7.072 31.072 8.496 31.088 9.648ZM41.0156 14V3.328H39.8156V7.44C39.1916 6.592 38.2476 6.08 37.2076 6.08C35.1756 6.08 33.7676 7.68 33.7676 10.144C33.7676 12.656 35.1916 14.192 37.2076 14.192C38.2956 14.192 39.2396 13.632 39.8156 12.848V14H41.0156ZM37.4956 13.12C35.9436 13.12 35.0156 11.856 35.0156 10.144C35.0156 8.432 35.9436 7.152 37.4956 7.152C38.4556 7.152 39.3836 7.728 39.8156 8.4V11.904C39.3836 12.576 38.4556 13.12 37.4956 13.12ZM44.0108 5.168C44.4588 5.168 44.8268 4.816 44.8268 4.368C44.8268 3.92 44.4588 3.552 44.0108 3.552C43.5788 3.552 43.2108 3.92 43.2108 4.368C43.2108 4.816 43.5788 5.168 44.0108 5.168ZM44.6188 14V6.272H43.4188V14H44.6188ZM48.9645 14.192C49.6685 14.192 50.1005 13.984 50.4045 13.696L50.0525 12.8C49.8925 12.976 49.5725 13.12 49.2365 13.12C48.7085 13.12 48.4525 12.704 48.4525 12.128V7.328H50.0205V6.272H48.4525V4.16H47.2525V6.272H45.9725V7.328H47.2525V12.384C47.2525 13.536 47.8285 14.192 48.9645 14.192Z" fill="#148481"/>
<defs>
<clipPath id="clip0">
<rect width="18" height="18" fill="white" transform="translate(0 0.5)"/>
</clipPath>
</defs>
</svg>
