<svg width="22" height="22" viewBox="0 0 22 22" fill="none" xmlns="http://www.w3.org/2000/svg">
<rect x="0.75" y="0.75" width="20.5" height="20.5" rx="4.25" stroke="#C4C4C4" stroke-width="1.5"/>
<path d="M17.5307 7.16704L17.5308 7.16652L17.7069 4.06634L17.7071 4.06635L17.7071 4.05801C17.7073 3.89924 17.66 3.75012 17.556 3.64327C17.4505 3.53482 17.3032 3.4872 17.1405 3.50234L14.0179 3.65226L14.0179 3.65224L14.016 3.65235C13.7276 3.66975 13.5079 3.9332 13.5271 4.21521L13.5269 4.21522L13.5277 4.22245C13.5505 4.41754 13.6497 4.55058 13.769 4.62763C13.8756 4.69654 14.0018 4.72242 14.1005 4.70567L15.8205 4.60929L11.6332 8.79666C11.4267 9.00316 11.4291 9.34175 11.6352 9.54785C11.834 9.7466 12.1587 9.77764 12.3735 9.56281L16.5725 5.36382L16.4756 7.09361L16.4753 7.0936L16.4753 7.10258C16.4764 7.384 16.6741 7.63743 16.9666 7.65729L16.9666 7.65766L16.9771 7.65763C17.2591 7.65702 17.513 7.46105 17.5307 7.16704Z" fill="#C4C4C4" stroke="#C4C4C4" stroke-width="0.3"/>
<path d="M3.65238 14.2626L3.65235 14.2632L3.47625 17.3633L3.47602 17.3633L3.47601 17.3717C3.47582 17.5304 3.52311 17.6796 3.62708 17.7864C3.73262 17.8949 3.87993 17.9425 4.04262 17.9273L7.16523 17.7774L7.16523 17.7774L7.16707 17.7773C7.45555 17.7599 7.67517 17.4965 7.65602 17.2145L7.6562 17.2145L7.65536 17.2072C7.63257 17.0122 7.5334 16.8791 7.41414 16.8021C7.30747 16.7331 7.18131 16.7073 7.0826 16.724L5.36256 16.8204L9.54993 12.633C9.75643 12.4265 9.75398 12.0879 9.54788 11.8818C9.34913 11.6831 9.02442 11.652 8.80959 11.8669L4.6106 16.0659L4.70754 14.3361L4.70781 14.3361L4.70777 14.3271C4.7067 14.0457 4.50898 13.7923 4.21653 13.7724L4.21655 13.772L4.20604 13.7721C3.92398 13.7727 3.67011 13.9686 3.65238 14.2626Z" fill="#C4C4C4" stroke="#C4C4C4" stroke-width="0.3"/>
</svg>
