<?xml version="1.0" encoding="utf-8"?>
<!-- Generator: Adobe Illustrator 23.0.4, SVG Export Plug-In . SVG Version: 6.00 Build 0)  -->
<svg version="1.1" id="Layer_1" xmlns="http://www.w3.org/2000/svg" xmlns:xlink="http://www.w3.org/1999/xlink" x="0px" y="0px"
	 viewBox="0 0 22 22" style="enable-background:new 0 0 22 22;" xml:space="preserve">
<style type="text/css">
	.st0{fill-rule:evenodd;clip-rule:evenodd;}
</style>
<title>info-icon</title>
<path style="fill:#15A6CF;" class="st0" d="M11,0C4.9,0,0,4.9,0,11s4.9,11,11,11s11-4.9,11-11S17.1,0,11,0z M11,1.5c-5.2,0-9.5,4.3-9.5,9.5
	s4.3,9.5,9.5,9.5s9.5-4.3,9.5-9.5S16.2,1.5,11,1.5z"/>
<path style="fill:#15A6CF;" class="st0" d="M11,9L11,9c0.4,0,0.7,0.3,0.8,0.8v4.5c0,0.4-0.3,0.7-0.8,0.8l0,0c-0.4,0-0.7-0.3-0.8-0.8V9.8
	C10.3,9.3,10.6,9,11,9z"/>
<circle style="fill:#15A6CF;" cx="11" cy="7" r="1"/>
</svg>