<svg width="15" height="16" viewBox="0 0 15 16" fill="none" xmlns="http://www.w3.org/2000/svg">
<path d="M13.6281 7.76431C13.6281 8.23913 13.6281 8.71223 13.6281 9.18705C13.6281 9.90355 13.6281 10.6201 13.6281 11.3366C13.6281 11.5748 13.635 11.8131 13.6041 12.0497C13.6127 11.9897 13.6213 11.9279 13.6281 11.868C13.5956 12.0976 13.5356 12.3188 13.4464 12.533C13.4687 12.4782 13.4927 12.4233 13.515 12.3685C13.4259 12.5759 13.3127 12.7713 13.1756 12.9496C13.2116 12.9033 13.2476 12.857 13.2836 12.8107C13.1465 12.9873 12.987 13.1467 12.8105 13.2838C12.8568 13.2478 12.9031 13.2118 12.9493 13.1758C12.7694 13.313 12.5757 13.4278 12.3682 13.5152C12.4231 13.493 12.4779 13.469 12.5328 13.4467C12.3202 13.5358 12.0974 13.5958 11.8677 13.6284C11.9277 13.6198 11.9894 13.6112 12.0494 13.6044C11.6912 13.6507 11.3175 13.6284 10.9575 13.6284C10.2736 13.6284 9.59135 13.6284 8.90741 13.6284C8.06919 13.6284 7.22927 13.6284 6.39106 13.6284C5.67626 13.6284 4.95975 13.6284 4.24496 13.6284C3.93299 13.6284 3.62102 13.6301 3.31076 13.6284C3.19077 13.6284 3.07249 13.6198 2.95422 13.6044C3.01421 13.6129 3.07592 13.6215 3.13591 13.6284C2.90622 13.5958 2.6851 13.5358 2.47083 13.4467C2.52568 13.469 2.58053 13.493 2.63539 13.5152C2.42798 13.4261 2.23257 13.313 2.0543 13.1758C2.10058 13.2118 2.14686 13.2478 2.19314 13.2838C2.01658 13.1467 1.85717 12.9873 1.72004 12.8107C1.75604 12.857 1.79203 12.9033 1.82803 12.9496C1.6909 12.7696 1.57605 12.5759 1.48863 12.3685C1.51091 12.4233 1.53491 12.4782 1.5572 12.533C1.46806 12.3205 1.40807 12.0976 1.3755 11.868C1.38407 11.9279 1.39264 11.9897 1.3995 12.0497C1.35321 11.6914 1.3755 11.3177 1.3755 10.9577C1.3755 10.2738 1.3755 9.59158 1.3755 8.90764C1.3755 8.06943 1.3755 7.2295 1.3755 6.39129C1.3755 5.6765 1.3755 4.95999 1.3755 4.24519C1.3755 3.93322 1.37378 3.62125 1.3755 3.31099C1.3755 3.191 1.38407 3.07273 1.3995 2.95445C1.39093 3.01445 1.38235 3.07615 1.3755 3.13615C1.40807 2.90646 1.46806 2.68533 1.5572 2.47107C1.53491 2.52592 1.51091 2.58077 1.48863 2.63562C1.57777 2.42821 1.6909 2.2328 1.82803 2.05453C1.79203 2.10081 1.75604 2.14709 1.72004 2.19338C1.85717 2.01682 2.01658 1.8574 2.19314 1.72027C2.14686 1.75627 2.10058 1.79227 2.0543 1.82826C2.23428 1.69113 2.42798 1.57629 2.63539 1.48887C2.58053 1.51115 2.52568 1.53515 2.47083 1.55743C2.68338 1.4683 2.90622 1.4083 3.13591 1.37573C3.07592 1.3843 3.01421 1.39287 2.95422 1.39973C3.16163 1.3723 3.37075 1.37573 3.57988 1.37573C3.88328 1.37573 4.18668 1.37573 4.49008 1.37573C5.23059 1.37573 5.97281 1.37573 6.71331 1.37573C6.88816 1.37573 7.06471 1.37573 7.23955 1.37573C7.59781 1.37573 7.94235 1.06033 7.92521 0.690079C7.90807 0.318112 7.62352 0.00442505 7.23955 0.00442505C6.80588 0.00442505 6.3722 0.00442505 5.94024 0.00442505C5.23916 0.00442505 4.53808 0.00442505 3.837 0.00442505C3.6673 0.00442505 3.49588 0.00442505 3.32618 0.00442505C2.7948 0.00442505 2.2857 0.131271 1.81089 0.364393C0.705271 0.902632 0.00590424 2.08881 0.000761838 3.30756C-0.000952297 3.54754 0.000761838 3.78752 0.000761838 4.02921C0.000761838 4.61888 0.000761838 5.20854 0.000761838 5.7982C0.000761838 6.54042 0.000761838 7.28093 0.000761838 8.02315C0.000761838 8.71909 0.000761838 9.41502 0.000761838 10.111C0.000761838 10.5635 0.000761838 11.0177 0.000761838 11.4703C0.000761838 11.544 0.000761838 11.6177 0.000761838 11.6931C0.00247597 12.2691 0.15332 12.8433 0.441294 13.3438C1.02581 14.362 2.14 14.9962 3.31076 15.0014C3.57645 15.0031 3.84214 15.0014 4.10783 15.0014C4.7112 15.0014 5.31458 15.0014 5.91796 15.0014C6.66189 15.0014 7.40583 15.0014 8.14976 15.0014C8.83713 15.0014 9.5245 15.0014 10.2119 15.0014C10.6455 15.0014 11.0792 15.0014 11.5129 15.0014C11.5883 15.0014 11.6655 15.0031 11.7409 15.0014C12.3528 14.9894 12.975 14.8128 13.4859 14.4734C13.983 14.1443 14.4115 13.6884 14.6635 13.145C14.8795 12.6787 14.9994 12.1902 14.9994 11.6743C14.9994 11.1652 14.9994 10.6578 14.9994 10.1487C14.9994 9.47331 14.9994 8.79965 14.9994 8.12428C14.9994 8.00429 14.9994 7.88602 14.9994 7.76603C14.9994 7.40777 14.684 7.06323 14.3138 7.08037C13.9418 7.0958 13.6281 7.38035 13.6281 7.76431Z" fill="#0D7ACB"/>
<path d="M10.508 1.37192C10.9366 1.37192 11.3668 1.37192 11.7954 1.37192C12.4793 1.37192 13.1615 1.37192 13.8455 1.37192C14.0015 1.37192 14.1574 1.37192 14.3134 1.37192C14.6717 1.37192 15.0162 1.05652 14.9991 0.686264C14.9819 0.314297 14.6974 0.000610352 14.3134 0.000610352C13.8849 0.000610352 13.4546 0.000610352 13.0261 0.000610352C12.3422 0.000610352 11.6599 0.000610352 10.976 0.000610352C10.82 0.000610352 10.664 0.000610352 10.508 0.000610352C10.1498 0.000610352 9.80525 0.316011 9.82239 0.686264C9.83953 1.05823 10.1241 1.37192 10.508 1.37192Z" fill="#0D7ACB"/>
<path d="M14.9992 4.49165C14.9992 4.06311 14.9992 3.63286 14.9992 3.20433C14.9992 2.52039 14.9992 1.83817 14.9992 1.15423C14.9992 0.99824 14.9992 0.842254 14.9992 0.686268C14.9992 0.328014 14.6838 -0.0165273 14.3136 0.000614001C13.9416 0.0177553 13.6279 0.302302 13.6279 0.686268C13.6279 1.1148 13.6279 1.54505 13.6279 1.97358C13.6279 2.65752 13.6279 3.33975 13.6279 4.02369C13.6279 4.17967 13.6279 4.33566 13.6279 4.49165C13.6279 4.8499 13.9433 5.19444 14.3136 5.1773C14.6856 5.16016 14.9992 4.87561 14.9992 4.49165Z" fill="#0D7ACB"/>
<path d="M7.99866 7.97132C8.22492 7.74506 8.4529 7.51708 8.67917 7.29081C9.21912 6.75086 9.76079 6.20919 10.3007 5.66924C10.9538 5.01616 11.6069 4.36307 12.2617 3.70827C12.8291 3.14089 13.3948 2.57523 13.9621 2.00785C14.2364 1.73359 14.5158 1.46104 14.7866 1.18335C14.7901 1.17992 14.7935 1.1765 14.7986 1.17135C15.0523 0.917661 15.0712 0.451417 14.7986 0.201153C14.5244 -0.0508245 14.0993 -0.06968 13.8284 0.201153C13.6022 0.427419 13.3742 0.655399 13.1479 0.881665C12.608 1.42162 12.0663 1.96328 11.5263 2.50324C10.8733 3.15632 10.2202 3.80941 9.56538 4.4642C8.998 5.03158 8.43233 5.59725 7.86496 6.16463C7.59069 6.43889 7.31129 6.71144 7.04046 6.98912C7.03703 6.99255 7.0336 6.99598 7.02846 7.00112C6.77477 7.25482 6.75591 7.72106 7.02846 7.97132C7.30272 8.22159 7.72782 8.24216 7.99866 7.97132Z" fill="#0D7ACB"/>
</svg>
