<svg width="15" height="16" viewBox="0 0 15 16" fill="none" xmlns="http://www.w3.org/2000/svg">
<path d="M13.6281 7.76428C13.6281 8.2391 13.6281 8.7122 13.6281 9.18701C13.6281 9.90352 13.6281 10.62 13.6281 11.3365C13.6281 11.5748 13.635 11.8131 13.6041 12.0496C13.6127 11.9896 13.6213 11.9279 13.6281 11.8679C13.5956 12.0976 13.5356 12.3187 13.4464 12.533C13.4687 12.4782 13.4927 12.4233 13.515 12.3684C13.4259 12.5759 13.3127 12.7713 13.1756 12.9495C13.2116 12.9033 13.2476 12.857 13.2836 12.8107C13.1465 12.9873 12.987 13.1467 12.8105 13.2838C12.8568 13.2478 12.9031 13.2118 12.9493 13.1758C12.7694 13.3129 12.5757 13.4278 12.3682 13.5152C12.4231 13.4929 12.4779 13.4689 12.5328 13.4466C12.3202 13.5358 12.0974 13.5958 11.8677 13.6283C11.9277 13.6198 11.9894 13.6112 12.0494 13.6043C11.6912 13.6506 11.3175 13.6283 10.9575 13.6283C10.2736 13.6283 9.59135 13.6283 8.90741 13.6283C8.06919 13.6283 7.22927 13.6283 6.39106 13.6283C5.67626 13.6283 4.95975 13.6283 4.24496 13.6283C3.93299 13.6283 3.62102 13.6301 3.31076 13.6283C3.19077 13.6283 3.07249 13.6198 2.95422 13.6043C3.01421 13.6129 3.07592 13.6215 3.13591 13.6283C2.90622 13.5958 2.6851 13.5358 2.47083 13.4466C2.52568 13.4689 2.58053 13.4929 2.63539 13.5152C2.42798 13.4261 2.23257 13.3129 2.0543 13.1758C2.10058 13.2118 2.14686 13.2478 2.19314 13.2838C2.01658 13.1467 1.85717 12.9873 1.72004 12.8107C1.75604 12.857 1.79203 12.9033 1.82803 12.9495C1.6909 12.7696 1.57605 12.5759 1.48863 12.3684C1.51091 12.4233 1.53491 12.4782 1.5572 12.533C1.46806 12.3205 1.40807 12.0976 1.3755 11.8679C1.38407 11.9279 1.39264 11.9896 1.3995 12.0496C1.35321 11.6914 1.3755 11.3177 1.3755 10.9577C1.3755 10.2738 1.3755 9.59155 1.3755 8.90761C1.3755 8.0694 1.3755 7.22947 1.3755 6.39126C1.3755 5.67647 1.3755 4.95996 1.3755 4.24516C1.3755 3.93319 1.37378 3.62122 1.3755 3.31096C1.3755 3.19097 1.38407 3.0727 1.3995 2.95442C1.39093 3.01442 1.38235 3.07612 1.3755 3.13612C1.40807 2.90642 1.46806 2.6853 1.5572 2.47103C1.53491 2.52589 1.51091 2.58074 1.48863 2.63559C1.57777 2.42818 1.6909 2.23277 1.82803 2.0545C1.79203 2.10078 1.75604 2.14706 1.72004 2.19334C1.85717 2.01679 2.01658 1.85737 2.19314 1.72024C2.14686 1.75624 2.10058 1.79224 2.0543 1.82823C2.23428 1.6911 2.42798 1.57626 2.63539 1.48884C2.58053 1.51112 2.52568 1.53512 2.47083 1.5574C2.68338 1.46827 2.90622 1.40827 3.13591 1.3757C3.07592 1.38427 3.01421 1.39284 2.95422 1.3997C3.16163 1.37227 3.37075 1.3757 3.57988 1.3757C3.88328 1.3757 4.18668 1.3757 4.49008 1.3757C5.23059 1.3757 5.97281 1.3757 6.71331 1.3757C6.88816 1.3757 7.06471 1.3757 7.23955 1.3757C7.59781 1.3757 7.94235 1.0603 7.92521 0.690048C7.90807 0.318081 7.62352 0.00439453 7.23955 0.00439453C6.80588 0.00439453 6.3722 0.00439453 5.94024 0.00439453C5.23916 0.00439453 4.53808 0.00439453 3.837 0.00439453C3.6673 0.00439453 3.49588 0.00439453 3.32618 0.00439453C2.7948 0.00439453 2.2857 0.131241 1.81089 0.364363C0.705271 0.902601 0.00590424 2.08878 0.000761838 3.30753C-0.000952297 3.54751 0.000761838 3.78749 0.000761838 4.02918C0.000761838 4.61885 0.000761838 5.20851 0.000761838 5.79817C0.000761838 6.54039 0.000761838 7.2809 0.000761838 8.02312C0.000761838 8.71906 0.000761838 9.41499 0.000761838 10.1109C0.000761838 10.5635 0.000761838 11.0177 0.000761838 11.4702C0.000761838 11.5439 0.000761838 11.6177 0.000761838 11.6931C0.00247597 12.269 0.15332 12.8433 0.441294 13.3438C1.02581 14.362 2.14 14.9962 3.31076 15.0014C3.57645 15.0031 3.84214 15.0014 4.10783 15.0014C4.71121 15.0014 5.31458 15.0014 5.91796 15.0014C6.66189 15.0014 7.40583 15.0014 8.14976 15.0014C8.83713 15.0014 9.5245 15.0014 10.2119 15.0014C10.6455 15.0014 11.0792 15.0014 11.5129 15.0014C11.5883 15.0014 11.6655 15.0031 11.7409 15.0014C12.3528 14.9894 12.975 14.8128 13.4859 14.4734C13.983 14.1443 14.4115 13.6883 14.6635 13.145C14.8795 12.6787 14.9994 12.1902 14.9994 11.6742C14.9994 11.1651 14.9994 10.6577 14.9994 10.1486C14.9994 9.47328 14.9994 8.79962 14.9994 8.12425C14.9994 8.00426 14.9994 7.88599 14.9994 7.766C14.9994 7.40774 14.684 7.0632 14.3138 7.08034C13.9418 7.09577 13.6281 7.38032 13.6281 7.76428Z" fill="#4181FF"/>
<path d="M10.508 1.37192C10.9366 1.37192 11.3668 1.37192 11.7954 1.37192C12.4793 1.37192 13.1615 1.37192 13.8455 1.37192C14.0015 1.37192 14.1574 1.37192 14.3134 1.37192C14.6717 1.37192 15.0162 1.05652 14.9991 0.686264C14.9819 0.314297 14.6974 0.000610352 14.3134 0.000610352C13.8849 0.000610352 13.4546 0.000610352 13.0261 0.000610352C12.3422 0.000610352 11.6599 0.000610352 10.976 0.000610352C10.82 0.000610352 10.664 0.000610352 10.508 0.000610352C10.1498 0.000610352 9.80525 0.316011 9.82239 0.686264C9.83953 1.05823 10.1241 1.37192 10.508 1.37192Z" fill="#4181FF"/>
<path d="M14.9992 4.49165C14.9992 4.06311 14.9992 3.63286 14.9992 3.20433C14.9992 2.52039 14.9992 1.83817 14.9992 1.15423C14.9992 0.99824 14.9992 0.842254 14.9992 0.686268C14.9992 0.328014 14.6838 -0.0165273 14.3136 0.000614001C13.9416 0.0177553 13.6279 0.302302 13.6279 0.686268C13.6279 1.1148 13.6279 1.54505 13.6279 1.97358C13.6279 2.65752 13.6279 3.33975 13.6279 4.02369C13.6279 4.17967 13.6279 4.33566 13.6279 4.49165C13.6279 4.8499 13.9433 5.19444 14.3136 5.1773C14.6856 5.16016 14.9992 4.87561 14.9992 4.49165Z" fill="#4181FF"/>
<path d="M7.99866 7.97129C8.22492 7.74503 8.4529 7.51705 8.67917 7.29078C9.21912 6.75083 9.76079 6.20916 10.3007 5.66921C10.9538 5.01613 11.6069 4.36304 12.2617 3.70824C12.8291 3.14086 13.3948 2.5752 13.9621 2.00782C14.2364 1.73356 14.5158 1.46101 14.7866 1.18332C14.7901 1.17989 14.7935 1.17647 14.7986 1.17132C15.0523 0.917631 15.0712 0.451386 14.7986 0.201123C14.5244 -0.050855 14.0993 -0.0697105 13.8284 0.201123C13.6022 0.427388 13.3742 0.655368 13.1479 0.881634C12.608 1.42159 12.0663 1.96325 11.5263 2.50321C10.8733 3.15629 10.2202 3.80938 9.56538 4.46417C8.998 5.03155 8.43233 5.59722 7.86496 6.1646C7.59069 6.43886 7.31129 6.7114 7.04046 6.98909C7.03703 6.99252 7.0336 6.99595 7.02846 7.00109C6.77477 7.25478 6.75591 7.72103 7.02846 7.97129C7.30272 8.22156 7.72782 8.24213 7.99866 7.97129Z" fill="#4181FF"/>
</svg>
