<svg width="179" height="50" viewBox="0 0 179 50" fill="none" xmlns="http://www.w3.org/2000/svg">
<path d="M76.5604 19.9225C79.8437 19.9225 81.6582 18.1707 82.6951 16.3757L80.0597 15.0997C79.4549 16.2892 78.1588 17.1975 76.5604 17.1975C74.0546 17.1975 72.1537 15.1862 72.1537 12.4613C72.1537 9.73627 74.0546 7.72498 76.5604 7.72498C78.1588 7.72498 79.4549 8.65493 80.0597 9.82278L82.6951 8.52517C81.6798 6.73015 79.8437 5 76.5604 5C72.3482 5 69 8.02775 69 12.4613C69 16.8948 72.3482 19.9225 76.5604 19.9225Z" fill="black"/>
<path d="M89.2947 19.9225C92.7508 19.9225 94.8245 17.4138 94.8245 14.4293C94.8245 11.4664 92.7508 8.95771 89.2947 8.95771C85.8601 8.95771 83.7864 11.4664 83.7864 14.4293C83.7864 17.4138 85.8601 19.9225 89.2947 19.9225ZM89.2947 17.4787C87.5882 17.4787 86.6377 16.0729 86.6377 14.4293C86.6377 12.8073 87.5882 11.4015 89.2947 11.4015C91.0011 11.4015 91.9732 12.8073 91.9732 14.4293C91.9732 16.0729 91.0011 17.4787 89.2947 17.4787Z" fill="black"/>
<path d="M96.8597 19.663H99.6031V12.764C100.057 12.0936 101.266 11.5746 102.174 11.5746C102.476 11.5746 102.735 11.6178 102.93 11.6611V8.97933C101.634 8.97933 100.338 9.71465 99.6031 10.6446V9.21723H96.8597V19.663Z" fill="black"/>
<path d="M111.686 19.663H114.429V12.2882C114.429 10.2553 113.327 8.95771 111.038 8.95771C109.331 8.95771 108.057 9.77953 107.387 10.5797V9.21723H104.644V19.663H107.387V12.6343C107.841 12.0071 108.683 11.4015 109.763 11.4015C110.93 11.4015 111.686 11.899 111.686 13.348V19.663Z" fill="black"/>
<path d="M116.483 14.4293C116.483 17.7815 118.881 19.9225 122.056 19.9225C123.676 19.9225 125.318 19.4251 126.355 18.4735L125.145 16.7001C124.476 17.3489 123.331 17.7382 122.359 17.7382C120.587 17.7382 119.529 16.6352 119.356 15.316H127.111V14.7104C127.111 11.2934 124.994 8.95771 121.884 8.95771C118.708 8.95771 116.483 11.4015 116.483 14.4293ZM121.884 11.142C123.698 11.142 124.389 12.4613 124.454 13.4561H119.313C119.443 12.418 120.177 11.142 121.884 11.142Z" fill="black"/>
<path d="M129.093 19.663H131.836V5.23789H129.093V19.663Z" fill="black"/>
<path d="M134.556 19.663H137.299V5.23789H134.556V19.663Z" fill="black"/>
<path d="M76.5604 46.2802C79.8437 46.2802 81.6582 44.5284 82.6951 42.7334L80.0597 41.4574C79.4549 42.6469 78.1588 43.5552 76.5604 43.5552C74.0546 43.5552 72.1537 41.5439 72.1537 38.8189C72.1537 36.094 74.0546 34.0827 76.5604 34.0827C78.1588 34.0827 79.4549 35.0126 80.0597 36.1805L82.6951 34.8829C81.6798 33.0878 79.8437 31.3577 76.5604 31.3577C72.3482 31.3577 69 34.3854 69 38.8189C69 43.2524 72.3482 46.2802 76.5604 46.2802Z" fill="black"/>
<path d="M89.2947 46.2802C92.7508 46.2802 94.8245 43.7715 94.8245 40.787C94.8245 37.8241 92.7508 35.3154 89.2947 35.3154C85.8601 35.3154 83.7864 37.8241 83.7864 40.787C83.7864 43.7715 85.8601 46.2802 89.2947 46.2802ZM89.2947 43.8364C87.5882 43.8364 86.6377 42.4306 86.6377 40.787C86.6377 39.165 87.5882 37.7592 89.2947 37.7592C91.0011 37.7592 91.9732 39.165 91.9732 40.787C91.9732 42.4306 91.0011 43.8364 89.2947 43.8364Z" fill="black"/>
<path d="M103.902 46.0207H106.645V35.5749H103.902V42.6469C103.426 43.2524 102.584 43.8364 101.526 43.8364C100.359 43.8364 99.6031 43.3606 99.6031 41.9116V35.5749H96.8597V42.9929C96.8597 45.0258 97.9398 46.2802 100.23 46.2802C101.936 46.2802 103.189 45.5016 103.902 44.7014V46.0207Z" fill="black"/>
<path d="M109.369 46.0207H112.112V39.1217C112.566 38.4513 113.776 37.9322 114.683 37.9322C114.985 37.9322 115.244 37.9755 115.439 38.0187V35.337C114.143 35.337 112.847 36.0723 112.112 37.0023V35.5749H109.369V46.0207Z" fill="black"/>
<path d="M116.246 44.6582C117.347 45.6746 119.097 46.2802 120.911 46.2802C123.806 46.2802 125.426 44.8312 125.426 42.928C125.426 40.3328 123.028 39.857 121.235 39.511C120.069 39.2731 119.248 39.0352 119.248 38.3864C119.248 37.7808 119.896 37.4132 120.89 37.4132C122.164 37.4132 123.352 37.9539 123.979 38.6243L125.08 36.7428C124.044 35.9209 122.64 35.3154 120.868 35.3154C118.125 35.3154 116.591 36.8509 116.591 38.6027C116.591 41.0898 118.903 41.5223 120.695 41.8683C121.884 42.1062 122.791 42.3657 122.791 43.101C122.791 43.7499 122.229 44.1608 121.041 44.1608C119.745 44.1608 118.19 43.4471 117.434 42.7334L116.246 44.6582Z" fill="black"/>
<path d="M126.778 40.787C126.778 44.1391 129.175 46.2802 132.351 46.2802C133.971 46.2802 135.612 45.7828 136.649 44.8312L135.44 43.0578C134.77 43.7066 133.625 44.0959 132.653 44.0959C130.882 44.0959 129.823 42.9929 129.65 41.6737H137.405V41.0681C137.405 37.6511 135.288 35.3154 132.178 35.3154C129.002 35.3154 126.778 37.7592 126.778 40.787ZM132.178 37.4997C133.992 37.4997 134.683 38.8189 134.748 39.8138H129.607C129.737 38.7757 130.471 37.4997 132.178 37.4997Z" fill="black"/>
<path d="M142.13 50V44.6798C142.973 45.7611 144.117 46.2802 145.349 46.2802C148.027 46.2802 149.971 44.2689 149.971 40.787C149.971 37.3051 148.027 35.3154 145.349 35.3154C144.074 35.3154 142.929 35.8777 142.13 36.8941V35.5749H139.387V50H142.13ZM147.12 40.787C147.12 42.6036 146.061 43.8364 144.485 43.8364C143.599 43.8364 142.584 43.2957 142.13 42.6469V38.9487C142.584 38.2783 143.599 37.7592 144.485 37.7592C146.061 37.7592 147.12 38.992 147.12 40.787Z" fill="black"/>
<path d="M152.023 46.0207H154.766V31.5956H152.023V46.0207Z" fill="black"/>
<path d="M163.75 46.0207H166.494V39.2731C166.494 36.267 164.312 35.3154 161.936 35.3154C160.294 35.3154 158.653 35.8344 157.378 36.959L158.415 38.7973C159.301 37.9755 160.337 37.5646 161.461 37.5646C162.843 37.5646 163.75 38.2566 163.75 39.3164V40.7654C163.059 39.9219 161.828 39.4894 160.445 39.4894C158.782 39.4894 156.816 40.3761 156.816 42.8199C156.816 45.1556 158.782 46.2802 160.445 46.2802C161.806 46.2802 163.038 45.7828 163.75 44.9393V46.0207ZM163.75 43.512C163.297 44.1175 162.433 44.4203 161.547 44.4203C160.467 44.4203 159.581 43.858 159.581 42.8848C159.581 41.8683 160.467 41.306 161.547 41.306C162.433 41.306 163.297 41.6088 163.75 42.2143V43.512Z" fill="black"/>
<path d="M176.257 46.0207H179V38.6459C179 36.613 177.898 35.3154 175.609 35.3154C173.902 35.3154 172.628 36.1372 171.958 36.9374V35.5749H169.215V46.0207H171.958V38.992C172.412 38.3648 173.254 37.7592 174.334 37.7592C175.501 37.7592 176.257 38.2566 176.257 39.7056V46.0207Z" fill="black"/>
<path fill-rule="evenodd" clip-rule="evenodd" d="M0.666667 16H13.3333C13.7015 16 14 16.3044 14 16.68V49.32C14 49.6956 13.7015 50 13.3333 50H0.666666C0.298477 50 0 49.6956 0 49.32V16.68C0 16.3044 0.298478 16 0.666667 16Z" fill="#508197"/>
<path fill-rule="evenodd" clip-rule="evenodd" d="M50 36.6667L50 49.3333C50 49.7015 49.6956 50 49.32 50L16.68 50C16.3044 50 16 49.7015 16 49.3333L16 36.6667C16 36.2985 16.3044 36 16.68 36L49.32 36C49.6956 36 50 36.2985 50 36.6667Z" fill="#105351"/>
<path fill-rule="evenodd" clip-rule="evenodd" d="M49.3333 34L36.6667 34C36.2985 34 36 33.6956 36 33.32L36 0.679999C36 0.304446 36.2985 -1.19783e-06 36.6667 -1.16564e-06L49.3333 -5.82818e-08C49.7015 -2.60937e-08 50 0.304447 50 0.68L50 33.32C50 33.6956 49.7015 34 49.3333 34Z" fill="#1AA9A5"/>
<path fill-rule="evenodd" clip-rule="evenodd" d="M34 0.666667L34 13.3333C34 13.7015 33.6956 14 33.32 14L0.68 14C0.304447 14 -5.98913e-07 13.7015 -5.82819e-07 13.3333L-2.91409e-08 0.666665C-1.30468e-08 0.298476 0.304447 -1.47288e-06 0.68 -1.45646e-06L33.32 -2.97238e-08C33.6956 -1.33078e-08 34 0.298478 34 0.666667Z" fill="#92C3E6"/>
</svg>
