<svg width="22" height="22" viewBox="0 0 22 22" fill="none" xmlns="http://www.w3.org/2000/svg">
<rect x="0.75" y="0.75" width="20.5" height="20.5" rx="4.25" stroke="#C4C4C4" stroke-width="1.5"/>
<path d="M12.6524 6.01607L12.6524 6.01659L12.4763 9.11677L12.476 9.11675L12.476 9.1251C12.4758 9.28387 12.5231 9.43299 12.6271 9.53983C12.7326 9.64828 12.8799 9.6959 13.0426 9.68076L16.1652 9.53085L16.1652 9.53086L16.1671 9.53075C16.4555 9.51335 16.6752 9.2499 16.656 8.9679L16.6562 8.96789L16.6554 8.96066C16.6326 8.76557 16.5334 8.63253 16.4141 8.55548C16.3075 8.48657 16.1813 8.46069 16.0826 8.47743L14.3626 8.57382L18.5499 4.38645C18.7564 4.17995 18.754 3.84136 18.5479 3.63525C18.3491 3.43651 18.0244 3.40547 17.8096 3.62029L13.6106 7.81929L13.7075 6.08949L13.7078 6.08951L13.7078 6.08053C13.7067 5.7991 13.509 5.54567 13.2165 5.52582L13.2165 5.52545L13.206 5.52547C12.924 5.52609 12.6701 5.72206 12.6524 6.01607Z" fill="#C4C4C4" stroke="#C4C4C4" stroke-width="0.3"/>
<path d="M9.53072 15.4136L9.53075 15.4131L9.70685 12.3129L9.70709 12.3129L9.70709 12.3046C9.70728 12.1458 9.66 11.9967 9.55603 11.8899C9.45049 11.7814 9.30318 11.7338 9.14049 11.7489L6.01788 11.8988L6.01788 11.8988L6.01604 11.8989C5.72756 11.9163 5.50794 12.1798 5.52708 12.4618L5.5269 12.4618L5.52775 12.469C5.55053 12.6641 5.64971 12.7972 5.76897 12.8742C5.87563 12.9431 6.00179 12.969 6.1005 12.9523L7.82055 12.8559L3.63318 17.0432C3.42668 17.2497 3.42913 17.5883 3.63523 17.7944C3.83398 17.9932 4.15868 18.0242 4.37351 17.8094L8.5725 13.6104L8.47557 15.3402L8.4753 15.3402L8.47533 15.3492C8.4764 15.6306 8.67413 15.884 8.96658 15.9039L8.96656 15.9042L8.97707 15.9042C9.25913 15.9036 9.51299 15.7076 9.53072 15.4136Z" fill="#C4C4C4" stroke="#C4C4C4" stroke-width="0.3"/>
</svg>
