<svg width="14" height="14" viewBox="0 0 14 14" fill="none" xmlns="http://www.w3.org/2000/svg">
<path d="M11 1C11.5304 1 12.0391 1.22311 12.4142 1.62024C12.7893 2.01738 13 2.55601 13 3.11765V8.76471C13 9.32634 12.7893 9.86497 12.4142 10.2621C12.0391 10.6592 11.5304 10.8824 11 10.8824H7.66667L4.33333 13V10.8824H3C2.46957 10.8824 1.96086 10.6592 1.58579 10.2621C1.21071 9.86497 1 9.32634 1 8.76471V3.11765C1 2.55601 1.21071 2.01738 1.58579 1.62024C1.96086 1.22311 2.46957 1 3 1H11Z" stroke="#404040" stroke-width="1.3" stroke-linecap="round" stroke-linejoin="round"/>
<path d="M7.17767 3.74316V7.86485" stroke="#404040" stroke-width="1.3" stroke-linecap="round"/>
<path d="M9.23828 5.80469L5.11659 5.80469" stroke="#404040" stroke-width="1.3" stroke-linecap="round"/>
</svg>
