<svg width="12" height="15" viewBox="0 0 12 15" fill="none" xmlns="http://www.w3.org/2000/svg">
<path d="M5.25002 12.1119C4.83252 12.1119 4.44002 11.9494 4.14502 11.6544L0.757502 8.26685C0.425626 7.93434 0.25 7.51122 0.25 7.04184C0.25 6.57934 0.430626 6.14371 0.757502 5.81746L4.56814 2.00682L3.63814 1.06369C3.39564 0.818063 3.39814 0.422436 3.64439 0.179935C3.89002 -0.0619407 4.28502 -0.0600657 4.52814 0.186185L10.0425 5.77496C10.6425 6.38246 10.6394 7.36872 10.0357 7.97372L6.3544 11.6544C6.06003 11.9494 5.66752 12.1119 5.25002 12.1119ZM5.44627 2.8962L1.64126 6.70121C1.52438 6.81809 1.50001 6.95059 1.50001 7.04184C1.50001 7.17997 1.54376 7.28497 1.64126 7.38247L5.02877 10.77C5.10815 10.85 5.20127 10.8612 5.25002 10.8612C5.29815 10.8612 5.39127 10.8494 5.47065 10.77L9.15129 7.08997C9.27066 6.96996 9.27191 6.77371 9.15254 6.65246L5.44627 2.8962ZM10.875 15H0.875003C0.530001 15 0.25 14.7206 0.25 14.375C0.25 14.0294 0.530001 13.75 0.875003 13.75H10.875C11.2207 13.75 11.5 14.0294 11.5 14.375C11.5 14.7206 11.2207 15 10.875 15ZM9.00004 11.1669C9.00004 10.2025 10.0725 9.4506 10.25 8.49997C10.4294 9.45123 11.5 10.2081 11.5 11.1669C11.5 11.9031 10.9407 12.5 10.25 12.5C9.55941 12.5 9.00004 11.9031 9.00004 11.1669ZM10.5 6.87496L5.45815 11.9169L1.19938 7.65809C0.983128 7.44122 0.875003 6.87496 0.875003 6.87496H10.5Z" fill="#404040"/>
</svg>
