<svg width="11" height="11" viewBox="0 0 11 11" fill="none" xmlns="http://www.w3.org/2000/svg">
<path fill-rule="evenodd" clip-rule="evenodd" d="M6.35111 0.999811C6.35111 0.509655 5.95376 0.112305 5.46361 0.112305C4.97345 0.112305 4.5761 0.509655 4.5761 0.999811V4.57627H0.999811C0.509655 4.57627 0.112305 4.97362 0.112305 5.46378C0.112305 5.95393 0.509655 6.35128 0.999811 6.35128H4.5761V9.92738C4.5761 10.4175 4.97345 10.8149 5.46361 10.8149C5.95376 10.8149 6.35111 10.4175 6.35111 9.92738V6.35128H9.92738C10.4175 6.35128 10.8149 5.95393 10.8149 5.46378C10.8149 4.97362 10.4175 4.57627 9.92738 4.57627H6.35111V0.999811Z" fill="#4D7D92"/>
</svg>
