<svg width="14" height="14" viewBox="0 0 14 14" fill="none" xmlns="http://www.w3.org/2000/svg">
<path d="M13.8268 5.93604L12.262 5.46938C12.1538 5.09199 12.005 4.72742 11.8182 4.38205L12.5843 2.94939C12.613 2.89531 12.6236 2.83342 12.6143 2.77289C12.6051 2.71236 12.5765 2.65643 12.5329 2.61339L11.4165 1.4934C11.3734 1.44984 11.3174 1.42133 11.2568 1.41208C11.1962 1.40283 11.1343 1.41335 11.0802 1.44206L9.65544 2.20273C9.30632 2.00704 8.9366 1.85053 8.55303 1.73606L8.0859 0.191404C8.06614 0.134478 8.02881 0.0852839 7.97929 0.0509014C7.92976 0.0165189 7.87059 -0.00127831 7.8103 7.14784e-05H6.23142C6.17076 0.000353611 6.11178 0.0199675 6.06305 0.0560587C6.01432 0.0921499 5.97839 0.142835 5.96049 0.200737L5.49337 1.74073C5.1066 1.85459 4.73372 2.0111 4.38162 2.20739L2.98025 1.4514C2.92611 1.42268 2.86416 1.41216 2.80357 1.42141C2.74298 1.43066 2.687 1.45918 2.64392 1.50273L1.50881 2.60872C1.46521 2.65176 1.43667 2.70769 1.42741 2.76822C1.41815 2.82875 1.42868 2.89065 1.45742 2.94472L2.21416 4.34472C2.018 4.69499 1.86133 5.06592 1.74704 5.45071L0.200863 5.91738C0.142904 5.93526 0.0921689 5.97115 0.0560423 6.01983C0.0199156 6.06851 0.00028241 6.12744 0 6.18804V7.76536C0.00028241 7.82596 0.0199156 7.88489 0.0560423 7.93357C0.0921689 7.98226 0.142904 8.01815 0.200863 8.03603L1.75638 8.50269C1.87192 8.88107 2.02856 9.24569 2.22351 9.59002L1.45742 11.0553C1.42868 11.1094 1.41815 11.1713 1.42741 11.2318C1.43667 11.2924 1.46521 11.3483 1.50881 11.3913L2.62523 12.5067C2.66831 12.5502 2.7243 12.5787 2.78489 12.588C2.84547 12.5972 2.90743 12.5867 2.96156 12.558L4.40497 11.788C4.74642 11.9721 5.1066 12.1191 5.47935 12.2267L5.94648 13.7993C5.96438 13.8572 6.00031 13.9079 6.04903 13.944C6.09776 13.9801 6.15675 13.9997 6.21741 14H7.79629C7.85695 13.9997 7.91593 13.9801 7.96466 13.944C8.01339 13.9079 8.04932 13.8572 8.06722 13.7993L8.53434 12.222C8.90391 12.1139 9.26093 11.9669 9.59938 11.7833L11.0521 12.558C11.1063 12.5867 11.1682 12.5972 11.2288 12.588C11.2894 12.5787 11.3454 12.5502 11.3885 12.5067L12.5049 11.3913C12.5485 11.3483 12.577 11.2924 12.5863 11.2318C12.5955 11.1713 12.585 11.1094 12.5563 11.0553L11.7808 9.60869C11.9665 9.26928 12.1152 8.91103 12.2246 8.54003L13.7988 8.07336C13.8568 8.05548 13.9075 8.01959 13.9436 7.97091C13.9798 7.92223 13.9994 7.8633 13.9997 7.8027V6.21137C14.0024 6.15334 13.9874 6.09586 13.9565 6.04665C13.9256 5.99743 13.8803 5.95883 13.8268 5.93604V5.93604ZM7.02086 9.56669C6.51273 9.56669 6.016 9.41616 5.5935 9.13413C5.171 8.8521 4.84171 8.45125 4.64725 7.98225C4.4528 7.51326 4.40192 6.99719 4.50105 6.49931C4.60018 6.00143 4.84487 5.54409 5.20418 5.18514C5.56348 4.82618 6.02127 4.58173 6.51964 4.4827C7.01801 4.38366 7.53459 4.43449 8.00404 4.62876C8.4735 4.82302 8.87475 5.152 9.15705 5.57408C9.43936 5.99616 9.59004 6.4924 9.59004 7.00004C9.59004 7.68075 9.31936 8.33359 8.83754 8.81493C8.35573 9.29627 7.70225 9.56669 7.02086 9.56669V9.56669Z" fill="#32A0F2"/>
</svg>
