<svg width="6" height="9" viewBox="0 0 6 9" fill="none" xmlns="http://www.w3.org/2000/svg">
<path d="M1.32144 0.617013C1.10992 0.439489 0.794537 0.467046 0.617013 0.678564C0.439489 0.890082 0.467046 1.20546 0.678564 1.38299L1.32144 0.617013ZM0.663335 7.63033C0.459171 7.81626 0.444394 8.1325 0.630329 8.33667C0.816264 8.54083 1.1325 8.55561 1.33666 8.36967L0.663335 7.63033ZM5 4.35714L5.33666 4.72681C5.44331 4.62969 5.50282 4.49124 5.4999 4.34703C5.49698 4.20281 5.43192 4.06689 5.32144 3.97416L5 4.35714ZM0.678564 1.38299L4.67856 4.74013L5.32144 3.97416L1.32144 0.617013L0.678564 1.38299ZM4.66334 3.98747L0.663335 7.63033L1.33666 8.36967L5.33666 4.72681L4.66334 3.98747Z" fill="#404040"/>
</svg>
