<svg width="6" height="9" viewBox="0 0 6 9" fill="none" xmlns="http://www.w3.org/2000/svg">
<path d="M4.67856 8.38299C4.89008 8.56051 5.20546 8.53295 5.38299 8.32144C5.56051 8.10992 5.53295 7.79454 5.32144 7.61701L4.67856 8.38299ZM5.33666 1.36967C5.54083 1.18374 5.55561 0.867499 5.36967 0.663335C5.18374 0.459171 4.8675 0.444394 4.66334 0.630328L5.33666 1.36967ZM1 4.64286L0.663335 4.27319C0.55669 4.37031 0.497184 4.50876 0.500102 4.65297C0.50302 4.79719 0.568077 4.93311 0.678564 5.02584L1 4.64286ZM5.32144 7.61701L1.32144 4.25987L0.678564 5.02584L4.67856 8.38299L5.32144 7.61701ZM1.33666 5.01253L5.33666 1.36967L4.66334 0.630328L0.663335 4.27319L1.33666 5.01253Z" fill="#404040"/>
</svg>
