<svg width="44" height="51" viewBox="0 0 44 51" fill="none" xmlns="http://www.w3.org/2000/svg">
<path d="M0.00847054 20.1365C0.493506 12.4515 4.17821 6.74845 10.781 2.88903C13.506 1.29571 16.4762 0.364756 19.6133 0.101377C27.147 -0.532299 33.6063 1.79379 38.767 7.38735C41.7294 10.5974 43.4583 14.4334 43.8964 18.7883C44.4284 24.0794 42.8976 28.7967 39.6328 32.9508C36.8895 36.4426 33.3456 38.813 29.1367 40.2003C28.8551 40.2942 28.7116 40.4428 28.5995 40.7036C27.5955 43.0375 26.5759 45.3662 25.5693 47.7001C24.8913 49.2725 23.6944 50.1331 21.9915 50.1279C20.307 50.1227 19.1257 49.2569 18.4555 47.7053C17.4698 45.4261 16.4684 43.1548 15.5035 40.8679C15.334 40.4637 15.0941 40.2707 14.6899 40.1325C8.83821 38.1089 4.4781 34.3799 1.81041 28.7524C0.566523 26.1186 -0.0827997 22.8928 0.00847054 20.1365ZM21.8481 2.32837C21.0293 2.39356 20.1036 2.41703 19.1935 2.54742C14.1006 3.27758 9.73266 5.44459 6.48083 9.47091C1.93297 15.0958 1.03852 21.3465 4.06087 27.9492C6.42868 33.1203 10.5906 36.3591 15.9938 38.0202C16.6718 38.2288 17.0864 38.5861 17.3602 39.2354C18.4164 41.7388 19.5168 44.224 20.5938 46.717C20.8598 47.3324 21.3083 47.6897 21.9733 47.687C22.6278 47.687 23.032 47.3141 23.2902 46.7118C24.3698 44.1875 25.4807 41.6763 26.5551 39.1468C26.8054 38.5548 27.1913 38.2132 27.8068 38.0411C29.9373 37.4491 31.927 36.5286 33.7054 35.2143C39.1112 31.2193 41.9641 25.9595 41.479 19.1247C41.2469 15.8311 40.0604 12.8583 38.0577 10.248C34.0027 4.96477 28.5213 2.53177 21.8481 2.32837Z" fill="white"/>
<path d="M14.0638 28.8384C14.2098 27.9674 14.3741 26.9739 14.5436 25.9804C14.6714 25.2163 14.7966 24.4522 14.94 23.6934C14.9974 23.3883 14.9113 23.1849 14.6844 22.9684C13.5605 21.8993 12.4575 20.8066 11.3413 19.7323C10.6581 19.0751 10.3661 18.3189 10.6946 17.3957C11.0128 16.4961 11.6908 16.0893 12.6139 15.9693C14.2203 15.7581 15.824 15.513 17.4252 15.2548C17.5999 15.2261 17.8137 15.0514 17.8972 14.8845C18.6195 13.4842 19.3236 12.0734 20.0198 10.6574C20.4397 9.80728 21.0968 9.30659 22.0539 9.31181C22.9979 9.31963 23.6237 9.83074 24.0253 10.673C24.7033 12.0969 25.4126 13.505 26.0958 14.9288C26.2288 15.2053 26.3801 15.3382 26.7086 15.38C28.3619 15.5886 30.01 15.8155 31.6555 16.0762C32.4795 16.2066 33.0063 16.7568 33.2671 17.5287C33.5409 18.3449 33.3036 19.0699 32.7116 19.6592C31.5512 20.8171 30.3751 21.9592 29.186 23.0884C28.9226 23.3387 28.8339 23.563 28.9017 23.9176C29.1938 25.4223 29.4494 26.9348 29.7414 28.4394C29.9187 29.36 29.7023 30.1371 28.9461 30.7003C28.1977 31.261 27.3945 31.2845 26.56 30.8359C25.1075 30.0536 23.6367 29.3 22.1816 28.5203C21.9496 28.3977 21.7827 28.3873 21.5427 28.5177C20.0902 29.3 18.6325 30.0797 17.1618 30.8281C15.7275 31.5557 14.0508 30.536 14.0638 28.8384ZM13.2424 18.2146C13.2137 18.2615 13.185 18.311 13.1563 18.358C13.2763 18.4414 13.4093 18.5118 13.5136 18.6135C14.5567 19.6201 15.5841 20.6397 16.6376 21.6359C17.2165 22.1835 17.4695 22.8068 17.3078 23.6047C17.1566 24.3479 17.0418 25.0989 16.9114 25.8474C16.7602 26.7157 16.6142 27.5841 16.4525 28.5255C16.6585 28.4238 16.7863 28.3638 16.914 28.296C18.2466 27.5997 19.5791 26.9009 20.9143 26.2046C21.5141 25.8917 22.1138 25.8891 22.7162 26.2072C24.0722 26.9243 25.4335 27.631 26.7921 28.3429C26.9277 28.4134 27.0685 28.4759 27.238 28.5594C27.238 28.429 27.2484 28.356 27.2354 28.2856C26.9903 26.8174 26.7608 25.3441 26.487 23.8811C26.3305 23.0467 26.5157 22.3687 27.1467 21.7793C28.0125 20.9709 28.8391 20.1182 29.6867 19.2889C29.9865 18.9943 30.3047 18.7179 30.6593 18.3893C30.469 18.3293 30.3881 18.2902 30.3047 18.2798C29.0191 18.092 27.7361 17.8599 26.4427 17.74C25.2222 17.6278 24.3799 17.1454 23.8897 15.9589C23.3786 14.7202 22.7188 13.5415 22.1217 12.3368C22.0617 12.2168 21.9913 12.1047 21.9026 11.9508C21.8113 12.1281 21.7461 12.2585 21.681 12.3863C21.0186 13.7215 20.3562 15.054 19.6991 16.3892C19.3992 16.9968 18.9298 17.3775 18.2622 17.4844C17.5138 17.6044 16.7602 17.7061 16.0092 17.8156C15.0834 17.9486 14.1629 18.0816 13.2424 18.2146Z" fill="white"/>
</svg>
