<svg width="54" height="48" viewBox="0 0 54 48" fill="none" xmlns="http://www.w3.org/2000/svg">
<path d="M28.8092 17.9919C28.8092 19.8068 28.8092 21.5657 28.8092 23.3924C29.0103 23.3924 29.2021 23.3924 29.3939 23.3924C34.9254 23.3924 40.4546 23.3924 45.9861 23.3924C47.2818 23.3924 47.9788 24.094 47.9788 25.4015C47.9788 27.5346 47.9788 29.6653 47.9788 31.7984C47.9788 31.9785 47.9788 32.1562 47.9788 32.3878C49.3354 32.3878 50.6498 32.4486 51.9549 32.3691C53.1454 32.2989 54.0085 33.2438 53.9944 34.4109C53.9453 38.2748 53.9757 42.141 53.9757 46.0048C53.9757 47.2632 53.26 47.9742 51.9924 47.9742C48.1098 47.9742 44.2295 47.9742 40.347 47.9742C39.1097 47.9742 38.387 47.2585 38.387 46.0329C38.3846 42.1176 38.3846 38.2023 38.387 34.2893C38.387 33.1198 39.1191 32.3901 40.2838 32.3878C41.631 32.3854 42.9759 32.3878 44.3535 32.3878C44.3535 30.5798 44.3535 28.8093 44.3535 27.0106C39.1775 27.0106 34.0203 27.0106 28.8256 27.0106C28.8256 28.7789 28.8256 30.5494 28.8256 32.3644C28.9776 32.3714 29.139 32.3854 29.3004 32.3854C30.5493 32.3878 31.7983 32.3808 33.0496 32.3878C33.9945 32.3925 34.7804 33.1479 34.7827 34.0952C34.7921 38.1438 34.7921 42.1924 34.7827 46.2387C34.7804 47.207 33.9969 47.9719 33.0215 47.9742C29.0057 47.9812 24.9921 47.9812 20.9762 47.9742C19.9681 47.9719 19.201 47.207 19.201 46.2036C19.194 42.1878 19.194 38.1742 19.201 34.1583C19.2033 33.1549 19.9705 32.3948 20.9786 32.3901C22.3608 32.3808 23.7408 32.3878 25.1582 32.3878C25.1582 30.5915 25.1582 28.821 25.1582 27.0177C19.9915 27.0177 14.8202 27.0177 9.6232 27.0177C9.6232 28.7905 9.6232 30.5494 9.6232 32.3878C9.77523 32.3878 9.93193 32.3878 10.091 32.3878C11.3236 32.3878 12.5562 32.3831 13.7888 32.3901C14.8249 32.3971 15.5897 33.1526 15.5921 34.1864C15.5967 38.1836 15.5967 42.1831 15.5921 46.1803C15.5897 47.2117 14.8226 47.9719 13.7864 47.9765C11.7867 47.9836 9.78926 47.9836 7.7895 47.9765C6.75103 47.9742 5.97919 47.2024 5.97452 46.1873C5.96984 45.1722 6.74168 44.391 7.77313 44.3863C9.15542 44.3793 10.5377 44.384 11.9574 44.384C11.9574 41.5937 11.9574 38.8221 11.9574 36.0177C9.19518 36.0177 6.42592 36.0177 3.59586 36.0177C3.59586 36.2002 3.59586 36.3779 3.59586 36.5557C3.59586 39.7717 3.5982 42.9853 3.59352 46.2013C3.59118 47.1111 2.94096 47.8666 2.08961 47.9812C1.13066 48.1075 0.307365 47.5883 0.0594413 46.6831C0.0126633 46.51 0.00330766 46.3229 0.00330766 46.1405C0.000968758 42.1761 -0.00137008 38.2116 0.000968816 34.2449C0.000968816 33.1105 0.7424 32.3878 1.88612 32.3878C3.23333 32.3878 4.58053 32.3878 5.99791 32.3878C5.99791 32.1843 5.99791 32.0089 5.99791 31.8311C5.99791 29.6489 5.99557 27.4667 5.99791 25.2845C6.00024 24.1081 6.72297 23.39 7.89709 23.39C13.4613 23.39 19.0256 23.39 24.5898 23.39C24.7699 23.39 24.95 23.39 25.1605 23.39C25.1605 21.5821 25.1605 19.8092 25.1605 17.9895C24.9664 17.9895 24.7863 17.9895 24.6085 17.9895C21.0604 17.9895 17.5123 17.9895 13.9642 17.9895C12.7059 17.9895 11.9972 17.2738 11.9972 16.0014C11.9972 11.3213 11.9972 6.63884 11.9972 1.9587C11.9972 0.707387 12.6989 0.00103951 13.9315 0.00103951C22.6438 0.00103951 31.3563 -0.00129939 40.0686 0.00103951C41.3083 0.00103951 42.1035 0.843043 41.9865 2.01951C41.9023 2.86619 41.1773 3.56318 40.3213 3.59125C39.8558 3.60762 39.388 3.59593 38.9226 3.59593C31.3422 3.59593 23.7618 3.59593 16.1838 3.59593C16.0037 3.59593 15.8236 3.59593 15.6178 3.59593C15.6178 7.19549 15.6178 10.7553 15.6178 14.3549C23.1748 14.3549 30.7435 14.3549 38.3846 14.3549C38.3846 14.1935 38.3846 14.0181 38.3846 13.8426C38.3846 11.8429 38.3823 9.84547 38.3846 7.84571C38.387 6.76046 39.1307 5.97927 40.1622 5.97225C41.2147 5.96289 41.9748 6.75344 41.9772 7.86208C41.9795 10.6103 41.9795 13.3585 41.9772 16.109C41.9748 17.2387 41.2311 17.9872 40.1037 17.9895C36.5556 17.9918 33.0075 17.9919 29.4594 17.9919C29.2629 17.9919 29.0641 17.9919 28.8092 17.9919ZM22.8123 44.3489C25.6236 44.3489 28.3929 44.3489 31.1504 44.3489C31.1504 41.5422 31.1504 38.773 31.1504 36.0107C28.3508 36.0107 25.5932 36.0107 22.8123 36.0107C22.8123 38.7964 22.8123 41.5539 22.8123 44.3489ZM50.3458 44.3606C50.3458 41.5516 50.3458 38.78 50.3458 36.0224C47.5391 36.0224 44.7698 36.0224 42.0076 36.0224C42.0076 38.8221 42.0076 41.5796 42.0076 44.3606C44.7932 44.3606 47.5508 44.3606 50.3458 44.3606Z" fill="white"/>
</svg>
