<svg width="43" height="54" viewBox="0 0 43 54" fill="none" xmlns="http://www.w3.org/2000/svg">
<path d="M7.25201 15.1058C5.53661 15.1058 3.82122 15.1093 2.10583 15.1041C0.861323 15.1006 0.00362369 14.2057 0.00194193 12.9046C0.000260169 9.33222 -0.00142159 5.75985 0.00194193 2.18747C0.00362369 0.891613 0.863005 0.00202207 2.11592 0.00202207C5.53157 0.000270906 8.94891 -0.00148026 12.3646 0.00202207C13.5956 0.00377323 14.5054 0.951153 14.5054 2.24001C14.5088 5.81238 14.5088 9.38476 14.5054 12.9571C14.5038 14.1917 13.6276 15.1006 12.4436 15.1041C10.7131 15.1093 8.98254 15.1058 7.25201 15.1058ZM6.32032 7.70364C6.00583 7.35866 5.73002 7.03645 5.43403 6.73525C4.93791 6.22741 4.24838 6.19589 3.79094 6.64243C3.3335 7.09073 3.33855 7.86124 3.8229 8.3936C4.36611 8.99074 4.91941 9.57738 5.47607 10.1605C6.01255 10.7209 6.66508 10.7226 7.21165 10.1588C8.22911 9.11157 9.23649 8.05387 10.2472 6.99967C10.3834 6.85783 10.5264 6.71948 10.6559 6.56888C11.0259 6.13985 11.0999 5.65478 10.8728 5.19772C10.6407 4.73191 10.1648 4.45523 9.64011 4.57606C9.3828 4.6356 9.11876 4.80546 8.92536 4.99984C8.05926 5.87017 7.21838 6.76852 6.32032 7.70364Z" fill="white"/>
<path d="M0.00247146 26.6285C0.00247146 24.8406 0.000791343 23.0544 0.00415486 21.2665C0.00583662 20.0634 0.745803 19.2124 1.89781 19.0828C2.03067 19.067 2.16521 19.0653 2.29975 19.0653C5.59768 19.0635 8.89562 19.0618 12.1936 19.0653C13.3826 19.067 14.1831 19.6519 14.4471 20.7131C14.4942 20.9057 14.506 21.1106 14.506 21.312C14.5093 24.8704 14.5093 28.4287 14.5077 31.9871C14.5077 33.2742 13.6466 34.1988 12.4038 34.2041C8.9713 34.2163 5.53883 34.2163 2.10636 34.2041C0.861853 34.2006 0.00415322 33.2777 0.00247146 31.9906C-0.00089206 30.2027 0.00247146 28.4147 0.00247146 26.6285ZM11.5629 22.0895C8.68035 22.0895 5.82641 22.0895 2.94219 22.0895C2.94219 25.091 2.94219 28.0627 2.94219 31.066C5.82472 31.066 8.67867 31.066 11.5629 31.066C11.5629 28.0645 11.5629 25.091 11.5629 22.0895Z" fill="white"/>
<path d="M0.00265997 45.6602C0.00265997 43.9055 0.00265997 42.1491 0.00265997 40.3945C0.00265997 38.976 0.828404 38.0987 2.19904 38.0934C4.46605 38.0829 6.73475 38.0899 9.00176 38.0899C10.0764 38.0899 11.1494 38.0847 12.224 38.0917C13.6384 38.1022 14.5062 39.0145 14.5062 40.482C14.5062 43.9773 14.5078 47.4727 14.5062 50.968C14.5062 52.3146 13.6501 53.2287 12.3586 53.2322C8.95635 53.241 5.55583 53.2393 2.15363 53.2322C0.856991 53.2287 0.00265832 52.3199 0.000976562 50.975C0.000976562 49.2011 0.00265997 47.4306 0.00265997 45.6602ZM2.94237 41.1422C2.94237 44.142 2.94237 47.1014 2.94237 50.0749C5.835 50.0749 8.70073 50.0749 11.5564 50.0749C11.5564 47.0734 11.5564 44.1157 11.5564 41.1422C8.67718 41.1422 5.83332 41.1422 2.94237 41.1422Z" fill="white"/>
<path d="M30.4739 5.7739C26.8177 5.7739 23.1599 5.7774 19.5037 5.77215C18.4005 5.7704 17.6858 4.81251 18.0171 3.77757C18.2222 3.13665 18.683 2.80918 19.3154 2.72687C19.4045 2.71462 19.4937 2.71987 19.5845 2.71987C26.8379 2.71987 34.093 2.71987 41.3464 2.71987C42.2748 2.71987 42.9223 3.26273 42.9879 4.08052C43.0669 5.05067 42.4194 5.7704 41.4457 5.7704C37.9375 5.77565 34.4311 5.77215 30.9229 5.77215C30.7715 5.77565 30.6219 5.77565 30.4739 5.7739Z" fill="white"/>
<path d="M30.4397 43.9229C26.7684 43.9229 23.0972 43.9246 19.4259 43.9211C18.6506 43.9211 18.0922 43.4256 17.951 42.6393C17.8316 41.9721 18.2251 41.2348 18.8692 41.0089C19.145 40.9126 19.4545 40.8899 19.7471 40.8899C26.8811 40.8829 34.0151 40.8846 41.1475 40.8846C41.282 40.8846 41.4166 40.8794 41.5511 40.8899C42.4458 40.9582 43.0226 41.6096 42.9857 42.5097C42.952 43.331 42.318 43.9211 41.4536 43.9211C37.7823 43.9246 34.111 43.9229 30.4397 43.9229Z" fill="white"/>
<path d="M30.4974 21.8249C34.1687 21.8249 37.84 21.8231 41.5113 21.8267C42.2412 21.8267 42.8331 22.3187 42.9693 23.0157C43.1106 23.7319 42.7558 24.4587 42.1016 24.7196C41.8712 24.8124 41.6088 24.8527 41.3599 24.8527C34.0913 24.8597 26.8244 24.8597 19.5559 24.8562C18.6528 24.8562 18.0608 24.3448 17.9397 23.5095C17.8405 22.8248 18.2811 22.1086 18.9555 21.8967C19.1506 21.8354 19.3658 21.8284 19.571 21.8267C23.2154 21.8231 26.8564 21.8249 30.4974 21.8249Z" fill="white"/>
<path d="M26.4176 47.3833C28.7284 47.3833 31.0408 47.3798 33.3515 47.3868C34.0696 47.3886 34.6044 47.8386 34.786 48.5496C34.9475 49.1853 34.67 49.9085 34.0932 50.2115C33.8375 50.3463 33.5264 50.4251 33.2388 50.4269C28.6762 50.4391 24.1136 50.4374 19.5493 50.4339C18.6025 50.4339 17.9214 49.7737 17.9298 48.8911C17.9382 47.9998 18.6075 47.3833 19.5728 47.3816C21.855 47.3816 24.1371 47.3816 26.4176 47.3833Z" fill="white"/>
<path d="M26.3688 31.3338C24.0849 31.3338 21.8011 31.3356 19.5173 31.3338C18.5873 31.3338 17.928 30.7017 17.9297 29.8208C17.9331 28.968 18.5789 28.3043 19.4786 28.3026C24.0765 28.2921 28.6745 28.2921 33.2707 28.3026C34.2007 28.3043 34.8448 28.9733 34.8297 29.8523C34.8146 30.7367 34.1671 31.3338 33.2186 31.3338C30.9364 31.3338 28.6526 31.3338 26.3688 31.3338Z" fill="white"/>
<path d="M26.3752 9.23247C28.659 9.23247 30.9429 9.23072 33.2267 9.23247C34.1735 9.23247 34.8193 9.83487 34.8311 10.721C34.8429 11.6 34.2004 12.2602 33.2637 12.262C28.6809 12.2725 24.0981 12.2707 19.5153 12.2637C18.6441 12.262 18.0623 11.7436 17.9412 10.9241C17.8403 10.2411 18.2792 9.52141 18.9502 9.30602C19.1302 9.24823 19.3303 9.23772 19.522 9.23597C21.8075 9.23072 24.0914 9.23247 26.3752 9.23247Z" fill="white"/>
</svg>
