<svg width="48" height="48" viewBox="0 0 48 48" fill="none" xmlns="http://www.w3.org/2000/svg">
<path d="M1.9986 8.0015C2.22012 8.0015 2.39162 8.0015 2.56169 8.0015C15.9872 8.0015 29.4142 8.0015 42.8397 8.0015C43.5828 8.0015 44.0287 8.41024 43.9987 9.05908C43.9758 9.555 43.5785 9.96231 43.0798 9.99518C42.9597 10.0038 42.8397 9.99804 42.7196 9.99804C28.9068 9.99804 15.094 9.99804 1.28116 9.99804C0.310763 9.99804 0.000635182 9.68362 0.000635182 8.70036C0.000635182 6.82102 -0.000793977 4.94024 0.000635182 3.0609C0.0034935 1.30018 1.29402 0.00107187 3.04903 0.00107187C17.0348 -0.00035729 31.022 -0.00035729 45.0077 0.00107187C46.6812 0.00107187 47.9989 1.32019 47.9989 2.99516C48.0004 16.9952 48.0004 30.9938 47.9989 44.9938C47.9989 46.6903 46.6812 47.9979 44.9763 47.9979C30.9905 47.9994 17.0033 47.9994 3.01759 47.9979C1.33261 47.9979 0.00206434 46.6917 0.00206434 45.0281C0.000635181 34.3895 0.000635181 23.7494 0.00206434 13.1107C0.00206434 12.5134 0.327913 12.0832 0.829547 12.0089C1.33118 11.9345 1.81424 12.2175 1.95144 12.6991C2.00146 12.8735 1.99574 13.0679 1.99574 13.2522C1.99717 23.718 1.99717 34.1851 1.99717 44.6508C1.99717 45.6741 2.33159 46.0043 3.36487 46.0043C17.1248 46.0043 30.8833 46.0043 44.6433 46.0043C45.6694 46.0043 46.0024 45.6698 46.0024 44.6408C46.0024 30.8809 46.0024 17.1224 46.0024 3.36246C46.0024 2.3306 45.6723 1.99904 44.6447 1.99904C30.8848 1.99904 17.1262 1.99904 3.3663 1.99904C2.33159 1.99904 1.99717 2.32917 1.99717 3.35102C1.9986 4.88165 1.9986 6.41371 1.9986 8.0015Z" fill="white"/>
<path d="M23.9802 27.9997C17.7262 27.9997 11.4736 27.9997 5.2196 27.9997C4.34924 27.9997 4.00195 27.6582 4.00195 26.8007C4.00195 22.2674 4.00195 17.7341 4.00195 13.2008C4.00195 12.3605 4.35353 12.0032 5.18101 12.0032C17.7276 12.0032 30.2742 12.0032 42.8222 12.0032C43.6497 12.0032 44.0012 12.3605 44.0012 13.2022C44.0012 17.7355 44.0012 22.2688 44.0012 26.8021C44.0012 27.6582 43.6525 28.0012 42.7807 28.0012C36.5139 27.9997 30.247 27.9997 23.9802 27.9997ZM6.01564 25.9732C18.0263 25.9732 30.0041 25.9732 41.9704 25.9732C41.9704 21.9673 41.9704 17.9885 41.9704 14.0197C29.9698 14.0197 18.002 14.0197 6.01564 14.0197C6.01564 18.0099 6.01564 21.9787 6.01564 25.9732Z" fill="white"/>
<path d="M13.9794 44.0006C11.0453 44.0006 8.11267 44.0006 5.1786 44.0006C4.36398 44.0006 4.00098 43.6433 4.00098 42.8401C4.00098 38.9471 4.00098 35.0526 4.00098 31.1596C4.00098 30.3735 4.36541 30.0034 5.14002 30.002C11.0467 30.002 16.9534 30.002 22.8602 30.002C23.6319 30.002 23.9992 30.375 23.9992 31.161C23.9992 35.054 23.9992 38.9485 23.9992 42.8415C23.9992 43.6433 23.6348 44.0006 22.8187 44.0006C19.8732 44.0006 16.9263 44.0006 13.9794 44.0006ZM6.02752 32.0171C6.02752 35.3599 6.02752 38.6698 6.02752 41.9712C11.3669 41.9712 16.6776 41.9712 21.9812 41.9712C21.9812 38.6384 21.9812 35.337 21.9812 32.0171C16.659 32.0171 11.3583 32.0171 6.02752 32.0171Z" fill="white"/>
<path d="M35.042 30.0021C37.6817 30.0021 40.3213 30.0006 42.9624 30.0035C43.4526 30.0035 43.8299 30.275 43.9657 30.7052C44.09 31.1039 43.9543 31.5727 43.5927 31.7999C43.4112 31.9129 43.1739 31.99 42.961 31.9915C37.6545 32.0015 32.3481 32 27.0416 31.9986C26.4213 31.9986 25.9955 31.5713 26.004 30.9796C26.0126 30.4122 26.4385 30.0049 27.043 30.0035C29.7084 30.0006 32.3752 30.0021 35.042 30.0021Z" fill="white"/>
<path d="M34.9617 39.999C32.3221 39.999 29.6824 40.0004 27.0413 39.9976C26.5511 39.9976 26.1724 39.726 26.0381 39.2959C25.9123 38.8957 26.0481 38.4284 26.4096 38.1997C26.5897 38.0854 26.8284 38.0096 27.0413 38.0096C32.3478 37.9996 37.6543 38.001 42.9607 38.0025C43.581 38.0025 44.0097 38.4298 44.0011 39.0186C43.9926 39.5831 43.5638 39.9962 42.9621 39.9962C40.2939 40.0019 37.6285 39.999 34.9617 39.999Z" fill="white"/>
<path d="M32.0407 34.0022C33.6542 34.0022 35.2678 34.0007 36.8799 34.0022C37.5516 34.0022 37.9903 34.388 37.9989 34.9797C38.0075 35.5942 37.5673 35.9973 36.8784 35.9973C33.6257 35.9987 30.3715 35.9987 27.1187 35.9973C26.4313 35.9973 25.9925 35.5942 26.0011 34.9783C26.0097 34.3866 26.447 34.0022 27.1201 34.0007C28.7622 34.0022 30.4015 34.0022 32.0407 34.0022Z" fill="white"/>
<path d="M32.0154 42.0026C33.6418 42.0026 35.2682 42.0012 36.8946 42.0026C37.5591 42.0026 37.9964 42.3985 37.9993 42.9945C38.0022 43.5919 37.5634 43.9978 36.906 43.9978C33.6389 43.9992 30.3733 43.9992 27.1063 43.9978C26.4417 43.9978 26.0044 43.6004 26.0029 43.0045C26.0001 42.4057 26.436 42.0026 27.0962 42.0012C28.7355 42.0012 30.3762 42.0026 32.0154 42.0026Z" fill="white"/>
<path d="M8.01391 5.99776C7.44939 6.00348 6.9892 5.55758 6.98634 5.00307C6.98348 4.44999 7.44081 3.99838 8.00533 4.00123C8.5527 4.00266 8.99431 4.42998 9.01289 4.97449C9.03147 5.52329 8.57414 5.99205 8.01391 5.99776Z" fill="white"/>
<path d="M5.99852 5.00906C5.99423 5.57786 5.54405 6.01089 4.96953 5.99803C4.4193 5.98517 3.9977 5.54642 4.00199 4.98905C4.00627 4.41881 4.4536 3.98864 5.02955 4.0015C5.57978 4.01293 6.00281 4.45311 5.99852 5.00906Z" fill="white"/>
<path d="M11.9985 5.00319C11.9956 5.57343 11.5483 6.00789 10.9752 5.99646C10.4236 5.98646 10.0005 5.55056 10.002 4.99319C10.0034 4.42153 10.4479 3.98992 11.0252 3.99993C11.5769 4.01136 12.0013 4.44725 11.9985 5.00319Z" fill="white"/>
</svg>
