<svg width="464" height="52" viewBox="0 0 464 52" fill="none" xmlns="http://www.w3.org/2000/svg">
<rect x="251.5" y="8" width="186" height="2" rx="1" fill="#C4C4C4"/>
<rect x="50.5" y="7" width="188" height="4" rx="2" fill="#148481"/>
<circle cx="445" cy="9" r="8" stroke="#C4C4C4" stroke-width="2"/>
<circle cx="245" cy="9" r="9" fill="#148481"/>
<g filter="url(#filter0_d)">
<ellipse cx="245" cy="9" rx="3" ry="3" fill="white"/>
</g>
<circle cx="45" cy="9" r="9" fill="#148481"/>
<g filter="url(#filter1_d)">
<path d="M40 8.71594L40.8981 7.81787L43.5923 10.5121L49.1019 5L50 5.89807L43.5923 12.3082L40 8.71594Z" fill="white"/>
</g>
<path d="M4.7383 36C6.2023 36 7.0543 35.124 7.0543 33.84C7.0543 32.88 6.3463 32.004 5.4943 31.872C6.2263 31.716 6.8983 31.044 6.8983 30.036C6.8983 28.836 6.0463 27.996 4.6543 27.996H1.0903V36H4.7383ZM4.4863 31.464H2.0863V28.884H4.4863C5.3863 28.884 5.8663 29.46 5.8663 30.18C5.8663 30.912 5.3863 31.464 4.4863 31.464ZM4.5463 35.112H2.0863V32.352H4.5463C5.5183 32.352 6.0223 33 6.0223 33.732C6.0223 34.584 5.4703 35.112 4.5463 35.112ZM13.1252 36V32.016C13.1252 30.612 12.1172 30.06 10.8812 30.06C9.93317 30.06 9.18917 30.372 8.56517 31.02L8.98517 31.644C9.50117 31.08 10.0652 30.84 10.7612 30.84C11.6012 30.84 12.2252 31.284 12.2252 32.052V33.096C11.7572 32.568 11.0972 32.316 10.3052 32.316C9.32117 32.316 8.28917 32.916 8.28917 34.224C8.28917 35.484 9.33317 36.144 10.3052 36.144C11.0852 36.144 11.7572 35.868 12.2252 35.34V36H13.1252ZM10.6412 35.496C9.78917 35.496 9.20117 34.968 9.20117 34.224C9.20117 33.492 9.78917 32.964 10.6412 32.964C11.2652 32.964 11.8772 33.204 12.2252 33.672V34.776C11.8772 35.256 11.2652 35.496 10.6412 35.496ZM16.789 36.144C18.277 36.144 19.057 35.364 19.057 34.392C19.057 32.136 15.469 32.964 15.469 31.704C15.469 31.188 15.961 30.792 16.753 30.792C17.509 30.792 18.133 31.104 18.481 31.524L18.901 30.9C18.445 30.432 17.749 30.06 16.753 30.06C15.373 30.06 14.605 30.816 14.605 31.728C14.605 33.876 18.193 33.012 18.193 34.416C18.193 34.992 17.701 35.412 16.813 35.412C16.021 35.412 15.289 35.028 14.905 34.584L14.449 35.232C15.037 35.844 15.829 36.144 16.789 36.144ZM20.9751 29.376C21.3111 29.376 21.5751 29.112 21.5751 28.776C21.5751 28.44 21.3111 28.164 20.9751 28.164C20.6391 28.164 20.3631 28.44 20.3631 28.776C20.3631 29.112 20.6391 29.376 20.9751 29.376ZM21.4191 36V30.204H20.5191V36H21.4191ZM25.7705 36.144C26.8265 36.144 27.4505 35.712 27.8945 35.136L27.2945 34.584C26.9105 35.1 26.4185 35.34 25.8185 35.34C24.5945 35.34 23.8145 34.38 23.8145 33.096C23.8145 31.812 24.5945 30.864 25.8185 30.864C26.4185 30.864 26.9105 31.08 27.2945 31.608L27.8945 31.068C27.4505 30.492 26.8265 30.06 25.7705 30.06C24.0425 30.06 22.8785 31.38 22.8785 33.096C22.8785 34.812 24.0425 36.144 25.7705 36.144ZM33.305 36V27.996H32.309V36H33.305ZM39.9561 36V31.932C39.9561 30.672 39.3201 30.06 38.1201 30.06C37.2441 30.06 36.4521 30.552 36.0441 31.044V30.204H35.1441V36H36.0441V31.764C36.3921 31.296 37.0521 30.864 37.7601 30.864C38.5401 30.864 39.0681 31.176 39.0681 32.208V36H39.9561ZM42.9172 36V30.996H44.0932V30.204H42.9172V29.76C42.9172 29.016 43.2412 28.62 43.8412 28.62C44.1292 28.62 44.3572 28.728 44.5492 28.896L44.9212 28.32C44.5612 27.984 44.1652 27.876 43.6972 27.876C42.6772 27.876 42.0172 28.572 42.0172 29.76V30.204H41.0572V30.996H42.0172V36H42.9172ZM47.7074 36.144C49.4714 36.144 50.5754 34.776 50.5754 33.096C50.5754 31.416 49.4714 30.06 47.7074 30.06C45.9434 30.06 44.8394 31.416 44.8394 33.096C44.8394 34.776 45.9434 36.144 47.7074 36.144ZM47.7074 35.34C46.4714 35.34 45.7874 34.284 45.7874 33.096C45.7874 31.92 46.4714 30.864 47.7074 30.864C48.9434 30.864 49.6274 31.92 49.6274 33.096C49.6274 34.284 48.9434 35.34 47.7074 35.34ZM52.9426 36V31.896C53.2066 31.428 53.9626 30.972 54.5266 30.972C54.6586 30.972 54.7666 30.984 54.8746 30.996V30.072C54.0826 30.072 53.4106 30.528 52.9426 31.128V30.204H52.0426V36H52.9426ZM63.8995 36V31.812C63.8995 30.648 63.3355 30.06 62.2795 30.06C61.4395 30.06 60.6595 30.612 60.3355 31.14C60.1675 30.54 59.6635 30.06 58.7875 30.06C57.9235 30.06 57.1555 30.672 56.9035 31.044V30.204H56.0035V36H56.9035V31.764C57.2155 31.296 57.8395 30.864 58.4275 30.864C59.1955 30.864 59.4955 31.332 59.4955 32.064V36H60.3955V31.752C60.6955 31.284 61.3315 30.864 61.9315 30.864C62.6875 30.864 62.9995 31.332 62.9995 32.064V36H63.8995ZM70.2189 36V32.016C70.2189 30.612 69.2109 30.06 67.9749 30.06C67.0269 30.06 66.2829 30.372 65.6589 31.02L66.0789 31.644C66.5949 31.08 67.1589 30.84 67.8549 30.84C68.6949 30.84 69.3189 31.284 69.3189 32.052V33.096C68.8509 32.568 68.1909 32.316 67.3989 32.316C66.4149 32.316 65.3829 32.916 65.3829 34.224C65.3829 35.484 66.4269 36.144 67.3989 36.144C68.1789 36.144 68.8509 35.868 69.3189 35.34V36H70.2189ZM67.7349 35.496C66.8829 35.496 66.2949 34.968 66.2949 34.224C66.2949 33.492 66.8829 32.964 67.7349 32.964C68.3589 32.964 68.9709 33.204 69.3189 33.672V34.776C68.9709 35.256 68.3589 35.496 67.7349 35.496ZM73.5108 36.144C74.0268 36.144 74.3508 35.988 74.5788 35.772L74.3148 35.088C74.1948 35.22 73.9668 35.34 73.7028 35.34C73.3188 35.34 73.1268 35.028 73.1268 34.596V30.996H74.3028V30.204H73.1268V28.62H72.2148V30.204H71.2548V30.996H72.2148V34.788C72.2148 35.652 72.6468 36.144 73.5108 36.144ZM76.0181 29.376C76.3541 29.376 76.6181 29.112 76.6181 28.776C76.6181 28.44 76.3541 28.164 76.0181 28.164C75.6821 28.164 75.4061 28.44 75.4061 28.776C75.4061 29.112 75.6821 29.376 76.0181 29.376ZM76.4621 36V30.204H75.5621V36H76.4621ZM80.7894 36.144C82.5534 36.144 83.6574 34.776 83.6574 33.096C83.6574 31.416 82.5534 30.06 80.7894 30.06C79.0254 30.06 77.9214 31.416 77.9214 33.096C77.9214 34.776 79.0254 36.144 80.7894 36.144ZM80.7894 35.34C79.5534 35.34 78.8694 34.284 78.8694 33.096C78.8694 31.92 79.5534 30.864 80.7894 30.864C82.0254 30.864 82.7094 31.92 82.7094 33.096C82.7094 34.284 82.0254 35.34 80.7894 35.34ZM89.9366 36V31.932C89.9366 30.672 89.3006 30.06 88.1006 30.06C87.2246 30.06 86.4326 30.552 86.0246 31.044V30.204H85.1246V36H86.0246V31.764C86.3726 31.296 87.0326 30.864 87.7406 30.864C88.5206 30.864 89.0486 31.176 89.0486 32.208V36H89.9366Z" fill="#148481"/>
<path d="M206.602 37V30.232H209.026V28.996H202.774V30.232H205.198V37H206.602ZM210.537 37V33.052C210.789 32.632 211.497 32.272 212.037 32.272C212.193 32.272 212.313 32.284 212.421 32.308V31.06C211.677 31.06 210.981 31.492 210.537 32.044V31.204H209.277V37H210.537ZM218.249 37V33.148C218.249 31.6 217.121 31.06 215.825 31.06C214.901 31.06 214.061 31.348 213.389 31.996L213.917 32.872C214.409 32.368 214.985 32.128 215.633 32.128C216.425 32.128 216.989 32.536 216.989 33.208V34.072C216.557 33.58 215.897 33.328 215.105 33.328C214.157 33.328 213.101 33.88 213.101 35.224C213.101 36.496 214.169 37.144 215.105 37.144C215.873 37.144 216.557 36.868 216.989 36.364V37H218.249ZM215.609 36.28C214.901 36.28 214.361 35.872 214.361 35.236C214.361 34.612 214.901 34.192 215.609 34.192C216.149 34.192 216.689 34.396 216.989 34.792V35.68C216.689 36.076 216.149 36.28 215.609 36.28ZM225.066 37V32.92C225.066 31.732 224.442 31.06 223.194 31.06C222.282 31.06 221.526 31.528 221.142 31.984V31.204H219.882V37H221.142V32.944C221.442 32.56 221.994 32.176 222.63 32.176C223.338 32.176 223.806 32.464 223.806 33.376V37H225.066ZM228.695 37.144C230.255 37.144 231.107 36.364 231.107 35.332C231.107 33.028 227.603 33.796 227.603 32.776C227.603 32.368 228.011 32.056 228.671 32.056C229.403 32.056 230.039 32.368 230.387 32.752L230.915 31.864C230.399 31.408 229.655 31.06 228.671 31.06C227.207 31.06 226.391 31.864 226.391 32.812C226.391 35.044 229.895 34.228 229.895 35.368C229.895 35.824 229.499 36.136 228.743 36.136C227.999 36.136 227.195 35.752 226.787 35.332L226.211 36.232C226.811 36.82 227.699 37.144 228.695 37.144ZM233.935 37V32.296H235.111V31.204H233.935V30.88C233.935 30.232 234.235 29.908 234.739 29.908C235.015 29.908 235.231 30.004 235.399 30.16L235.891 29.38C235.543 29.008 235.027 28.876 234.499 28.876C233.407 28.876 232.675 29.62 232.675 30.88V31.204H231.715V32.296H232.675V37H233.935ZM238.754 37.144C239.666 37.144 240.518 36.844 241.106 36.292L240.53 35.464C240.11 35.884 239.45 36.112 238.874 36.112C237.782 36.112 237.134 35.38 237.038 34.516H241.502V34.204C241.502 32.38 240.398 31.06 238.658 31.06C236.942 31.06 235.718 32.416 235.718 34.096C235.718 35.932 237.002 37.144 238.754 37.144ZM240.29 33.616H237.026C237.074 32.92 237.578 32.092 238.646 32.092C239.786 32.092 240.254 32.932 240.29 33.616ZM244.006 37V33.052C244.258 32.632 244.966 32.272 245.506 32.272C245.662 32.272 245.782 32.284 245.89 32.308V31.06C245.146 31.06 244.45 31.492 244.006 32.044V31.204H242.746V37H244.006ZM253.888 37.144C255.496 37.144 256.492 36.292 257.104 35.332L255.904 34.732C255.52 35.392 254.74 35.896 253.888 35.896C252.304 35.896 251.128 34.672 251.128 33.004C251.128 31.312 252.304 30.112 253.888 30.112C254.74 30.112 255.52 30.604 255.904 31.276L257.092 30.652C256.504 29.692 255.496 28.864 253.888 28.864C251.524 28.864 249.688 30.532 249.688 33.004C249.688 35.464 251.524 37.144 253.888 37.144ZM259.439 37V33.052C259.691 32.632 260.399 32.272 260.939 32.272C261.095 32.272 261.215 32.284 261.323 32.308V31.06C260.579 31.06 259.883 31.492 259.439 32.044V31.204H258.179V37H259.439ZM265.027 37.144C265.939 37.144 266.791 36.844 267.379 36.292L266.803 35.464C266.383 35.884 265.723 36.112 265.147 36.112C264.055 36.112 263.407 35.38 263.311 34.516H267.775V34.204C267.775 32.38 266.671 31.06 264.931 31.06C263.215 31.06 261.991 32.416 261.991 34.096C261.991 35.932 263.275 37.144 265.027 37.144ZM266.563 33.616H263.299C263.347 32.92 263.851 32.092 264.919 32.092C266.059 32.092 266.527 32.932 266.563 33.616ZM274.359 37V28.996H273.099V32.008C272.643 31.384 271.971 31.06 271.239 31.06C269.751 31.06 268.671 32.224 268.671 34.096C268.671 36.016 269.763 37.144 271.239 37.144C271.995 37.144 272.655 36.784 273.099 36.208V37H274.359ZM271.611 36.028C270.603 36.028 269.967 35.224 269.967 34.096C269.967 32.98 270.603 32.176 271.611 32.176C272.199 32.176 272.823 32.524 273.099 32.956V35.248C272.823 35.68 272.199 36.028 271.611 36.028ZM276.628 30.496C277.06 30.496 277.408 30.148 277.408 29.716C277.408 29.284 277.06 28.936 276.628 28.936C276.196 28.936 275.848 29.284 275.848 29.716C275.848 30.148 276.196 30.496 276.628 30.496ZM277.252 37V31.204H275.992V37H277.252ZM280.638 37.144C281.214 37.144 281.586 36.976 281.814 36.772L281.514 35.812C281.418 35.92 281.202 36.028 280.962 36.028C280.602 36.028 280.41 35.728 280.41 35.332V32.296H281.586V31.204H280.41V29.62H279.15V31.204H278.19V32.296H279.15V35.644C279.15 36.616 279.654 37.144 280.638 37.144ZM284.71 37.144C286.27 37.144 287.122 36.364 287.122 35.332C287.122 33.028 283.618 33.796 283.618 32.776C283.618 32.368 284.026 32.056 284.686 32.056C285.418 32.056 286.054 32.368 286.402 32.752L286.93 31.864C286.414 31.408 285.67 31.06 284.686 31.06C283.222 31.06 282.406 31.864 282.406 32.812C282.406 35.044 285.91 34.228 285.91 35.368C285.91 35.824 285.514 36.136 284.758 36.136C284.014 36.136 283.21 35.752 282.802 35.332L282.226 36.232C282.826 36.82 283.714 37.144 284.71 37.144ZM187.153 50.788C186.349 49.312 185.917 47.956 185.917 46.084C185.917 44.188 186.349 42.856 187.153 41.368L186.373 40.78C185.233 42.16 184.549 44.152 184.549 46.084C184.549 48.016 185.233 50.008 186.373 51.388L187.153 50.788ZM191.681 49.144C194.009 49.144 195.149 47.812 195.149 45.832V40.996H193.721V45.796C193.721 47.068 193.013 47.896 191.681 47.896C190.349 47.896 189.641 47.068 189.641 45.796V40.996H188.213V45.832C188.213 47.812 189.365 49.144 191.681 49.144ZM201.998 49V44.92C201.998 43.732 201.374 43.06 200.126 43.06C199.214 43.06 198.458 43.528 198.074 43.984V43.204H196.814V49H198.074V44.944C198.374 44.56 198.926 44.176 199.562 44.176C200.27 44.176 200.738 44.464 200.738 45.376V49H201.998ZM208.974 49V40.996H207.714V44.008C207.258 43.384 206.586 43.06 205.854 43.06C204.366 43.06 203.286 44.224 203.286 46.096C203.286 48.016 204.378 49.144 205.854 49.144C206.61 49.144 207.27 48.784 207.714 48.208V49H208.974ZM206.226 48.028C205.218 48.028 204.582 47.224 204.582 46.096C204.582 44.98 205.218 44.176 206.226 44.176C206.814 44.176 207.438 44.524 207.714 44.956V47.248C207.438 47.68 206.814 48.028 206.226 48.028ZM213.295 49.144C214.207 49.144 215.059 48.844 215.647 48.292L215.071 47.464C214.651 47.884 213.991 48.112 213.415 48.112C212.323 48.112 211.675 47.38 211.579 46.516H216.043V46.204C216.043 44.38 214.939 43.06 213.199 43.06C211.483 43.06 210.259 44.416 210.259 46.096C210.259 47.932 211.543 49.144 213.295 49.144ZM214.831 45.616H211.567C211.615 44.92 212.119 44.092 213.187 44.092C214.327 44.092 214.795 44.932 214.831 45.616ZM218.547 49V45.052C218.799 44.632 219.507 44.272 220.047 44.272C220.203 44.272 220.323 44.284 220.431 44.308V43.06C219.687 43.06 218.991 43.492 218.547 44.044V43.204H217.287V49H218.547ZM223.811 51.352C225.227 51.352 226.787 50.788 226.787 48.7V43.204H225.527V44.008C225.059 43.384 224.399 43.06 223.667 43.06C222.167 43.06 221.099 44.152 221.099 46.036C221.099 47.944 222.191 49.012 223.667 49.012C224.423 49.012 225.083 48.628 225.527 48.04V48.7C225.527 49.936 224.639 50.32 223.811 50.32C223.043 50.32 222.443 50.116 221.963 49.576L221.375 50.488C222.095 51.136 222.827 51.352 223.811 51.352ZM224.039 47.884C223.031 47.884 222.395 47.152 222.395 46.036C222.395 44.92 223.031 44.176 224.039 44.176C224.627 44.176 225.239 44.524 225.527 44.944V47.116C225.239 47.536 224.627 47.884 224.039 47.884ZM229.68 49V45.052C229.932 44.632 230.64 44.272 231.18 44.272C231.336 44.272 231.456 44.284 231.564 44.308V43.06C230.82 43.06 230.124 43.492 229.68 44.044V43.204H228.42V49H229.68ZM237.392 49V45.148C237.392 43.6 236.264 43.06 234.968 43.06C234.044 43.06 233.204 43.348 232.532 43.996L233.06 44.872C233.552 44.368 234.128 44.128 234.776 44.128C235.568 44.128 236.132 44.536 236.132 45.208V46.072C235.7 45.58 235.04 45.328 234.248 45.328C233.3 45.328 232.244 45.88 232.244 47.224C232.244 48.496 233.312 49.144 234.248 49.144C235.016 49.144 235.7 48.868 236.132 48.364V49H237.392ZM234.752 48.28C234.044 48.28 233.504 47.872 233.504 47.236C233.504 46.612 234.044 46.192 234.752 46.192C235.292 46.192 235.832 46.396 236.132 46.792V47.68C235.832 48.076 235.292 48.28 234.752 48.28ZM244.365 49V40.996H243.105V44.008C242.649 43.384 241.977 43.06 241.245 43.06C239.757 43.06 238.677 44.224 238.677 46.096C238.677 48.016 239.769 49.144 241.245 49.144C242.001 49.144 242.661 48.784 243.105 48.208V49H244.365ZM241.617 48.028C240.609 48.028 239.973 47.224 239.973 46.096C239.973 44.98 240.609 44.176 241.617 44.176C242.205 44.176 242.829 44.524 243.105 44.956V47.248C242.829 47.68 242.205 48.028 241.617 48.028ZM251.17 49V43.204H249.91V47.272C249.622 47.656 249.07 48.028 248.434 48.028C247.714 48.028 247.258 47.74 247.258 46.84V43.204H245.998V47.308C245.998 48.484 246.622 49.144 247.87 49.144C248.782 49.144 249.502 48.688 249.91 48.232V49H251.17ZM257.618 49V45.148C257.618 43.6 256.49 43.06 255.194 43.06C254.27 43.06 253.43 43.348 252.758 43.996L253.286 44.872C253.778 44.368 254.354 44.128 255.002 44.128C255.794 44.128 256.358 44.536 256.358 45.208V46.072C255.926 45.58 255.266 45.328 254.474 45.328C253.526 45.328 252.47 45.88 252.47 47.224C252.47 48.496 253.538 49.144 254.474 49.144C255.242 49.144 255.926 48.868 256.358 48.364V49H257.618ZM254.978 48.28C254.27 48.28 253.73 47.872 253.73 47.236C253.73 46.612 254.27 46.192 254.978 46.192C255.518 46.192 256.058 46.396 256.358 46.792V47.68C256.058 48.076 255.518 48.28 254.978 48.28ZM261.004 49.144C261.58 49.144 261.952 48.976 262.18 48.772L261.88 47.812C261.784 47.92 261.568 48.028 261.328 48.028C260.968 48.028 260.776 47.728 260.776 47.332V44.296H261.952V43.204H260.776V41.62H259.516V43.204H258.556V44.296H259.516V47.644C259.516 48.616 260.02 49.144 261.004 49.144ZM265.772 49.144C266.684 49.144 267.536 48.844 268.124 48.292L267.548 47.464C267.128 47.884 266.468 48.112 265.892 48.112C264.8 48.112 264.152 47.38 264.056 46.516H268.52V46.204C268.52 44.38 267.416 43.06 265.676 43.06C263.96 43.06 262.736 44.416 262.736 46.096C262.736 47.932 264.02 49.144 265.772 49.144ZM267.308 45.616H264.044C264.092 44.92 264.596 44.092 265.664 44.092C266.804 44.092 267.272 44.932 267.308 45.616ZM271.755 49.144C273.315 49.144 274.167 48.364 274.167 47.332C274.167 45.028 270.663 45.796 270.663 44.776C270.663 44.368 271.071 44.056 271.731 44.056C272.463 44.056 273.099 44.368 273.447 44.752L273.975 43.864C273.459 43.408 272.715 43.06 271.731 43.06C270.267 43.06 269.451 43.864 269.451 44.812C269.451 47.044 272.955 46.228 272.955 47.368C272.955 47.824 272.559 48.136 271.803 48.136C271.059 48.136 270.255 47.752 269.847 47.332L269.271 48.232C269.871 48.82 270.759 49.144 271.755 49.144ZM282.297 49.144C284.685 49.144 286.389 47.392 286.389 45.004C286.389 42.616 284.685 40.864 282.297 40.864C279.897 40.864 278.205 42.616 278.205 45.004C278.205 47.392 279.897 49.144 282.297 49.144ZM282.297 47.896C280.677 47.896 279.645 46.648 279.645 45.004C279.645 43.348 280.677 42.112 282.297 42.112C283.905 42.112 284.949 43.348 284.949 45.004C284.949 46.648 283.905 47.896 282.297 47.896ZM292.877 49V44.92C292.877 43.732 292.253 43.06 291.005 43.06C290.093 43.06 289.337 43.528 288.953 43.984V43.204H287.693V49H288.953V44.944C289.253 44.56 289.805 44.176 290.441 44.176C291.149 44.176 291.617 44.464 291.617 45.376V49H292.877ZM295.773 49V40.996H294.513V49H295.773ZM297.168 51.268C297.336 51.316 297.696 51.352 297.876 51.352C298.776 51.34 299.46 51.028 299.856 50.044L302.652 43.204H301.308L299.616 47.548L297.924 43.204H296.568L298.956 49.072L298.668 49.732C298.5 50.116 298.236 50.236 297.828 50.236C297.684 50.236 297.48 50.2 297.348 50.14L297.168 51.268ZM302.843 50.788C303.635 49.312 304.067 47.956 304.067 46.084C304.067 44.188 303.635 42.856 302.843 41.368L303.623 40.78C304.751 42.16 305.435 44.152 305.435 46.084C305.435 48.016 304.751 50.008 303.623 51.388L302.843 50.788Z" fill="#148481"/>
<path opacity="0.3" d="M432.812 36L430.652 32.736C431.744 32.64 432.74 31.848 432.74 30.408C432.74 28.932 431.684 27.996 430.22 27.996H427.004V36H428V32.82H429.608L431.636 36H432.812ZM430.1 31.944H428V28.884H430.1C431.048 28.884 431.708 29.496 431.708 30.408C431.708 31.308 431.048 31.944 430.1 31.944ZM436.546 36.144C437.482 36.144 438.262 35.82 438.85 35.244L438.418 34.656C437.95 35.136 437.29 35.4 436.618 35.4C435.37 35.4 434.614 34.488 434.542 33.396H439.222V33.168C439.222 31.428 438.19 30.06 436.438 30.06C434.782 30.06 433.582 31.416 433.582 33.096C433.582 34.908 434.818 36.144 436.546 36.144ZM438.334 32.724H434.53C434.578 31.848 435.19 30.804 436.426 30.804C437.746 30.804 438.322 31.872 438.334 32.724ZM443.211 36L445.623 30.204H444.651L442.719 34.956L440.799 30.204H439.815L442.227 36H443.211ZM447.018 29.376C447.354 29.376 447.618 29.112 447.618 28.776C447.618 28.44 447.354 28.164 447.018 28.164C446.682 28.164 446.406 28.44 446.406 28.776C446.406 29.112 446.682 29.376 447.018 29.376ZM447.462 36V30.204H446.562V36H447.462ZM451.885 36.144C452.821 36.144 453.601 35.82 454.189 35.244L453.757 34.656C453.289 35.136 452.629 35.4 451.957 35.4C450.709 35.4 449.953 34.488 449.881 33.396H454.561V33.168C454.561 31.428 453.529 30.06 451.777 30.06C450.121 30.06 448.921 31.416 448.921 33.096C448.921 34.908 450.157 36.144 451.885 36.144ZM453.673 32.724H449.869C449.917 31.848 450.529 30.804 451.765 30.804C453.085 30.804 453.661 31.872 453.673 32.724ZM461.947 36L463.795 30.204H462.847L461.431 34.824L459.919 30.204H459.139L457.615 34.824L456.199 30.204H455.263L457.111 36H458.011L459.523 31.344L461.035 36H461.947Z" fill="black"/>
<defs>
<filter id="filter0_d" x="239" y="5" width="12" height="12" filterUnits="userSpaceOnUse" color-interpolation-filters="sRGB">
<feFlood flood-opacity="0" result="BackgroundImageFix"/>
<feColorMatrix in="SourceAlpha" type="matrix" values="0 0 0 0 0 0 0 0 0 0 0 0 0 0 0 0 0 0 127 0"/>
<feOffset dy="2"/>
<feGaussianBlur stdDeviation="1.5"/>
<feColorMatrix type="matrix" values="0 0 0 0 0 0 0 0 0 0 0 0 0 0 0 0 0 0 0.3 0"/>
<feBlend mode="normal" in2="BackgroundImageFix" result="effect1_dropShadow"/>
<feBlend mode="normal" in="SourceGraphic" in2="effect1_dropShadow" result="shape"/>
</filter>
<filter id="filter1_d" x="37" y="4" width="16" height="13.3082" filterUnits="userSpaceOnUse" color-interpolation-filters="sRGB">
<feFlood flood-opacity="0" result="BackgroundImageFix"/>
<feColorMatrix in="SourceAlpha" type="matrix" values="0 0 0 0 0 0 0 0 0 0 0 0 0 0 0 0 0 0 127 0"/>
<feOffset dy="2"/>
<feGaussianBlur stdDeviation="1.5"/>
<feColorMatrix type="matrix" values="0 0 0 0 0 0 0 0 0 0 0 0 0 0 0 0 0 0 0.3 0"/>
<feBlend mode="normal" in2="BackgroundImageFix" result="effect1_dropShadow"/>
<feBlend mode="normal" in="SourceGraphic" in2="effect1_dropShadow" result="shape"/>
</filter>
</defs>
</svg>
