<svg width="464" height="41" viewBox="0 0 464 41" fill="none" xmlns="http://www.w3.org/2000/svg">
<path d="M4.77931 37C6.24331 37 7.09531 36.124 7.09531 34.84C7.09531 33.88 6.38731 33.004 5.53531 32.872C6.26731 32.716 6.93931 32.044 6.93931 31.036C6.93931 29.836 6.08731 28.996 4.69531 28.996H1.13131V37H4.77931ZM4.52731 32.464H2.12731V29.884H4.52731C5.42731 29.884 5.90731 30.46 5.90731 31.18C5.90731 31.912 5.42731 32.464 4.52731 32.464ZM4.57531 36.112H2.12731V33.352H4.57531C5.55931 33.352 6.06331 34 6.06331 34.732C6.06331 35.584 5.51131 36.112 4.57531 36.112ZM13.1662 37V33.016C13.1662 31.612 12.1462 31.06 10.9222 31.06C9.97419 31.06 9.23019 31.372 8.60619 32.02L9.02619 32.644C9.54219 32.092 10.1062 31.84 10.8022 31.84C11.6422 31.84 12.2662 32.284 12.2662 33.064V34.108C11.7982 33.568 11.1382 33.316 10.3462 33.316C9.36219 33.316 8.31819 33.928 8.31819 35.224C8.31819 36.484 9.36219 37.144 10.3462 37.144C11.1262 37.144 11.7862 36.868 12.2662 36.34V37H13.1662ZM10.6702 36.496C9.83019 36.496 9.24219 35.968 9.24219 35.236C9.24219 34.492 9.83019 33.964 10.6702 33.964C11.3062 33.964 11.9182 34.204 12.2662 34.684V35.776C11.9182 36.256 11.3062 36.496 10.6702 36.496ZM16.8063 37.144C18.3063 37.144 19.0863 36.364 19.0863 35.392C19.0863 33.136 15.4983 33.976 15.4983 32.704C15.4983 32.188 15.9903 31.792 16.7823 31.792C17.5263 31.792 18.1623 32.104 18.5103 32.524L18.9303 31.9C18.4623 31.432 17.7663 31.06 16.7823 31.06C15.4023 31.06 14.6223 31.828 14.6223 32.728C14.6223 34.876 18.2103 34.012 18.2103 35.416C18.2103 35.992 17.7303 36.412 16.8423 36.412C16.0503 36.412 15.3183 36.028 14.9343 35.584L14.4663 36.232C15.0543 36.856 15.8583 37.144 16.8063 37.144ZM20.9924 30.376C21.3284 30.376 21.6044 30.112 21.6044 29.776C21.6044 29.44 21.3284 29.164 20.9924 29.164C20.6684 29.164 20.3924 29.44 20.3924 29.776C20.3924 30.112 20.6684 30.376 20.9924 30.376ZM21.4484 37V31.204H20.5484V37H21.4484ZM25.7998 37.144C26.8558 37.144 27.4798 36.712 27.9238 36.136L27.3238 35.584C26.9398 36.1 26.4478 36.34 25.8478 36.34C24.6118 36.34 23.8438 35.38 23.8438 34.096C23.8438 32.812 24.6118 31.864 25.8478 31.864C26.4478 31.864 26.9398 32.092 27.3238 32.62L27.9238 32.068C27.4798 31.492 26.8558 31.06 25.7998 31.06C24.0718 31.06 22.9078 32.38 22.9078 34.096C22.9078 35.824 24.0718 37.144 25.7998 37.144ZM33.3109 37V28.996H32.3149V37H33.3109ZM39.962 37V32.932C39.962 31.672 39.326 31.06 38.114 31.06C37.25 31.06 36.458 31.564 36.05 32.044V31.204H35.15V37H36.05V32.764C36.386 32.296 37.058 31.864 37.766 31.864C38.546 31.864 39.062 32.188 39.062 33.208V37H39.962ZM42.9114 37V31.996H44.0874V31.204H42.9114V30.76C42.9114 30.028 43.2354 29.62 43.8234 29.62C44.1234 29.62 44.3514 29.74 44.5434 29.908L44.9154 29.32C44.5554 28.984 44.1474 28.876 43.6914 28.876C42.6594 28.876 42.0114 29.572 42.0114 30.76V31.204H41.0514V31.996H42.0114V37H42.9114ZM47.6898 37.144C49.4538 37.144 50.5578 35.776 50.5578 34.096C50.5578 32.416 49.4538 31.06 47.6898 31.06C45.9258 31.06 44.8218 32.416 44.8218 34.096C44.8218 35.776 45.9258 37.144 47.6898 37.144ZM47.6898 36.34C46.4538 36.34 45.7578 35.284 45.7578 34.096C45.7578 32.92 46.4538 31.864 47.6898 31.864C48.9258 31.864 49.6098 32.92 49.6098 34.096C49.6098 35.284 48.9258 36.34 47.6898 36.34ZM52.925 37V32.896C53.189 32.428 53.945 31.972 54.497 31.972C54.641 31.972 54.749 31.984 54.857 32.008V31.084C54.065 31.084 53.393 31.528 52.925 32.14V31.204H52.025V37H52.925ZM63.8819 37V32.812C63.8819 31.648 63.3179 31.06 62.2619 31.06C61.4219 31.06 60.6419 31.612 60.3179 32.14C60.1499 31.54 59.6459 31.06 58.7579 31.06C57.9059 31.06 57.1259 31.672 56.8859 32.044V31.204H55.9859V37H56.8859V32.764C57.1979 32.296 57.8219 31.864 58.4099 31.864C59.1659 31.864 59.4779 32.332 59.4779 33.064V37H60.3779V32.752C60.6779 32.296 61.3139 31.864 61.9139 31.864C62.6579 31.864 62.9819 32.332 62.9819 33.064V37H63.8819ZM70.2013 37V33.016C70.2013 31.612 69.1813 31.06 67.9573 31.06C67.0093 31.06 66.2653 31.372 65.6413 32.02L66.0613 32.644C66.5773 32.092 67.1413 31.84 67.8373 31.84C68.6773 31.84 69.3013 32.284 69.3013 33.064V34.108C68.8333 33.568 68.1733 33.316 67.3813 33.316C66.3973 33.316 65.3533 33.928 65.3533 35.224C65.3533 36.484 66.3973 37.144 67.3813 37.144C68.1613 37.144 68.8213 36.868 69.3013 36.34V37H70.2013ZM67.7053 36.496C66.8653 36.496 66.2773 35.968 66.2773 35.236C66.2773 34.492 66.8653 33.964 67.7053 33.964C68.3413 33.964 68.9533 34.204 69.3013 34.684V35.776C68.9533 36.256 68.3413 36.496 67.7053 36.496ZM73.4695 37.144C73.9975 37.144 74.3215 36.988 74.5495 36.772L74.2855 36.1C74.1655 36.232 73.9255 36.34 73.6735 36.34C73.2775 36.34 73.0855 36.028 73.0855 35.596V31.996H74.2615V31.204H73.0855V29.62H72.1855V31.204H71.2255V31.996H72.1855V35.788C72.1855 36.652 72.6175 37.144 73.4695 37.144ZM75.9768 30.376C76.3128 30.376 76.5888 30.112 76.5888 29.776C76.5888 29.44 76.3128 29.164 75.9768 29.164C75.6528 29.164 75.3768 29.44 75.3768 29.776C75.3768 30.112 75.6528 30.376 75.9768 30.376ZM76.4328 37V31.204H75.5328V37H76.4328ZM80.7601 37.144C82.5241 37.144 83.6281 35.776 83.6281 34.096C83.6281 32.416 82.5241 31.06 80.7601 31.06C78.9961 31.06 77.8921 32.416 77.8921 34.096C77.8921 35.776 78.9961 37.144 80.7601 37.144ZM80.7601 36.34C79.5241 36.34 78.8281 35.284 78.8281 34.096C78.8281 32.92 79.5241 31.864 80.7601 31.864C81.9961 31.864 82.6801 32.92 82.6801 34.096C82.6801 35.284 81.9961 36.34 80.7601 36.34ZM89.9073 37V32.932C89.9073 31.672 89.2713 31.06 88.0593 31.06C87.1953 31.06 86.4033 31.564 85.9953 32.044V31.204H85.0953V37H85.9953V32.764C86.3313 32.296 87.0033 31.864 87.7113 31.864C88.4913 31.864 89.0073 32.188 89.0073 33.208V37H89.9073Z" fill="#148481"/>
<path d="M206.602 36V29.232H209.026V27.996H202.774V29.232H205.198V36H206.602ZM210.537 36V32.052C210.789 31.632 211.497 31.272 212.037 31.272C212.193 31.272 212.313 31.284 212.421 31.308V30.06C211.677 30.06 210.981 30.492 210.537 31.044V30.204H209.277V36H210.537ZM218.249 36V32.148C218.249 30.6 217.121 30.06 215.825 30.06C214.901 30.06 214.061 30.348 213.389 30.996L213.917 31.872C214.409 31.368 214.985 31.128 215.633 31.128C216.425 31.128 216.989 31.536 216.989 32.208V33.072C216.557 32.58 215.897 32.328 215.105 32.328C214.157 32.328 213.101 32.88 213.101 34.224C213.101 35.496 214.169 36.144 215.105 36.144C215.873 36.144 216.557 35.868 216.989 35.364V36H218.249ZM215.609 35.28C214.901 35.28 214.361 34.872 214.361 34.236C214.361 33.612 214.901 33.192 215.609 33.192C216.149 33.192 216.689 33.396 216.989 33.792V34.68C216.689 35.076 216.149 35.28 215.609 35.28ZM225.066 36V31.92C225.066 30.732 224.442 30.06 223.194 30.06C222.282 30.06 221.526 30.528 221.142 30.984V30.204H219.882V36H221.142V31.944C221.442 31.56 221.994 31.176 222.63 31.176C223.338 31.176 223.806 31.464 223.806 32.376V36H225.066ZM228.695 36.144C230.255 36.144 231.107 35.364 231.107 34.332C231.107 32.028 227.603 32.796 227.603 31.776C227.603 31.368 228.011 31.056 228.671 31.056C229.403 31.056 230.039 31.368 230.387 31.752L230.915 30.864C230.399 30.408 229.655 30.06 228.671 30.06C227.207 30.06 226.391 30.864 226.391 31.812C226.391 34.044 229.895 33.228 229.895 34.368C229.895 34.824 229.499 35.136 228.743 35.136C227.999 35.136 227.195 34.752 226.787 34.332L226.211 35.232C226.811 35.82 227.699 36.144 228.695 36.144ZM233.935 36V31.296H235.111V30.204H233.935V29.88C233.935 29.232 234.235 28.908 234.739 28.908C235.015 28.908 235.231 29.004 235.399 29.16L235.891 28.38C235.543 28.008 235.027 27.876 234.499 27.876C233.407 27.876 232.675 28.62 232.675 29.88V30.204H231.715V31.296H232.675V36H233.935ZM238.754 36.144C239.666 36.144 240.518 35.844 241.106 35.292L240.53 34.464C240.11 34.884 239.45 35.112 238.874 35.112C237.782 35.112 237.134 34.38 237.038 33.516H241.502V33.204C241.502 31.38 240.398 30.06 238.658 30.06C236.942 30.06 235.718 31.416 235.718 33.096C235.718 34.932 237.002 36.144 238.754 36.144ZM240.29 32.616H237.026C237.074 31.92 237.578 31.092 238.646 31.092C239.786 31.092 240.254 31.932 240.29 32.616ZM244.006 36V32.052C244.258 31.632 244.966 31.272 245.506 31.272C245.662 31.272 245.782 31.284 245.89 31.308V30.06C245.146 30.06 244.45 30.492 244.006 31.044V30.204H242.746V36H244.006ZM253.888 36.144C255.496 36.144 256.492 35.292 257.104 34.332L255.904 33.732C255.52 34.392 254.74 34.896 253.888 34.896C252.304 34.896 251.128 33.672 251.128 32.004C251.128 30.312 252.304 29.112 253.888 29.112C254.74 29.112 255.52 29.604 255.904 30.276L257.092 29.652C256.504 28.692 255.496 27.864 253.888 27.864C251.524 27.864 249.688 29.532 249.688 32.004C249.688 34.464 251.524 36.144 253.888 36.144ZM259.439 36V32.052C259.691 31.632 260.399 31.272 260.939 31.272C261.095 31.272 261.215 31.284 261.323 31.308V30.06C260.579 30.06 259.883 30.492 259.439 31.044V30.204H258.179V36H259.439ZM265.027 36.144C265.939 36.144 266.791 35.844 267.379 35.292L266.803 34.464C266.383 34.884 265.723 35.112 265.147 35.112C264.055 35.112 263.407 34.38 263.311 33.516H267.775V33.204C267.775 31.38 266.671 30.06 264.931 30.06C263.215 30.06 261.991 31.416 261.991 33.096C261.991 34.932 263.275 36.144 265.027 36.144ZM266.563 32.616H263.299C263.347 31.92 263.851 31.092 264.919 31.092C266.059 31.092 266.527 31.932 266.563 32.616ZM274.359 36V27.996H273.099V31.008C272.643 30.384 271.971 30.06 271.239 30.06C269.751 30.06 268.671 31.224 268.671 33.096C268.671 35.016 269.763 36.144 271.239 36.144C271.995 36.144 272.655 35.784 273.099 35.208V36H274.359ZM271.611 35.028C270.603 35.028 269.967 34.224 269.967 33.096C269.967 31.98 270.603 31.176 271.611 31.176C272.199 31.176 272.823 31.524 273.099 31.956V34.248C272.823 34.68 272.199 35.028 271.611 35.028ZM276.628 29.496C277.06 29.496 277.408 29.148 277.408 28.716C277.408 28.284 277.06 27.936 276.628 27.936C276.196 27.936 275.848 28.284 275.848 28.716C275.848 29.148 276.196 29.496 276.628 29.496ZM277.252 36V30.204H275.992V36H277.252ZM280.638 36.144C281.214 36.144 281.586 35.976 281.814 35.772L281.514 34.812C281.418 34.92 281.202 35.028 280.962 35.028C280.602 35.028 280.41 34.728 280.41 34.332V31.296H281.586V30.204H280.41V28.62H279.15V30.204H278.19V31.296H279.15V34.644C279.15 35.616 279.654 36.144 280.638 36.144ZM284.71 36.144C286.27 36.144 287.122 35.364 287.122 34.332C287.122 32.028 283.618 32.796 283.618 31.776C283.618 31.368 284.026 31.056 284.686 31.056C285.418 31.056 286.054 31.368 286.402 31.752L286.93 30.864C286.414 30.408 285.67 30.06 284.686 30.06C283.222 30.06 282.406 30.864 282.406 31.812C282.406 34.044 285.91 33.228 285.91 34.368C285.91 34.824 285.514 35.136 284.758 35.136C284.014 35.136 283.21 34.752 282.802 34.332L282.226 35.232C282.826 35.82 283.714 36.144 284.71 36.144Z" fill="#1AA5A1"/>
<path opacity="0.3" d="M432.818 37L430.658 33.736C431.75 33.64 432.734 32.848 432.734 31.408C432.734 29.932 431.69 28.996 430.226 28.996H427.01V37H428.006V33.82H429.602L431.642 37H432.818ZM430.106 32.944H428.006V29.884H430.106C431.054 29.884 431.702 30.508 431.702 31.408C431.702 32.308 431.054 32.944 430.106 32.944ZM436.528 37.144C437.476 37.144 438.256 36.832 438.832 36.256L438.4 35.668C437.944 36.136 437.272 36.4 436.612 36.4C435.364 36.4 434.596 35.488 434.524 34.396H439.216V34.168C439.216 32.428 438.184 31.06 436.432 31.06C434.776 31.06 433.576 32.416 433.576 34.096C433.576 35.908 434.812 37.144 436.528 37.144ZM438.328 33.736H434.524C434.572 32.848 435.184 31.804 436.42 31.804C437.74 31.804 438.316 32.872 438.328 33.736ZM443.205 37L445.617 31.204H444.633L442.713 35.956L440.781 31.204H439.809L442.221 37H443.205ZM447 30.376C447.336 30.376 447.612 30.112 447.612 29.776C447.612 29.44 447.336 29.164 447 29.164C446.676 29.164 446.4 29.44 446.4 29.776C446.4 30.112 446.676 30.376 447 30.376ZM447.456 37V31.204H446.556V37H447.456ZM451.868 37.144C452.816 37.144 453.596 36.832 454.172 36.256L453.74 35.668C453.284 36.136 452.612 36.4 451.952 36.4C450.704 36.4 449.936 35.488 449.864 34.396H454.556V34.168C454.556 32.428 453.524 31.06 451.772 31.06C450.116 31.06 448.916 32.416 448.916 34.096C448.916 35.908 450.152 37.144 451.868 37.144ZM453.668 33.736H449.864C449.912 32.848 450.524 31.804 451.76 31.804C453.08 31.804 453.656 32.872 453.668 33.736ZM461.929 37L463.777 31.204H462.841L461.425 35.824L459.901 31.204H459.133L457.609 35.824L456.193 31.204H455.257L457.105 37H458.005L459.517 32.344L461.029 37H461.929Z" fill="black"/>
<rect x="251.5" y="8" width="186" height="2" rx="1" fill="#C4C4C4"/>
<rect x="50.5" y="7" width="188" height="4" rx="2" fill="#148481"/>
<circle cx="445" cy="9" r="8" stroke="#C4C4C4" stroke-width="2"/>
<circle cx="245" cy="9" r="9" fill="#148481"/>
<g filter="url(#filter0_d)">
<ellipse cx="245" cy="9" rx="3" ry="3" fill="white"/>
</g>
<circle cx="45" cy="9" r="9" fill="#148481"/>
<g filter="url(#filter1_d)">
<path d="M40 8.71594L40.8981 7.81787L43.5923 10.5121L49.1019 5L50 5.89807L43.5923 12.3082L40 8.71594Z" fill="white"/>
</g>
<defs>
<filter id="filter0_d" x="239" y="5" width="12" height="12" filterUnits="userSpaceOnUse" color-interpolation-filters="sRGB">
<feFlood flood-opacity="0" result="BackgroundImageFix"/>
<feColorMatrix in="SourceAlpha" type="matrix" values="0 0 0 0 0 0 0 0 0 0 0 0 0 0 0 0 0 0 127 0"/>
<feOffset dy="2"/>
<feGaussianBlur stdDeviation="1.5"/>
<feColorMatrix type="matrix" values="0 0 0 0 0 0 0 0 0 0 0 0 0 0 0 0 0 0 0.3 0"/>
<feBlend mode="normal" in2="BackgroundImageFix" result="effect1_dropShadow"/>
<feBlend mode="normal" in="SourceGraphic" in2="effect1_dropShadow" result="shape"/>
</filter>
<filter id="filter1_d" x="37" y="4" width="16" height="13.3082" filterUnits="userSpaceOnUse" color-interpolation-filters="sRGB">
<feFlood flood-opacity="0" result="BackgroundImageFix"/>
<feColorMatrix in="SourceAlpha" type="matrix" values="0 0 0 0 0 0 0 0 0 0 0 0 0 0 0 0 0 0 127 0"/>
<feOffset dy="2"/>
<feGaussianBlur stdDeviation="1.5"/>
<feColorMatrix type="matrix" values="0 0 0 0 0 0 0 0 0 0 0 0 0 0 0 0 0 0 0.3 0"/>
<feBlend mode="normal" in2="BackgroundImageFix" result="effect1_dropShadow"/>
<feBlend mode="normal" in="SourceGraphic" in2="effect1_dropShadow" result="shape"/>
</filter>
</defs>
</svg>
