<svg width="466" height="41" viewBox="0 0 466 41" fill="none" xmlns="http://www.w3.org/2000/svg">
<rect x="254" y="8" width="186" height="2" rx="1" fill="#C4C4C4"/>
<rect x="54" y="8" width="186" height="2" rx="1" fill="#C4C4C4"/>
<circle cx="447" cy="9" r="8" stroke="#C4C4C4" stroke-width="2"/>
<circle cx="247" cy="9" r="8" stroke="#C4C4C4" stroke-width="2"/>
<circle cx="47" cy="9" r="9" fill="#148481"/>
<g filter="url(#filter0_d)">
<path d="M50 9C50 10.6569 48.6569 12 47 12C45.3431 12 44 10.6569 44 9C44 7.34315 45.3431 6 47 6C48.6569 6 50 7.34315 50 9Z" fill="white"/>
</g>
<path d="M5.1792 36C6.6912 36 7.5072 35.076 7.5072 33.828C7.5072 32.856 6.8232 32.004 5.9592 31.872C6.7032 31.716 7.3512 31.032 7.3512 30.036C7.3512 28.908 6.5472 27.996 5.0712 27.996H1.1352V36H5.1792ZM4.7952 31.296H2.5392V29.232H4.7952C5.5032 29.232 5.9112 29.676 5.9112 30.264C5.9112 30.876 5.5032 31.296 4.7952 31.296ZM4.8552 34.764H2.5392V32.532H4.8552C5.6472 32.532 6.0672 33.048 6.0672 33.648C6.0672 34.344 5.6112 34.764 4.8552 34.764ZM13.7042 36V32.148C13.7042 30.6 12.5762 30.06 11.2802 30.06C10.3562 30.06 9.51617 30.348 8.84417 30.996L9.37217 31.872C9.86417 31.368 10.4402 31.128 11.0882 31.128C11.8802 31.128 12.4442 31.536 12.4442 32.208V33.072C12.0122 32.58 11.3522 32.328 10.5602 32.328C9.61217 32.328 8.55617 32.88 8.55617 34.224C8.55617 35.496 9.62417 36.144 10.5602 36.144C11.3282 36.144 12.0122 35.868 12.4442 35.364V36H13.7042ZM11.0642 35.28C10.3562 35.28 9.81617 34.872 9.81617 34.236C9.81617 33.612 10.3562 33.192 11.0642 33.192C11.6042 33.192 12.1442 33.396 12.4442 33.792V34.68C12.1442 35.076 11.6042 35.28 11.0642 35.28ZM17.3295 36.144C18.8895 36.144 19.7415 35.364 19.7415 34.332C19.7415 32.028 16.2375 32.796 16.2375 31.776C16.2375 31.368 16.6455 31.056 17.3055 31.056C18.0375 31.056 18.6735 31.368 19.0215 31.752L19.5495 30.864C19.0335 30.408 18.2895 30.06 17.3055 30.06C15.8415 30.06 15.0255 30.864 15.0255 31.812C15.0255 34.044 18.5295 33.228 18.5295 34.368C18.5295 34.824 18.1335 35.136 17.3775 35.136C16.6335 35.136 15.8295 34.752 15.4215 34.332L14.8455 35.232C15.4455 35.82 16.3335 36.144 17.3295 36.144ZM21.6336 29.496C22.0656 29.496 22.4136 29.148 22.4136 28.716C22.4136 28.284 22.0656 27.936 21.6336 27.936C21.2016 27.936 20.8536 28.284 20.8536 28.716C20.8536 29.148 21.2016 29.496 21.6336 29.496ZM22.2576 36V30.204H20.9976V36H22.2576ZM26.5322 36.144C27.6722 36.144 28.3442 35.652 28.7522 35.112L27.9242 34.332C27.6002 34.788 27.1562 35.028 26.5922 35.028C25.5482 35.028 24.8402 34.224 24.8402 33.096C24.8402 31.968 25.5482 31.176 26.5922 31.176C27.1562 31.176 27.6002 31.392 27.9242 31.848L28.7522 31.092C28.3442 30.54 27.6722 30.06 26.5322 30.06C24.7802 30.06 23.5442 31.344 23.5442 33.096C23.5442 34.848 24.7802 36.144 26.5322 36.144ZM34.4025 36V27.996H32.9985V36H34.4025ZM41.252 36V31.92C41.252 30.732 40.628 30.06 39.38 30.06C38.468 30.06 37.712 30.528 37.328 30.984V30.204H36.068V36H37.328V31.944C37.628 31.56 38.18 31.176 38.816 31.176C39.524 31.176 39.992 31.464 39.992 32.376V36H41.252ZM44.4603 36V31.296H45.6363V30.204H44.4603V29.88C44.4603 29.232 44.7603 28.908 45.2643 28.908C45.5403 28.908 45.7563 29.004 45.9243 29.16L46.4163 28.38C46.0683 28.008 45.5523 27.876 45.0243 27.876C43.9323 27.876 43.2003 28.62 43.2003 29.88V30.204H42.2403V31.296H43.2003V36H44.4603ZM49.2194 36.144C51.0674 36.144 52.1954 34.752 52.1954 33.096C52.1954 31.428 51.0674 30.06 49.2194 30.06C47.3714 30.06 46.2434 31.428 46.2434 33.096C46.2434 34.752 47.3714 36.144 49.2194 36.144ZM49.2194 35.028C48.1514 35.028 47.5514 34.128 47.5514 33.096C47.5514 32.076 48.1514 31.176 49.2194 31.176C50.2994 31.176 50.8874 32.076 50.8874 33.096C50.8874 34.128 50.2994 35.028 49.2194 35.028ZM54.742 36V32.052C54.994 31.632 55.702 31.272 56.242 31.272C56.398 31.272 56.518 31.284 56.626 31.308V30.06C55.882 30.06 55.186 30.492 54.742 31.044V30.204H53.482V36H54.742ZM66.0182 36V31.812C66.0182 30.636 65.4062 30.06 64.3502 30.06C63.4742 30.06 62.7062 30.6 62.3822 31.116C62.1902 30.492 61.6622 30.06 60.7982 30.06C59.9102 30.06 59.1542 30.636 58.9022 30.984V30.204H57.6422V36H58.9022V31.944C59.1662 31.572 59.6822 31.176 60.2462 31.176C60.9302 31.176 61.1942 31.596 61.1942 32.22V36H62.4542V31.944C62.7062 31.56 63.2342 31.176 63.7982 31.176C64.4822 31.176 64.7582 31.596 64.7582 32.22V36H66.0182ZM72.462 36V32.148C72.462 30.6 71.334 30.06 70.038 30.06C69.114 30.06 68.274 30.348 67.602 30.996L68.13 31.872C68.622 31.368 69.198 31.128 69.846 31.128C70.638 31.128 71.202 31.536 71.202 32.208V33.072C70.77 32.58 70.11 32.328 69.318 32.328C68.37 32.328 67.314 32.88 67.314 34.224C67.314 35.496 68.382 36.144 69.318 36.144C70.086 36.144 70.77 35.868 71.202 35.364V36H72.462ZM69.822 35.28C69.114 35.28 68.574 34.872 68.574 34.236C68.574 33.612 69.114 33.192 69.822 33.192C70.362 33.192 70.902 33.396 71.202 33.792V34.68C70.902 35.076 70.362 35.28 69.822 35.28ZM75.8473 36.144C76.4233 36.144 76.7953 35.976 77.0233 35.772L76.7233 34.812C76.6273 34.92 76.4113 35.028 76.1713 35.028C75.8113 35.028 75.6193 34.728 75.6193 34.332V31.296H76.7953V30.204H75.6193V28.62H74.3593V30.204H73.3993V31.296H74.3593V34.644C74.3593 35.616 74.8633 36.144 75.8473 36.144ZM78.5633 29.496C78.9953 29.496 79.3433 29.148 79.3433 28.716C79.3433 28.284 78.9953 27.936 78.5633 27.936C78.1313 27.936 77.7833 28.284 77.7833 28.716C77.7833 29.148 78.1313 29.496 78.5633 29.496ZM79.1873 36V30.204H77.9273V36H79.1873ZM83.4499 36.144C85.2979 36.144 86.4259 34.752 86.4259 33.096C86.4259 31.428 85.2979 30.06 83.4499 30.06C81.6019 30.06 80.4739 31.428 80.4739 33.096C80.4739 34.752 81.6019 36.144 83.4499 36.144ZM83.4499 35.028C82.3819 35.028 81.7819 34.128 81.7819 33.096C81.7819 32.076 82.3819 31.176 83.4499 31.176C84.5299 31.176 85.1179 32.076 85.1179 33.096C85.1179 34.128 84.5299 35.028 83.4499 35.028ZM92.8965 36V31.92C92.8965 30.732 92.2725 30.06 91.0245 30.06C90.1125 30.06 89.3565 30.528 88.9725 30.984V30.204H87.7125V36H88.9725V31.944C89.2725 31.56 89.8245 31.176 90.4605 31.176C91.1685 31.176 91.6365 31.464 91.6365 32.376V36H92.8965Z" fill="#148481"/>
<path opacity="0.3" d="M209.387 37V29.884H211.931V28.996H205.859V29.884H208.391V37H209.387ZM213.099 37V32.896C213.363 32.428 214.119 31.972 214.671 31.972C214.815 31.972 214.923 31.984 215.031 32.008V31.084C214.239 31.084 213.567 31.528 213.099 32.14V31.204H212.199V37H213.099ZM220.684 37V33.016C220.684 31.612 219.664 31.06 218.44 31.06C217.492 31.06 216.748 31.372 216.124 32.02L216.544 32.644C217.06 32.092 217.624 31.84 218.32 31.84C219.16 31.84 219.784 32.284 219.784 33.064V34.108C219.316 33.568 218.656 33.316 217.864 33.316C216.88 33.316 215.836 33.928 215.836 35.224C215.836 36.484 216.88 37.144 217.864 37.144C218.644 37.144 219.304 36.868 219.784 36.34V37H220.684ZM218.188 36.496C217.348 36.496 216.76 35.968 216.76 35.236C216.76 34.492 217.348 33.964 218.188 33.964C218.824 33.964 219.436 34.204 219.784 34.684V35.776C219.436 36.256 218.824 36.496 218.188 36.496ZM227.3 37V32.932C227.3 31.672 226.664 31.06 225.452 31.06C224.588 31.06 223.796 31.564 223.388 32.044V31.204H222.488V37H223.388V32.764C223.724 32.296 224.396 31.864 225.104 31.864C225.884 31.864 226.4 32.188 226.4 33.208V37H227.3ZM230.933 37.144C232.433 37.144 233.213 36.364 233.213 35.392C233.213 33.136 229.625 33.976 229.625 32.704C229.625 32.188 230.117 31.792 230.909 31.792C231.653 31.792 232.289 32.104 232.637 32.524L233.057 31.9C232.589 31.432 231.893 31.06 230.909 31.06C229.529 31.06 228.749 31.828 228.749 32.728C228.749 34.876 232.337 34.012 232.337 35.416C232.337 35.992 231.857 36.412 230.969 36.412C230.177 36.412 229.445 36.028 229.061 35.584L228.593 36.232C229.181 36.856 229.985 37.144 230.933 37.144ZM235.827 37V31.996H237.003V31.204H235.827V30.76C235.827 30.028 236.151 29.62 236.739 29.62C237.039 29.62 237.267 29.74 237.459 29.908L237.831 29.32C237.471 28.984 237.063 28.876 236.607 28.876C235.575 28.876 234.927 29.572 234.927 30.76V31.204H233.967V31.996H234.927V37H235.827ZM240.69 37.144C241.638 37.144 242.418 36.832 242.994 36.256L242.562 35.668C242.106 36.136 241.434 36.4 240.774 36.4C239.526 36.4 238.758 35.488 238.686 34.396H243.378V34.168C243.378 32.428 242.346 31.06 240.594 31.06C238.938 31.06 237.738 32.416 237.738 34.096C237.738 35.908 238.974 37.144 240.69 37.144ZM242.49 33.736H238.686C238.734 32.848 239.346 31.804 240.582 31.804C241.902 31.804 242.478 32.872 242.49 33.736ZM245.736 37V32.896C246 32.428 246.756 31.972 247.308 31.972C247.452 31.972 247.56 31.984 247.668 32.008V31.084C246.876 31.084 246.204 31.528 245.736 32.14V31.204H244.836V37H245.736ZM255.718 37.144C257.134 37.144 258.094 36.472 258.766 35.56L257.914 35.092C257.458 35.776 256.63 36.256 255.718 36.256C253.966 36.256 252.634 34.9 252.634 33.004C252.634 31.096 253.966 29.752 255.718 29.752C256.63 29.752 257.458 30.244 257.914 30.916L258.754 30.448C258.118 29.548 257.134 28.864 255.718 28.864C253.414 28.864 251.602 30.544 251.602 33.004C251.602 35.464 253.414 37.144 255.718 37.144ZM260.9 37V32.896C261.164 32.428 261.92 31.972 262.472 31.972C262.616 31.972 262.724 31.984 262.832 32.008V31.084C262.04 31.084 261.368 31.528 260.9 32.14V31.204H260V37H260.9ZM266.577 37.144C267.525 37.144 268.305 36.832 268.881 36.256L268.449 35.668C267.993 36.136 267.321 36.4 266.661 36.4C265.413 36.4 264.645 35.488 264.573 34.396H269.265V34.168C269.265 32.428 268.233 31.06 266.481 31.06C264.825 31.06 263.625 32.416 263.625 34.096C263.625 35.908 264.861 37.144 266.577 37.144ZM268.377 33.736H264.573C264.621 32.848 265.233 31.804 266.469 31.804C267.789 31.804 268.365 32.872 268.377 33.736ZM275.822 37V28.996H274.922V32.08C274.454 31.444 273.746 31.06 272.966 31.06C271.442 31.06 270.386 32.26 270.386 34.108C270.386 35.992 271.454 37.144 272.966 37.144C273.782 37.144 274.49 36.724 274.922 36.136V37H275.822ZM273.182 36.34C272.018 36.34 271.322 35.392 271.322 34.108C271.322 32.824 272.018 31.864 273.182 31.864C273.902 31.864 274.598 32.296 274.922 32.8V35.428C274.598 35.932 273.902 36.34 273.182 36.34ZM278.069 30.376C278.405 30.376 278.681 30.112 278.681 29.776C278.681 29.44 278.405 29.164 278.069 29.164C277.745 29.164 277.469 29.44 277.469 29.776C277.469 30.112 277.745 30.376 278.069 30.376ZM278.525 37V31.204H277.625V37H278.525ZM281.784 37.144C282.312 37.144 282.636 36.988 282.864 36.772L282.6 36.1C282.48 36.232 282.24 36.34 281.988 36.34C281.592 36.34 281.4 36.028 281.4 35.596V31.996H282.576V31.204H281.4V29.62H280.5V31.204H279.54V31.996H280.5V35.788C280.5 36.652 280.932 37.144 281.784 37.144ZM285.683 37.144C287.183 37.144 287.963 36.364 287.963 35.392C287.963 33.136 284.375 33.976 284.375 32.704C284.375 32.188 284.867 31.792 285.659 31.792C286.403 31.792 287.039 32.104 287.387 32.524L287.807 31.9C287.339 31.432 286.643 31.06 285.659 31.06C284.279 31.06 283.499 31.828 283.499 32.728C283.499 34.876 287.087 34.012 287.087 35.416C287.087 35.992 286.607 36.412 285.719 36.412C284.927 36.412 284.195 36.028 283.811 35.584L283.343 36.232C283.931 36.856 284.735 37.144 285.683 37.144Z" fill="black"/>
<path opacity="0.3" d="M434.818 37L432.658 33.736C433.75 33.64 434.734 32.848 434.734 31.408C434.734 29.932 433.69 28.996 432.226 28.996H429.01V37H430.006V33.82H431.602L433.642 37H434.818ZM432.106 32.944H430.006V29.884H432.106C433.054 29.884 433.702 30.508 433.702 31.408C433.702 32.308 433.054 32.944 432.106 32.944ZM438.528 37.144C439.476 37.144 440.256 36.832 440.832 36.256L440.4 35.668C439.944 36.136 439.272 36.4 438.612 36.4C437.364 36.4 436.596 35.488 436.524 34.396H441.216V34.168C441.216 32.428 440.184 31.06 438.432 31.06C436.776 31.06 435.576 32.416 435.576 34.096C435.576 35.908 436.812 37.144 438.528 37.144ZM440.328 33.736H436.524C436.572 32.848 437.184 31.804 438.42 31.804C439.74 31.804 440.316 32.872 440.328 33.736ZM445.205 37L447.617 31.204H446.633L444.713 35.956L442.781 31.204H441.809L444.221 37H445.205ZM449 30.376C449.336 30.376 449.612 30.112 449.612 29.776C449.612 29.44 449.336 29.164 449 29.164C448.676 29.164 448.4 29.44 448.4 29.776C448.4 30.112 448.676 30.376 449 30.376ZM449.456 37V31.204H448.556V37H449.456ZM453.868 37.144C454.816 37.144 455.596 36.832 456.172 36.256L455.74 35.668C455.284 36.136 454.612 36.4 453.952 36.4C452.704 36.4 451.936 35.488 451.864 34.396H456.556V34.168C456.556 32.428 455.524 31.06 453.772 31.06C452.116 31.06 450.916 32.416 450.916 34.096C450.916 35.908 452.152 37.144 453.868 37.144ZM455.668 33.736H451.864C451.912 32.848 452.524 31.804 453.76 31.804C455.08 31.804 455.656 32.872 455.668 33.736ZM463.929 37L465.777 31.204H464.841L463.425 35.824L461.901 31.204H461.133L459.609 35.824L458.193 31.204H457.257L459.105 37H460.005L461.517 32.344L463.029 37H463.929Z" fill="black"/>
<defs>
<filter id="filter0_d" x="41" y="5" width="12" height="12" filterUnits="userSpaceOnUse" color-interpolation-filters="sRGB">
<feFlood flood-opacity="0" result="BackgroundImageFix"/>
<feColorMatrix in="SourceAlpha" type="matrix" values="0 0 0 0 0 0 0 0 0 0 0 0 0 0 0 0 0 0 127 0"/>
<feOffset dy="2"/>
<feGaussianBlur stdDeviation="1.5"/>
<feColorMatrix type="matrix" values="0 0 0 0 0 0 0 0 0 0 0 0 0 0 0 0 0 0 0.3 0"/>
<feBlend mode="normal" in2="BackgroundImageFix" result="effect1_dropShadow"/>
<feBlend mode="normal" in="SourceGraphic" in2="effect1_dropShadow" result="shape"/>
</filter>
</defs>
</svg>
