<svg width="466" height="56" viewBox="0 0 466 56" fill="none" xmlns="http://www.w3.org/2000/svg">
<rect x="254" y="8" width="186" height="2" rx="1" fill="#C4C4C4"/>
<rect x="54" y="8" width="186" height="2" rx="1" fill="#C4C4C4"/>
<circle cx="447" cy="9" r="8" stroke="#C4C4C4" stroke-width="2"/>
<circle cx="247" cy="9" r="8" stroke="#C4C4C4" stroke-width="2"/>
<circle cx="47" cy="9" r="9" fill="#148481"/>
<g filter="url(#filter0_d)">
<path d="M50 9C50 10.6569 48.6569 12 47 12C45.3431 12 44 10.6569 44 9C44 7.34315 45.3431 6 47 6C48.6569 6 50 7.34315 50 9Z" fill="white"/>
</g>
<path d="M5.1792 36C6.6912 36 7.5072 35.076 7.5072 33.828C7.5072 32.856 6.8232 32.004 5.9592 31.872C6.7032 31.716 7.3512 31.032 7.3512 30.036C7.3512 28.908 6.5472 27.996 5.0712 27.996H1.1352V36H5.1792ZM4.7952 31.296H2.5392V29.232H4.7952C5.5032 29.232 5.9112 29.676 5.9112 30.264C5.9112 30.876 5.5032 31.296 4.7952 31.296ZM4.8552 34.764H2.5392V32.532H4.8552C5.6472 32.532 6.0672 33.048 6.0672 33.648C6.0672 34.344 5.6112 34.764 4.8552 34.764ZM13.7042 36V32.148C13.7042 30.6 12.5762 30.06 11.2802 30.06C10.3562 30.06 9.51617 30.348 8.84417 30.996L9.37217 31.872C9.86417 31.368 10.4402 31.128 11.0882 31.128C11.8802 31.128 12.4442 31.536 12.4442 32.208V33.072C12.0122 32.58 11.3522 32.328 10.5602 32.328C9.61217 32.328 8.55617 32.88 8.55617 34.224C8.55617 35.496 9.62417 36.144 10.5602 36.144C11.3282 36.144 12.0122 35.868 12.4442 35.364V36H13.7042ZM11.0642 35.28C10.3562 35.28 9.81617 34.872 9.81617 34.236C9.81617 33.612 10.3562 33.192 11.0642 33.192C11.6042 33.192 12.1442 33.396 12.4442 33.792V34.68C12.1442 35.076 11.6042 35.28 11.0642 35.28ZM17.3295 36.144C18.8895 36.144 19.7415 35.364 19.7415 34.332C19.7415 32.028 16.2375 32.796 16.2375 31.776C16.2375 31.368 16.6455 31.056 17.3055 31.056C18.0375 31.056 18.6735 31.368 19.0215 31.752L19.5495 30.864C19.0335 30.408 18.2895 30.06 17.3055 30.06C15.8415 30.06 15.0255 30.864 15.0255 31.812C15.0255 34.044 18.5295 33.228 18.5295 34.368C18.5295 34.824 18.1335 35.136 17.3775 35.136C16.6335 35.136 15.8295 34.752 15.4215 34.332L14.8455 35.232C15.4455 35.82 16.3335 36.144 17.3295 36.144ZM21.6336 29.496C22.0656 29.496 22.4136 29.148 22.4136 28.716C22.4136 28.284 22.0656 27.936 21.6336 27.936C21.2016 27.936 20.8536 28.284 20.8536 28.716C20.8536 29.148 21.2016 29.496 21.6336 29.496ZM22.2576 36V30.204H20.9976V36H22.2576ZM26.5322 36.144C27.6722 36.144 28.3442 35.652 28.7522 35.112L27.9242 34.332C27.6002 34.788 27.1562 35.028 26.5922 35.028C25.5482 35.028 24.8402 34.224 24.8402 33.096C24.8402 31.968 25.5482 31.176 26.5922 31.176C27.1562 31.176 27.6002 31.392 27.9242 31.848L28.7522 31.092C28.3442 30.54 27.6722 30.06 26.5322 30.06C24.7802 30.06 23.5442 31.344 23.5442 33.096C23.5442 34.848 24.7802 36.144 26.5322 36.144ZM34.4025 36V27.996H32.9985V36H34.4025ZM41.252 36V31.92C41.252 30.732 40.628 30.06 39.38 30.06C38.468 30.06 37.712 30.528 37.328 30.984V30.204H36.068V36H37.328V31.944C37.628 31.56 38.18 31.176 38.816 31.176C39.524 31.176 39.992 31.464 39.992 32.376V36H41.252ZM44.4603 36V31.296H45.6363V30.204H44.4603V29.88C44.4603 29.232 44.7603 28.908 45.2643 28.908C45.5403 28.908 45.7563 29.004 45.9243 29.16L46.4163 28.38C46.0683 28.008 45.5523 27.876 45.0243 27.876C43.9323 27.876 43.2003 28.62 43.2003 29.88V30.204H42.2403V31.296H43.2003V36H44.4603ZM49.2194 36.144C51.0674 36.144 52.1954 34.752 52.1954 33.096C52.1954 31.428 51.0674 30.06 49.2194 30.06C47.3714 30.06 46.2434 31.428 46.2434 33.096C46.2434 34.752 47.3714 36.144 49.2194 36.144ZM49.2194 35.028C48.1514 35.028 47.5514 34.128 47.5514 33.096C47.5514 32.076 48.1514 31.176 49.2194 31.176C50.2994 31.176 50.8874 32.076 50.8874 33.096C50.8874 34.128 50.2994 35.028 49.2194 35.028ZM54.742 36V32.052C54.994 31.632 55.702 31.272 56.242 31.272C56.398 31.272 56.518 31.284 56.626 31.308V30.06C55.882 30.06 55.186 30.492 54.742 31.044V30.204H53.482V36H54.742ZM66.0182 36V31.812C66.0182 30.636 65.4062 30.06 64.3502 30.06C63.4742 30.06 62.7062 30.6 62.3822 31.116C62.1902 30.492 61.6622 30.06 60.7982 30.06C59.9102 30.06 59.1542 30.636 58.9022 30.984V30.204H57.6422V36H58.9022V31.944C59.1662 31.572 59.6822 31.176 60.2462 31.176C60.9302 31.176 61.1942 31.596 61.1942 32.22V36H62.4542V31.944C62.7062 31.56 63.2342 31.176 63.7982 31.176C64.4822 31.176 64.7582 31.596 64.7582 32.22V36H66.0182ZM72.462 36V32.148C72.462 30.6 71.334 30.06 70.038 30.06C69.114 30.06 68.274 30.348 67.602 30.996L68.13 31.872C68.622 31.368 69.198 31.128 69.846 31.128C70.638 31.128 71.202 31.536 71.202 32.208V33.072C70.77 32.58 70.11 32.328 69.318 32.328C68.37 32.328 67.314 32.88 67.314 34.224C67.314 35.496 68.382 36.144 69.318 36.144C70.086 36.144 70.77 35.868 71.202 35.364V36H72.462ZM69.822 35.28C69.114 35.28 68.574 34.872 68.574 34.236C68.574 33.612 69.114 33.192 69.822 33.192C70.362 33.192 70.902 33.396 71.202 33.792V34.68C70.902 35.076 70.362 35.28 69.822 35.28ZM75.8473 36.144C76.4233 36.144 76.7953 35.976 77.0233 35.772L76.7233 34.812C76.6273 34.92 76.4113 35.028 76.1713 35.028C75.8113 35.028 75.6193 34.728 75.6193 34.332V31.296H76.7953V30.204H75.6193V28.62H74.3593V30.204H73.3993V31.296H74.3593V34.644C74.3593 35.616 74.8633 36.144 75.8473 36.144ZM78.5633 29.496C78.9953 29.496 79.3433 29.148 79.3433 28.716C79.3433 28.284 78.9953 27.936 78.5633 27.936C78.1313 27.936 77.7833 28.284 77.7833 28.716C77.7833 29.148 78.1313 29.496 78.5633 29.496ZM79.1873 36V30.204H77.9273V36H79.1873ZM83.4499 36.144C85.2979 36.144 86.4259 34.752 86.4259 33.096C86.4259 31.428 85.2979 30.06 83.4499 30.06C81.6019 30.06 80.4739 31.428 80.4739 33.096C80.4739 34.752 81.6019 36.144 83.4499 36.144ZM83.4499 35.028C82.3819 35.028 81.7819 34.128 81.7819 33.096C81.7819 32.076 82.3819 31.176 83.4499 31.176C84.5299 31.176 85.1179 32.076 85.1179 33.096C85.1179 34.128 84.5299 35.028 83.4499 35.028ZM92.8965 36V31.92C92.8965 30.732 92.2725 30.06 91.0245 30.06C90.1125 30.06 89.3565 30.528 88.9725 30.984V30.204H87.7125V36H88.9725V31.944C89.2725 31.56 89.8245 31.176 90.4605 31.176C91.1685 31.176 91.6365 31.464 91.6365 32.376V36H92.8965Z" fill="#148481"/>
<path opacity="0.3" d="M209.887 37V29.884H212.431V28.996H206.359V29.884H208.891V37H209.887ZM213.599 37V32.896C213.863 32.428 214.619 31.972 215.171 31.972C215.315 31.972 215.423 31.984 215.531 32.008V31.084C214.739 31.084 214.067 31.528 213.599 32.14V31.204H212.699V37H213.599ZM221.184 37V33.016C221.184 31.612 220.164 31.06 218.94 31.06C217.992 31.06 217.248 31.372 216.624 32.02L217.044 32.644C217.56 32.092 218.124 31.84 218.82 31.84C219.66 31.84 220.284 32.284 220.284 33.064V34.108C219.816 33.568 219.156 33.316 218.364 33.316C217.38 33.316 216.336 33.928 216.336 35.224C216.336 36.484 217.38 37.144 218.364 37.144C219.144 37.144 219.804 36.868 220.284 36.34V37H221.184ZM218.688 36.496C217.848 36.496 217.26 35.968 217.26 35.236C217.26 34.492 217.848 33.964 218.688 33.964C219.324 33.964 219.936 34.204 220.284 34.684V35.776C219.936 36.256 219.324 36.496 218.688 36.496ZM227.8 37V32.932C227.8 31.672 227.164 31.06 225.952 31.06C225.088 31.06 224.296 31.564 223.888 32.044V31.204H222.988V37H223.888V32.764C224.224 32.296 224.896 31.864 225.604 31.864C226.384 31.864 226.9 32.188 226.9 33.208V37H227.8ZM231.433 37.144C232.933 37.144 233.713 36.364 233.713 35.392C233.713 33.136 230.125 33.976 230.125 32.704C230.125 32.188 230.617 31.792 231.409 31.792C232.153 31.792 232.789 32.104 233.137 32.524L233.557 31.9C233.089 31.432 232.393 31.06 231.409 31.06C230.029 31.06 229.249 31.828 229.249 32.728C229.249 34.876 232.837 34.012 232.837 35.416C232.837 35.992 232.357 36.412 231.469 36.412C230.677 36.412 229.945 36.028 229.561 35.584L229.093 36.232C229.681 36.856 230.485 37.144 231.433 37.144ZM236.327 37V31.996H237.503V31.204H236.327V30.76C236.327 30.028 236.651 29.62 237.239 29.62C237.539 29.62 237.767 29.74 237.959 29.908L238.331 29.32C237.971 28.984 237.563 28.876 237.107 28.876C236.075 28.876 235.427 29.572 235.427 30.76V31.204H234.467V31.996H235.427V37H236.327ZM241.19 37.144C242.138 37.144 242.918 36.832 243.494 36.256L243.062 35.668C242.606 36.136 241.934 36.4 241.274 36.4C240.026 36.4 239.258 35.488 239.186 34.396H243.878V34.168C243.878 32.428 242.846 31.06 241.094 31.06C239.438 31.06 238.238 32.416 238.238 34.096C238.238 35.908 239.474 37.144 241.19 37.144ZM242.99 33.736H239.186C239.234 32.848 239.846 31.804 241.082 31.804C242.402 31.804 242.978 32.872 242.99 33.736ZM246.236 37V32.896C246.5 32.428 247.256 31.972 247.808 31.972C247.952 31.972 248.06 31.984 248.168 32.008V31.084C247.376 31.084 246.704 31.528 246.236 32.14V31.204H245.336V37H246.236ZM256.218 37.144C257.634 37.144 258.594 36.472 259.266 35.56L258.414 35.092C257.958 35.776 257.13 36.256 256.218 36.256C254.466 36.256 253.134 34.9 253.134 33.004C253.134 31.096 254.466 29.752 256.218 29.752C257.13 29.752 257.958 30.244 258.414 30.916L259.254 30.448C258.618 29.548 257.634 28.864 256.218 28.864C253.914 28.864 252.102 30.544 252.102 33.004C252.102 35.464 253.914 37.144 256.218 37.144ZM261.4 37V32.896C261.664 32.428 262.42 31.972 262.972 31.972C263.116 31.972 263.224 31.984 263.332 32.008V31.084C262.54 31.084 261.868 31.528 261.4 32.14V31.204H260.5V37H261.4ZM267.077 37.144C268.025 37.144 268.805 36.832 269.381 36.256L268.949 35.668C268.493 36.136 267.821 36.4 267.161 36.4C265.913 36.4 265.145 35.488 265.073 34.396H269.765V34.168C269.765 32.428 268.733 31.06 266.981 31.06C265.325 31.06 264.125 32.416 264.125 34.096C264.125 35.908 265.361 37.144 267.077 37.144ZM268.877 33.736H265.073C265.121 32.848 265.733 31.804 266.969 31.804C268.289 31.804 268.865 32.872 268.877 33.736ZM276.322 37V28.996H275.422V32.08C274.954 31.444 274.246 31.06 273.466 31.06C271.942 31.06 270.886 32.26 270.886 34.108C270.886 35.992 271.954 37.144 273.466 37.144C274.282 37.144 274.99 36.724 275.422 36.136V37H276.322ZM273.682 36.34C272.518 36.34 271.822 35.392 271.822 34.108C271.822 32.824 272.518 31.864 273.682 31.864C274.402 31.864 275.098 32.296 275.422 32.8V35.428C275.098 35.932 274.402 36.34 273.682 36.34ZM278.569 30.376C278.905 30.376 279.181 30.112 279.181 29.776C279.181 29.44 278.905 29.164 278.569 29.164C278.245 29.164 277.969 29.44 277.969 29.776C277.969 30.112 278.245 30.376 278.569 30.376ZM279.025 37V31.204H278.125V37H279.025ZM282.284 37.144C282.812 37.144 283.136 36.988 283.364 36.772L283.1 36.1C282.98 36.232 282.74 36.34 282.488 36.34C282.092 36.34 281.9 36.028 281.9 35.596V31.996H283.076V31.204H281.9V29.62H281V31.204H280.04V31.996H281V35.788C281 36.652 281.432 37.144 282.284 37.144ZM286.183 37.144C287.683 37.144 288.463 36.364 288.463 35.392C288.463 33.136 284.875 33.976 284.875 32.704C284.875 32.188 285.367 31.792 286.159 31.792C286.903 31.792 287.539 32.104 287.887 32.524L288.307 31.9C287.839 31.432 287.143 31.06 286.159 31.06C284.779 31.06 283.999 31.828 283.999 32.728C283.999 34.876 287.587 34.012 287.587 35.416C287.587 35.992 287.107 36.412 286.219 36.412C285.427 36.412 284.695 36.028 284.311 35.584L283.843 36.232C284.431 36.856 285.235 37.144 286.183 37.144ZM190.793 53.968C190.025 52.456 189.545 51.076 189.545 49.084C189.545 47.08 190.025 45.712 190.793 44.188L190.253 43.78C189.173 45.268 188.561 47.152 188.561 49.084C188.561 51.016 189.173 52.912 190.253 54.388L190.793 53.968ZM195.21 52.144C197.382 52.144 198.474 50.872 198.474 48.88V43.996H197.478V48.868C197.478 50.332 196.686 51.256 195.21 51.256C193.734 51.256 192.942 50.332 192.942 48.868V43.996H191.946V48.892C191.946 50.86 193.038 52.144 195.21 52.144ZM205.124 52V47.932C205.124 46.672 204.488 46.06 203.276 46.06C202.412 46.06 201.62 46.564 201.212 47.044V46.204H200.312V52H201.212V47.764C201.548 47.296 202.22 46.864 202.928 46.864C203.708 46.864 204.224 47.188 204.224 48.208V52H205.124ZM212.021 52V43.996H211.121V47.08C210.653 46.444 209.945 46.06 209.165 46.06C207.641 46.06 206.585 47.26 206.585 49.108C206.585 50.992 207.653 52.144 209.165 52.144C209.981 52.144 210.689 51.724 211.121 51.136V52H212.021ZM209.381 51.34C208.217 51.34 207.521 50.392 207.521 49.108C207.521 47.824 208.217 46.864 209.381 46.864C210.101 46.864 210.797 47.296 211.121 47.8V50.428C210.797 50.932 210.101 51.34 209.381 51.34ZM216.44 52.144C217.388 52.144 218.168 51.832 218.744 51.256L218.312 50.668C217.856 51.136 217.184 51.4 216.524 51.4C215.276 51.4 214.508 50.488 214.436 49.396H219.128V49.168C219.128 47.428 218.096 46.06 216.344 46.06C214.688 46.06 213.488 47.416 213.488 49.096C213.488 50.908 214.724 52.144 216.44 52.144ZM218.24 48.736H214.436C214.484 47.848 215.096 46.804 216.332 46.804C217.652 46.804 218.228 47.872 218.24 48.736ZM221.486 52V47.896C221.75 47.428 222.506 46.972 223.058 46.972C223.202 46.972 223.31 46.984 223.418 47.008V46.084C222.626 46.084 221.954 46.528 221.486 47.14V46.204H220.586V52H221.486ZM226.874 54.352C228.29 54.352 229.634 53.752 229.634 51.832V46.204H228.734V47.08C228.266 46.444 227.57 46.06 226.79 46.06C225.266 46.06 224.21 47.212 224.21 49.072C224.21 50.944 225.278 52.072 226.79 52.072C227.606 52.072 228.314 51.628 228.734 51.04V51.868C228.734 53.14 227.834 53.608 226.874 53.608C226.046 53.608 225.47 53.392 224.99 52.816L224.534 53.488C225.218 54.16 225.89 54.352 226.874 54.352ZM227.006 51.28C225.842 51.28 225.146 50.344 225.146 49.072C225.146 47.788 225.842 46.864 227.006 46.864C227.726 46.864 228.422 47.296 228.734 47.8V50.332C228.422 50.836 227.726 51.28 227.006 51.28ZM232.337 52V47.896C232.601 47.428 233.357 46.972 233.909 46.972C234.053 46.972 234.161 46.984 234.269 47.008V46.084C233.477 46.084 232.805 46.528 232.337 47.14V46.204H231.437V52H232.337ZM239.922 52V48.016C239.922 46.612 238.902 46.06 237.678 46.06C236.73 46.06 235.986 46.372 235.362 47.02L235.782 47.644C236.298 47.092 236.862 46.84 237.558 46.84C238.398 46.84 239.022 47.284 239.022 48.064V49.108C238.554 48.568 237.894 48.316 237.102 48.316C236.118 48.316 235.074 48.928 235.074 50.224C235.074 51.484 236.118 52.144 237.102 52.144C237.882 52.144 238.542 51.868 239.022 51.34V52H239.922ZM237.426 51.496C236.586 51.496 235.998 50.968 235.998 50.236C235.998 49.492 236.586 48.964 237.426 48.964C238.062 48.964 238.674 49.204 239.022 49.684V50.776C238.674 51.256 238.062 51.496 237.426 51.496ZM246.826 52V43.996H245.926V47.08C245.458 46.444 244.75 46.06 243.97 46.06C242.446 46.06 241.39 47.26 241.39 49.108C241.39 50.992 242.458 52.144 243.97 52.144C244.786 52.144 245.494 51.724 245.926 51.136V52H246.826ZM244.186 51.34C243.022 51.34 242.326 50.392 242.326 49.108C242.326 47.824 243.022 46.864 244.186 46.864C244.906 46.864 245.602 47.296 245.926 47.8V50.428C245.602 50.932 244.906 51.34 244.186 51.34ZM253.441 52V46.204H252.541V50.464C252.205 50.932 251.533 51.34 250.825 51.34C250.045 51.34 249.529 51.04 249.529 50.02V46.204H248.629V50.296C248.629 51.556 249.265 52.144 250.477 52.144C251.341 52.144 252.097 51.688 252.541 51.184V52H253.441ZM259.762 52V48.016C259.762 46.612 258.742 46.06 257.518 46.06C256.57 46.06 255.826 46.372 255.202 47.02L255.622 47.644C256.138 47.092 256.702 46.84 257.398 46.84C258.238 46.84 258.862 47.284 258.862 48.064V49.108C258.394 48.568 257.734 48.316 256.942 48.316C255.958 48.316 254.914 48.928 254.914 50.224C254.914 51.484 255.958 52.144 256.942 52.144C257.722 52.144 258.382 51.868 258.862 51.34V52H259.762ZM257.266 51.496C256.426 51.496 255.838 50.968 255.838 50.236C255.838 49.492 256.426 48.964 257.266 48.964C257.902 48.964 258.514 49.204 258.862 49.684V50.776C258.514 51.256 257.902 51.496 257.266 51.496ZM263.03 52.144C263.558 52.144 263.882 51.988 264.11 51.772L263.846 51.1C263.726 51.232 263.486 51.34 263.234 51.34C262.838 51.34 262.646 51.028 262.646 50.596V46.996H263.822V46.204H262.646V44.62H261.746V46.204H260.786V46.996H261.746V50.788C261.746 51.652 262.178 52.144 263.03 52.144ZM267.709 52.144C268.657 52.144 269.437 51.832 270.013 51.256L269.581 50.668C269.125 51.136 268.453 51.4 267.793 51.4C266.545 51.4 265.777 50.488 265.705 49.396H270.397V49.168C270.397 47.428 269.365 46.06 267.613 46.06C265.957 46.06 264.757 47.416 264.757 49.096C264.757 50.908 265.993 52.144 267.709 52.144ZM269.509 48.736H265.705C265.753 47.848 266.365 46.804 267.601 46.804C268.921 46.804 269.497 47.872 269.509 48.736ZM273.691 52.144C275.191 52.144 275.971 51.364 275.971 50.392C275.971 48.136 272.383 48.976 272.383 47.704C272.383 47.188 272.875 46.792 273.667 46.792C274.411 46.792 275.047 47.104 275.395 47.524L275.815 46.9C275.347 46.432 274.651 46.06 273.667 46.06C272.287 46.06 271.507 46.828 271.507 47.728C271.507 49.876 275.095 49.012 275.095 50.416C275.095 50.992 274.615 51.412 273.727 51.412C272.935 51.412 272.203 51.028 271.819 50.584L271.351 51.232C271.939 51.856 272.743 52.144 273.691 52.144ZM284.211 52.144C286.575 52.144 288.183 50.368 288.183 48.004C288.183 45.64 286.575 43.864 284.211 43.864C281.835 43.864 280.239 45.64 280.239 48.004C280.239 50.368 281.835 52.144 284.211 52.144ZM284.211 51.256C282.411 51.256 281.271 49.864 281.271 48.004C281.271 46.132 282.411 44.752 284.211 44.752C285.999 44.752 287.151 46.132 287.151 48.004C287.151 49.864 285.999 51.256 284.211 51.256ZM294.515 52V47.932C294.515 46.672 293.879 46.06 292.667 46.06C291.803 46.06 291.011 46.564 290.603 47.044V46.204H289.703V52H290.603V47.764C290.939 47.296 291.611 46.864 292.319 46.864C293.099 46.864 293.615 47.188 293.615 48.208V52H294.515ZM297.212 52V43.996H296.312V52H297.212ZM298.683 54.268C298.851 54.316 299.151 54.352 299.343 54.352C300.111 54.34 300.699 54.016 301.047 53.176L303.951 46.204H302.967L301.047 50.956L299.115 46.204H298.143L300.567 52.06L300.183 52.936C299.979 53.416 299.715 53.548 299.319 53.548C299.175 53.548 298.959 53.512 298.827 53.452L298.683 54.268ZM304.734 54.388C305.826 52.912 306.438 51.016 306.438 49.084C306.438 47.152 305.826 45.268 304.734 43.78L304.194 44.188C304.974 45.712 305.454 47.08 305.454 49.084C305.454 51.076 304.974 52.456 304.194 53.968L304.734 54.388Z" fill="black"/>
<path opacity="0.3" d="M434.818 37L432.658 33.736C433.75 33.64 434.734 32.848 434.734 31.408C434.734 29.932 433.69 28.996 432.226 28.996H429.01V37H430.006V33.82H431.602L433.642 37H434.818ZM432.106 32.944H430.006V29.884H432.106C433.054 29.884 433.702 30.508 433.702 31.408C433.702 32.308 433.054 32.944 432.106 32.944ZM438.528 37.144C439.476 37.144 440.256 36.832 440.832 36.256L440.4 35.668C439.944 36.136 439.272 36.4 438.612 36.4C437.364 36.4 436.596 35.488 436.524 34.396H441.216V34.168C441.216 32.428 440.184 31.06 438.432 31.06C436.776 31.06 435.576 32.416 435.576 34.096C435.576 35.908 436.812 37.144 438.528 37.144ZM440.328 33.736H436.524C436.572 32.848 437.184 31.804 438.42 31.804C439.74 31.804 440.316 32.872 440.328 33.736ZM445.205 37L447.617 31.204H446.633L444.713 35.956L442.781 31.204H441.809L444.221 37H445.205ZM449 30.376C449.336 30.376 449.612 30.112 449.612 29.776C449.612 29.44 449.336 29.164 449 29.164C448.676 29.164 448.4 29.44 448.4 29.776C448.4 30.112 448.676 30.376 449 30.376ZM449.456 37V31.204H448.556V37H449.456ZM453.868 37.144C454.816 37.144 455.596 36.832 456.172 36.256L455.74 35.668C455.284 36.136 454.612 36.4 453.952 36.4C452.704 36.4 451.936 35.488 451.864 34.396H456.556V34.168C456.556 32.428 455.524 31.06 453.772 31.06C452.116 31.06 450.916 32.416 450.916 34.096C450.916 35.908 452.152 37.144 453.868 37.144ZM455.668 33.736H451.864C451.912 32.848 452.524 31.804 453.76 31.804C455.08 31.804 455.656 32.872 455.668 33.736ZM463.929 37L465.777 31.204H464.841L463.425 35.824L461.901 31.204H461.133L459.609 35.824L458.193 31.204H457.257L459.105 37H460.005L461.517 32.344L463.029 37H463.929Z" fill="black"/>
<defs>
<filter id="filter0_d" x="41" y="5" width="12" height="12" filterUnits="userSpaceOnUse" color-interpolation-filters="sRGB">
<feFlood flood-opacity="0" result="BackgroundImageFix"/>
<feColorMatrix in="SourceAlpha" type="matrix" values="0 0 0 0 0 0 0 0 0 0 0 0 0 0 0 0 0 0 127 0"/>
<feOffset dy="2"/>
<feGaussianBlur stdDeviation="1.5"/>
<feColorMatrix type="matrix" values="0 0 0 0 0 0 0 0 0 0 0 0 0 0 0 0 0 0 0.3 0"/>
<feBlend mode="normal" in2="BackgroundImageFix" result="effect1_dropShadow"/>
<feBlend mode="normal" in="SourceGraphic" in2="effect1_dropShadow" result="shape"/>
</filter>
</defs>
</svg>
