<svg width="465" height="50" viewBox="0 0 465 50" fill="none" xmlns="http://www.w3.org/2000/svg">
<rect x="251.5" y="8" width="186" height="2" rx="1" fill="#148481"/>
<rect x="50.5" y="7" width="188" height="4" rx="2" fill="#148481"/>
<circle cx="445" cy="9" r="9" fill="#148481"/>
<circle cx="245" cy="9" r="9" fill="#148481"/>
<g filter="url(#filter0_d)">
<ellipse cx="445" cy="9" rx="3" ry="3" fill="white"/>
</g>
<circle cx="45" cy="9" r="9" fill="#148481"/>
<g filter="url(#filter1_d)">
<path d="M40 8.71594L40.8981 7.81787L43.5923 10.5121L49.1019 5L50 5.89807L43.5923 12.3082L40 8.71594Z" fill="white"/>
</g>
<g filter="url(#filter2_d)">
<path d="M240 8.71594L240.898 7.81787L243.592 10.5121L249.102 5L250 5.89807L243.592 12.3082L240 8.71594Z" fill="white"/>
</g>
<path d="M4.7383 36C6.2023 36 7.0543 35.124 7.0543 33.84C7.0543 32.88 6.3463 32.004 5.4943 31.872C6.2263 31.716 6.8983 31.044 6.8983 30.036C6.8983 28.836 6.0463 27.996 4.6543 27.996H1.0903V36H4.7383ZM4.4863 31.464H2.0863V28.884H4.4863C5.3863 28.884 5.8663 29.46 5.8663 30.18C5.8663 30.912 5.3863 31.464 4.4863 31.464ZM4.5463 35.112H2.0863V32.352H4.5463C5.5183 32.352 6.0223 33 6.0223 33.732C6.0223 34.584 5.4703 35.112 4.5463 35.112ZM13.1252 36V32.016C13.1252 30.612 12.1172 30.06 10.8812 30.06C9.93317 30.06 9.18917 30.372 8.56517 31.02L8.98517 31.644C9.50117 31.08 10.0652 30.84 10.7612 30.84C11.6012 30.84 12.2252 31.284 12.2252 32.052V33.096C11.7572 32.568 11.0972 32.316 10.3052 32.316C9.32117 32.316 8.28917 32.916 8.28917 34.224C8.28917 35.484 9.33317 36.144 10.3052 36.144C11.0852 36.144 11.7572 35.868 12.2252 35.34V36H13.1252ZM10.6412 35.496C9.78917 35.496 9.20117 34.968 9.20117 34.224C9.20117 33.492 9.78917 32.964 10.6412 32.964C11.2652 32.964 11.8772 33.204 12.2252 33.672V34.776C11.8772 35.256 11.2652 35.496 10.6412 35.496ZM16.789 36.144C18.277 36.144 19.057 35.364 19.057 34.392C19.057 32.136 15.469 32.964 15.469 31.704C15.469 31.188 15.961 30.792 16.753 30.792C17.509 30.792 18.133 31.104 18.481 31.524L18.901 30.9C18.445 30.432 17.749 30.06 16.753 30.06C15.373 30.06 14.605 30.816 14.605 31.728C14.605 33.876 18.193 33.012 18.193 34.416C18.193 34.992 17.701 35.412 16.813 35.412C16.021 35.412 15.289 35.028 14.905 34.584L14.449 35.232C15.037 35.844 15.829 36.144 16.789 36.144ZM20.9751 29.376C21.3111 29.376 21.5751 29.112 21.5751 28.776C21.5751 28.44 21.3111 28.164 20.9751 28.164C20.6391 28.164 20.3631 28.44 20.3631 28.776C20.3631 29.112 20.6391 29.376 20.9751 29.376ZM21.4191 36V30.204H20.5191V36H21.4191ZM25.7705 36.144C26.8265 36.144 27.4505 35.712 27.8945 35.136L27.2945 34.584C26.9105 35.1 26.4185 35.34 25.8185 35.34C24.5945 35.34 23.8145 34.38 23.8145 33.096C23.8145 31.812 24.5945 30.864 25.8185 30.864C26.4185 30.864 26.9105 31.08 27.2945 31.608L27.8945 31.068C27.4505 30.492 26.8265 30.06 25.7705 30.06C24.0425 30.06 22.8785 31.38 22.8785 33.096C22.8785 34.812 24.0425 36.144 25.7705 36.144ZM33.305 36V27.996H32.309V36H33.305ZM39.9561 36V31.932C39.9561 30.672 39.3201 30.06 38.1201 30.06C37.2441 30.06 36.4521 30.552 36.0441 31.044V30.204H35.1441V36H36.0441V31.764C36.3921 31.296 37.0521 30.864 37.7601 30.864C38.5401 30.864 39.0681 31.176 39.0681 32.208V36H39.9561ZM42.9172 36V30.996H44.0932V30.204H42.9172V29.76C42.9172 29.016 43.2412 28.62 43.8412 28.62C44.1292 28.62 44.3572 28.728 44.5492 28.896L44.9212 28.32C44.5612 27.984 44.1652 27.876 43.6972 27.876C42.6772 27.876 42.0172 28.572 42.0172 29.76V30.204H41.0572V30.996H42.0172V36H42.9172ZM47.7074 36.144C49.4714 36.144 50.5754 34.776 50.5754 33.096C50.5754 31.416 49.4714 30.06 47.7074 30.06C45.9434 30.06 44.8394 31.416 44.8394 33.096C44.8394 34.776 45.9434 36.144 47.7074 36.144ZM47.7074 35.34C46.4714 35.34 45.7874 34.284 45.7874 33.096C45.7874 31.92 46.4714 30.864 47.7074 30.864C48.9434 30.864 49.6274 31.92 49.6274 33.096C49.6274 34.284 48.9434 35.34 47.7074 35.34ZM52.9426 36V31.896C53.2066 31.428 53.9626 30.972 54.5266 30.972C54.6586 30.972 54.7666 30.984 54.8746 30.996V30.072C54.0826 30.072 53.4106 30.528 52.9426 31.128V30.204H52.0426V36H52.9426ZM63.8995 36V31.812C63.8995 30.648 63.3355 30.06 62.2795 30.06C61.4395 30.06 60.6595 30.612 60.3355 31.14C60.1675 30.54 59.6635 30.06 58.7875 30.06C57.9235 30.06 57.1555 30.672 56.9035 31.044V30.204H56.0035V36H56.9035V31.764C57.2155 31.296 57.8395 30.864 58.4275 30.864C59.1955 30.864 59.4955 31.332 59.4955 32.064V36H60.3955V31.752C60.6955 31.284 61.3315 30.864 61.9315 30.864C62.6875 30.864 62.9995 31.332 62.9995 32.064V36H63.8995ZM70.2189 36V32.016C70.2189 30.612 69.2109 30.06 67.9749 30.06C67.0269 30.06 66.2829 30.372 65.6589 31.02L66.0789 31.644C66.5949 31.08 67.1589 30.84 67.8549 30.84C68.6949 30.84 69.3189 31.284 69.3189 32.052V33.096C68.8509 32.568 68.1909 32.316 67.3989 32.316C66.4149 32.316 65.3829 32.916 65.3829 34.224C65.3829 35.484 66.4269 36.144 67.3989 36.144C68.1789 36.144 68.8509 35.868 69.3189 35.34V36H70.2189ZM67.7349 35.496C66.8829 35.496 66.2949 34.968 66.2949 34.224C66.2949 33.492 66.8829 32.964 67.7349 32.964C68.3589 32.964 68.9709 33.204 69.3189 33.672V34.776C68.9709 35.256 68.3589 35.496 67.7349 35.496ZM73.5108 36.144C74.0268 36.144 74.3508 35.988 74.5788 35.772L74.3148 35.088C74.1948 35.22 73.9668 35.34 73.7028 35.34C73.3188 35.34 73.1268 35.028 73.1268 34.596V30.996H74.3028V30.204H73.1268V28.62H72.2148V30.204H71.2548V30.996H72.2148V34.788C72.2148 35.652 72.6468 36.144 73.5108 36.144ZM76.0181 29.376C76.3541 29.376 76.6181 29.112 76.6181 28.776C76.6181 28.44 76.3541 28.164 76.0181 28.164C75.6821 28.164 75.4061 28.44 75.4061 28.776C75.4061 29.112 75.6821 29.376 76.0181 29.376ZM76.4621 36V30.204H75.5621V36H76.4621ZM80.7894 36.144C82.5534 36.144 83.6574 34.776 83.6574 33.096C83.6574 31.416 82.5534 30.06 80.7894 30.06C79.0254 30.06 77.9214 31.416 77.9214 33.096C77.9214 34.776 79.0254 36.144 80.7894 36.144ZM80.7894 35.34C79.5534 35.34 78.8694 34.284 78.8694 33.096C78.8694 31.92 79.5534 30.864 80.7894 30.864C82.0254 30.864 82.7094 31.92 82.7094 33.096C82.7094 34.284 82.0254 35.34 80.7894 35.34ZM89.9366 36V31.932C89.9366 30.672 89.3006 30.06 88.1006 30.06C87.2246 30.06 86.4326 30.552 86.0246 31.044V30.204H85.1246V36H86.0246V31.764C86.3726 31.296 87.0326 30.864 87.7406 30.864C88.5206 30.864 89.0486 31.176 89.0486 32.208V36H89.9366Z" fill="#148481"/>
<path d="M207.363 35V27.884H209.907V26.996H203.835V27.884H206.367V35H207.363ZM211.075 35V30.896C211.339 30.428 212.095 29.972 212.659 29.972C212.791 29.972 212.899 29.984 213.007 29.996V29.072C212.215 29.072 211.543 29.528 211.075 30.128V29.204H210.175V35H211.075ZM218.66 35V31.016C218.66 29.612 217.652 29.06 216.416 29.06C215.468 29.06 214.724 29.372 214.1 30.02L214.52 30.644C215.036 30.08 215.6 29.84 216.296 29.84C217.136 29.84 217.76 30.284 217.76 31.052V32.096C217.292 31.568 216.632 31.316 215.84 31.316C214.856 31.316 213.824 31.916 213.824 33.224C213.824 34.484 214.868 35.144 215.84 35.144C216.62 35.144 217.292 34.868 217.76 34.34V35H218.66ZM216.176 34.496C215.324 34.496 214.736 33.968 214.736 33.224C214.736 32.492 215.324 31.964 216.176 31.964C216.8 31.964 217.412 32.204 217.76 32.672V33.776C217.412 34.256 216.8 34.496 216.176 34.496ZM225.288 35V30.932C225.288 29.672 224.652 29.06 223.452 29.06C222.576 29.06 221.784 29.552 221.376 30.044V29.204H220.476V35H221.376V30.764C221.724 30.296 222.384 29.864 223.092 29.864C223.872 29.864 224.4 30.176 224.4 31.208V35H225.288ZM228.945 35.144C230.433 35.144 231.213 34.364 231.213 33.392C231.213 31.136 227.625 31.964 227.625 30.704C227.625 30.188 228.117 29.792 228.909 29.792C229.665 29.792 230.289 30.104 230.637 30.524L231.057 29.9C230.601 29.432 229.905 29.06 228.909 29.06C227.529 29.06 226.761 29.816 226.761 30.728C226.761 32.876 230.349 32.012 230.349 33.416C230.349 33.992 229.857 34.412 228.969 34.412C228.177 34.412 227.445 34.028 227.061 33.584L226.605 34.232C227.193 34.844 227.985 35.144 228.945 35.144ZM233.827 35V29.996H235.003V29.204H233.827V28.76C233.827 28.016 234.151 27.62 234.751 27.62C235.039 27.62 235.267 27.728 235.459 27.896L235.831 27.32C235.471 26.984 235.075 26.876 234.607 26.876C233.587 26.876 232.927 27.572 232.927 28.76V29.204H231.967V29.996H232.927V35H233.827ZM238.714 35.144C239.65 35.144 240.43 34.82 241.018 34.244L240.586 33.656C240.118 34.136 239.458 34.4 238.786 34.4C237.538 34.4 236.782 33.488 236.71 32.396H241.39V32.168C241.39 30.428 240.358 29.06 238.606 29.06C236.95 29.06 235.75 30.416 235.75 32.096C235.75 33.908 236.986 35.144 238.714 35.144ZM240.502 31.724H236.698C236.746 30.848 237.358 29.804 238.594 29.804C239.914 29.804 240.49 30.872 240.502 31.724ZM243.747 35V30.896C244.011 30.428 244.767 29.972 245.331 29.972C245.463 29.972 245.571 29.984 245.679 29.996V29.072C244.887 29.072 244.215 29.528 243.747 30.128V29.204H242.847V35H243.747ZM253.742 35.144C255.158 35.144 256.118 34.472 256.79 33.548L255.95 33.092C255.494 33.764 254.654 34.256 253.742 34.256C251.99 34.256 250.658 32.9 250.658 31.004C250.658 29.084 251.99 27.752 253.742 27.752C254.654 27.752 255.494 28.232 255.95 28.916L256.778 28.448C256.142 27.536 255.158 26.864 253.742 26.864C251.438 26.864 249.626 28.544 249.626 31.004C249.626 33.464 251.438 35.144 253.742 35.144ZM258.923 35V30.896C259.187 30.428 259.943 29.972 260.507 29.972C260.639 29.972 260.747 29.984 260.855 29.996V29.072C260.063 29.072 259.391 29.528 258.923 30.128V29.204H258.023V35H258.923ZM264.612 35.144C265.548 35.144 266.328 34.82 266.916 34.244L266.484 33.656C266.016 34.136 265.356 34.4 264.684 34.4C263.436 34.4 262.68 33.488 262.608 32.396H267.288V32.168C267.288 30.428 266.256 29.06 264.504 29.06C262.848 29.06 261.648 30.416 261.648 32.096C261.648 33.908 262.884 35.144 264.612 35.144ZM266.4 31.724H262.596C262.644 30.848 263.256 29.804 264.492 29.804C265.812 29.804 266.388 30.872 266.4 31.724ZM273.846 35V26.996H272.946V30.08C272.478 29.444 271.77 29.06 270.99 29.06C269.478 29.06 268.41 30.248 268.41 32.108C268.41 33.992 269.478 35.144 270.99 35.144C271.806 35.144 272.514 34.724 272.946 34.136V35H273.846ZM271.218 34.34C270.042 34.34 269.346 33.392 269.346 32.108C269.346 30.824 270.042 29.864 271.218 29.864C271.926 29.864 272.634 30.296 272.946 30.8V33.416C272.634 33.92 271.926 34.34 271.218 34.34ZM276.104 28.376C276.44 28.376 276.704 28.112 276.704 27.776C276.704 27.44 276.44 27.164 276.104 27.164C275.768 27.164 275.492 27.44 275.492 27.776C275.492 28.112 275.768 28.376 276.104 28.376ZM276.548 35V29.204H275.648V35H276.548ZM279.819 35.144C280.335 35.144 280.659 34.988 280.887 34.772L280.623 34.088C280.503 34.22 280.275 34.34 280.011 34.34C279.627 34.34 279.435 34.028 279.435 33.596V29.996H280.611V29.204H279.435V27.62H278.523V29.204H277.563V29.996H278.523V33.788C278.523 34.652 278.955 35.144 279.819 35.144ZM283.719 35.144C285.207 35.144 285.987 34.364 285.987 33.392C285.987 31.136 282.399 31.964 282.399 30.704C282.399 30.188 282.891 29.792 283.683 29.792C284.439 29.792 285.063 30.104 285.411 30.524L285.831 29.9C285.375 29.432 284.679 29.06 283.683 29.06C282.303 29.06 281.535 29.816 281.535 30.728C281.535 32.876 285.123 32.012 285.123 33.416C285.123 33.992 284.631 34.412 283.743 34.412C282.951 34.412 282.219 34.028 281.835 33.584L281.379 34.232C281.967 34.844 282.759 35.144 283.719 35.144ZM188.264 48.968C187.484 47.456 187.004 46.076 187.004 44.084C187.004 42.08 187.484 40.712 188.264 39.188L187.712 38.78C186.632 40.268 186.02 42.152 186.02 44.084C186.02 46.016 186.632 47.9 187.712 49.388L188.264 48.968ZM192.669 47.144C194.841 47.144 195.945 45.872 195.945 43.88V38.996H194.937V43.868C194.937 45.332 194.145 46.256 192.669 46.256C191.193 46.256 190.413 45.332 190.413 43.868V38.996H189.405V43.892C189.405 45.86 190.509 47.144 192.669 47.144ZM202.595 47V42.932C202.595 41.672 201.959 41.06 200.759 41.06C199.883 41.06 199.091 41.552 198.683 42.044V41.204H197.783V47H198.683V42.764C199.031 42.296 199.691 41.864 200.399 41.864C201.179 41.864 201.707 42.176 201.707 43.208V47H202.595ZM209.504 47V38.996H208.604V42.08C208.136 41.444 207.428 41.06 206.648 41.06C205.136 41.06 204.068 42.248 204.068 44.108C204.068 45.992 205.136 47.144 206.648 47.144C207.464 47.144 208.172 46.724 208.604 46.136V47H209.504ZM206.876 46.34C205.7 46.34 205.004 45.392 205.004 44.108C205.004 42.824 205.7 41.864 206.876 41.864C207.584 41.864 208.292 42.296 208.604 42.8V45.416C208.292 45.92 207.584 46.34 206.876 46.34ZM213.934 47.144C214.87 47.144 215.65 46.82 216.238 46.244L215.806 45.656C215.338 46.136 214.678 46.4 214.006 46.4C212.758 46.4 212.002 45.488 211.93 44.396H216.61V44.168C216.61 42.428 215.578 41.06 213.826 41.06C212.17 41.06 210.97 42.416 210.97 44.096C210.97 45.908 212.206 47.144 213.934 47.144ZM215.722 43.724H211.918C211.966 42.848 212.578 41.804 213.814 41.804C215.134 41.804 215.71 42.872 215.722 43.724ZM218.968 47V42.896C219.232 42.428 219.988 41.972 220.552 41.972C220.684 41.972 220.792 41.984 220.9 41.996V41.072C220.108 41.072 219.436 41.528 218.968 42.128V41.204H218.068V47H218.968ZM224.357 49.352C225.773 49.352 227.129 48.752 227.129 46.916V41.204H226.229V42.08C225.761 41.444 225.053 41.06 224.273 41.06C222.749 41.06 221.693 42.212 221.693 44.072C221.693 45.944 222.761 47.072 224.273 47.072C225.089 47.072 225.797 46.628 226.229 46.04V46.916C226.229 48.14 225.317 48.608 224.357 48.608C223.529 48.608 222.953 48.392 222.473 47.828L222.017 48.476C222.713 49.16 223.385 49.352 224.357 49.352ZM224.501 46.268C223.325 46.268 222.629 45.344 222.629 44.072C222.629 42.788 223.325 41.864 224.501 41.864C225.209 41.864 225.905 42.296 226.229 42.788V45.332C225.905 45.836 225.209 46.268 224.501 46.268ZM229.831 47V42.896C230.095 42.428 230.851 41.972 231.415 41.972C231.547 41.972 231.655 41.984 231.763 41.996V41.072C230.971 41.072 230.299 41.528 229.831 42.128V41.204H228.931V47H229.831ZM237.416 47V43.016C237.416 41.612 236.408 41.06 235.172 41.06C234.224 41.06 233.48 41.372 232.856 42.02L233.276 42.644C233.792 42.08 234.356 41.84 235.052 41.84C235.892 41.84 236.516 42.284 236.516 43.052V44.096C236.048 43.568 235.388 43.316 234.596 43.316C233.612 43.316 232.58 43.916 232.58 45.224C232.58 46.484 233.624 47.144 234.596 47.144C235.376 47.144 236.048 46.868 236.516 46.34V47H237.416ZM234.932 46.496C234.08 46.496 233.492 45.968 233.492 45.224C233.492 44.492 234.08 43.964 234.932 43.964C235.556 43.964 236.168 44.204 236.516 44.672V45.776C236.168 46.256 235.556 46.496 234.932 46.496ZM244.332 47V38.996H243.432V42.08C242.964 41.444 242.256 41.06 241.476 41.06C239.964 41.06 238.896 42.248 238.896 44.108C238.896 45.992 239.964 47.144 241.476 47.144C242.292 47.144 243 46.724 243.432 46.136V47H244.332ZM241.704 46.34C240.528 46.34 239.832 45.392 239.832 44.108C239.832 42.824 240.528 41.864 241.704 41.864C242.412 41.864 243.12 42.296 243.432 42.8V45.416C243.12 45.92 242.412 46.34 241.704 46.34ZM250.946 47V41.204H250.046V45.464C249.71 45.932 249.038 46.34 248.342 46.34C247.55 46.34 247.034 46.04 247.034 45.02V41.204H246.134V45.296C246.134 46.544 246.77 47.144 247.982 47.144C248.846 47.144 249.602 46.688 250.046 46.184V47H250.946ZM257.268 47V43.016C257.268 41.612 256.26 41.06 255.024 41.06C254.076 41.06 253.332 41.372 252.708 42.02L253.128 42.644C253.644 42.08 254.208 41.84 254.904 41.84C255.744 41.84 256.368 42.284 256.368 43.052V44.096C255.9 43.568 255.24 43.316 254.448 43.316C253.464 43.316 252.432 43.916 252.432 45.224C252.432 46.484 253.476 47.144 254.448 47.144C255.228 47.144 255.9 46.868 256.368 46.34V47H257.268ZM254.784 46.496C253.932 46.496 253.344 45.968 253.344 45.224C253.344 44.492 253.932 43.964 254.784 43.964C255.408 43.964 256.02 44.204 256.368 44.672V45.776C256.02 46.256 255.408 46.496 254.784 46.496ZM260.56 47.144C261.076 47.144 261.4 46.988 261.628 46.772L261.364 46.088C261.244 46.22 261.016 46.34 260.752 46.34C260.368 46.34 260.176 46.028 260.176 45.596V41.996H261.352V41.204H260.176V39.62H259.264V41.204H258.304V41.996H259.264V45.788C259.264 46.652 259.696 47.144 260.56 47.144ZM265.239 47.144C266.175 47.144 266.955 46.82 267.543 46.244L267.111 45.656C266.643 46.136 265.983 46.4 265.311 46.4C264.063 46.4 263.307 45.488 263.235 44.396H267.915V44.168C267.915 42.428 266.883 41.06 265.131 41.06C263.475 41.06 262.275 42.416 262.275 44.096C262.275 45.908 263.511 47.144 265.239 47.144ZM267.027 43.724H263.223C263.271 42.848 263.883 41.804 265.119 41.804C266.439 41.804 267.015 42.872 267.027 43.724ZM271.221 47.144C272.709 47.144 273.489 46.364 273.489 45.392C273.489 43.136 269.901 43.964 269.901 42.704C269.901 42.188 270.393 41.792 271.185 41.792C271.941 41.792 272.565 42.104 272.913 42.524L273.333 41.9C272.877 41.432 272.181 41.06 271.185 41.06C269.805 41.06 269.037 41.816 269.037 42.728C269.037 44.876 272.625 44.012 272.625 45.416C272.625 45.992 272.133 46.412 271.245 46.412C270.453 46.412 269.721 46.028 269.337 45.584L268.881 46.232C269.469 46.844 270.261 47.144 271.221 47.144ZM281.74 47.144C284.104 47.144 285.724 45.368 285.724 43.004C285.724 40.64 284.104 38.864 281.74 38.864C279.376 38.864 277.768 40.64 277.768 43.004C277.768 45.368 279.376 47.144 281.74 47.144ZM281.74 46.256C279.94 46.256 278.8 44.864 278.8 43.004C278.8 41.132 279.94 39.752 281.74 39.752C283.528 39.752 284.692 41.132 284.692 43.004C284.692 44.864 283.528 46.256 281.74 46.256ZM292.044 47V42.932C292.044 41.672 291.408 41.06 290.208 41.06C289.332 41.06 288.54 41.552 288.132 42.044V41.204H287.232V47H288.132V42.764C288.48 42.296 289.14 41.864 289.848 41.864C290.628 41.864 291.156 42.176 291.156 43.208V47H292.044ZM294.753 47V38.996H293.853V47H294.753ZM296.236 49.268C296.392 49.316 296.692 49.352 296.884 49.352C297.652 49.34 298.24 49.016 298.588 48.176L301.492 41.204H300.52L298.588 45.956L296.668 41.204H295.684L298.108 47.06L297.724 47.936C297.52 48.416 297.256 48.548 296.86 48.548C296.716 48.548 296.5 48.512 296.368 48.452L296.236 49.268ZM301.735 48.968C302.515 47.456 302.995 46.076 302.995 44.084C302.995 42.08 302.515 40.712 301.735 39.188L302.287 38.78C303.367 40.268 303.979 42.152 303.979 44.084C303.979 46.016 303.367 47.9 302.287 49.388L301.735 48.968Z" fill="#148481"/>
<path d="M432.76 37L430.96 33.952C431.824 33.748 432.712 32.992 432.712 31.576C432.712 30.088 431.692 28.996 430.024 28.996H426.28V37H427.984V34.156H429.232L430.804 37H432.76ZM429.772 32.656H427.984V30.496H429.772C430.456 30.496 430.972 30.904 430.972 31.576C430.972 32.248 430.456 32.656 429.772 32.656ZM436.316 37.144C437.216 37.144 438.128 36.868 438.704 36.34L438.032 35.356C437.66 35.716 436.976 35.932 436.484 35.932C435.5 35.932 434.912 35.32 434.816 34.588H439.124V34.252C439.124 32.356 437.948 31.06 436.22 31.06C434.456 31.06 433.22 32.416 433.22 34.096C433.22 35.956 434.552 37.144 436.316 37.144ZM437.648 33.556H434.792C434.864 32.98 435.272 32.272 436.22 32.272C437.228 32.272 437.612 33.004 437.648 33.556ZM443.369 37L445.697 31.204H444.053L442.541 35.236L441.029 31.204H439.397L441.725 37H443.369ZM447.133 30.58C447.637 30.58 448.045 30.172 448.045 29.668C448.045 29.164 447.637 28.768 447.133 28.768C446.641 28.768 446.221 29.164 446.221 29.668C446.221 30.172 446.641 30.58 447.133 30.58ZM447.901 37V31.204H446.377V37H447.901ZM452.136 37.144C453.036 37.144 453.948 36.868 454.524 36.34L453.852 35.356C453.48 35.716 452.796 35.932 452.304 35.932C451.32 35.932 450.732 35.32 450.636 34.588H454.944V34.252C454.944 32.356 453.768 31.06 452.04 31.06C450.276 31.06 449.04 32.416 449.04 34.096C449.04 35.956 450.372 37.144 452.136 37.144ZM453.468 33.556H450.612C450.684 32.98 451.092 32.272 452.04 32.272C453.048 32.272 453.432 33.004 453.468 33.556ZM462.753 37L464.517 31.204H462.933L461.853 35.104L460.581 31.204H459.225L457.953 35.104L456.873 31.204H455.289L457.053 37H458.685L459.909 33.052L461.133 37H462.753Z" fill="#148481"/>
<defs>
<filter id="filter0_d" x="439" y="5" width="12" height="12" filterUnits="userSpaceOnUse" color-interpolation-filters="sRGB">
<feFlood flood-opacity="0" result="BackgroundImageFix"/>
<feColorMatrix in="SourceAlpha" type="matrix" values="0 0 0 0 0 0 0 0 0 0 0 0 0 0 0 0 0 0 127 0"/>
<feOffset dy="2"/>
<feGaussianBlur stdDeviation="1.5"/>
<feColorMatrix type="matrix" values="0 0 0 0 0 0 0 0 0 0 0 0 0 0 0 0 0 0 0.3 0"/>
<feBlend mode="normal" in2="BackgroundImageFix" result="effect1_dropShadow"/>
<feBlend mode="normal" in="SourceGraphic" in2="effect1_dropShadow" result="shape"/>
</filter>
<filter id="filter1_d" x="37" y="4" width="16" height="13.3082" filterUnits="userSpaceOnUse" color-interpolation-filters="sRGB">
<feFlood flood-opacity="0" result="BackgroundImageFix"/>
<feColorMatrix in="SourceAlpha" type="matrix" values="0 0 0 0 0 0 0 0 0 0 0 0 0 0 0 0 0 0 127 0"/>
<feOffset dy="2"/>
<feGaussianBlur stdDeviation="1.5"/>
<feColorMatrix type="matrix" values="0 0 0 0 0 0 0 0 0 0 0 0 0 0 0 0 0 0 0.3 0"/>
<feBlend mode="normal" in2="BackgroundImageFix" result="effect1_dropShadow"/>
<feBlend mode="normal" in="SourceGraphic" in2="effect1_dropShadow" result="shape"/>
</filter>
<filter id="filter2_d" x="237" y="4" width="16" height="13.3082" filterUnits="userSpaceOnUse" color-interpolation-filters="sRGB">
<feFlood flood-opacity="0" result="BackgroundImageFix"/>
<feColorMatrix in="SourceAlpha" type="matrix" values="0 0 0 0 0 0 0 0 0 0 0 0 0 0 0 0 0 0 127 0"/>
<feOffset dy="2"/>
<feGaussianBlur stdDeviation="1.5"/>
<feColorMatrix type="matrix" values="0 0 0 0 0 0 0 0 0 0 0 0 0 0 0 0 0 0 0.3 0"/>
<feBlend mode="normal" in2="BackgroundImageFix" result="effect1_dropShadow"/>
<feBlend mode="normal" in="SourceGraphic" in2="effect1_dropShadow" result="shape"/>
</filter>
</defs>
</svg>
