<svg width="465" height="41" viewBox="0 0 465 41" fill="none" xmlns="http://www.w3.org/2000/svg">
<path d="M4.77931 37C6.24331 37 7.09531 36.124 7.09531 34.84C7.09531 33.88 6.38731 33.004 5.53531 32.872C6.26731 32.716 6.93931 32.044 6.93931 31.036C6.93931 29.836 6.08731 28.996 4.69531 28.996H1.13131V37H4.77931ZM4.52731 32.464H2.12731V29.884H4.52731C5.42731 29.884 5.90731 30.46 5.90731 31.18C5.90731 31.912 5.42731 32.464 4.52731 32.464ZM4.57531 36.112H2.12731V33.352H4.57531C5.55931 33.352 6.06331 34 6.06331 34.732C6.06331 35.584 5.51131 36.112 4.57531 36.112ZM13.1662 37V33.016C13.1662 31.612 12.1462 31.06 10.9222 31.06C9.97419 31.06 9.23019 31.372 8.60619 32.02L9.02619 32.644C9.54219 32.092 10.1062 31.84 10.8022 31.84C11.6422 31.84 12.2662 32.284 12.2662 33.064V34.108C11.7982 33.568 11.1382 33.316 10.3462 33.316C9.36219 33.316 8.31819 33.928 8.31819 35.224C8.31819 36.484 9.36219 37.144 10.3462 37.144C11.1262 37.144 11.7862 36.868 12.2662 36.34V37H13.1662ZM10.6702 36.496C9.83019 36.496 9.24219 35.968 9.24219 35.236C9.24219 34.492 9.83019 33.964 10.6702 33.964C11.3062 33.964 11.9182 34.204 12.2662 34.684V35.776C11.9182 36.256 11.3062 36.496 10.6702 36.496ZM16.8063 37.144C18.3063 37.144 19.0863 36.364 19.0863 35.392C19.0863 33.136 15.4983 33.976 15.4983 32.704C15.4983 32.188 15.9903 31.792 16.7823 31.792C17.5263 31.792 18.1623 32.104 18.5103 32.524L18.9303 31.9C18.4623 31.432 17.7663 31.06 16.7823 31.06C15.4023 31.06 14.6223 31.828 14.6223 32.728C14.6223 34.876 18.2103 34.012 18.2103 35.416C18.2103 35.992 17.7303 36.412 16.8423 36.412C16.0503 36.412 15.3183 36.028 14.9343 35.584L14.4663 36.232C15.0543 36.856 15.8583 37.144 16.8063 37.144ZM20.9924 30.376C21.3284 30.376 21.6044 30.112 21.6044 29.776C21.6044 29.44 21.3284 29.164 20.9924 29.164C20.6684 29.164 20.3924 29.44 20.3924 29.776C20.3924 30.112 20.6684 30.376 20.9924 30.376ZM21.4484 37V31.204H20.5484V37H21.4484ZM25.7998 37.144C26.8558 37.144 27.4798 36.712 27.9238 36.136L27.3238 35.584C26.9398 36.1 26.4478 36.34 25.8478 36.34C24.6118 36.34 23.8438 35.38 23.8438 34.096C23.8438 32.812 24.6118 31.864 25.8478 31.864C26.4478 31.864 26.9398 32.092 27.3238 32.62L27.9238 32.068C27.4798 31.492 26.8558 31.06 25.7998 31.06C24.0718 31.06 22.9078 32.38 22.9078 34.096C22.9078 35.824 24.0718 37.144 25.7998 37.144ZM33.3109 37V28.996H32.3149V37H33.3109ZM39.962 37V32.932C39.962 31.672 39.326 31.06 38.114 31.06C37.25 31.06 36.458 31.564 36.05 32.044V31.204H35.15V37H36.05V32.764C36.386 32.296 37.058 31.864 37.766 31.864C38.546 31.864 39.062 32.188 39.062 33.208V37H39.962ZM42.9114 37V31.996H44.0874V31.204H42.9114V30.76C42.9114 30.028 43.2354 29.62 43.8234 29.62C44.1234 29.62 44.3514 29.74 44.5434 29.908L44.9154 29.32C44.5554 28.984 44.1474 28.876 43.6914 28.876C42.6594 28.876 42.0114 29.572 42.0114 30.76V31.204H41.0514V31.996H42.0114V37H42.9114ZM47.6898 37.144C49.4538 37.144 50.5578 35.776 50.5578 34.096C50.5578 32.416 49.4538 31.06 47.6898 31.06C45.9258 31.06 44.8218 32.416 44.8218 34.096C44.8218 35.776 45.9258 37.144 47.6898 37.144ZM47.6898 36.34C46.4538 36.34 45.7578 35.284 45.7578 34.096C45.7578 32.92 46.4538 31.864 47.6898 31.864C48.9258 31.864 49.6098 32.92 49.6098 34.096C49.6098 35.284 48.9258 36.34 47.6898 36.34ZM52.925 37V32.896C53.189 32.428 53.945 31.972 54.497 31.972C54.641 31.972 54.749 31.984 54.857 32.008V31.084C54.065 31.084 53.393 31.528 52.925 32.14V31.204H52.025V37H52.925ZM63.8819 37V32.812C63.8819 31.648 63.3179 31.06 62.2619 31.06C61.4219 31.06 60.6419 31.612 60.3179 32.14C60.1499 31.54 59.6459 31.06 58.7579 31.06C57.9059 31.06 57.1259 31.672 56.8859 32.044V31.204H55.9859V37H56.8859V32.764C57.1979 32.296 57.8219 31.864 58.4099 31.864C59.1659 31.864 59.4779 32.332 59.4779 33.064V37H60.3779V32.752C60.6779 32.296 61.3139 31.864 61.9139 31.864C62.6579 31.864 62.9819 32.332 62.9819 33.064V37H63.8819ZM70.2013 37V33.016C70.2013 31.612 69.1813 31.06 67.9573 31.06C67.0093 31.06 66.2653 31.372 65.6413 32.02L66.0613 32.644C66.5773 32.092 67.1413 31.84 67.8373 31.84C68.6773 31.84 69.3013 32.284 69.3013 33.064V34.108C68.8333 33.568 68.1733 33.316 67.3813 33.316C66.3973 33.316 65.3533 33.928 65.3533 35.224C65.3533 36.484 66.3973 37.144 67.3813 37.144C68.1613 37.144 68.8213 36.868 69.3013 36.34V37H70.2013ZM67.7053 36.496C66.8653 36.496 66.2773 35.968 66.2773 35.236C66.2773 34.492 66.8653 33.964 67.7053 33.964C68.3413 33.964 68.9533 34.204 69.3013 34.684V35.776C68.9533 36.256 68.3413 36.496 67.7053 36.496ZM73.4695 37.144C73.9975 37.144 74.3215 36.988 74.5495 36.772L74.2855 36.1C74.1655 36.232 73.9255 36.34 73.6735 36.34C73.2775 36.34 73.0855 36.028 73.0855 35.596V31.996H74.2615V31.204H73.0855V29.62H72.1855V31.204H71.2255V31.996H72.1855V35.788C72.1855 36.652 72.6175 37.144 73.4695 37.144ZM75.9768 30.376C76.3128 30.376 76.5888 30.112 76.5888 29.776C76.5888 29.44 76.3128 29.164 75.9768 29.164C75.6528 29.164 75.3768 29.44 75.3768 29.776C75.3768 30.112 75.6528 30.376 75.9768 30.376ZM76.4328 37V31.204H75.5328V37H76.4328ZM80.7601 37.144C82.5241 37.144 83.6281 35.776 83.6281 34.096C83.6281 32.416 82.5241 31.06 80.7601 31.06C78.9961 31.06 77.8921 32.416 77.8921 34.096C77.8921 35.776 78.9961 37.144 80.7601 37.144ZM80.7601 36.34C79.5241 36.34 78.8281 35.284 78.8281 34.096C78.8281 32.92 79.5241 31.864 80.7601 31.864C81.9961 31.864 82.6801 32.92 82.6801 34.096C82.6801 35.284 81.9961 36.34 80.7601 36.34ZM89.9073 37V32.932C89.9073 31.672 89.2713 31.06 88.0593 31.06C87.1953 31.06 86.4033 31.564 85.9953 32.044V31.204H85.0953V37H85.9953V32.764C86.3313 32.296 87.0033 31.864 87.7113 31.864C88.4913 31.864 89.0073 32.188 89.0073 33.208V37H89.9073Z" fill="#148481"/>
<path d="M207.387 37V29.884H209.931V28.996H203.859V29.884H206.391V37H207.387ZM211.099 37V32.896C211.363 32.428 212.119 31.972 212.671 31.972C212.815 31.972 212.923 31.984 213.031 32.008V31.084C212.239 31.084 211.567 31.528 211.099 32.14V31.204H210.199V37H211.099ZM218.684 37V33.016C218.684 31.612 217.664 31.06 216.44 31.06C215.492 31.06 214.748 31.372 214.124 32.02L214.544 32.644C215.06 32.092 215.624 31.84 216.32 31.84C217.16 31.84 217.784 32.284 217.784 33.064V34.108C217.316 33.568 216.656 33.316 215.864 33.316C214.88 33.316 213.836 33.928 213.836 35.224C213.836 36.484 214.88 37.144 215.864 37.144C216.644 37.144 217.304 36.868 217.784 36.34V37H218.684ZM216.188 36.496C215.348 36.496 214.76 35.968 214.76 35.236C214.76 34.492 215.348 33.964 216.188 33.964C216.824 33.964 217.436 34.204 217.784 34.684V35.776C217.436 36.256 216.824 36.496 216.188 36.496ZM225.3 37V32.932C225.3 31.672 224.664 31.06 223.452 31.06C222.588 31.06 221.796 31.564 221.388 32.044V31.204H220.488V37H221.388V32.764C221.724 32.296 222.396 31.864 223.104 31.864C223.884 31.864 224.4 32.188 224.4 33.208V37H225.3ZM228.933 37.144C230.433 37.144 231.213 36.364 231.213 35.392C231.213 33.136 227.625 33.976 227.625 32.704C227.625 32.188 228.117 31.792 228.909 31.792C229.653 31.792 230.289 32.104 230.637 32.524L231.057 31.9C230.589 31.432 229.893 31.06 228.909 31.06C227.529 31.06 226.749 31.828 226.749 32.728C226.749 34.876 230.337 34.012 230.337 35.416C230.337 35.992 229.857 36.412 228.969 36.412C228.177 36.412 227.445 36.028 227.061 35.584L226.593 36.232C227.181 36.856 227.985 37.144 228.933 37.144ZM233.827 37V31.996H235.003V31.204H233.827V30.76C233.827 30.028 234.151 29.62 234.739 29.62C235.039 29.62 235.267 29.74 235.459 29.908L235.831 29.32C235.471 28.984 235.063 28.876 234.607 28.876C233.575 28.876 232.927 29.572 232.927 30.76V31.204H231.967V31.996H232.927V37H233.827ZM238.69 37.144C239.638 37.144 240.418 36.832 240.994 36.256L240.562 35.668C240.106 36.136 239.434 36.4 238.774 36.4C237.526 36.4 236.758 35.488 236.686 34.396H241.378V34.168C241.378 32.428 240.346 31.06 238.594 31.06C236.938 31.06 235.738 32.416 235.738 34.096C235.738 35.908 236.974 37.144 238.69 37.144ZM240.49 33.736H236.686C236.734 32.848 237.346 31.804 238.582 31.804C239.902 31.804 240.478 32.872 240.49 33.736ZM243.736 37V32.896C244 32.428 244.756 31.972 245.308 31.972C245.452 31.972 245.56 31.984 245.668 32.008V31.084C244.876 31.084 244.204 31.528 243.736 32.14V31.204H242.836V37H243.736ZM253.718 37.144C255.134 37.144 256.094 36.472 256.766 35.56L255.914 35.092C255.458 35.776 254.63 36.256 253.718 36.256C251.966 36.256 250.634 34.9 250.634 33.004C250.634 31.096 251.966 29.752 253.718 29.752C254.63 29.752 255.458 30.244 255.914 30.916L256.754 30.448C256.118 29.548 255.134 28.864 253.718 28.864C251.414 28.864 249.602 30.544 249.602 33.004C249.602 35.464 251.414 37.144 253.718 37.144ZM258.9 37V32.896C259.164 32.428 259.92 31.972 260.472 31.972C260.616 31.972 260.724 31.984 260.832 32.008V31.084C260.04 31.084 259.368 31.528 258.9 32.14V31.204H258V37H258.9ZM264.577 37.144C265.525 37.144 266.305 36.832 266.881 36.256L266.449 35.668C265.993 36.136 265.321 36.4 264.661 36.4C263.413 36.4 262.645 35.488 262.573 34.396H267.265V34.168C267.265 32.428 266.233 31.06 264.481 31.06C262.825 31.06 261.625 32.416 261.625 34.096C261.625 35.908 262.861 37.144 264.577 37.144ZM266.377 33.736H262.573C262.621 32.848 263.233 31.804 264.469 31.804C265.789 31.804 266.365 32.872 266.377 33.736ZM273.822 37V28.996H272.922V32.08C272.454 31.444 271.746 31.06 270.966 31.06C269.442 31.06 268.386 32.26 268.386 34.108C268.386 35.992 269.454 37.144 270.966 37.144C271.782 37.144 272.49 36.724 272.922 36.136V37H273.822ZM271.182 36.34C270.018 36.34 269.322 35.392 269.322 34.108C269.322 32.824 270.018 31.864 271.182 31.864C271.902 31.864 272.598 32.296 272.922 32.8V35.428C272.598 35.932 271.902 36.34 271.182 36.34ZM276.069 30.376C276.405 30.376 276.681 30.112 276.681 29.776C276.681 29.44 276.405 29.164 276.069 29.164C275.745 29.164 275.469 29.44 275.469 29.776C275.469 30.112 275.745 30.376 276.069 30.376ZM276.525 37V31.204H275.625V37H276.525ZM279.784 37.144C280.312 37.144 280.636 36.988 280.864 36.772L280.6 36.1C280.48 36.232 280.24 36.34 279.988 36.34C279.592 36.34 279.4 36.028 279.4 35.596V31.996H280.576V31.204H279.4V29.62H278.5V31.204H277.54V31.996H278.5V35.788C278.5 36.652 278.932 37.144 279.784 37.144ZM283.683 37.144C285.183 37.144 285.963 36.364 285.963 35.392C285.963 33.136 282.375 33.976 282.375 32.704C282.375 32.188 282.867 31.792 283.659 31.792C284.403 31.792 285.039 32.104 285.387 32.524L285.807 31.9C285.339 31.432 284.643 31.06 283.659 31.06C282.279 31.06 281.499 31.828 281.499 32.728C281.499 34.876 285.087 34.012 285.087 35.416C285.087 35.992 284.607 36.412 283.719 36.412C282.927 36.412 282.195 36.028 281.811 35.584L281.343 36.232C281.931 36.856 282.735 37.144 283.683 37.144Z" fill="#148481"/>
<path d="M433.29 36L431.322 32.856C432.294 32.7 433.23 31.92 433.23 30.504C433.23 29.016 432.186 27.996 430.602 27.996H427.086V36H428.49V33.012H429.894L431.658 36H433.29ZM430.422 31.776H428.49V29.232H430.422C431.214 29.232 431.79 29.724 431.79 30.492C431.79 31.272 431.214 31.776 430.422 31.776ZM436.922 36.144C437.834 36.144 438.686 35.844 439.274 35.292L438.698 34.464C438.278 34.884 437.618 35.112 437.042 35.112C435.95 35.112 435.302 34.38 435.206 33.516H439.67V33.204C439.67 31.38 438.566 30.06 436.826 30.06C435.11 30.06 433.886 31.416 433.886 33.096C433.886 34.932 435.17 36.144 436.922 36.144ZM438.458 32.616H435.194C435.242 31.92 435.746 31.092 436.814 31.092C437.954 31.092 438.422 31.932 438.458 32.616ZM443.794 36L446.158 30.204H444.814L443.122 34.548L441.43 30.204H440.074L442.438 36H443.794ZM447.585 29.496C448.017 29.496 448.365 29.148 448.365 28.716C448.365 28.284 448.017 27.936 447.585 27.936C447.153 27.936 446.805 28.284 446.805 28.716C446.805 29.148 447.153 29.496 447.585 29.496ZM448.209 36V30.204H446.949V36H448.209ZM452.531 36.144C453.443 36.144 454.295 35.844 454.883 35.292L454.307 34.464C453.887 34.884 453.227 35.112 452.651 35.112C451.559 35.112 450.911 34.38 450.815 33.516H455.279V33.204C455.279 31.38 454.175 30.06 452.435 30.06C450.719 30.06 449.495 31.416 449.495 33.096C449.495 34.932 450.779 36.144 452.531 36.144ZM454.067 32.616H450.803C450.851 31.92 451.355 31.092 452.423 31.092C453.563 31.092 454.031 31.932 454.067 32.616ZM462.907 36L464.707 30.204H463.387L462.163 34.416L460.795 30.204H459.679L458.299 34.416L457.075 30.204H455.767L457.567 36H458.887L460.231 31.752L461.587 36H462.907Z" fill="#148481"/>
<rect x="250.5" y="8" width="186" height="2" rx="1" fill="#148481"/>
<rect x="49.5" y="7" width="188" height="4" rx="2" fill="#148481"/>
<circle cx="444" cy="9" r="9" fill="#148481"/>
<circle cx="244" cy="9" r="9" fill="#148481"/>
<g filter="url(#filter0_d)">
<ellipse cx="444" cy="9" rx="3" ry="3" fill="white"/>
</g>
<circle cx="44" cy="9" r="9" fill="#148481"/>
<g filter="url(#filter1_d)">
<path d="M39 8.71594L39.8981 7.81787L42.5923 10.5121L48.1019 5L49 5.89807L42.5923 12.3082L39 8.71594Z" fill="white"/>
</g>
<g filter="url(#filter2_d)">
<path d="M239 8.71594L239.898 7.81787L242.592 10.5121L248.102 5L249 5.89807L242.592 12.3082L239 8.71594Z" fill="white"/>
</g>
<defs>
<filter id="filter0_d" x="438" y="5" width="12" height="12" filterUnits="userSpaceOnUse" color-interpolation-filters="sRGB">
<feFlood flood-opacity="0" result="BackgroundImageFix"/>
<feColorMatrix in="SourceAlpha" type="matrix" values="0 0 0 0 0 0 0 0 0 0 0 0 0 0 0 0 0 0 127 0"/>
<feOffset dy="2"/>
<feGaussianBlur stdDeviation="1.5"/>
<feColorMatrix type="matrix" values="0 0 0 0 0 0 0 0 0 0 0 0 0 0 0 0 0 0 0.3 0"/>
<feBlend mode="normal" in2="BackgroundImageFix" result="effect1_dropShadow"/>
<feBlend mode="normal" in="SourceGraphic" in2="effect1_dropShadow" result="shape"/>
</filter>
<filter id="filter1_d" x="36" y="4" width="16" height="13.3082" filterUnits="userSpaceOnUse" color-interpolation-filters="sRGB">
<feFlood flood-opacity="0" result="BackgroundImageFix"/>
<feColorMatrix in="SourceAlpha" type="matrix" values="0 0 0 0 0 0 0 0 0 0 0 0 0 0 0 0 0 0 127 0"/>
<feOffset dy="2"/>
<feGaussianBlur stdDeviation="1.5"/>
<feColorMatrix type="matrix" values="0 0 0 0 0 0 0 0 0 0 0 0 0 0 0 0 0 0 0.3 0"/>
<feBlend mode="normal" in2="BackgroundImageFix" result="effect1_dropShadow"/>
<feBlend mode="normal" in="SourceGraphic" in2="effect1_dropShadow" result="shape"/>
</filter>
<filter id="filter2_d" x="236" y="4" width="16" height="13.3082" filterUnits="userSpaceOnUse" color-interpolation-filters="sRGB">
<feFlood flood-opacity="0" result="BackgroundImageFix"/>
<feColorMatrix in="SourceAlpha" type="matrix" values="0 0 0 0 0 0 0 0 0 0 0 0 0 0 0 0 0 0 127 0"/>
<feOffset dy="2"/>
<feGaussianBlur stdDeviation="1.5"/>
<feColorMatrix type="matrix" values="0 0 0 0 0 0 0 0 0 0 0 0 0 0 0 0 0 0 0.3 0"/>
<feBlend mode="normal" in2="BackgroundImageFix" result="effect1_dropShadow"/>
<feBlend mode="normal" in="SourceGraphic" in2="effect1_dropShadow" result="shape"/>
</filter>
</defs>
</svg>
