<svg width="13" height="12" viewBox="0 0 13 12" fill="none" xmlns="http://www.w3.org/2000/svg">
<path d="M4.7126 4.18994C4.43543 4.18994 4.22348 4.40189 4.22348 4.67906V9.09741C4.22348 9.37457 4.43543 9.58652 4.7126 9.58652C4.97346 9.57022 5.18541 9.35827 5.20171 9.09741V4.67906C5.18541 4.4182 4.97346 4.20625 4.7126 4.18994Z" fill="#FFFFFF"/>
<path d="M7.38647 4.18994C7.12561 4.20625 6.91366 4.4182 6.89735 4.67906V9.09741C6.91366 9.35827 7.12561 9.57022 7.38647 9.58652C7.66364 9.58652 7.87559 9.37457 7.87559 9.09741V4.67906C7.87559 4.40189 7.66364 4.18994 7.38647 4.18994Z" fill="#FFFFFF"/>
<path d="M11.6092 1.77712H8.78867V1.30431C8.78867 0.586939 8.20173 0 7.48436 0H4.61488C3.89751 0 3.31057 0.586939 3.31057 1.30431V1.77712H0.489998C0.212832 1.77712 0.000881768 1.98907 0.000881768 2.26624C-0.0154221 2.5271 0.196528 2.73905 0.45739 2.75535C0.473694 2.75535 0.473694 2.75535 0.489998 2.75535H1.3541L1.87583 10.7769C1.90843 11.4616 2.47907 12.016 3.18014 11.9996H8.9191C9.62016 12.016 10.1908 11.4616 10.2234 10.7769L10.7451 2.75535H11.6092C11.8701 2.77166 12.082 2.55971 12.0984 2.29885C12.0984 2.28254 12.0984 2.28254 12.0984 2.26624C12.0984 1.98907 11.8864 1.77712 11.6092 1.77712ZM4.2888 1.30431C4.2888 1.12497 4.43553 0.978232 4.61488 0.978232H7.48436C7.6637 0.978232 7.81043 1.12497 7.81043 1.30431V1.77712H4.2888V1.30431ZM9.24518 10.7116C9.24518 10.8747 9.11474 11.0214 8.9354 11.0214H8.9191H3.18014C3.0171 11.0377 2.87036 10.9073 2.85406 10.7279V10.7116L2.34864 2.75535H9.75059L9.24518 10.7116Z" fill="#FFFFFF"/>
</svg>
