<svg width="10" height="10" viewBox="0 0 10 10" fill="none" xmlns="http://www.w3.org/2000/svg">
<path fill-rule="evenodd" clip-rule="evenodd" d="M9.81642 0.183582C9.87461 0.241628 9.92078 0.310585 9.95228 0.386502C9.98378 0.462418 10 0.543805 10 0.625998C10 0.708191 9.98378 0.789578 9.95228 0.865494C9.92078 0.941411 9.87461 1.01037 9.81642 1.06841L1.06809 9.81675C0.95075 9.93408 0.791608 10 0.62567 10C0.459732 10 0.30059 9.93408 0.183254 9.81675C0.0659185 9.69941 1.23634e-09 9.54027 0 9.37433C-1.23634e-09 9.20839 0.0659185 9.04925 0.183254 8.93191L8.93159 0.183582C8.98963 0.125389 9.05859 0.0792193 9.13451 0.0477172C9.21042 0.0162152 9.29181 0 9.374 0C9.4562 0 9.53758 0.0162152 9.6135 0.0477172C9.68942 0.0792193 9.75837 0.125389 9.81642 0.183582V0.183582Z" fill="#148481"/>
<path fill-rule="evenodd" clip-rule="evenodd" d="M0.183582 0.183582C0.241628 0.125389 0.310585 0.0792192 0.386502 0.0477172C0.462418 0.0162151 0.543805 -3.52049e-07 0.625998 -3.52049e-07C0.708191 -3.52049e-07 0.789578 0.0162151 0.865494 0.0477172C0.941411 0.0792192 1.01037 0.125389 1.06841 0.183582L9.81675 8.93191C9.93408 9.04925 10 9.20839 10 9.37433C10 9.54027 9.93408 9.69941 9.81675 9.81675C9.69941 9.93408 9.54027 10 9.37433 10C9.20839 10 9.04925 9.93408 8.93191 9.81675L0.183582 1.06841C0.125389 1.01037 0.0792193 0.94141 0.0477172 0.865493C0.0162152 0.789576 0 0.708191 0 0.625997C0 0.543804 0.0162152 0.462418 0.0477172 0.386501C0.0792193 0.310584 0.125389 0.241628 0.183582 0.183582V0.183582Z" fill="#148481"/>
</svg>
