<svg width="42" height="35" viewBox="0 0 42 35" fill="none" xmlns="http://www.w3.org/2000/svg">
<path style="fill:#15A6CF;" d="M7.32117 15.544H30.7015C31.772 15.544 32.6284 16.4005 32.6284 17.471C32.6284 18.5415 31.772 19.3979 30.7015 19.3979H7.32117L12.0743 24.1939C12.8451 24.9647 12.8451 26.1637 12.0743 26.9344C11.3035 27.7052 10.1045 27.7052 9.33376 26.9344L1.24057 18.8413C0.898006 18.4987 0.683903 17.9848 0.683903 17.471C0.683903 16.9571 0.898006 16.4861 1.24057 16.1007L9.37658 8.05036C9.76197 7.66497 10.233 7.49368 10.7469 7.49368C11.2607 7.49368 11.7317 7.66497 12.0743 8.05036C12.8451 8.82114 12.8451 10.0201 12.0743 10.7909L7.32117 15.544Z" fill="#C4C4C4"/>
<path style="fill:#15A6CF;" d="M39.4798 34.942H19.8249C18.7544 34.942 17.898 34.0856 17.898 33.015V25.5214C17.898 24.4508 18.7544 23.5944 19.8249 23.5944C20.8954 23.5944 21.7519 24.4508 21.7519 25.5214V31.0881H37.5528V3.8539H21.7519V9.42064C21.7519 10.4912 20.8954 11.3476 19.8249 11.3476C18.7544 11.3476 17.898 10.4912 17.898 9.42064V1.92695C17.898 0.856421 18.7544 0 19.8249 0H39.4798C40.5503 0 41.4067 0.856421 41.4067 1.92695V32.9722C41.4067 34.0427 40.5503 34.942 39.4798 34.942Z" fill="#C4C4C4"/>
</svg>
