<svg width="22" height="19" viewBox="0 0 22 19" fill="none" xmlns="http://www.w3.org/2000/svg">
<path d="M3.58564 8.39745H16.2166C16.7949 8.39745 17.2576 8.86012 17.2576 9.43846C17.2576 10.0168 16.7949 10.4795 16.2166 10.4795H3.58564L6.15347 13.0704C6.56987 13.4868 6.56987 14.1346 6.15347 14.551C5.73706 14.9674 5.08932 14.9674 4.67292 14.551L0.300678 10.1787C0.11561 9.99366 -5.72205e-05 9.71606 -5.72205e-05 9.43846C-5.72205e-05 9.16085 0.11561 8.90638 0.300678 8.69818L4.69605 4.34908C4.90425 4.14087 5.15872 4.04834 5.43633 4.04834C5.71393 4.04834 5.9684 4.14087 6.15347 4.34908C6.56987 4.76548 6.56987 5.41322 6.15347 5.82962L3.58564 8.39745Z" fill="#3C3C3C"/>
<path d="M20.959 18.877H10.3407C9.76235 18.877 9.29968 18.4143 9.29968 17.836V13.7876C9.29968 13.2093 9.76235 12.7466 10.3407 12.7466C10.919 12.7466 11.3817 13.2093 11.3817 13.7876V16.795H19.918V2.08202H11.3817V5.08938C11.3817 5.66772 10.919 6.13039 10.3407 6.13039C9.76235 6.13039 9.29968 5.66772 9.29968 5.08938V1.04101C9.29968 0.462671 9.76235 0 10.3407 0H20.959C21.5373 0 22 0.462671 22 1.04101V17.8128C22 18.3912 21.5373 18.877 20.959 18.877Z" fill="#3C3C3C"/>
</svg>
