<svg width="36" height="36" viewBox="0 0 36 36" fill="none" xmlns="http://www.w3.org/2000/svg">
<path fill-rule="evenodd" clip-rule="evenodd" d="M24.5455 13.0914C24.5455 14.8273 23.8559 16.4922 22.6284 17.7197C21.4009 18.9472 19.736 19.6368 18 19.6368C16.2641 19.6368 14.5992 18.9472 13.3717 17.7197C12.1442 16.4922 11.4546 14.8273 11.4546 13.0914C11.4546 11.3554 12.1442 9.69053 13.3717 8.46302C14.5992 7.23551 16.2641 6.5459 18 6.5459C19.736 6.5459 21.4009 7.23551 22.6284 8.46302C23.8559 9.69053 24.5455 11.3554 24.5455 13.0914V13.0914ZM21.2728 13.0914C21.2728 13.9593 20.928 14.7918 20.3142 15.4055C19.7005 16.0193 18.868 16.3641 18 16.3641C17.1321 16.3641 16.2996 16.0193 15.6859 15.4055C15.0721 14.7918 14.7273 13.9593 14.7273 13.0914C14.7273 12.2234 15.0721 11.3909 15.6859 10.7772C16.2996 10.1634 17.1321 9.81863 18 9.81863C18.868 9.81863 19.7005 10.1634 20.3142 10.7772C20.928 11.3909 21.2728 12.2234 21.2728 13.0914V13.0914Z" fill="#0D7ACB"/>
<path fill-rule="evenodd" clip-rule="evenodd" d="M18 0C8.05909 0 0 8.05909 0 18C0 27.9409 8.05909 36 18 36C27.9409 36 36 27.9409 36 18C36 8.05909 27.9409 0 18 0ZM3.27273 18C3.27273 21.42 4.43945 24.5684 6.39491 27.0687C7.7682 25.2653 9.53984 23.8038 11.5714 22.7983C13.603 21.7929 15.8396 21.2708 18.1064 21.2727C20.3438 21.2706 22.5522 21.7792 24.5633 22.7598C26.5745 23.7404 28.3352 25.1671 29.7115 26.9313C31.1293 25.0717 32.0839 22.9013 32.4964 20.5995C32.9088 18.2978 32.7673 15.9309 32.0834 13.6947C31.3995 11.4585 30.1929 9.41735 28.5635 7.74006C26.9341 6.06277 24.9288 4.79759 22.7134 4.0492C20.4979 3.3008 18.1361 3.09072 15.8234 3.43632C13.5107 3.78192 11.3135 4.67328 9.41362 6.03663C7.51377 7.39999 5.96587 9.19615 4.89801 11.2765C3.83015 13.3569 3.27302 15.6616 3.27273 18V18ZM18 32.7273C14.6192 32.7323 11.3404 31.5693 8.71855 29.4349C9.77389 27.9241 11.1786 26.6906 12.813 25.8393C14.4475 24.988 16.2635 24.5441 18.1064 24.5455C19.9263 24.544 21.7203 24.9768 23.3393 25.8078C24.9584 26.6388 26.3559 27.8441 27.4156 29.3236C24.7734 31.5273 21.4406 32.7321 18 32.7273V32.7273Z" fill="#0D7ACB"/>
</svg>
