<svg width="37" height="37" viewBox="0 0 37 37" fill="none" xmlns="http://www.w3.org/2000/svg">
<path d="M18.5399 21.0173C22.2251 21.0173 25.2126 18.0298 25.2126 14.3445C25.2126 10.6592 22.2251 7.67169 18.5399 7.67169C14.8546 7.67169 11.8671 10.6592 11.8671 14.3445C11.8671 18.0298 14.8546 21.0173 18.5399 21.0173Z" fill="#C4C4C4"/>
<path d="M18.5 0C8.31101 0 0 8.27106 0 18.5C0 28.7289 8.31101 37 18.5 37C28.689 37 37 28.689 37 18.5C37 8.31102 28.689 0 18.5 0ZM29.3682 30.1674C28.0097 26.5313 25.0529 22.6555 18.5 22.6555C11.987 22.6555 8.99028 26.5313 7.63175 30.1674C4.51512 27.2505 2.51728 23.095 2.51728 18.5C2.51728 9.7095 9.66955 2.51728 18.5 2.51728C27.3305 2.51728 34.4827 9.66955 34.4827 18.5C34.4827 23.095 32.4849 27.2505 29.3682 30.1674Z" fill="#C4C4C4"/>
</svg>
