<svg width="36" height="36" viewBox="0 0 36 36" fill="none" xmlns="http://www.w3.org/2000/svg">
<path fill-rule="evenodd" clip-rule="evenodd" d="M24.5454 13.0909C24.5454 14.8269 23.8558 16.4917 22.6283 17.7192C21.4008 18.9468 19.7359 19.6364 18 19.6364C16.264 19.6364 14.5992 18.9468 13.3716 17.7192C12.1441 16.4917 11.4545 14.8269 11.4545 13.0909C11.4545 11.3549 12.1441 9.69009 13.3716 8.46257C14.5992 7.23506 16.264 6.54546 18 6.54546C19.7359 6.54546 21.4008 7.23506 22.6283 8.46257C23.8558 9.69009 24.5454 11.3549 24.5454 13.0909V13.0909ZM21.2727 13.0909C21.2727 13.9589 20.9279 14.7913 20.3142 15.4051C19.7004 16.0188 18.868 16.3636 18 16.3636C17.132 16.3636 16.2996 16.0188 15.6858 15.4051C15.0721 14.7913 14.7273 13.9589 14.7273 13.0909C14.7273 12.2229 15.0721 11.3905 15.6858 10.7767C16.2996 10.163 17.132 9.81818 18 9.81818C18.868 9.81818 19.7004 10.163 20.3142 10.7767C20.9279 11.3905 21.2727 12.2229 21.2727 13.0909V13.0909Z" fill="#C4C4C4"/>
<path fill-rule="evenodd" clip-rule="evenodd" d="M18 0C8.05909 0 0 8.05909 0 18C0 27.9409 8.05909 36 18 36C27.9409 36 36 27.9409 36 18C36 8.05909 27.9409 0 18 0ZM3.27273 18C3.27273 21.42 4.43945 24.5684 6.39491 27.0687C7.7682 25.2653 9.53984 23.8038 11.5714 22.7983C13.603 21.7929 15.8396 21.2708 18.1064 21.2727C20.3438 21.2706 22.5522 21.7792 24.5633 22.7598C26.5745 23.7404 28.3352 25.1671 29.7115 26.9313C31.1293 25.0717 32.0839 22.9013 32.4964 20.5995C32.9088 18.2978 32.7673 15.9309 32.0834 13.6947C31.3995 11.4585 30.1929 9.41735 28.5635 7.74006C26.9341 6.06277 24.9288 4.79759 22.7134 4.0492C20.4979 3.3008 18.1361 3.09072 15.8234 3.43632C13.5107 3.78192 11.3135 4.67328 9.41362 6.03663C7.51377 7.39999 5.96587 9.19615 4.89801 11.2765C3.83015 13.3569 3.27302 15.6616 3.27273 18V18ZM18 32.7273C14.6192 32.7323 11.3404 31.5693 8.71855 29.4349C9.77389 27.9241 11.1786 26.6906 12.813 25.8393C14.4475 24.988 16.2635 24.5441 18.1064 24.5455C19.9263 24.544 21.7203 24.9768 23.3393 25.8078C24.9584 26.6388 26.3559 27.8441 27.4156 29.3236C24.7734 31.5273 21.4406 32.7321 18 32.7273V32.7273Z" fill="#C4C4C4"/>
</svg>
