<svg width="22" height="17" viewBox="0 0 22 17" fill="none" xmlns="http://www.w3.org/2000/svg">
<path d="M20.575 9.40055C20.7334 9.24893 20.9442 9.16511 21.1629 9.16677C21.3816 9.16844 21.5911 9.25546 21.7473 9.40947C21.9034 9.56348 21.9938 9.77244 21.9996 9.99225C22.0054 10.2121 21.926 10.4255 21.7782 10.5876L17.2915 16.2291C17.2144 16.3126 17.1213 16.3797 17.0177 16.4262C16.9142 16.4728 16.8025 16.4978 16.6891 16.4999C16.5757 16.502 16.4631 16.4812 16.3579 16.4385C16.2528 16.3958 16.1572 16.3323 16.0771 16.2517L13.1017 13.2603C13.0188 13.1826 12.9524 13.089 12.9063 12.985C12.8602 12.881 12.8354 12.7687 12.8334 12.6549C12.8314 12.541 12.8522 12.4279 12.8946 12.3224C12.937 12.2168 13.0002 12.1209 13.0803 12.0403C13.1604 11.9598 13.2557 11.8964 13.3608 11.8537C13.4658 11.8111 13.5783 11.7901 13.6915 11.7921C13.8047 11.7941 13.9164 11.8191 14.0199 11.8654C14.1233 11.9117 14.2164 11.9786 14.2936 12.0619L16.6483 14.4281L20.5537 9.42542C20.5607 9.41672 20.5682 9.40841 20.5762 9.40055H20.575Z" fill="#3C3C3C"/>
<path d="M12.7273 6.4H1.27273C0.572727 6.4 0 7.12 0 8C0 8.88 0.572727 9.6 1.27273 9.6H12.7273C13.4273 9.6 14 8.88 14 8C14 7.12 13.4273 6.4 12.7273 6.4ZM12.7273 0H1.27273C0.572727 0 0 0.72 0 1.6C0 2.48 0.572727 3.2 1.27273 3.2H12.7273C13.4273 3.2 14 2.48 14 1.6C14 0.72 13.4273 0 12.7273 0ZM1.27273 16H8.64333C9.34333 16 9.85433 15.28 9.85433 14.4C9.85433 13.52 9.34333 12.8 8.64333 12.8H1.27273C0.572727 12.8 0 13.52 0 14.4C0 15.28 0.572727 16 1.27273 16Z" fill="#3C3C3C"/>
</svg>
