<svg width="30" height="24" viewBox="0 0 30 24" fill="none" xmlns="http://www.w3.org/2000/svg">
<path d="M3 24C2.175 24 1.46875 23.7063 0.88125 23.1188C0.29375 22.5312 0 21.825 0 21V3C0 2.175 0.29375 1.46875 0.88125 0.88125C1.46875 0.29375 2.175 0 3 0H27C27.825 0 28.5313 0.29375 29.1188 0.88125C29.7063 1.46875 30 2.175 30 3V21C30 21.825 29.7063 22.5312 29.1188 23.1188C28.5313 23.7063 27.825 24 27 24H3ZM16.5 21H20.25V3H16.5V21ZM9.75 21H13.5V3H9.75V21ZM3 21H6.75V3H3V21ZM23.25 21H27V3H23.25V21Z" fill="#C4C4C4"/>
</svg>
