<svg width="25" height="21" viewBox="0 0 25 21" fill="none" xmlns="http://www.w3.org/2000/svg">
<path d="M2.83317 20.1668C2.16859 20.1668 1.59966 19.9302 1.1264 19.4569C0.653136 18.9837 0.416504 18.4147 0.416504 17.7502V3.25016C0.416504 2.58558 0.653136 2.01666 1.1264 1.54339C1.59966 1.07013 2.16859 0.833496 2.83317 0.833496H22.1665C22.8311 0.833496 23.4 1.07013 23.8733 1.54339C24.3465 2.01666 24.5832 2.58558 24.5832 3.25016V17.7502C24.5832 18.4147 24.3465 18.9837 23.8733 19.4569C23.4 19.9302 22.8311 20.1668 22.1665 20.1668H2.83317ZM13.7082 17.7502H16.729V3.25016H13.7082V17.7502ZM8.27067 17.7502H11.2915V3.25016H8.27067V17.7502ZM2.83317 17.7502H5.854V3.25016H2.83317V17.7502ZM19.1457 17.7502H22.1665V3.25016H19.1457V17.7502Z" fill="#3C3C3C"/>
</svg>
