<svg width="38" height="38" viewBox="0 0 38 38" fill="none" xmlns="http://www.w3.org/2000/svg">
<rect x="26" y="25" width="4" height="11" rx="2" transform="rotate(-180 26 25)" fill="#C4C4C4"/>
<rect x="16" y="25" width="4" height="11" rx="2" transform="rotate(-180 16 25)" fill="#C4C4C4"/>
<path d="M16.4286 20.75H21.5714H24.1429H34.1786V33.75H3.82143V20.75H13.8571H16.4286ZM33.1429 8.25H29.5357V4C29.5357 3.14943 29.2464 2.32739 28.7224 1.71598C28.1973 1.10338 27.4761 0.75 26.7143 0.75H11.2857C10.5239 0.75 9.80271 1.10338 9.27763 1.71598C8.75356 2.32739 8.46429 3.14943 8.46429 4V8.25H4.85714C3.75433 8.25 2.70612 8.76142 1.93992 9.65532C1.17474 10.548 0.75 11.7516 0.75 13V34C0.75 34.8506 1.03928 35.6726 1.56334 36.284C2.08842 36.8966 2.80961 37.25 3.57143 37.25H34.4286C35.1904 37.25 35.9116 36.8966 36.4367 36.284C36.9607 35.6726 37.25 34.8506 37.25 34V13C37.25 11.7516 36.8253 10.548 36.0601 9.65532C35.2939 8.76142 34.2457 8.25 33.1429 8.25ZM11.5357 4.25H26.4643V8.25H11.5357V4.25ZM3.82143 17.25V13C3.82143 12.6571 3.93853 12.3345 4.13782 12.102C4.33609 11.8707 4.59598 11.75 4.85714 11.75H33.1429C33.404 11.75 33.6639 11.8707 33.8622 12.102C34.0615 12.3345 34.1786 12.6571 34.1786 13V17.25H3.82143Z" fill="#C4C4C4" stroke="#C4C4C4" stroke-width="0.5"/>
</svg>
