<svg width="24" height="24" viewBox="0 0 24 24" fill="none" xmlns="http://www.w3.org/2000/svg">
<rect x="16.2778" y="15.6667" width="2.44444" height="6.72222" rx="1.22222" transform="rotate(-180 16.2778 15.6667)" fill="#3C3C3C"/>
<path d="M20.6429 5.43056H18.4385V2.83333C18.4385 2.31354 18.2617 1.81118 17.9415 1.43754C17.6206 1.06318 17.1798 0.847222 16.7143 0.847222H7.28571C6.82016 0.847222 6.37943 1.06318 6.05855 1.43754C5.73829 1.81118 5.56151 2.31354 5.56151 2.83333V5.43056H3.35714C2.6832 5.43056 2.04263 5.74309 1.57439 6.28936C1.10678 6.83491 0.847222 7.57043 0.847222 8.33333V21.1667C0.847222 21.6865 1.024 22.1888 1.34426 22.5625C1.66515 22.9368 2.10587 23.1528 2.57143 23.1528H21.4286C21.8941 23.1528 22.3349 22.9368 22.6557 22.5625C22.976 22.1888 23.1528 21.6865 23.1528 21.1667V8.33333C23.1528 7.57043 22.8932 6.83491 22.4256 6.28936C21.9574 5.74309 21.3168 5.43056 20.6429 5.43056ZM7.43849 2.98611H16.5615V5.43056H7.43849V2.98611ZM21.2758 21.0139H2.72421V13.0694H8.85714H15.1429H21.2758V21.0139ZM2.72421 10.9306V8.33333C2.72421 8.12378 2.79577 7.92667 2.91756 7.78458C3.03872 7.64322 3.19755 7.56944 3.35714 7.56944H20.6429C20.8025 7.56944 20.9613 7.64322 21.0824 7.78458C21.2042 7.92667 21.2758 8.12378 21.2758 8.33333V10.9306H2.72421Z" fill="#3C3C3C" stroke="#3C3C3C" stroke-width="0.305556"/>
<rect x="10.1666" y="15.6667" width="2.44444" height="6.72222" rx="1.22222" transform="rotate(-180 10.1666 15.6667)" fill="#3C3C3C"/>
</svg>
