<svg width="183" height="50" viewBox="0 0 183 50" fill="none" xmlns="http://www.w3.org/2000/svg">
<path d="M17.1051 33.2838L49.9998 33.2838V46C49.9998 48.2091 48.209 50 45.9998 50H17.1051V33.2838Z" fill="#105351"/>
<path d="M34.2104 0H45.9999C48.2091 0 49.9999 1.79086 49.9999 4V31.8969H34.2104V0Z" fill="#1AA9A5"/>
<path d="M0 4C0 1.79086 1.79086 0 4 0H32.8947V13.8682H0V4Z" fill="#92C3E6"/>
<path d="M0 15.255H15.86V49.9256H4C1.79086 49.9256 0 48.1347 0 45.9256V15.255Z" fill="#508197"/>
<path d="M72.558 20.264C75.792 20.264 77.64 18.482 78.696 16.656L76.012 15.358C75.396 16.568 74.076 17.492 72.558 17.492C69.896 17.492 67.96 15.446 67.96 12.674C67.96 9.902 69.896 7.856 72.558 7.856C74.076 7.856 75.396 8.802 76.012 9.99L78.696 8.67C77.662 6.844 75.792 5.084 72.558 5.084C68.158 5.084 64.748 8.164 64.748 12.674C64.748 17.184 68.158 20.264 72.558 20.264ZM85.4175 20.264C88.9375 20.264 91.0495 17.712 91.0495 14.676C91.0495 11.662 88.9375 9.11 85.4175 9.11C81.9195 9.11 79.8075 11.662 79.8075 14.676C79.8075 17.712 81.9195 20.264 85.4175 20.264ZM85.4175 17.778C83.6795 17.778 82.7115 16.348 82.7115 14.676C82.7115 13.026 83.6795 11.596 85.4175 11.596C87.1555 11.596 88.1455 13.026 88.1455 14.676C88.1455 16.348 87.1555 17.778 85.4175 17.778ZM95.9163 20V12.982C96.3783 12.3 97.6103 11.772 98.5343 11.772C98.8423 11.772 99.1063 11.794 99.3043 11.838V9.11C97.9843 9.11 96.6643 9.88 95.9163 10.826V9.374H93.1223V20H95.9163ZM111.016 20V12.498C111.016 10.43 109.894 9.11 107.562 9.11C105.824 9.11 104.526 9.946 103.844 10.76V9.374H101.05V20H103.844V12.85C104.306 12.212 105.164 11.596 106.264 11.596C107.452 11.596 108.222 12.102 108.222 13.576V20H111.016ZM118.784 20.264C120.434 20.264 122.106 19.758 123.162 18.79L121.93 16.986C121.248 17.646 119.994 18.042 119.092 18.042C117.288 18.042 116.21 16.92 116.034 15.578H123.932V14.962C123.932 11.486 121.776 9.11 118.608 9.11C115.374 9.11 113.108 11.596 113.108 14.676C113.108 18.086 115.55 20.264 118.784 20.264ZM121.226 13.686H115.99C116.122 12.63 116.87 11.332 118.608 11.332C120.456 11.332 121.16 12.674 121.226 13.686ZM128.744 20V5.326H125.95V20H128.744ZM134.309 20V5.326H131.515V20H134.309ZM72.558 47.264C75.792 47.264 77.64 45.482 78.696 43.656L76.012 42.358C75.396 43.568 74.076 44.492 72.558 44.492C69.896 44.492 67.96 42.446 67.96 39.674C67.96 36.902 69.896 34.856 72.558 34.856C74.076 34.856 75.396 35.802 76.012 36.99L78.696 35.67C77.662 33.844 75.792 32.084 72.558 32.084C68.158 32.084 64.748 35.164 64.748 39.674C64.748 44.184 68.158 47.264 72.558 47.264ZM85.4175 47.264C88.9375 47.264 91.0495 44.712 91.0495 41.676C91.0495 38.662 88.9375 36.11 85.4175 36.11C81.9195 36.11 79.8075 38.662 79.8075 41.676C79.8075 44.712 81.9195 47.264 85.4175 47.264ZM85.4175 44.778C83.6795 44.778 82.7115 43.348 82.7115 41.676C82.7115 40.026 83.6795 38.596 85.4175 38.596C87.1555 38.596 88.1455 40.026 88.1455 41.676C88.1455 43.348 87.1555 44.778 85.4175 44.778ZM103.088 47V36.374H100.294V43.568C99.8103 44.184 98.9523 44.778 97.8743 44.778C96.6863 44.778 95.9163 44.294 95.9163 42.82V36.374H93.1223V43.92C93.1223 45.988 94.2223 47.264 96.5543 47.264C98.2923 47.264 99.5683 46.472 100.294 45.658V47H103.088ZM108.657 47V39.982C109.119 39.3 110.351 38.772 111.275 38.772C111.583 38.772 111.847 38.794 112.045 38.838V36.11C110.725 36.11 109.405 36.88 108.657 37.826V36.374H105.863V47H108.657ZM117.618 47.264C120.566 47.264 122.216 45.79 122.216 43.854C122.216 39.564 115.924 40.884 115.924 39.3C115.924 38.706 116.584 38.244 117.596 38.244C118.894 38.244 120.104 38.794 120.742 39.476L121.864 37.562C120.808 36.726 119.378 36.11 117.574 36.11C114.78 36.11 113.218 37.672 113.218 39.454C113.218 43.634 119.532 42.204 119.532 43.964C119.532 44.624 118.96 45.108 117.75 45.108C116.43 45.108 114.846 44.382 114.076 43.656L112.866 45.614C113.988 46.648 115.77 47.264 117.618 47.264ZM129.269 47.264C130.919 47.264 132.591 46.758 133.647 45.79L132.415 43.986C131.733 44.646 130.479 45.042 129.577 45.042C127.773 45.042 126.695 43.92 126.519 42.578H134.417V41.962C134.417 38.486 132.261 36.11 129.093 36.11C125.859 36.11 123.593 38.596 123.593 41.676C123.593 45.086 126.035 47.264 129.269 47.264ZM131.711 40.686H126.475C126.607 39.63 127.355 38.332 129.093 38.332C130.941 38.332 131.645 39.674 131.711 40.686ZM139.625 47V41.786H143.365C146.533 41.786 148.293 39.608 148.293 37.056C148.293 34.482 146.555 32.326 143.365 32.326H136.501V47H139.625ZM142.947 39.036H139.625V35.076H142.947C144.179 35.076 145.103 35.824 145.103 37.056C145.103 38.266 144.179 39.036 142.947 39.036ZM152.957 47V32.326H150.163V47H152.957ZM164.902 47V40.136C164.902 37.078 162.68 36.11 160.26 36.11C158.588 36.11 156.916 36.638 155.618 37.782L156.674 39.652C157.576 38.816 158.632 38.398 159.776 38.398C161.184 38.398 162.108 39.102 162.108 40.18V41.61C161.404 40.774 160.15 40.312 158.742 40.312C157.048 40.312 155.046 41.258 155.046 43.744C155.046 46.12 157.048 47.264 158.742 47.264C160.128 47.264 161.382 46.758 162.108 45.9V47H164.902ZM159.864 45.372C158.764 45.372 157.862 44.8 157.862 43.81C157.862 42.776 158.764 42.204 159.864 42.204C160.766 42.204 161.646 42.512 162.108 43.128V44.448C161.646 45.064 160.766 45.372 159.864 45.372ZM177.639 47V39.498C177.639 37.43 176.517 36.11 174.185 36.11C172.447 36.11 171.149 36.946 170.467 37.76V36.374H167.673V47H170.467V39.85C170.929 39.212 171.787 38.596 172.887 38.596C174.075 38.596 174.845 39.102 174.845 40.576V47H177.639Z" fill="black"/>
</svg>
