<svg width="42" height="54" viewBox="0 0 42 54" fill="none" xmlns="http://www.w3.org/2000/svg">
<path d="M14.3679 40.9614L41.9994 40.9614V46.2127C41.9994 50.5135 38.5129 54 34.2121 54H14.3679V40.9614Z" fill="#105351"/>
<path d="M28.7369 15.0001H34.2127C38.5135 15.0001 42 18.4866 42 22.7874V39.8796H28.7369V15.0001Z" fill="#148481"/>
<path d="M0 22.7873C0 18.4865 3.48648 15 7.78727 15H27.6315V25.8172H0V22.7873Z" fill="#92C3E6"/>
<path d="M0 26.8989H13.3223V53.9419H7.78727C3.48648 53.9419 0 50.4554 0 46.1546V26.8989Z" fill="#4D7D92"/>
<path d="M0.210304 25.5927C6.59115 25.7871 15.9207 16.6028 19.7879 11.9864L22.2049 15.631C19.7879 19.5185 11.0062 26.5646 4.56088 29.9661L5.28598 26.8075L0.210304 25.5927Z" fill="#FFC700"/>
<path d="M41.8861 24.7282C35.7168 24.9022 26.6966 16.6803 22.9577 12.5476L20.6208 15.8103C22.9577 19.2905 31.4482 25.5983 37.6798 28.6434L36.9787 25.8158L41.8861 24.7282Z" fill="#FFC700"/>
<path fill-rule="evenodd" clip-rule="evenodd" d="M21.9605 15.7617C20.2831 8.80085 14.4232 -3.8679 4.40306 1.14359C2.21494 2.75795 -1.44823 6.79998 1.40405 10.0533C4.25632 13.3066 16.2968 15.2144 21.9605 15.7617ZM15.5999 10.6698C15.5999 9.0602 12.6464 5.84104 10.2836 5.30451C7.99131 4.78401 6.44401 5.84104 6.73936 6.91409C6.93626 7.89773 9.22031 10.6698 15.5999 10.6698Z" fill="#FFC700"/>
<path fill-rule="evenodd" clip-rule="evenodd" d="M20.0301 14.962C22.6275 9.49634 30.4717 -1.00277 37.8096 4.55796C39.3208 6.19871 41.6155 10.044 38.7054 12.299C35.7953 14.5541 24.771 15.3333 20.0301 14.962ZM26.5278 11.7428C27.4139 8.43426 31.2534 5.30452 34.7976 7.71889C36.8651 9.32847 35.979 11.7428 26.5278 11.7428Z" fill="#FFC700"/>
</svg>
