<svg width="16" height="16" viewBox="0 0 16 16" fill="none" xmlns="http://www.w3.org/2000/svg">
<path d="M15.6438 6.64375L13.7719 6.18437C13.6688 5.85625 13.5375 5.5375 13.3781 5.22813L14.3344 3.63438C14.4469 3.44688 14.4187 3.2125 14.2688 3.0625L12.9375 1.73125C12.7875 1.58125 12.5531 1.55313 12.3656 1.66562L10.7719 2.62188C10.4625 2.4625 10.1438 2.33125 9.81563 2.22813L9.36563 0.35625C9.30938 0.15 9.12187 0 8.90625 0H7.03125C6.81563 0 6.62813 0.15 6.57188 0.35625L6.12187 2.22813C5.79375 2.33125 5.475 2.4625 5.16563 2.62188L3.57188 1.66562C3.38438 1.55313 3.15 1.58125 3 1.73125L1.66875 3.0625C1.51875 3.2125 1.49063 3.44688 1.60312 3.63438L2.55938 5.22813C2.4 5.5375 2.26875 5.85625 2.16563 6.18437L0.35625 6.64375C0.15 6.69063 0 6.87813 0 7.09375V8.96875C0 9.18437 0.15 9.37187 0.35625 9.41875L2.16563 9.87813C2.26875 10.2063 2.4 10.525 2.55938 10.8344L1.60312 12.4281C1.49063 12.6156 1.51875 12.85 1.66875 13L3 14.3313C3.15 14.4812 3.38438 14.5094 3.57188 14.3969L5.16563 13.4406C5.475 13.6 5.79375 13.7313 6.12187 13.8344L6.57188 15.6438C6.62813 15.85 6.81563 16 7.03125 16H8.90625C9.12187 16 9.30938 15.85 9.36563 15.6438L9.81563 13.8344C10.1438 13.7313 10.4625 13.6 10.7719 13.4406L12.3656 14.3969C12.5531 14.5094 12.7875 14.4812 12.9375 14.3313L14.2688 13C14.4187 12.85 14.4469 12.6156 14.3344 12.4281L13.3781 10.8344C13.5375 10.525 13.6688 10.2063 13.7719 9.87813L15.6438 9.41875C15.85 9.37187 16 9.18437 16 8.96875V7.09375C16 6.87813 15.85 6.69063 15.6438 6.64375ZM7.96875 10.375C6.675 10.375 5.625 9.325 5.625 8.03125C5.625 6.7375 6.675 5.6875 7.96875 5.6875C9.2625 5.6875 10.3125 6.7375 10.3125 8.03125C10.3125 9.325 9.2625 10.375 7.96875 10.375Z" fill="#7E7E7E80"/>
</svg>
